<svg width="59" height="56" viewBox="0 0 59 56" fill="none" xmlns="http://www.w3.org/2000/svg">
<g id="Group 36813">
<path id="Vector" d="M7.10463 53H51.8957C52.6232 52.9999 53.3382 52.811 53.9708 52.4519C54.6035 52.0927 55.1321 51.5756 55.5051 50.951C55.8781 50.3264 56.0827 49.6158 56.0989 48.8885C56.1151 48.1612 55.9423 47.4421 55.5974 46.8016L33.2032 5.21156C31.6145 2.26281 27.3858 2.26281 25.7971 5.21156L3.40292 46.8016C3.05805 47.4421 2.88526 48.1612 2.90143 48.8885C2.9176 49.6158 3.12218 50.3264 3.49518 50.951C3.86818 51.5756 4.39684 52.0927 5.02949 52.4519C5.66215 52.811 6.37715 52.9999 7.10463 53Z" stroke="#EB1A40" stroke-width="4.20499" stroke-linecap="round" stroke-linejoin="round"/>
<path id="Vector_2" d="M28.7456 20.0353L29.4999 36.0669L30.2529 20.0419C30.2575 19.9394 30.2412 19.8371 30.205 19.7412C30.1687 19.6453 30.1133 19.5577 30.0421 19.4839C29.9709 19.4101 29.8854 19.3516 29.7908 19.312C29.6962 19.2724 29.5946 19.2525 29.492 19.2535C29.3913 19.2544 29.2917 19.2756 29.1993 19.3157C29.1068 19.3558 29.0234 19.414 28.9538 19.4869C28.8842 19.5597 28.83 19.6458 28.7942 19.74C28.7585 19.8342 28.7419 19.9346 28.7456 20.0353Z" stroke="#EB1A40" stroke-width="4.20499" stroke-linecap="round" stroke-linejoin="round"/>
<path id="Vector_3" d="M29.5002 46.5609C28.9804 46.5609 28.4723 46.4068 28.0401 46.118C27.6079 45.8292 27.271 45.4188 27.0721 44.9385C26.8732 44.4583 26.8212 43.9299 26.9226 43.4201C27.024 42.9103 27.2743 42.442 27.6418 42.0744C28.0094 41.7069 28.4777 41.4566 28.9875 41.3552C29.4973 41.2538 30.0257 41.3058 30.5059 41.5047C30.9862 41.7037 31.3966 42.0405 31.6854 42.4727C31.9742 42.9049 32.1283 43.413 32.1283 43.9328C32.1283 44.6298 31.8514 45.2983 31.3586 45.7912C30.8657 46.284 30.1972 46.5609 29.5002 46.5609Z" fill="#EB1A40"/>
</g>
</svg>
