<svg width="28" height="28" viewBox="0 0 28 28" fill="none" xmlns="http://www.w3.org/2000/svg">
<g opacity="0.5">
<path d="M19.2636 6.84729V19.9726C19.2636 22.495 17.2206 24.538 14.6982 24.538C12.1759 24.538 10.1329 22.495 10.1329 19.9726V5.70596C10.1329 4.94921 10.4335 4.22345 10.9686 3.68835C11.5037 3.15324 12.2295 2.85262 12.9862 2.85262C13.743 2.85262 14.4687 3.15324 15.0038 3.68835C15.5389 4.22345 15.8396 4.94921 15.8396 5.70596V17.69C15.8396 18.3177 15.326 18.8313 14.6982 18.8313C14.0705 18.8313 13.5569 18.3177 13.5569 17.69V6.84729H11.8449V17.69C11.8449 18.4467 12.1455 19.1725 12.6806 19.7076C13.2157 20.2427 13.9415 20.5433 14.6982 20.5433C15.455 20.5433 16.1807 20.2427 16.7158 19.7076C17.2509 19.1725 17.5516 18.4467 17.5516 17.69V5.70596C17.5516 3.18361 15.5086 1.14062 12.9862 1.14062C10.4639 1.14062 8.4209 3.18361 8.4209 5.70596V19.9726C8.4209 23.4423 11.2286 26.25 14.6982 26.25C18.1679 26.25 20.9756 23.4423 20.9756 19.9726V6.84729H19.2636Z" fill="#1B1A57"/>
</g>
</svg>
