<svg xmlns="http://www.w3.org/2000/svg" width="28" height="28" viewBox="0 0 28 28" fill="none">
  <g opacity="0.5">
    <path d="M13.9573 2.28223C7.66397 2.28223 2.54395 7.40225 2.54395 13.6956C2.54395 19.9889 7.66397 25.1089 13.9573 25.1089C20.2506 25.1089 25.3706 19.9889 25.3706 13.6956C25.3706 7.40225 20.2506 2.28223 13.9573 2.28223ZM13.9573 22.8262C8.92286 22.8262 4.82661 18.73 4.82661 13.6956C4.82661 8.66114 8.92286 4.56489 13.9573 4.56489C18.9917 4.56489 23.0879 8.66114 23.0879 13.6956C23.0879 18.73 18.9917 22.8262 13.9573 22.8262Z" fill="#1B1A57"/>
    <path d="M17.1859 16.9237C16.7687 17.3395 16.276 17.6719 15.7342 17.903C14.7587 18.3148 13.6704 18.3749 12.6555 18.0731C11.6405 17.7712 10.762 17.1261 10.1702 16.248L8.27783 17.5252C8.77139 18.2535 9.3993 18.8811 10.1279 19.3742C10.8694 19.8756 11.7025 20.2258 12.5795 20.4048C13.4889 20.5903 14.4264 20.5903 15.3358 20.4048C16.2128 20.2255 17.0458 19.8753 17.7874 19.3742C18.1447 19.1322 18.4859 18.8514 18.7986 18.5398C19.1091 18.2305 19.3921 17.8881 19.6364 17.5252L17.744 16.248C17.58 16.4906 17.3931 16.7168 17.1859 16.9237Z" fill="#1B1A57"/>
    <path d="M17.9438 13.6795C18.8849 13.6795 19.6478 12.9166 19.6478 11.9755C19.6478 11.0344 18.8849 10.2715 17.9438 10.2715C17.0027 10.2715 16.2397 11.0344 16.2397 11.9755C16.2397 12.9166 17.0027 13.6795 17.9438 13.6795Z" fill="#1B1A57"/>
    <path d="M9.96249 13.6955C10.908 13.6955 11.6745 12.929 11.6745 11.9835C11.6745 11.038 10.908 10.2715 9.96249 10.2715C9.01698 10.2715 8.25049 11.038 8.25049 11.9835C8.25049 12.929 9.01698 13.6955 9.96249 13.6955Z" fill="#1B1A57"/>
  </g>
</svg>