<svg width="22" height="16" viewBox="0 0 22 16" fill="none" xmlns="http://www.w3.org/2000/svg">
<path id="Icon (Stroke)" fill-rule="evenodd" clip-rule="evenodd" d="M2.12398 7.96015C2.1892 7.79794 2.28261 7.58123 2.40758 7.32635C2.70157 6.72676 3.1642 5.92832 3.83568 5.13333C5.16675 3.55743 7.30631 2 10.6525 2C13.9987 2 16.1382 3.55743 17.4693 5.13333C18.1408 5.92832 18.6034 6.72676 18.8974 7.32635C19.0241 7.58473 19.1183 7.80389 19.1837 7.96681C19.1165 8.12605 19.0203 8.33931 18.892 8.59012C18.5917 9.17713 18.1216 9.95766 17.4456 10.7314C16.1056 12.265 13.9689 13.7668 10.6688 13.7129C7.34727 13.6585 5.19635 12.1447 3.85355 10.6349C3.17664 9.87388 2.70684 9.11398 2.40736 8.54568C2.28395 8.3115 2.19042 8.11167 2.12398 7.96015ZM20.2525 7.97613C21.2068 7.67728 21.2066 7.67681 21.2065 7.6763L21.2061 7.67516L21.2052 7.67238L21.2029 7.66492L21.1955 7.64248C21.1895 7.62424 21.1812 7.59947 21.1704 7.56862C21.1489 7.50694 21.1177 7.42083 21.0761 7.31377C20.9928 7.09984 20.8674 6.80114 20.6932 6.44586C20.3458 5.73744 19.7988 4.79184 18.9972 3.8428C17.3821 1.93063 14.7217 0 10.6525 0C6.58329 0 3.92285 1.93063 2.30776 3.8428C1.50616 4.79184 0.959177 5.73744 0.611824 6.44586C0.437627 6.80114 0.312138 7.09984 0.2289 7.31377C0.187245 7.42083 0.156062 7.50694 0.134562 7.56862C0.123809 7.59947 0.115467 7.62424 0.10944 7.64248L0.102119 7.66492L0.099735 7.67238L0.0988579 7.67516L0.0984975 7.6763C0.098339 7.67681 0.0981891 7.67728 1.05249 7.97613L0.0981891 7.67728L0 7.99083L0.106909 8.30151L1.05249 7.97613C0.106909 8.30151 0.107074 8.30199 0.107249 8.3025L0.107642 8.30364L0.108593 8.30637L0.11115 8.31366L0.118916 8.33538C0.125283 8.35297 0.13405 8.37676 0.145306 8.40632C0.167811 8.46542 0.200306 8.54773 0.243511 8.64996C0.32985 8.85426 0.459388 9.13914 0.638005 9.47809C0.994296 10.1542 1.55141 11.056 2.35913 11.9641C3.98556 13.7927 6.63463 15.6472 10.6361 15.7126C14.6592 15.7784 17.3225 13.9119 18.9517 12.0473C19.7603 11.1219 20.3171 10.1958 20.6726 9.50101C20.8508 9.15256 20.98 8.85922 21.066 8.64898C21.109 8.54376 21.1413 8.45908 21.1636 8.39838C21.1748 8.36802 21.1835 8.34364 21.1898 8.32565L21.1974 8.30352L21.1999 8.29615L21.2008 8.29341L21.2012 8.29227C21.2014 8.29177 21.2015 8.29129 20.2525 7.97613ZM20.2525 7.97613L21.2015 8.29129L21.3032 7.98514L21.2068 7.67728L20.2525 7.97613ZM10.6525 6.55095C9.85338 6.55095 9.25249 7.17437 9.25249 7.88631C9.25249 8.59824 9.85338 9.22167 10.6525 9.22167C11.4516 9.22167 12.0525 8.59824 12.0525 7.88631C12.0525 7.17437 11.4516 6.55095 10.6525 6.55095ZM19.2989 8.27722C19.299 8.2776 19.299 8.27767 19.2989 8.27722V8.27722ZM7.25249 7.88631C7.25249 6.01868 8.80064 4.55095 10.6525 4.55095C12.5043 4.55095 14.0525 6.01868 14.0525 7.88631C14.0525 9.75394 12.5043 11.2217 10.6525 11.2217C8.80064 11.2217 7.25249 9.75394 7.25249 7.88631Z" fill="black"/>
</svg>
