<svg width="86" height="86" viewBox="0 0 86 86" fill="none" xmlns="http://www.w3.org/2000/svg">
<g id="Group 36746">
<path id="Vector" d="M54.4271 85.1042H30.6771C9.18333 85.1042 0 75.9208 0 54.4271V30.6771C0 9.18333 9.18333 0 30.6771 0H50.4688C52.0917 0 53.4375 1.34583 53.4375 2.96875C53.4375 4.59167 52.0917 5.9375 50.4688 5.9375H30.6771C12.4292 5.9375 5.9375 12.4292 5.9375 30.6771V54.4271C5.9375 72.675 12.4292 79.1667 30.6771 79.1667H54.4271C72.675 79.1667 79.1667 72.675 79.1667 54.4271V34.6354C79.1667 33.0125 80.5125 31.6667 82.1354 31.6667C83.7583 31.6667 85.1042 33.0125 85.1042 34.6354V54.4271C85.1042 75.9208 75.9208 85.1042 54.4271 85.1042Z" fill="#CBD0DC"/>
<path id="Vector_2" d="M82.1354 37.6052H66.3021C52.7646 37.6052 47.5 32.3406 47.5 18.8031V2.96974C47.5 1.78224 48.2125 0.673909 49.3208 0.238493C50.4292 -0.236507 51.6958 0.0405765 52.5667 0.871826L84.2333 32.5385C85.0646 33.3697 85.3417 34.676 84.8667 35.7843C84.3917 36.8927 83.3229 37.6052 82.1354 37.6052ZM53.4375 10.1343V18.8031C53.4375 29.0156 56.0896 31.6677 66.3021 31.6677H74.9708L53.4375 10.1343Z" fill="#CBD0DC"/>
<path id="Vector_3" d="M46.5078 49.4805H22.7578C21.1349 49.4805 19.7891 48.1346 19.7891 46.5117C19.7891 44.8888 21.1349 43.543 22.7578 43.543H46.5078C48.1307 43.543 49.4766 44.8888 49.4766 46.5117C49.4766 48.1346 48.1307 49.4805 46.5078 49.4805Z" fill="#CBD0DC"/>
<path id="Vector_4" d="M38.5911 65.3125H22.7578C21.1349 65.3125 19.7891 63.9667 19.7891 62.3437C19.7891 60.7208 21.1349 59.375 22.7578 59.375H38.5911C40.2141 59.375 41.5599 60.7208 41.5599 62.3437C41.5599 63.9667 40.2141 65.3125 38.5911 65.3125Z" fill="#CBD0DC"/>
</g>
</svg>
