<svg xmlns="http://www.w3.org/2000/svg" width="15" height="15" viewBox="0 0 15 15" fill="none">
  <g clip-path="url(#clip0_1039_17345)">
    <path d="M5.10779 8.09749L4.62296 7.52526L4.62295 7.52527L5.10779 8.09749ZM5.14355 8.06324L4.60917 7.53699L4.6086 7.53758L5.14355 8.06324ZM3.63926 9.34177L3.15443 8.76956L3.15442 8.76956L3.63926 9.34177ZM3.55882 9.42647L4.17443 9.85487L4.17443 9.85487L3.55882 9.42647ZM11.3543 8.14947L11.8737 7.60843L11.3543 8.14947ZM10.101 6.94625L9.58156 7.48729L9.58157 7.4873L10.101 6.94625ZM9.63552 6.94298L9.12378 6.39469L9.12188 6.39647L9.63552 6.94298ZM7.31398 9.12488L7.82573 9.67318L7.82762 9.67139L7.31398 9.12488ZM6.84138 9.11456L6.30441 9.63817L6.30548 9.63926L6.84138 9.11456ZM6.83528 9.1083L6.2978 9.63138L6.29831 9.63191L6.83528 9.1083ZM6.80211 9.0761L7.29316 8.5092L7.29315 8.50919L6.80211 9.0761ZM5.67116 8.09652L6.1622 7.52961L6.1622 7.52961L5.67116 8.09652ZM5.63785 8.06416L6.17552 7.54127L6.17501 7.54075L5.63785 8.06416ZM5.63189 8.05804L6.16906 7.53463L6.16804 7.53359L5.63189 8.05804ZM5.14997 8.05672L4.61668 7.52937L4.6156 7.53047L5.14997 8.05672ZM10.4247 3.84362V3.09362C10.0105 3.09362 9.67468 3.4294 9.67468 3.84362H10.4247ZM10.657 3.84362H11.407C11.407 3.4294 11.0713 3.09362 10.657 3.09362V3.84362ZM10.657 4.04039V4.79039C11.0713 4.79039 11.407 4.45461 11.407 4.04039H10.657ZM10.4247 4.04039H9.67468C9.67468 4.45461 10.0105 4.79039 10.4247 4.79039V4.04039ZM0.25 3.4375V11.5625H1.75V3.4375H0.25ZM3.4375 14.75H11.5625V13.25H3.4375V14.75ZM14.75 11.5625V3.4375H13.25V11.5625H14.75ZM11.5625 0.25H3.4375V1.75H11.5625V0.25ZM14.75 3.4375C14.75 1.67709 13.3229 0.25 11.5625 0.25V1.75C12.4945 1.75 13.25 2.50552 13.25 3.4375H14.75ZM11.5625 14.75C13.3229 14.75 14.75 13.3229 14.75 11.5625H13.25C13.25 12.4945 12.4945 13.25 11.5625 13.25V14.75ZM0.25 11.5625C0.25 13.3229 1.67709 14.75 3.4375 14.75V13.25C2.50552 13.25 1.75 12.4945 1.75 11.5625H0.25ZM1.75 3.4375C1.75 2.50552 2.50552 1.75 3.4375 1.75V0.25C1.67709 0.25 0.25 1.67709 0.25 3.4375H1.75ZM5.59262 8.66971C5.63569 8.63322 5.67096 8.59659 5.6785 8.58891L4.6086 7.53758C4.60546 7.54077 4.60406 7.54219 4.60291 7.54335C4.60192 7.54435 4.60218 7.54407 4.60322 7.54306C4.60512 7.54121 4.6122 7.53439 4.62296 7.52526L5.59262 8.66971ZM4.1241 9.91399L5.59263 8.6697L4.62295 7.52527L3.15443 8.76956L4.1241 9.91399ZM4.17443 9.85487C4.15796 9.87854 4.14319 9.89488 4.13445 9.90389C4.12595 9.91265 4.12117 9.91647 4.12411 9.91398L3.15442 8.76956C3.10306 8.81308 3.0191 8.88902 2.94321 8.99807L4.17443 9.85487ZM4.1875 9.81322C4.1875 9.82817 4.18291 9.84269 4.17443 9.85487L2.94321 8.99807C2.7773 9.23649 2.6875 9.52079 2.6875 9.81322H4.1875ZM4.1875 11.224V9.81322H2.6875V11.224H4.1875ZM3.77604 10.8125C4.00328 10.8125 4.1875 10.9967 4.1875 11.224H2.6875C2.6875 11.8251 3.17486 12.3125 3.77604 12.3125V10.8125ZM11.224 10.8125H3.77604V12.3125H11.224V10.8125ZM10.8125 11.224C10.8125 10.9967 10.9967 10.8125 11.224 10.8125V12.3125C11.8251 12.3125 12.3125 11.8251 12.3125 11.224H10.8125ZM10.8125 8.63791V11.224H12.3125V8.63791H10.8125ZM10.8349 8.69051C10.8206 8.67676 10.8125 8.65777 10.8125 8.63791H12.3125C12.3125 8.24933 12.154 7.87754 11.8737 7.60843L10.8349 8.69051ZM9.58157 7.4873L10.8349 8.69051L11.8737 7.60843L10.6204 6.40521L9.58157 7.4873ZM10.1473 7.49127C9.98754 7.64034 9.73917 7.63859 9.58156 7.48729L10.6204 6.40522C10.2034 6.00494 9.54632 6.00032 9.12378 6.39469L10.1473 7.49127ZM7.82762 9.67139L10.1492 7.48949L9.12188 6.39647L6.80034 8.57837L7.82762 9.67139ZM6.30548 9.63926C6.7152 10.0577 7.39013 10.0797 7.82572 9.67317L6.80225 8.57659C6.96709 8.42274 7.22202 8.43128 7.37728 8.58986L6.30548 9.63926ZM6.29831 9.63191L6.30441 9.63817L7.37835 8.59095L7.37225 8.5847L6.29831 9.63191ZM6.31107 9.643C6.30109 9.63436 6.29453 9.62794 6.29278 9.62621C6.29182 9.62527 6.29158 9.62502 6.2925 9.62595C6.29358 9.62705 6.29488 9.62838 6.2978 9.63138L7.37277 8.58523C7.3658 8.57806 7.33299 8.54371 7.29316 8.5092L6.31107 9.643ZM5.18013 8.66342L6.31108 9.64301L7.29315 8.50919L6.1622 7.52961L5.18013 8.66342ZM5.10019 8.58705C5.10722 8.59428 5.14012 8.62877 5.18013 8.66342L6.1622 7.52961C6.1722 7.53827 6.17878 7.54471 6.18055 7.54645C6.18152 7.5474 6.18176 7.54766 6.18083 7.54672C6.17976 7.54562 6.17845 7.54428 6.17552 7.54127L5.10019 8.58705ZM5.09473 8.58145L5.10069 8.58757L6.17501 7.54075L6.16905 7.53463L5.09473 8.58145ZM5.68327 8.58407C5.52111 8.74805 5.25723 8.74757 5.09575 8.58249L6.16804 7.53359C5.74302 7.0991 5.0435 7.09774 4.61668 7.52937L5.68327 8.58407ZM5.67792 8.5895L5.68435 8.58298L4.6156 7.53047L4.60918 7.53699L5.67792 8.5895ZM10.4247 4.59362H10.657V3.09362H10.4247V4.59362ZM9.90705 3.84362V4.04039H11.407V3.84362H9.90705ZM10.657 3.29039H10.4247V4.79039H10.657V3.29039ZM11.1747 4.04039V3.84362H9.67468V4.04039H11.1747Z" fill="#005DE9"/>
  </g>
  <defs>
    <clipPath id="clip0_1039_17345">
      <rect width="15" height="15" fill="white"/>
    </clipPath>
  </defs>
</svg>