<svg xmlns="http://www.w3.org/2000/svg" width="22" height="21" viewBox="0 0 22 21" fill="none">
  <path opacity="0.8" d="M8.15664 3.23058L9.28003 1.53547C9.46526 1.25596 9.77827 1.08789 10.1136 1.08789H11.6184C11.9525 1.08789 12.2646 1.25476 12.4501 1.53265L13.5614 3.1972M8.15664 3.23058C7.84282 3.70068 7.32119 3.93104 6.76752 3.88997M8.15664 3.23058C7.8413 3.69956 7.32119 3.93295 6.76752 3.88997M6.76752 3.88997L4.79826 3.76016C4.46798 3.73839 4.14833 3.88145 3.94453 4.14226L2.95249 5.41176C2.75088 5.66976 2.68835 6.01012 2.78509 6.32293L3.3769 8.23668M3.3769 8.23668C3.45735 8.5106 3.46765 8.80405 3.41007 9.0812M3.3769 8.23668C3.4585 8.51011 3.46841 8.80297 3.40969 9.08403M3.41007 9.0812C3.35173 9.35506 3.22666 9.61366 3.04096 9.82306M3.41007 9.0812L3.40969 9.08403M3.04096 9.82306L1.70669 11.3299C1.49256 11.5717 1.40842 11.902 1.48076 12.2168L1.83816 13.7719C1.91263 14.0959 2.14329 14.3618 2.4536 14.4812L4.25925 15.1761C4.51702 15.2808 4.73971 15.4511 4.90825 15.6655M3.04096 9.82306C3.2278 9.61537 3.35173 9.35761 3.40969 9.08403M4.90825 15.6655C5.07564 15.8806 5.18965 16.1402 5.23389 16.4212M4.90825 15.6655C5.07717 15.8806 5.19156 16.1395 5.23389 16.4212M4.90825 15.6655L4.90558 15.6624C4.89452 15.6484 4.8827 15.6337 4.87126 15.62M5.23389 16.4212L5.5454 18.4304C5.59557 18.754 5.80102 19.0326 6.09539 19.1761L7.47045 19.8464C7.77161 19.9932 8.12628 19.9795 8.41517 19.8098L10.0876 18.8273M10.0876 18.8273C10.3274 18.6858 10.5951 18.6149 10.8628 18.6146M10.0876 18.8273C10.1825 18.7706 10.2821 18.7253 10.3843 18.6913C10.5395 18.6397 10.7011 18.6142 10.8628 18.6146M10.8628 18.6146C11.002 18.6149 11.1412 18.6342 11.2769 18.6724C11.4031 18.7079 11.5259 18.7596 11.6422 18.8273M10.8628 18.6146C11.1316 18.6142 11.4008 18.6851 11.6422 18.8273M11.6422 18.8273L13.3953 19.8238C13.6856 19.9888 14.0392 19.998 14.3377 19.8483L15.7072 19.1615C16.0002 19.0146 16.2025 18.7335 16.2489 18.4091L16.528 16.457M16.528 16.457C16.5703 16.1743 16.6828 15.9128 16.8498 15.6959M16.528 16.457C16.5688 16.1737 16.682 15.9126 16.8498 15.6959M16.8498 15.6959C17.0157 15.4811 17.2357 15.31 17.4919 15.2043M16.8498 15.6959C17.0153 15.4803 17.2345 15.3087 17.4919 15.2043M17.4919 15.2043L19.3187 14.4525C19.6225 14.3275 19.8455 14.0613 19.9153 13.7403L20.2581 12.1646C20.3256 11.8542 20.2416 11.5301 20.0318 11.2916L18.6892 9.76516M18.6892 9.76516C18.5001 9.55502 18.3682 9.30401 18.3041 9.03724M18.6892 9.76516C18.6004 9.66702 18.5241 9.55972 18.462 9.44596C18.391 9.31679 18.338 9.17929 18.3041 9.03724M18.3041 9.03724C18.2412 8.77238 18.245 8.4917 18.3247 8.22004L18.9083 6.25601C19.0005 5.94556 18.9367 5.60966 18.737 5.35467L17.7709 4.12092C17.5647 3.85754 17.2404 3.71472 16.9069 3.74038L14.9619 3.88997M14.9619 3.88997C14.6866 3.91038 14.4159 3.85531 14.1749 3.73686M14.9619 3.88997C14.6862 3.91156 14.4159 3.85605 14.1749 3.73686M14.1749 3.73686C13.9324 3.61688 13.7196 3.4324 13.5614 3.1972M14.1749 3.73686C13.932 3.61732 13.7188 3.43333 13.5614 3.1972M3.40969 9.08403L3.41045 9.07987M13.9289 10.598C13.9289 12.3697 12.5303 13.8059 10.8052 13.8059C9.08018 13.8059 7.68153 12.3697 7.68153 10.598C7.68153 8.82627 9.08018 7.39006 10.8052 7.39006C12.5303 7.39006 13.9289 8.82627 13.9289 10.598Z" stroke="black" stroke-width="2"/>
</svg>