<svg xmlns="http://www.w3.org/2000/svg" width="50" height="20" viewBox="0 0 20 20" fill="none">
  <path d="M5.42608 8.26209L3.17436 10.5138C2.3334 11.3548 1.8498 12.499 1.85864 13.7016C1.86747 14.9042 2.3405 16.0554 3.22136 16.909C4.07497 17.7899 5.22644 18.2629 6.42881 18.2718C7.65862 18.2808 8.77578 17.8244 9.61679 16.9835L11.8685 14.7317M14.7447 11.9106L16.9964 9.65889C17.8373 8.81793 18.3209 7.67368 18.3121 6.47111C18.3033 5.26854 17.8303 4.11731 16.9494 3.26365C16.096 2.41025 14.9447 1.9372 13.7421 1.92836C12.5396 1.91952 11.3952 2.37568 10.5542 3.21666L8.30244 5.46838M6.67078 13.4407L13.4259 6.68556" stroke="#1A73EB" stroke-width="2.01636" stroke-linecap="round" stroke-linejoin="round"/>
</svg>