<svg xmlns="http://www.w3.org/2000/svg" width="23" height="20" viewBox="0 0 23 20" fill="none">
  <path d="M3.73823 10.9839L11.2702 18.0594C11.5575 18.3293 11.7012 18.4642 11.8746 18.4789C11.9026 18.4812 11.9307 18.4812 11.9587 18.4789C12.1322 18.4642 12.2758 18.3293 12.5631 18.0594L20.0951 10.9839C22.2143 8.99314 22.4716 5.71715 20.6893 3.41991L20.3542 2.98795C18.222 0.239794 13.9421 0.700683 12.4439 3.83979C12.2323 4.28321 11.6011 4.28321 11.3894 3.83979C9.89123 0.700682 5.61137 0.239794 3.47917 2.98795L3.14404 3.41991C1.36169 5.71715 1.61904 8.99314 3.73823 10.9839Z" stroke="white" stroke-width="2"/>
</svg>