<svg xmlns="http://www.w3.org/2000/svg" width="45" height="44" viewBox="0 0 45 44" fill="none">
  <g filter="url(#filter0_b_599_602)">
    <circle cx="22.5" cy="22" r="22" fill="black" fill-opacity="0.2"/>
    <circle cx="22.5" cy="22" r="21.7421" stroke="white" stroke-opacity="0.2" stroke-width="0.515862"/>
  </g>
  <path d="M14.3085 24.1329L22.4584 31.7123C22.6197 31.8623 22.7003 31.9373 22.7839 31.9829C23.0104 32.1065 23.2841 32.1065 23.5105 31.9829C23.5941 31.9373 23.6748 31.8623 23.8361 31.7123L31.986 24.1329C34.3056 21.9757 34.5866 18.4014 32.6326 15.9081L32.3006 15.4844C29.9787 12.5217 25.3543 13.0219 23.7197 16.4126C23.4886 16.892 22.8059 16.892 22.5748 16.4126C20.9402 13.0219 16.3158 12.5217 13.9939 15.4844L13.6618 15.9081C11.7078 18.4014 11.9889 21.9757 14.3085 24.1329Z" stroke="white" stroke-width="2.42759"/>
  <defs>
    <filter id="filter0_b_599_602" x="-9.81724" y="-10.3172" width="64.6345" height="64.6345" filterUnits="userSpaceOnUse" color-interpolation-filters="sRGB">
      <feFlood flood-opacity="0" result="BackgroundImageFix"/>
      <feGaussianBlur in="BackgroundImageFix" stdDeviation="5.15862"/>
      <feComposite in2="SourceAlpha" operator="in" result="effect1_backgroundBlur_599_602"/>
      <feBlend mode="normal" in="SourceGraphic" in2="effect1_backgroundBlur_599_602" result="shape"/>
    </filter>
  </defs>
</svg>