<svg xmlns="http://www.w3.org/2000/svg" width="18" height="16.424" viewBox="0 0 19 17" fill="none">
    <path d="M9.04845 0.268702C9.23316 -0.0893232 9.76684 -0.0893232 9.95155 0.268702L12.3426 4.90338C12.416 5.04555 12.5577 5.14409 12.7217 5.16689L18.0683 5.9101C18.4813 5.96751 18.6462 6.45305 18.3474 6.73174L14.4786 10.3393C14.3599 10.45 14.3057 10.6094 14.3338 10.7657L15.2471 15.8597C15.3176 16.2532 14.8859 16.5533 14.5164 16.3675L9.73432 13.9624C9.58763 13.8887 9.41238 13.8887 9.26568 13.9624L4.48356 16.3675C4.11415 16.5533 3.68239 16.2532 3.75294 15.8597L4.66625 10.7657C4.69426 10.6094 4.64011 10.45 4.52143 10.3393L0.652615 6.73174C0.353752 6.45305 0.518669 5.96751 0.931687 5.9101L6.27826 5.16689C6.44227 5.14409 6.58405 5.04555 6.65739 4.90338L9.04845 0.268702Z" fill="#1A73EB" />
</svg>