<svg width="20" height="18" viewBox="0 0 20 18" fill="none" xmlns="http://www.w3.org/2000/svg">
<path fill-rule="evenodd" clip-rule="evenodd" d="M8.70712 0.780395C9.22573 -0.260132 10.715 -0.260131 11.2336 0.780395L13.3673 5.06135L18.1422 5.74838C19.2888 5.91336 19.7732 7.32807 18.9219 8.1498L15.4723 11.4793L16.2862 16.1784C16.4885 17.3465 15.2597 18.1929 14.2432 17.6637L9.97035 15.4394L5.69745 17.6637C4.68098 18.1929 3.45215 17.3465 3.65448 16.1784L4.46842 11.4793L1.01882 8.1498C0.167457 7.32807 0.651893 5.91336 1.79853 5.74838L6.57341 5.06135L8.70712 0.780395ZM9.97035 2.45202L8.14323 6.11786C7.93579 6.53406 7.53736 6.81824 7.08153 6.88383L3.01509 7.46892L5.9513 10.303C6.28508 10.6251 6.43968 11.0922 6.36002 11.5521L5.66486 15.5654L9.31734 13.664C9.72646 13.4511 10.2142 13.4511 10.6234 13.664L14.2758 15.5654L13.5807 11.5521C13.501 11.0922 13.6556 10.6251 13.9894 10.303L16.9256 7.46892L12.8592 6.88383C12.4033 6.81824 12.0049 6.53406 11.7975 6.11786L9.97035 2.45202Z" fill="#3E3E3E"/>
</svg>
