<svg xmlns="http://www.w3.org/2000/svg" width="20" height="15" viewBox="0 0 20 15" fill="none">
  <path d="M16.75 8.99805C17.9381 9.83953 19 11.9582 19 13.2636C19 13.6703 18.687 14 18.3008 14H17.875M13.375 5.54891C14.1436 5.12745 14.6607 4.33972 14.6607 3.4375C14.6607 2.53528 14.1436 1.74755 13.375 1.32609M1.69916 14H14.0151C14.4013 14 14.7143 13.6703 14.7143 13.2636C14.7143 10.7073 12.4612 8.63492 7.85714 8.63492C3.25306 8.63492 1 10.7073 1 13.2636C1 13.6703 1.31302 14 1.69916 14ZM10.4286 3.4375C10.4286 4.78369 9.2773 5.875 7.85714 5.875C6.43698 5.875 5.28571 4.78369 5.28571 3.4375C5.28571 2.09131 6.43698 1 7.85714 1C9.2773 1 10.4286 2.09131 10.4286 3.4375Z" stroke="#3E3E3E" stroke-width="2" stroke-linecap="round"/>
</svg>