<svg width="23" height="22" viewBox="0 0 23 22" fill="none" xmlns="http://www.w3.org/2000/svg">
                                                            <path opacity="0.8"
                                                                d="M8.50602 3.25546L9.7771 1.42882C9.96405 1.16017 10.2706 1 10.5979 1H12.403C12.7291 1 13.0347 1.15898 13.2219 1.426L14.4797 3.22032M8.50602 3.25546C8.15917 3.75031 7.58262 3.99279 6.97068 3.94956M8.50602 3.25546C8.15748 3.74912 7.58262 3.9948 6.97068 3.94956M6.97068 3.94956L4.72158 3.80836C4.40073 3.78821 4.08977 3.92355 3.88585 4.17208L2.74534 5.56208C2.52914 5.82557 2.46204 6.18104 2.5673 6.50522L3.22315 8.52504M3.22315 8.52504C3.31207 8.81338 3.32345 9.12227 3.25981 9.41401M3.22315 8.52504C3.31334 8.81286 3.3243 9.12114 3.25939 9.41699M3.25981 9.41401C3.19533 9.70229 3.0571 9.9745 2.85185 10.1949M3.25981 9.41401L3.25939 9.41699M2.85185 10.1949L1.36575 11.7933C1.13735 12.0389 1.04732 12.3827 1.126 12.7088L1.52856 14.377C1.60699 14.702 1.84263 14.9663 2.15653 15.0813L4.19838 15.8297C4.48328 15.9399 4.72941 16.1191 4.91569 16.3449M2.85185 10.1949C3.05836 9.9763 3.19533 9.70497 3.25939 9.41699M4.91569 16.3449C5.10071 16.5713 5.22672 16.8445 5.27561 17.1404M4.91569 16.3449C5.10239 16.5713 5.22883 16.8438 5.27561 17.1404M4.91569 16.3449L4.91274 16.3416C4.90052 16.3268 4.88745 16.3114 4.87481 16.297M5.27561 17.1404L5.62327 19.2759C5.67654 19.6031 5.88849 19.8827 6.18917 20.0223L7.8171 20.7781C8.10817 20.9132 8.4464 20.9005 8.72646 20.7438L10.6402 19.6731M10.6402 19.6731C10.9053 19.5242 11.2012 19.4495 11.497 19.4491M10.6402 19.6731C10.7452 19.6134 10.8552 19.5657 10.9681 19.5299C11.1397 19.4756 11.3184 19.4488 11.497 19.4491M11.497 19.4491C11.6509 19.4495 11.8047 19.4698 11.9547 19.51C12.0942 19.5474 12.23 19.6018 12.3585 19.6731M11.497 19.4491C11.7942 19.4487 12.0917 19.5234 12.3585 19.6731M12.3585 19.6731L14.362 20.7576C14.6432 20.9099 14.9804 20.9185 15.269 20.7806L16.8891 20.0068C17.1887 19.8637 17.3978 19.5812 17.4471 19.2529L17.7585 17.178M17.7585 17.178C17.8053 16.8805 17.9296 16.6052 18.1142 16.3768M17.7585 17.178C17.8036 16.8798 17.9288 16.6049 18.1142 16.3768M18.1142 16.3768C18.2976 16.1508 18.5407 15.9707 18.824 15.8593M18.1142 16.3768C18.2971 16.1499 18.5395 15.9693 18.824 15.8593M18.824 15.8593L20.8869 15.0508C21.1949 14.9301 21.4233 14.6649 21.4969 14.3425L21.8826 12.6539C21.9561 12.3323 21.8662 11.9952 21.6424 11.7528L20.1473 10.134M20.1473 10.134C19.9383 9.91277 19.7924 9.64855 19.7216 9.36774M20.1473 10.134C20.0491 10.0307 19.9648 9.91771 19.8961 9.79797C19.8177 9.66199 19.7592 9.51726 19.7216 9.36774M19.7216 9.36774C19.6521 9.08893 19.6563 8.79349 19.7444 8.50752L20.391 6.43487C20.4914 6.11307 20.4229 5.76235 20.2088 5.50196L19.0964 4.14894C18.8901 3.89805 18.5749 3.76298 18.2509 3.7867L16.0276 3.94956M16.0276 3.94956C15.7233 3.97104 15.4241 3.91308 15.1578 3.78839M16.0276 3.94956C15.7229 3.97228 15.4241 3.91385 15.1578 3.78839M15.1578 3.78839C14.8897 3.6621 14.6546 3.4679 14.4797 3.22032M15.1578 3.78839C14.8893 3.66256 14.6537 3.46888 14.4797 3.22032M3.25939 9.41699L3.26024 9.41261M14.8859 11.0106C14.8859 12.8756 13.34 14.3874 11.4334 14.3874C9.52677 14.3874 7.98089 12.8756 7.98089 11.0106C7.98089 9.14566 9.52677 7.63386 11.4334 7.63386C13.34 7.63386 14.8859 9.14566 14.8859 11.0106Z"
                                                                stroke="black" stroke-width="2" />
                                                        </svg>