<svg xmlns="http://www.w3.org/2000/svg" width="16" height="11" viewBox="0 0 16 11" fill="none">
  <path d="M13.3482 6.63165C14.2447 7.2666 15.046 8.86525 15.046 9.85027C15.046 10.1571 14.8098 10.4059 14.5184 10.4059H14.1971M10.8016 4.02908C11.3815 3.71107 11.7717 3.11669 11.7717 2.43591C11.7717 1.75514 11.3815 1.16075 10.8016 0.842736M1.9915 10.4059H11.2846C11.5759 10.4059 11.8121 10.1571 11.8121 9.85027C11.8121 7.92135 10.1121 6.35765 6.63804 6.35765C3.164 6.35765 1.46394 7.92135 1.46394 9.85027C1.46394 10.1571 1.70014 10.4059 1.9915 10.4059ZM8.57833 2.43591C8.57833 3.45169 7.70963 4.27514 6.63804 4.27514C5.56645 4.27514 4.69775 3.45169 4.69775 2.43591C4.69775 1.42013 5.56645 0.59668 6.63804 0.59668C7.70963 0.59668 8.57833 1.42013 8.57833 2.43591Z" stroke="#666666" stroke-width="1.2" stroke-linecap="round"/>
</svg>