<svg xmlns="http://www.w3.org/2000/svg" width="35" height="35" viewBox="0 0 35 35" fill="none">
  <rect x="0.5" y="0.5" width="34" height="34" rx="17" stroke="black" stroke-opacity="0.2"/>
  <path d="M9 24.0937C9 20.9474 11.6286 18.3968 17 18.3968C22.3714 18.3968 25 20.9474 25 24.0937C25 24.5942 24.6348 25 24.1843 25H9.81569C9.3652 25 9 24.5942 9 24.0937Z" stroke="#3E3E3E" stroke-width="1.4"/>
  <path d="M20 12C20 13.6569 18.6569 15 17 15C15.3431 15 14 13.6569 14 12C14 10.3431 15.3431 9 17 9C18.6569 9 20 10.3431 20 12Z" stroke="#3E3E3E" stroke-width="1.4"/>
</svg>