<svg xmlns="http://www.w3.org/2000/svg" width="18" height="18" viewBox="0 0 18 18" fill="none">
  <path d="M6.91738 3.39679L7.84938 1.99047C8.00306 1.75857 8.26274 1.61914 8.54093 1.61914H9.78937C10.0666 1.61914 10.3255 1.75758 10.4794 1.98813L11.4013 3.36909M6.91738 3.39679C6.65702 3.7868 6.22426 3.97791 5.76492 3.94384M6.91738 3.39679C6.65576 3.78587 6.22426 3.9795 5.76492 3.94384M5.76492 3.94384L4.13115 3.83614C3.85715 3.81808 3.59195 3.93677 3.42287 4.15315L2.59985 5.20637C2.43258 5.42042 2.3807 5.70279 2.46096 5.96231L2.95194 7.55002M2.95194 7.55002C3.01869 7.77727 3.02724 8.02072 2.97947 8.25066M2.95194 7.55002C3.01964 7.77686 3.02787 8.01983 2.97915 8.25301M2.97947 8.25066C2.93107 8.47787 2.8273 8.69241 2.67324 8.86614M2.97947 8.25066L2.97915 8.25301M2.67324 8.86614L1.56628 10.1162C1.38864 10.3168 1.31882 10.5909 1.37884 10.8521L1.67535 12.1422C1.73714 12.4111 1.9285 12.6316 2.18594 12.7307L3.68398 13.3072C3.89783 13.3941 4.08258 13.5353 4.2224 13.7132M2.67324 8.86614C2.82825 8.69383 2.93107 8.47998 2.97915 8.25301M4.2224 13.7132C4.36128 13.8917 4.45587 14.107 4.49256 14.3402M4.2224 13.7132C4.36254 13.8917 4.45745 14.1064 4.49256 14.3402M4.2224 13.7132L4.22019 13.7107C4.21101 13.699 4.20121 13.6868 4.19172 13.6755M4.49256 14.3402L4.75101 16.0071C4.79263 16.2756 4.96308 16.5066 5.2073 16.6257L6.3481 17.1818C6.59795 17.3036 6.8922 17.2922 7.13186 17.1514L8.51937 16.3364M8.51937 16.3364C8.71836 16.219 8.94043 16.1602 9.16251 16.1599M8.51937 16.3364C8.59814 16.2893 8.68071 16.2517 8.76549 16.2235C8.89425 16.1807 9.02838 16.1596 9.16251 16.1599M9.16251 16.1599C9.27798 16.1601 9.39344 16.1762 9.50606 16.2078C9.61078 16.2373 9.71264 16.2802 9.80913 16.3364M9.16251 16.1599C9.38553 16.1595 9.60888 16.2184 9.80913 16.3364M9.80913 16.3364L11.2635 17.1631C11.5044 17.3 11.7977 17.3076 12.0454 17.1834L13.1816 16.6136C13.4246 16.4917 13.5925 16.2585 13.631 15.9894L13.8625 14.3698M13.8625 14.3698C13.8976 14.1354 13.9909 13.9184 14.1295 13.7384M13.8625 14.3698C13.8964 14.1348 13.9903 13.9182 14.1295 13.7384M14.1295 13.7384C14.2671 13.5602 14.4497 13.4183 14.6622 13.3306M14.1295 13.7384C14.2668 13.5596 14.4487 13.4172 14.6622 13.3306M14.6622 13.3306L16.1778 12.7069C16.4298 12.6032 16.6148 12.3823 16.6728 12.116L16.9571 10.8087C17.0132 10.5512 16.9435 10.2824 16.7694 10.0845L15.6556 8.81809M15.6556 8.81809C15.4987 8.64376 15.3892 8.43551 15.3361 8.21419M15.6556 8.81809C15.5819 8.73667 15.5186 8.64766 15.467 8.55328C15.4082 8.44611 15.3642 8.33204 15.3361 8.21419M15.3361 8.21419C15.2839 7.99445 15.287 7.76159 15.3531 7.53621L15.8373 5.90678C15.9138 5.64923 15.8609 5.37056 15.6952 5.15901L14.8937 4.13544C14.7226 3.91694 14.4536 3.79845 14.1769 3.81973L12.5633 3.94384M12.5633 3.94384C12.3349 3.96077 12.1102 3.91509 11.9103 3.81681M12.5633 3.94384C12.3345 3.96175 12.1102 3.9157 11.9103 3.81681M11.9103 3.81681C11.7091 3.71728 11.5326 3.56422 11.4013 3.36909M11.9103 3.81681C11.7088 3.71764 11.532 3.56499 11.4013 3.36909M2.97915 8.25301L2.97978 8.24956M11.7063 9.50903C11.7063 10.9789 10.5459 12.1704 9.11474 12.1704C7.68358 12.1704 6.52321 10.9789 6.52321 9.50903C6.52321 8.03916 7.68358 6.84763 9.11474 6.84763C10.5459 6.84763 11.7063 8.03916 11.7063 9.50903Z" stroke="#3E3E3E" stroke-width="1.4"/>
</svg>