<svg width="45" height="45" viewBox="0 0 45 45" fill="none" xmlns="http://www.w3.org/2000/svg">
<g id="Group 36767">
<path id="Subtract" fill-rule="evenodd" clip-rule="evenodd" d="M22.5 33.0038C28.299 33.0038 33 28.3028 33 22.5038C33 16.7049 28.299 12.0038 22.5 12.0038C16.701 12.0038 12 16.7049 12 22.5038C12 28.3028 16.701 33.0038 22.5 33.0038ZM19.1458 18.2084C18.8896 18.2084 18.6818 18.4161 18.6818 18.6724C18.6818 18.9287 18.8896 19.1364 19.1458 19.1364H19.517V20.0295C19.517 20.4452 19.6566 20.8489 19.9134 21.1759L21.3099 22.9542C21.4179 23.0917 21.4153 23.2858 21.3038 23.4204L19.9442 25.0605C19.6681 25.3935 19.517 25.8125 19.517 26.2451V27.1175H19.1458C18.8896 27.1175 18.6818 27.3252 18.6818 27.5815C18.6818 27.8378 18.8896 28.0455 19.1458 28.0455H25.8277C26.0839 28.0455 26.2917 27.8378 26.2917 27.5815C26.2917 27.3252 26.0839 27.1175 25.8277 27.1175H25.4564V26.2451C25.4564 25.8125 25.3054 25.3935 25.0293 25.0605L23.6697 23.4204C23.5582 23.2858 23.5556 23.0917 23.6636 22.9542L25.0601 21.1759C25.3169 20.8489 25.4564 20.4452 25.4564 20.0295V19.1364H25.8277C26.0839 19.1364 26.2917 18.9287 26.2917 18.6724C26.2917 18.4161 26.0839 18.2084 25.8277 18.2084H19.1458ZM20.4451 20.0295V19.1364H24.5284V20.0295C24.5284 20.2374 24.4586 20.4392 24.3302 20.6027L22.9337 22.381C22.5559 22.8622 22.5648 23.5417 22.9552 24.0126L24.3148 25.6528C24.4529 25.8193 24.5284 26.0288 24.5284 26.2451V27.1175H20.4451V26.2451C20.4451 26.0288 20.5206 25.8193 20.6586 25.6528L22.0182 24.0126C22.4087 23.5417 22.4176 22.8622 22.0398 22.381L20.6432 20.6027C20.5149 20.4392 20.4451 20.2374 20.4451 20.0295Z" fill="#95999C"/>
<rect id="Rectangle 4219" x="0.5" y="0.503845" width="44" height="44" rx="22" stroke="black" stroke-opacity="0.25"/>
</g>
</svg>
