<svg width="38" height="41" viewBox="0 0 38 41" fill="none" xmlns="http://www.w3.org/2000/svg">
<g id="elements">
<path id="Rectangle 2173" d="M20.8203 1.97266H21.3175C27.2624 1.97266 30.2348 1.97266 32.2991 3.42704C32.8905 3.84375 33.4156 4.33794 33.8584 4.89459C35.4036 6.83742 35.4036 9.63503 35.4036 15.2302V19.8704C35.4036 25.272 35.4036 27.9728 34.5488 30.1299C33.1746 33.5977 30.2682 36.333 26.5837 37.6264C24.2918 38.431 21.4222 38.431 15.683 38.431C12.4034 38.431 10.7637 38.431 9.45402 37.9712C7.34858 37.2321 5.68783 35.6691 4.90254 33.6875C4.41406 32.4549 4.41406 30.9116 4.41406 27.8249V20.2018" stroke="#1c72ea" stroke-width="3.5" stroke-linecap="round" stroke-linejoin="round"/>
<path id="Vector" d="M35.4049 20.2021C35.4049 23.558 32.6845 26.2785 29.3286 26.2785C28.1149 26.2785 26.684 26.0659 25.504 26.3821C24.4556 26.663 23.6366 27.4819 23.3557 28.5304C23.0395 29.7104 23.2522 31.1413 23.2522 32.3549C23.2522 35.7108 20.5317 38.4313 17.1758 38.4313" stroke="#1c72ea" stroke-width="3.5" stroke-linecap="round" stroke-linejoin="round"/>
<path id="Vector_2" d="M17.179 9.26432L2.5957 9.26432M9.88737 1.97266V16.556" stroke="#1c72ea" stroke-width="3.5" stroke-linecap="round"/>
</g>
</svg>
