<svg xmlns="http://www.w3.org/2000/svg" width="30" height="30" viewBox="0 0 30 30" fill="none">
  <path opacity="0.4" fill-rule="evenodd" clip-rule="evenodd" d="M11.1838 6.35223H18.8621V4.56445H11.1838V6.35223ZM9.43707 4.63787V4.64677C8.83768 4.70128 8.24473 4.82032 7.66786 4.99943V4.99275C7.65071 4.99997 7.63457 5.00552 7.61907 5.01084C7.59873 5.01784 7.57951 5.02444 7.56064 5.03392C7.51453 5.04504 7.4695 5.06173 7.42661 5.08287C7.30008 5.12403 7.17356 5.17298 7.05454 5.22304C7.02291 5.23528 6.99128 5.24946 6.95965 5.26365C6.92801 5.27783 6.89638 5.29201 6.86475 5.30425C6.82133 5.32483 6.77602 5.34736 6.73072 5.36989C6.68542 5.39242 6.64012 5.41495 6.59669 5.43553L6.38224 5.55901C6.34259 5.57923 6.30589 5.60295 6.26844 5.62715C6.24614 5.64156 6.22357 5.65614 6.19996 5.67026C5.87721 5.8783 5.57806 6.12193 5.30785 6.39894L5.29177 6.41563C5.25628 6.457 5.22094 6.49714 5.18608 6.53674C5.1272 6.60362 5.06968 6.66894 5.01513 6.73603L4.99905 6.7516C4.12195 7.96199 3.68233 9.45384 3.75846 10.9657V11.4452H5.49013V10.9613C5.49013 8.85421 6.16136 7.54258 7.655 6.87064C8.22543 6.62923 8.82803 6.48015 9.44136 6.42564H9.45744V4.64566L9.43707 4.63787ZM24.9975 6.72935L25.005 6.74493C25.881 7.95643 26.3185 9.44939 26.2413 10.9613V11.4452H24.5107V10.949C24.5471 10.0568 24.3681 9.16904 23.9885 8.36694C23.6239 7.68053 23.0406 7.14765 22.3362 6.8584C21.7754 6.61699 21.1814 6.46681 20.5755 6.41341V4.64232C21.1749 4.69795 21.7679 4.81587 22.3458 4.99498V4.98608C22.3783 5.00082 22.4031 5.00958 22.4456 5.02461L22.453 5.02724C22.4728 5.03422 22.4912 5.0412 22.5094 5.0481C22.5347 5.05769 22.5596 5.06713 22.5871 5.07619C22.7056 5.11509 22.8165 5.16093 22.9306 5.2081L22.9506 5.21637C23.0032 5.23485 23.0528 5.25778 23.0975 5.27844C23.1119 5.28513 23.1259 5.29159 23.1393 5.29758C23.2336 5.33874 23.3301 5.38769 23.4073 5.42885C23.4588 5.45557 23.509 5.48416 23.556 5.51098C23.5814 5.52548 23.606 5.53946 23.6293 5.55234C23.6677 5.57355 23.7011 5.59625 23.7332 5.61808C23.7567 5.63402 23.7795 5.6495 23.803 5.66359C24.1268 5.87274 24.4292 6.11748 24.7026 6.39227L24.7123 6.40896C24.813 6.51019 24.9085 6.61699 24.9975 6.72935Z" fill="#1A73EB"/>
  <path d="M20.6252 3.39616V7.33558C20.6252 7.83193 20.2225 8.23396 19.7252 8.23396C19.228 8.23396 18.8252 7.83193 18.8252 7.33558V3.40514C18.8207 2.90879 19.2212 2.50339 19.7185 2.50002C20.2157 2.49665 20.6219 2.89531 20.6252 3.39167V3.39616Z" fill="#1A73EB"/>
  <path d="M11.175 3.41037V7.34005C11.175 7.83856 10.7718 8.24275 10.2744 8.24275C9.77712 8.24275 9.375 7.83856 9.375 7.34005V3.41037C9.375 2.91186 9.77712 2.50879 10.2744 2.50879C10.7718 2.50879 11.175 2.91186 11.175 3.41037Z" fill="#1A73EB"/>
  <path fill-rule="evenodd" clip-rule="evenodd" d="M3.75 21.1381V11.4453H26.25V21.1381C26.25 25.3649 23.8895 27.5004 19.2114 27.5004H10.7779C6.11052 27.5004 3.75 25.3649 3.75 21.1381ZM8.82513 16.8339C8.82513 17.4203 9.2865 17.8961 9.85517 17.8961C10.4346 17.8961 10.8959 17.4093 10.8852 16.8228C10.8852 16.2364 10.4238 15.7606 9.8659 15.7606H9.85517C9.2865 15.7606 8.82513 16.2475 8.82513 16.8339ZM13.9646 16.8339C13.9646 17.4203 14.4367 17.8961 15.0054 17.8961C15.574 17.8961 16.0354 17.4203 16.0354 16.8228C16.0354 16.2475 15.574 15.7717 15.0054 15.7606H14.9946C14.426 15.7717 13.9646 16.2475 13.9646 16.8339ZM20.1449 17.8961C19.5762 17.8961 19.1148 17.4203 19.1148 16.8339C19.1148 16.2475 19.5655 15.7717 20.1449 15.7717C20.7135 15.7717 21.1749 16.2475 21.1749 16.8339C21.1749 17.4203 20.7135 17.8961 20.1449 17.8961ZM20.1449 22.4327C19.5762 22.4327 19.1148 21.9569 19.1041 21.3705C19.1041 20.784 19.5655 20.3082 20.1341 20.3082H20.1449C20.7135 20.3082 21.1749 20.784 21.1749 21.3705C21.1749 21.9569 20.7135 22.4327 20.1449 22.4327ZM15.0054 22.4327C14.4367 22.4327 13.9646 21.9569 13.9646 21.3705C13.9646 20.784 14.426 20.3083 14.9946 20.2972H15.0054C15.574 20.3083 16.0247 20.784 16.0354 21.3594C16.0354 21.9569 15.574 22.4327 15.0054 22.4327ZM9.85515 22.4327C9.28648 22.4327 8.82511 21.9569 8.82511 21.3705C8.81438 20.784 9.27575 20.2972 9.85515 20.2972C10.4238 20.2972 10.8852 20.773 10.8852 21.3594C10.8852 21.9459 10.4238 22.4327 9.85515 22.4327Z" fill="#1A73EB"/>
</svg>