<svg xmlns="http://www.w3.org/2000/svg" width="22" height="22" viewBox="0 0 22 22" fill="none">
  <path d="M11.9257 1.06117C11.528 1.0208 11.1229 1 10.7117 1C5.3481 1 1 4.53958 1 8.90588C1 13.2722 5.3481 16.8118 10.7117 16.8118C11.5501 16.8118 12.3637 16.7253 13.1397 16.5627L16.7816 20.2V15.1176C18.4165 14.0121 19.7304 12.3508 20.2 10.6M20.2 5.2C20.2 6.85685 18.8569 8.2 17.2 8.2C15.5431 8.2 14.2 6.85685 14.2 5.2C14.2 3.54315 15.5431 2.2 17.2 2.2C18.8569 2.2 20.2 3.54315 20.2 5.2Z" stroke="#1A73EB" stroke-width="2" stroke-linecap="round" stroke-linejoin="round"/>
</svg>