<svg xmlns="http://www.w3.org/2000/svg" width="30" height="30" viewBox="0 0 30 30" fill="none">
  <path d="M15.4607 0.307617C7.44925 0.307617 0.920898 6.83597 0.920898 14.8474C0.920898 22.8588 7.44925 29.3871 15.4607 29.3871C23.4721 29.3871 30.0004 22.8588 30.0004 14.8474C30.0004 6.83597 23.4721 0.307617 15.4607 0.307617ZM22.4107 11.5032L14.1666 19.7473C13.9631 19.9508 13.6868 20.0671 13.396 20.0671C13.1052 20.0671 12.829 19.9508 12.6254 19.7473L8.51065 15.6325C8.089 15.2109 8.089 14.513 8.51065 14.0913C8.9323 13.6696 9.63021 13.6696 10.0519 14.0913L13.396 17.4354L20.8694 9.96201C21.2911 9.54036 21.989 9.54036 22.4107 9.96201C22.8323 10.3837 22.8323 11.067 22.4107 11.5032Z" fill="url(#paint0_linear_1040_23014)"/>
  <defs>
    <linearGradient id="paint0_linear_1040_23014" x1="8.30489" y1="2.95121" x2="15.4607" y2="29.3871" gradientUnits="userSpaceOnUse">
      <stop stop-color="#F5D276"/>
      <stop offset="0.775" stop-color="#D98B3C"/>
    </linearGradient>
  </defs>
</svg>