<svg width="32" height="31" viewBox="0 0 32 31" fill="none" xmlns="http://www.w3.org/2000/svg">
<path d="M15.106 1.03413C15.4277 0.388687 16.3572 0.388687 16.6789 1.03413L20.8434 9.38953C20.9712 9.64584 21.2181 9.82349 21.5038 9.86459L30.8158 11.2044C31.5352 11.3079 31.8224 12.1833 31.3019 12.6857L24.5636 19.1895C24.3569 19.389 24.2626 19.6764 24.3114 19.9581L25.9021 29.1416C26.0249 29.851 25.273 30.392 24.6295 30.0571L16.3006 25.7212C16.0451 25.5882 15.7399 25.5882 15.4844 25.7212L7.15541 30.0571C6.512 30.392 5.76002 29.851 5.8829 29.1416L7.47359 19.9581C7.52238 19.6764 7.42806 19.389 7.22136 19.1895L0.483093 12.6857C-0.0374328 12.1833 0.2498 11.3079 0.969149 11.2044L10.2812 9.86459C10.5669 9.82349 10.8138 9.64584 10.9415 9.38953L15.106 1.03413Z" fill="white"/>
</svg>
