<svg width="32" height="31" viewBox="0 0 32 31" fill="none" xmlns="http://www.w3.org/2000/svg">
<path d="M15.106 1.03404C15.4277 0.388595 16.3572 0.388595 16.6789 1.03404L20.8434 9.38944C20.9712 9.64575 21.2181 9.8234 21.5038 9.8645L30.8158 11.2043C31.5352 11.3079 31.8224 12.1832 31.3019 12.6856L24.5636 19.1894C24.3569 19.3889 24.2626 19.6763 24.3114 19.958L25.9021 29.1415C26.0249 29.8509 25.273 30.3919 24.6295 30.057L16.3006 25.7211C16.0451 25.5881 15.7399 25.5881 15.4844 25.7211L7.15541 30.057C6.512 30.3919 5.76002 29.8509 5.8829 29.1415L7.47359 19.958C7.52238 19.6763 7.42806 19.3889 7.22136 19.1894L0.483093 12.6856C-0.0374328 12.1832 0.2498 11.3079 0.969149 11.2043L10.2812 9.8645C10.5669 9.8234 10.8138 9.64575 10.9415 9.38944L15.106 1.03404Z" fill="#263257"/>
</svg>
