<svg xmlns="http://www.w3.org/2000/svg" width="28" height="28" viewBox="0 0 28 28" fill="none">
  <path d="M13.912 18.3913C16.4298 18.3913 18.4773 16.3438 18.4773 13.826V6.97797C18.4773 4.44764 16.4401 2.38867 13.936 2.38867C13.8556 2.38915 13.7756 2.39873 13.6974 2.41721C12.5256 2.47402 11.4204 2.97915 10.6106 3.82807C9.80074 4.67699 9.34823 5.80473 9.34668 6.97797V13.826C9.34668 16.3438 11.3942 18.3913 13.912 18.3913Z" fill="white"/>
  <path d="M12.7706 22.8781V25.2395H15.0532V22.8781C19.549 22.3131 23.0426 18.4748 23.0426 13.8262H20.7599C20.7599 17.6028 17.6886 20.6742 13.9119 20.6742C10.1352 20.6742 7.06392 17.6028 7.06392 13.8262H4.78125C4.78125 18.4737 8.27487 22.3131 12.7706 22.8781Z" fill="white"/>
</svg>