<svg xmlns="http://www.w3.org/2000/svg" width="19" height="17" viewBox="0 0 19 17" fill="none">
  <path d="M9.04845 0.268519C9.23316 -0.0895063 9.76684 -0.0895063 9.95155 0.268519L12.3426 4.9032C12.416 5.04537 12.5577 5.14391 12.7217 5.16671L18.0683 5.90991C18.4813 5.96733 18.6462 6.45287 18.3474 6.73156L14.4786 10.3391C14.3599 10.4498 14.3057 10.6093 14.3338 10.7655L15.2471 15.8595C15.3176 16.253 14.8859 16.5531 14.5164 16.3673L9.73432 13.9623C9.58763 13.8885 9.41238 13.8885 9.26568 13.9623L4.48356 16.3673C4.11415 16.5531 3.68239 16.253 3.75294 15.8595L4.66625 10.7655C4.69426 10.6093 4.64011 10.4498 4.52143 10.3391L0.652615 6.73156C0.353752 6.45287 0.518669 5.96733 0.931687 5.90991L6.27826 5.16671C6.44227 5.14391 6.58405 5.04537 6.65739 4.9032L9.04845 0.268519Z" fill="#1c72ea"/>
</svg>