<svg xmlns="http://www.w3.org/2000/svg" width="40" height="10" viewBox="0 0 40 10" fill="none">
  <path d="M15.177 0.500084L9.94239 9.54583H6.51852L3.95062 2.31401C3.78601 1.86053 3.65432 1.71732 3.19342 1.52638C2.17914 1.17247 1.10566 0.915731 0 0.762626L0.0658436 0.500084H5.56379C6.30694 0.502516 6.93632 0.897959 7.04527 1.43091L8.39506 6.65788L11.7531 0.500084H15.177ZM28.5761 6.58628C28.5761 4.19953 24.0329 4.05633 24.0658 3.00616C24.0658 2.67202 24.4938 2.33787 25.4486 2.24241C26.5439 2.16826 27.6467 2.30837 28.642 2.64815L29.2016 0.738758C28.235 0.469671 27.2083 0.332122 26.1728 0.333012C22.9794 0.333012 20.7407 1.57412 20.7078 3.31644C20.6749 4.62915 22.321 5.34517 23.5391 5.77478C24.7572 6.2044 25.2181 6.51467 25.2181 6.89655C25.2181 7.49324 24.1975 7.77965 23.2757 7.77965C22.1173 7.80286 20.9708 7.60535 19.9506 7.20683L19.358 9.18782C20.498 9.51955 21.7183 9.68187 22.9465 9.66517C26.3374 9.68904 28.5432 8.4718 28.5761 6.58628ZM37.0041 9.54583H40L37.3992 0.500084H34.6337C34.0268 0.494813 33.4777 0.760205 33.251 1.16837L28.3786 9.54583H31.7695L32.428 8.18539H36.5761L37.0041 9.54583ZM33.3827 6.3476L35.0947 2.95843L36.0823 6.3476H33.3827ZM19.786 0.500084L17.1193 9.54583H13.893L16.5597 0.500084H19.786Z" fill="#1A1F71"/>
</svg>