<svg width="62" height="62" viewBox="0 0 62 62" fill="none" xmlns="http://www.w3.org/2000/svg">
<path fill-rule="evenodd" clip-rule="evenodd" d="M31 61.8125C47.8447 61.8125 61.5 48.1572 61.5 31.3125C61.5 14.4678 47.8447 0.8125 31 0.8125C14.1553 0.8125 0.5 14.4678 0.5 31.3125C0.5 48.1572 14.1553 61.8125 31 61.8125ZM43.9532 41.1722L34.0932 31.3121L43.9527 21.4525C44.8069 20.5984 44.8069 19.2134 43.9527 18.3593C43.0985 17.5051 41.7136 17.5051 40.8594 18.3593L30.9999 28.2188L21.1402 18.3591C20.286 17.505 18.9011 17.505 18.0469 18.3591C17.1927 19.2133 17.1927 20.5982 18.0469 21.4524L27.9066 31.3121L18.0464 41.1723C17.1922 42.0265 17.1922 43.4114 18.0464 44.2656C18.9006 45.1197 20.2855 45.1197 21.1397 44.2656L30.9999 34.4054L40.8599 44.2654C41.7141 45.1196 43.099 45.1196 43.9532 44.2654C44.8074 43.4113 44.8074 42.0263 43.9532 41.1722Z" fill="#EB1A40"/>
</svg>
