<svg xmlns="http://www.w3.org/2000/svg" width="24" height="24" viewBox="0 0 24 24" fill="none">
  <path d="M20.427 15.776C20.924 14.6518 21.2 13.4082 21.2 12.1C21.2 7.07421 17.1258 3 12.1 3C7.07421 3 3 7.07421 3 12.1C3 17.1258 7.07421 21.2 12.1 21.2C13.7181 21.2 15.2376 20.7777 16.5542 20.0372L21.2017 21.1991L20.427 15.776Z" fill="#1c72ea" stroke="#1c72ea" stroke-width="1.89583" stroke-linecap="round" stroke-linejoin="round"/>
  <path fill-rule="evenodd" clip-rule="evenodd" d="M7.7396 10.5835C8.26312 10.5835 8.68752 11.0079 8.68752 11.5314V11.6169C8.68752 12.1405 8.26312 12.5649 7.7396 12.5649C7.21608 12.5649 6.79169 12.1405 6.79169 11.6169V11.5314C6.79169 11.0079 7.21608 10.5835 7.7396 10.5835ZM12.2896 10.5835C12.8131 10.5835 13.2375 11.0079 13.2375 11.5314V11.6169C13.2375 12.1405 12.8131 12.5649 12.2896 12.5649C11.7661 12.5649 11.3417 12.1405 11.3417 11.6169V11.5314C11.3417 11.0079 11.7661 10.5835 12.2896 10.5835ZM16.8396 10.5835C17.3631 10.5835 17.7875 11.0079 17.7875 11.5314V11.6169C17.7875 12.1405 17.3631 12.5649 16.8396 12.5649C16.3161 12.5649 15.8917 12.1405 15.8917 11.6169V11.5314C15.8917 11.0079 16.3161 10.5835 16.8396 10.5835Z" fill="white"/>
</svg>