<svg width="134" height="36" viewBox="0 0 134 36" fill="none" xmlns="http://www.w3.org/2000/svg">
<mask id="mask0_1968_111" style="mask-type:alpha" maskUnits="userSpaceOnUse" x="95" y="0" width="39" height="36">
<path d="M132.494 27.6255V25.7988L118.532 32.5558L96.1068 30.0578L96.5096 31.1491C96.7733 31.8635 97.4262 32.3794 98.2067 32.4904L117.69 35.2596C118.153 35.3254 118.625 35.2431 119.035 35.0254L132.274 27.9838C132.41 27.9117 132.494 27.7744 132.494 27.6255Z" fill="#9747FF" stroke="#9747FF" stroke-width="0.413224"/>
<path d="M103.578 21.4993L106.872 20.7413L107.532 20.3727L115.962 20.8192L125.8 21.3026L129.573 20.3727L132.948 21.4468C133.122 21.5024 133.24 21.659 133.24 21.8356V25.6365C133.24 26.0962 132.846 26.4659 132.368 26.4554L125.8 26.3107L118.709 31.4434C118.375 31.6851 117.96 31.8006 117.543 31.7678L96.3413 30.0988L96.1915 29.6875C96.0129 29.1973 96.1744 28.6524 96.5949 28.326L102.331 23.8741L102.621 22.4575C102.717 21.9857 103.091 21.6113 103.578 21.4993Z" stroke="#9747FF" stroke-width="0.826448"/>
<path d="M124.759 1.22193C125.047 1.19614 125.335 1.2845 125.555 1.46679L131.858 6.70454C132.079 6.88818 132.212 7.15097 132.225 7.43136L132.778 18.9762C132.802 19.469 132.456 19.9073 131.955 20.0194L126.062 21.3405C125.963 21.3627 125.861 21.3712 125.759 21.3656L104.987 20.2343C104.378 20.2012 103.923 19.6851 103.987 19.1029L105.695 3.74886C105.749 3.26426 106.151 2.88327 106.656 2.83817L124.759 1.22193Z" stroke="#9747FF" stroke-width="0.826448"/>
<path d="M124.222 27.0885L118.148 31.7567L97.3047 29.3736C96.9298 29.3307 96.7936 28.8756 97.0876 28.648L103.302 23.8404L102.352 23.7506L96.1492 28.6444L96 29.4428L97.3216 32.0842L108.278 32.3914L118.148 33.0875L132.952 26.5409C133.268 26.4014 133.463 26.092 133.447 25.7588L133.24 21.4778L124.862 23.0954V25.8094C124.862 26.307 124.627 26.7777 124.222 27.0885Z" fill="#9747FF"/>
<path d="M120.357 4.31522C122.072 4.31527 122.684 5.04107 122.665 6.76666C122.631 9.85845 122.501 16.1274 122.501 16.8849C122.501 18.2378 121.725 18.9439 120.174 18.8263C117.234 18.7218 111.338 18.5045 109.721 18.3947C108.027 18.2795 107.598 17.0223 107.598 15.8262V7.09959C107.598 5.13896 108.558 4.92464 109.721 4.84461C112.953 4.62237 119.585 4.31521 120.357 4.31522ZM115.841 5.83661C114.537 5.8366 112.359 5.8364 111.364 7.03184C110.37 8.22795 110.826 14.7076 110.97 15.5058C111.142 16.4551 111.421 17.2897 112.942 17.3166C119.19 17.4266 122.315 19.0791 122.315 11.9695V8.94325C122.315 7.68864 121.715 6.13733 119.638 5.99532C117.561 5.85339 117.436 5.83661 115.841 5.83661Z" fill="#9747FF"/>
<path d="M124.863 25.0418V24.3373C124.863 24.0179 124.608 23.7517 124.276 23.7252L104.017 22.0998C103.662 22.0713 103.355 22.334 103.343 22.6758L103.302 23.8415H101.995L102.555 21.7484L103.178 21.3298L106.976 20.4925L113.513 20.9709L124.449 23.0192C124.722 23.0702 125.003 23.0696 125.275 23.0172L126.035 22.8713L124.863 25.0418Z" fill="#9747FF"/>
<path d="M117.359 32.3524L118.361 35.4443" stroke="#9747FF" stroke-width="0.413224"/>
<path d="M132.686 6.79619L132.989 19.2422C132.999 19.6266 132.728 19.9657 132.34 20.057L125.758 21.5997L123.626 21.4564L123.631 20.8361C124.026 20.8574 124.464 20.8821 124.863 20.9009C125.833 20.9467 125.872 20.41 125.864 20.2332C125.623 14.4896 125.203 3.15981 125.182 2.3143C125.164 1.58746 124.649 1.62633 124.01 1.68522L123.813 1.70168L123.817 1.30391C123.818 1.19271 123.911 1.1023 124.026 1.10067L125.396 1.08325L132.686 6.79619Z" fill="#9747FF"/>
<path d="M116.173 29.5194L100.863 28.0163C100.676 27.9981 100.603 27.7748 100.745 27.6576L103.231 25.6002C103.45 25.4188 103.737 25.3308 104.025 25.3563L119.514 26.7283C119.697 26.7444 119.774 26.9612 119.64 27.0818L117.343 29.1413C117.028 29.4236 116.602 29.5614 116.173 29.5194Z" fill="#9747FF"/>
</mask>
<g mask="url(#mask0_1968_111)">
<path d="M134.52 -0.330475H95.1386V36.2892H134.52V-0.330475Z" fill="#1A73EB"/>
</g>
<path d="M75.7213 21.9293C75.7213 25.4859 73.8791 27.712 70.2201 28.6587L69.6827 27.5841C71.8065 27.0212 72.9579 25.5371 73.1882 23.1063C72.2926 23.3878 71.3971 23.5413 70.4504 23.5413C69.1454 23.5413 68.0963 23.004 67.2775 21.9549C66.4843 20.9826 66.1005 19.8055 66.1005 18.3982C66.1005 16.6071 66.5867 15.1487 67.559 13.9972C68.6081 12.769 69.9898 12.1549 71.7553 12.1549H75.7213V21.9293ZM73.2138 21.3664V13.6902H71.8577C69.8107 13.6902 68.6081 15.3278 68.6081 17.9888C68.6081 20.522 69.4013 21.8013 70.9877 21.8013C71.7553 21.8013 72.4973 21.6478 73.2138 21.3664ZM87.9439 17.8865V20.6499L88.3277 22.9784H78.1695L78.8348 20.6755H85.3084L85.3851 20.1382V17.4515C85.3851 16.1977 85.1293 15.2254 84.6431 14.4834C84.1825 13.8437 83.594 13.5111 82.852 13.5111C82.6217 13.5111 82.3402 13.5622 82.0588 13.6902C82.0588 13.4343 82.0076 12.9481 81.9308 12.2573C82.0076 12.2573 82.2891 12.2317 82.7241 12.1549C84.2849 12.1549 85.5387 12.6923 86.4854 13.7925C87.4321 14.8672 87.9183 16.2233 87.9439 17.8865Z" fill="white"/>
<path d="M50.6031 22.9784H47.9165C45.588 22.9784 44.1296 21.5455 44.1296 19.1658V13.8949H41.7244C39.6006 13.8949 38.5259 15.251 38.5259 17.9888C38.5259 20.087 39.3192 21.1617 40.9312 21.1872H43.0549V22.876C43.0549 24.3601 42.5943 25.6394 41.6476 26.7141C40.7009 27.8144 39.4471 28.454 37.8607 28.6331H33.8691C31.4383 28.6331 29.596 27.8911 28.3422 26.4326C27.2164 25.0765 26.6534 23.1831 26.6534 20.7011V16.0698H29.161V20.6499C29.161 24.6415 30.9521 26.9956 34.2273 26.9956H37.2722C38.2701 26.8164 39.0377 26.3047 39.6262 25.4603C40.1379 24.7695 40.4194 24.053 40.445 23.2854C39.1145 23.2598 38.0398 22.8504 37.221 22.006C36.3254 21.1361 35.8905 19.9335 35.8905 18.3982C35.8905 16.5559 36.4534 15.0463 37.5536 13.8949C38.6539 12.7434 40.1124 12.1549 41.9035 12.1549H46.7139L46.6883 18.5773C46.6883 19.9846 47.3024 20.6755 48.5306 20.6755H50.6031V22.9784ZM38.9609 32.548C38.9609 33.3924 38.3212 34.0832 37.4257 34.0832C36.5301 34.0832 35.8649 33.4436 35.8649 32.548C35.8649 31.6524 36.5301 30.9872 37.4257 30.9872C38.2701 30.9872 38.9609 31.6524 38.9609 32.548ZM34.8925 32.548C34.8925 33.3924 34.2529 34.0832 33.3573 34.0832C32.4618 34.0832 31.7709 33.4436 31.7709 32.548C31.7709 31.6524 32.4618 30.9872 33.3573 30.9872C34.1761 30.9872 34.8925 31.6524 34.8925 32.548ZM58.214 4.09493C58.214 4.91372 57.5487 5.63017 56.6532 5.63017C55.8088 5.63017 55.1179 4.93931 55.1179 4.09493C55.1179 3.25055 55.8088 2.50851 56.6532 2.50851C57.5487 2.50851 58.214 3.19937 58.214 4.09493ZM60.2866 8.06096C60.2866 8.90534 59.5957 9.5962 58.7001 9.5962C57.8814 9.5962 57.1393 8.95651 57.1393 8.03537C57.1393 7.19099 57.8814 6.50013 58.7001 6.50013C59.5445 6.50013 60.2866 7.1654 60.2866 8.06096ZM56.1926 8.06096C56.1926 8.90534 55.4761 9.5962 54.6318 9.5962C53.7874 9.5962 53.0453 8.95651 53.0453 8.03537C53.0453 7.19099 53.7874 6.50013 54.6318 6.50013C55.4506 6.50013 56.1926 7.1654 56.1926 8.06096ZM61.1821 15.3022V16.5048C61.1821 21.0849 59.3654 22.9784 55.4506 22.9784H50.0005V20.6755H55.6553C57.3696 20.6755 58.2907 20.1637 58.4699 19.1403C58.0605 19.345 57.4975 19.4473 56.7811 19.4473C53.9153 19.4473 52.4824 18.0912 52.4824 15.4045C52.4824 13.946 53.0198 12.8458 54.0688 12.1038C54.8365 11.5664 55.732 11.285 56.7811 11.285C58.1884 11.285 59.3142 11.6688 60.1074 12.462C60.8239 13.1784 61.1821 14.1251 61.1821 15.3022ZM58.6746 15.3533C58.6746 13.6902 58.0605 12.8458 56.8579 12.8458C55.6297 12.8458 55.0156 13.7669 55.0156 15.5836C55.0156 17.0677 55.5785 17.8097 56.6787 17.8097C57.4464 17.8097 58.1116 17.6818 58.649 17.4259C58.6746 16.8374 58.6746 16.1465 58.6746 15.3533Z" fill="white"/>
<path d="M9.62083 21.9293C9.62083 25.4859 7.77854 27.712 4.11956 28.6587L3.58222 27.5841C5.70597 27.0212 6.8574 25.5371 7.08768 23.1063C6.19213 23.3878 5.29657 23.5413 4.34984 23.5413C3.04489 23.5413 1.99581 23.004 1.17702 21.9549C0.383809 20.9826 0 19.8055 0 18.3982C0 16.6071 0.486159 15.1487 1.45848 13.9972C2.50756 12.769 3.88927 12.1549 5.65479 12.1549H9.62083V21.9293ZM7.11327 21.3664V13.6902H5.75714C3.71016 13.6902 2.50756 15.3278 2.50756 17.9888C2.50756 20.522 3.30076 21.8013 4.88717 21.8013C5.65479 21.8013 6.39683 21.6478 7.11327 21.3664ZM21.8433 17.8865V20.6499L22.2272 22.9784H12.069L12.7343 20.6755H19.2079L19.2846 20.1382V17.4515C19.2846 16.1977 19.0287 15.2254 18.5426 14.4834C18.082 13.8437 17.4935 13.5111 16.7515 13.5111C16.5212 13.5111 16.2397 13.5622 15.9583 13.6902C15.9583 13.4343 15.9071 12.9481 15.8303 12.2573C15.9071 12.2573 16.1886 12.2317 16.6235 12.1549C18.1844 12.1549 19.4381 12.6923 20.3849 13.7925C21.3316 14.8672 21.8178 16.2233 21.8433 17.8865Z" fill="white"/>
</svg>
