<svg width="132" height="34" viewBox="0 0 132 34" fill="none" xmlns="http://www.w3.org/2000/svg">
<g clip-path="url(#clip0_1968_42)">
<path d="M28.7479 0.487388C28.8228 0.553154 28.8972 0.619461 28.9712 0.686241C29.0538 0.759051 29.1364 0.831836 29.2191 0.90459C29.2603 0.941179 29.3015 0.977768 29.3441 1.01547C29.5291 1.1786 29.7174 1.33791 29.9058 1.49725C30.2504 1.7899 30.5933 2.08448 30.9358 2.37966C31.199 2.60636 31.4631 2.83199 31.7277 3.05688C32.0324 3.31569 32.336 3.57573 32.6387 3.8367C33.2354 4.35078 33.835 4.86141 34.4372 5.36904C34.4707 5.39732 34.5041 5.42559 34.5386 5.45473C34.669 5.56444 34.7957 5.67035 34.9402 5.76148C35.0576 5.86422 35.0576 5.86422 35.0931 5.99667C35.095 6.04822 35.0969 6.09977 35.0989 6.15289C35.1017 6.21226 35.1045 6.2716 35.1074 6.3328C35.1102 6.43049 35.1102 6.43049 35.113 6.53012C35.1173 6.63325 35.1173 6.63325 35.1217 6.73843C35.1312 6.96751 35.1388 7.19665 35.1464 7.42579C35.1527 7.58693 35.1591 7.74813 35.1656 7.90928C35.1808 8.29288 35.1949 8.67655 35.2085 9.06029C35.2251 9.5278 35.2432 9.99525 35.2613 10.4627C35.2805 10.9589 35.2995 11.4551 35.318 11.9513C35.3579 13.0226 35.4033 14.0933 35.4582 15.1639C35.6185 18.3426 35.6185 18.3426 35.1452 18.896C34.8669 19.1334 34.5951 19.2486 34.2408 19.3395C34.4028 19.4467 34.5195 19.502 34.7 19.5632C34.7521 19.5813 34.8043 19.5995 34.858 19.6183C34.9671 19.6558 35.0764 19.693 35.1858 19.7299C35.5183 19.8466 35.7715 19.9461 35.9372 20.2752C35.9443 20.4153 35.9472 20.5555 35.9483 20.6958C35.9489 20.7607 35.9489 20.7607 35.9496 20.8268C35.9508 20.9701 35.9516 21.1135 35.9522 21.2568C35.9524 21.3058 35.9527 21.3547 35.9529 21.4052C35.9543 21.6646 35.9551 21.9238 35.9557 22.1832C35.9564 22.4507 35.9586 22.7182 35.9611 22.9857C35.9627 23.1917 35.9632 23.3976 35.9635 23.6036C35.9638 23.7022 35.9645 23.8008 35.9657 23.8994C35.9672 24.0376 35.9671 24.1759 35.9667 24.3141C35.9671 24.3927 35.9675 24.4713 35.9678 24.5523C35.9073 24.9761 35.6339 25.2077 35.3089 25.4532C35.2467 25.4841 35.2467 25.4841 35.1832 25.5156C35.1533 25.722 35.1337 25.9267 35.1182 26.1346C35.1139 26.1783 35.1096 26.222 35.1052 26.2672C35.1021 26.307 35.0989 26.3467 35.0957 26.3877C35.0184 26.6437 34.8529 26.7949 34.6334 26.9399C34.5676 26.9749 34.5018 27.0099 34.434 27.046C34.3978 27.0655 34.3617 27.085 34.3245 27.1051C34.2066 27.1686 34.0882 27.2311 33.9699 27.2936C33.8455 27.3603 33.7211 27.4273 33.5967 27.4943C33.5129 27.5394 33.429 27.5845 33.3452 27.6295C32.9745 27.8282 32.608 28.0337 32.2422 28.2411C31.6972 28.5488 31.1475 28.8468 30.5955 29.1418C30.1637 29.3732 29.7354 29.6104 29.3089 29.8514C28.7575 30.163 28.2015 30.4652 27.6428 30.7638C27.2108 30.9952 26.7826 31.2323 26.356 31.4734C25.805 31.7848 25.2496 32.087 24.6911 32.385C24.309 32.5895 23.9304 32.799 23.5537 33.0133C22.6217 33.5427 22.6217 33.5427 22.1623 33.7661C22.0627 33.8148 22.0627 33.8148 21.9611 33.8645C21.3224 34.0741 20.6931 33.9712 20.0431 33.8725C19.9409 33.8576 19.8386 33.8428 19.7364 33.8281C19.4542 33.7871 19.1722 33.7452 18.8901 33.703C18.5842 33.6576 18.2781 33.613 17.972 33.5684C17.4217 33.4879 16.8713 33.4069 16.3211 33.3257C15.3529 33.1828 14.3845 33.042 13.416 32.9012C13.0012 32.8409 12.5864 32.7806 12.1715 32.7202C12.1255 32.7135 12.0795 32.7068 12.0321 32.6999C10.8397 32.5263 9.64743 32.3516 8.45523 32.1767C8.24011 32.1452 8.02498 32.1136 7.80986 32.0821C7.76834 32.076 7.72681 32.0699 7.68402 32.0636C7.06963 31.9735 6.45512 31.8841 5.84061 31.7951C5.3939 31.7304 4.94726 31.6653 4.50067 31.5997C4.26217 31.5647 4.02364 31.5299 3.78501 31.4957C3.53394 31.4599 3.28306 31.4228 3.03216 31.3857C2.92776 31.371 2.92776 31.371 2.82126 31.3561C2.13719 31.2528 1.50043 31.0723 1.00525 30.5688C0.715703 30.169 0.525477 29.7324 0.361272 29.2704C0.339825 29.2104 0.318378 29.1504 0.296282 29.0885C0.0665613 28.4272 -0.13567 27.805 0.188497 27.1376C0.357791 26.8532 0.552539 26.6461 0.808914 26.4397C0.844468 26.4104 0.880022 26.3811 0.916656 26.351C1.20917 26.1116 1.5076 25.8797 1.80682 25.6487C2.09878 25.4225 2.38186 25.1872 2.66347 24.9485C2.90723 24.7421 3.15498 24.5418 3.40594 24.3442C3.63174 24.1655 3.85583 23.9848 4.07986 23.8039C4.1233 23.7688 4.16675 23.7337 4.21151 23.6976C4.66754 23.3304 4.66754 23.3304 5.11847 22.9571C5.2775 22.833 5.2775 22.833 5.44832 22.7382C5.77566 22.5418 5.91179 22.3618 6.00811 21.9967C6.0657 21.743 6.11161 21.4884 6.15488 21.232C6.22459 20.8301 6.37106 20.507 6.65969 20.2128C7.07856 19.9255 7.52337 19.8057 8.01443 19.6943C8.08379 19.6778 8.15315 19.6614 8.22459 19.6445C8.39391 19.6044 8.56335 19.5652 8.73298 19.5266C8.68976 19.5099 8.64647 19.4932 8.60193 19.476C8.54526 19.4539 8.48852 19.4317 8.43016 19.4089C8.34584 19.3761 8.34584 19.3761 8.25977 19.3427C7.82834 19.1601 7.67749 18.8653 7.47644 18.4661C7.44295 17.9592 7.49975 17.4527 7.55208 16.949C7.56025 16.868 7.56842 16.787 7.57684 16.7035C7.59927 16.4805 7.6222 16.2576 7.64526 16.0348C7.65996 15.8923 7.67453 15.7498 7.68905 15.6074C7.93093 13.2339 8.18689 10.8618 8.44448 8.4899C8.49594 8.01614 8.54702 7.54239 8.59797 7.06857C8.64804 6.60324 8.69843 6.13789 8.74894 5.6726C8.77872 5.39835 8.80844 5.1241 8.83784 4.84982C8.86517 4.5954 8.89275 4.34101 8.92065 4.08665C8.9307 3.99404 8.94069 3.90141 8.95056 3.80878C9.10178 2.39013 9.10178 2.39013 9.54974 1.93395C10.172 1.45474 11.1783 1.51809 11.9406 1.44833C12.0528 1.43788 12.165 1.4274 12.2773 1.4169C12.581 1.38857 12.8847 1.36053 13.1884 1.33256C13.5113 1.30276 13.8342 1.27269 14.157 1.24266C14.7027 1.19196 15.2483 1.14142 15.7939 1.09102C16.3451 1.0401 16.8963 0.989053 17.4474 0.937853C17.5143 0.931634 17.5813 0.925408 17.6504 0.918994C17.7853 0.906467 17.9201 0.89394 18.055 0.881407C19.2998 0.765764 20.5447 0.650731 21.7896 0.536224C22.4225 0.477988 23.0555 0.419431 23.6883 0.360197C24.0815 0.323403 24.4747 0.286897 24.8679 0.250644C25.087 0.23043 25.3061 0.210071 25.5252 0.189297C28.0796 -0.052131 28.0796 -0.052131 28.7479 0.487388ZM25.5412 1.03964C25.4195 1.05085 25.2978 1.06201 25.1761 1.07315C24.8468 1.10339 24.5176 1.13408 24.1884 1.16486C23.8399 1.19737 23.4913 1.22945 23.1428 1.26159C22.555 1.31584 21.9672 1.37036 21.3795 1.42507C20.5628 1.5011 19.7461 1.57665 18.9293 1.65211C17.446 1.78918 15.9626 1.92627 14.4794 2.06554C14.0564 2.10521 13.6333 2.14424 13.2102 2.18301C12.9081 2.21076 12.606 2.23886 12.304 2.26704C12.1591 2.28047 12.0141 2.29376 11.8692 2.30691C11.6681 2.32515 11.4672 2.34392 11.2662 2.3628C11.1772 2.37069 11.1772 2.37069 11.0864 2.37873C10.5436 2.42091 10.5436 2.42091 10.0595 2.64448C9.92878 2.83223 9.92469 3.06594 9.89742 3.28765C9.88982 3.34497 9.88222 3.4023 9.87437 3.46136C9.76894 4.27281 9.6818 5.08658 9.59347 5.9C9.56733 6.14023 9.54094 6.38046 9.51456 6.62064C9.47007 7.02671 9.42572 7.43284 9.38149 7.83897C9.33719 8.24584 9.29278 8.65266 9.24811 9.05954C9.10128 10.3982 8.95571 11.737 8.8119 13.076C8.79562 13.2273 8.77935 13.3786 8.76308 13.5299C8.69912 14.1248 8.63573 14.7198 8.57303 15.3148C8.55368 15.4988 8.53407 15.6827 8.51428 15.8667C8.48708 16.1206 8.4605 16.3745 8.43399 16.6284C8.42607 16.7018 8.41809 16.7753 8.40986 16.851C8.27573 17.7025 8.27573 17.7025 8.49738 18.4817C8.77678 18.6582 9.02519 18.6651 9.35347 18.6837C9.41874 18.6875 9.41874 18.6875 9.48534 18.6914C9.63154 18.6998 9.77768 18.7079 9.92388 18.716C10.0289 18.722 10.134 18.728 10.2391 18.734C10.5265 18.7504 10.8139 18.7665 11.1013 18.7825C11.2838 18.7926 11.4662 18.8029 11.6487 18.8132C14.4303 18.9701 17.2125 19.117 19.9947 19.2619C20.526 19.2896 21.0572 19.3175 21.5884 19.3454C22.1135 19.3731 22.6388 19.4006 23.164 19.428C23.4721 19.4441 23.7802 19.4602 24.0883 19.4764C24.6881 19.508 25.2879 19.5387 25.8878 19.5673C26.1732 19.581 26.4584 19.5966 26.7435 19.614C26.8735 19.6217 27.0035 19.6287 27.1336 19.6354C27.2884 19.6435 27.4433 19.6527 27.5981 19.6633C28.0076 19.6864 28.0076 19.6864 28.3814 19.5435C28.6012 19.2281 28.568 18.9478 28.5547 18.573C28.5531 18.4887 28.5516 18.4044 28.5502 18.3201C28.5454 18.072 28.5376 17.824 28.5292 17.5759C28.5233 17.3966 28.5178 17.2173 28.5125 17.038C28.4835 16.0701 28.448 15.1026 28.4115 14.1351C28.3972 13.7556 28.3833 13.376 28.3693 12.9965C28.3416 12.2456 28.3137 11.4947 28.2854 10.7439C28.2582 10.0178 28.2312 9.29186 28.2045 8.56582C28.2019 8.49844 28.2019 8.49844 28.1994 8.42976C28.1978 8.3849 28.1962 8.34005 28.1945 8.29388C28.1638 7.46191 28.133 6.63 28.102 5.79813C28.0911 5.50573 28.0803 5.21333 28.0695 4.92092C28.0549 4.52759 28.0402 4.13426 28.0254 3.74094C28.02 3.59709 28.0147 3.45324 28.0094 3.30939C27.9941 2.89242 27.9774 2.47553 27.9581 2.05872C27.9545 1.97772 27.9509 1.89672 27.9471 1.81326C27.943 1.747 27.939 1.68073 27.9348 1.61246C27.9317 1.5598 27.9286 1.50714 27.9254 1.45288C27.8873 1.27225 27.8131 1.14855 27.7068 0.998168C27.1627 0.72802 26.1329 0.983825 25.5412 1.03964ZM31.9908 19.7815C31.9279 19.7963 31.865 19.8111 31.8001 19.8263C31.6977 19.8506 31.6977 19.8506 31.5933 19.8753C31.5232 19.8918 31.4532 19.9083 31.381 19.9253C31.1563 19.9781 30.9315 20.0311 30.7068 20.0842C30.483 20.137 30.2592 20.1898 30.0353 20.2424C29.8959 20.2752 29.7564 20.3082 29.617 20.3412C29.5214 20.3636 29.5214 20.3636 29.4239 20.3866C29.3683 20.3998 29.3125 20.4129 29.2551 20.4265C29.2003 20.4383 29.1455 20.4502 29.089 20.4624C29.0355 20.4747 28.9819 20.487 28.9267 20.4996C28.6025 20.5376 28.2833 20.5182 27.9577 20.5038C27.8457 20.4993 27.8457 20.4993 27.7313 20.4946C26.9497 20.4618 26.1686 20.4193 25.3876 20.3749C25.1308 20.3603 24.874 20.346 24.6172 20.3317C24.0738 20.3014 23.5303 20.2707 22.9869 20.2402C22.3958 20.2069 21.8046 20.1736 21.2134 20.1407C21.0001 20.1288 20.7868 20.1168 20.5735 20.1047C20.3368 20.0913 20.1001 20.078 19.8635 20.0648C19.7941 20.0608 19.7248 20.0568 19.6534 20.0527C19.2795 20.0321 18.9085 20.0218 18.534 20.0257C18.534 20.0463 18.534 20.0669 18.534 20.0881C19.4211 20.2618 20.3081 20.4354 21.1953 20.6087C21.6074 20.6893 22.0195 20.7699 22.4316 20.8506C22.8308 20.9288 23.2301 21.0069 23.6293 21.0849C23.78 21.1143 23.9308 21.1438 24.0815 21.1734C24.5776 21.2707 25.074 21.3665 25.5707 21.4606C25.6483 21.4753 25.7259 21.49 25.8058 21.5052C26.0431 21.5499 26.2805 21.5937 26.5179 21.6372C26.626 21.6576 26.626 21.6576 26.7363 21.6784C27.3911 21.7966 27.9517 21.7929 28.6022 21.6599C28.6632 21.648 28.7241 21.636 28.7869 21.6236C28.9864 21.5843 29.1857 21.5441 29.385 21.5039C29.5243 21.4762 29.6637 21.4485 29.8031 21.4209C30.0941 21.363 30.3851 21.3048 30.676 21.2463C31.049 21.1712 31.4221 21.097 31.7953 21.023C32.0826 20.9661 32.3698 20.9088 32.6571 20.8512C32.7947 20.8238 32.9323 20.7963 33.0699 20.769C33.2619 20.7309 33.4537 20.6922 33.6456 20.6535C33.7309 20.6366 33.7309 20.6366 33.8179 20.6195C33.8702 20.6088 33.9224 20.5981 33.9763 20.5872C34.0216 20.5781 34.0669 20.5689 34.1135 20.5596C34.2509 20.522 34.3671 20.4671 34.4921 20.4C34.1992 20.3021 33.9063 20.2043 33.6133 20.1068C33.5135 20.0736 33.4138 20.0403 33.3141 20.007C33.1711 19.9591 33.0279 19.9115 32.8846 19.8639C32.84 19.8489 32.7952 19.8339 32.7492 19.8184C32.4498 19.7193 32.2936 19.71 31.9908 19.7815ZM7.41361 21.0862C7.31611 21.3036 7.28142 21.4819 7.29286 21.7165C7.32672 22.4282 7.32672 22.4282 7.15056 22.6975C6.94995 22.9145 6.71215 23.082 6.46813 23.2478C6.31332 23.3543 6.16715 23.4697 6.02025 23.5866C5.91268 23.6721 5.80409 23.7561 5.69521 23.84C5.4432 24.0351 5.19532 24.2351 4.94766 24.4356C4.68145 24.651 4.4152 24.8664 4.14661 25.0789C3.74379 25.3979 3.34445 25.7212 2.94492 26.0443C2.8426 26.127 2.7402 26.2096 2.63778 26.2922C1.79769 26.8599 1.79769 26.8599 1.23692 27.5977C1.23966 27.7656 1.23966 27.7656 1.35809 27.8608C1.54607 27.971 1.69686 27.992 1.9135 28.0194C1.95474 28.0248 1.99598 28.0302 2.03848 28.0358C2.17869 28.0541 2.31901 28.0712 2.45936 28.0882C2.56221 28.1013 2.66506 28.1144 2.76791 28.1277C2.99707 28.1569 3.2263 28.1856 3.45558 28.2139C3.78139 28.2541 4.10707 28.2953 4.43274 28.3367C5.39807 28.4593 6.3639 28.5776 7.33005 28.6937C7.41481 28.7039 7.49956 28.7141 7.58432 28.7243C10.3922 29.0623 13.2014 29.3409 16.0209 29.5628C16.0627 29.5662 16.1043 29.5694 16.1472 29.5728C18.4514 29.7803 18.4514 29.7803 20.7605 29.902C20.8291 29.9044 20.8977 29.9067 20.9683 29.9091C21.4571 29.8456 21.8475 29.4642 22.2251 29.1729C22.3428 29.083 22.4605 28.9932 22.5783 28.9034C22.6374 28.8583 22.6965 28.8133 22.7574 28.7669C23.0189 28.5691 23.2833 28.3755 23.5485 28.1826C24.4191 27.5481 25.2806 26.9021 26.1386 26.2508C26.3274 26.1075 26.5167 25.9648 26.707 25.8234C26.7633 25.7812 26.7633 25.7812 26.8207 25.7383C26.917 25.6661 27.0136 25.5944 27.1102 25.5226C27.3315 25.3366 27.4889 25.1665 27.5812 24.8917C27.5984 24.5997 27.6008 24.3077 27.6031 24.0152C27.6042 23.9187 27.6059 23.8223 27.6083 23.7259C27.6117 23.5863 27.6131 23.4468 27.6141 23.3073C27.6162 23.243 27.6162 23.243 27.6183 23.1775C27.6174 22.9535 27.5911 22.8456 27.4509 22.668C27.2347 22.4953 27.0689 22.4643 26.8016 22.4458C26.7552 22.4414 26.7089 22.4371 26.6612 22.4326C26.5059 22.4185 26.3506 22.4063 26.1952 22.3941C26.0831 22.3844 25.971 22.3744 25.8589 22.3644C25.5541 22.3374 25.2491 22.3122 24.944 22.2873C24.6277 22.2611 24.3116 22.2333 23.9953 22.2057C23.2332 22.1396 22.4708 22.0762 21.7085 22.0131C21.3246 21.9812 20.9406 21.9492 20.5567 21.9172C19.913 21.8635 19.2693 21.81 18.6256 21.7566C17.7258 21.682 16.8261 21.607 15.9263 21.532C15.2174 21.473 14.5086 21.414 13.7997 21.3551C13.6885 21.3458 13.6885 21.3458 13.5751 21.3363C12.752 21.2678 11.9288 21.1995 11.1056 21.1317C10.8031 21.1068 10.5006 21.0817 10.1982 21.0565C9.92287 21.0336 9.64762 21.0109 9.37231 20.9883C9.27342 20.9802 9.17453 20.972 9.07571 20.9637C8.19631 20.8218 8.19631 20.8218 7.41361 21.0862Z" fill="#1A73EB"/>
<path d="M22.9365 3.46751C23.0385 3.46671 23.1405 3.46555 23.2425 3.464C23.8967 3.45527 24.5419 3.48179 25.0602 3.92638C25.686 4.66695 25.6103 5.5486 25.594 6.45688C25.5925 6.60268 25.5912 6.74853 25.59 6.89433C25.5864 7.28261 25.5807 7.67084 25.5744 8.05912C25.5695 8.37361 25.5656 8.68809 25.5617 9.00258C25.5496 9.95532 25.5334 10.9079 25.5161 11.8606C25.5102 12.189 25.5048 12.5175 25.4994 12.846C25.494 13.1665 25.4884 13.487 25.4827 13.8074C25.48 13.9583 25.4774 14.1091 25.4749 14.2599C25.4343 16.6772 25.4343 16.6772 24.9738 17.2145C24.8961 17.2781 24.8961 17.2781 24.8168 17.3431C24.7787 17.3744 24.7406 17.4058 24.7013 17.4381C24.124 17.8297 23.33 17.7315 22.6669 17.7055C22.5538 17.7018 22.4408 17.6982 22.3278 17.6947C22.0258 17.685 21.7238 17.6738 21.4218 17.6622C21.2365 17.6551 21.0512 17.6482 20.8659 17.6415C20.0384 17.6111 19.211 17.5773 18.3836 17.5424C18.1225 17.5314 17.8612 17.5208 17.6 17.5101C16.4496 17.4631 15.2989 17.4155 14.1493 17.3504C14.0215 17.3432 13.8937 17.3363 13.7658 17.3295C12.9919 17.2832 12.3781 17.1901 11.8272 16.614C11.6009 16.3441 11.4819 16.052 11.3717 15.7211C11.351 15.6593 11.3303 15.5976 11.3089 15.5339C11.3026 15.4002 11.3002 15.2663 11.2997 15.1324C11.2994 15.0914 11.2992 15.0505 11.299 15.0083C11.2983 14.8708 11.298 14.7334 11.2978 14.5959C11.2974 14.4974 11.297 14.3989 11.2965 14.3004C11.2952 13.9766 11.2946 13.6528 11.294 13.329C11.2937 13.2175 11.2934 13.1058 11.2932 12.9942C11.2919 12.4697 11.2911 11.9452 11.2906 11.4206C11.2899 10.8161 11.2883 10.2114 11.2857 9.60678C11.2838 9.13901 11.2829 8.67125 11.2827 8.20342C11.2826 7.92431 11.282 7.6452 11.2804 7.36602C11.2789 7.10301 11.2787 6.84005 11.2793 6.57704C11.2794 6.48096 11.279 6.38489 11.2781 6.28881C11.2723 5.60362 11.3182 4.91273 11.8245 4.39378C12.7114 3.69161 14.3799 3.8777 15.4618 3.81719C15.6023 3.80932 15.7428 3.80135 15.8833 3.79336C16.4158 3.76308 16.9483 3.73336 17.4808 3.70413C17.7554 3.68904 18.0301 3.6738 18.3048 3.65836C21.4999 3.47874 21.4999 3.47874 22.9365 3.46751ZM15.0486 5.93562C14.5855 6.49562 14.475 7.16458 14.3874 7.86055C14.3819 7.90416 14.3764 7.94783 14.3707 7.99275C14.3195 8.44404 14.3145 8.89203 14.3141 9.34588C14.3139 9.42904 14.3137 9.51226 14.3134 9.59542C14.3131 9.76967 14.3129 9.94391 14.313 10.1182C14.313 10.293 14.3125 10.4678 14.3117 10.6427C14.1385 13.2948 14.1385 13.2948 14.9981 15.6541C15.5454 16.175 16.1872 16.1937 16.9157 16.2307C17.0095 16.2359 17.1032 16.2413 17.1969 16.2466C17.3935 16.2577 17.59 16.2683 17.7866 16.2785C18.0331 16.2913 18.2795 16.3052 18.5259 16.3194C19.4499 16.3725 20.3733 16.4174 21.2989 16.4222C21.3648 16.4228 21.4306 16.4234 21.4985 16.4241C22.537 16.4209 23.3975 16.2063 24.1684 15.4996C25.2179 14.4115 25.2141 12.4649 25.2126 11.0561C25.2129 10.9544 25.2131 10.8528 25.2134 10.7511C25.2139 10.5404 25.2139 10.3298 25.2136 10.1191C25.2132 9.85089 25.2143 9.58276 25.2157 9.31457C25.2167 9.10557 25.2167 8.89658 25.2165 8.68753C25.2165 8.58871 25.2168 8.48983 25.2175 8.39101C25.2227 7.46147 25.0875 6.5509 24.4263 5.83888C23.243 4.7899 21.3128 5.0297 19.8357 5.03009C19.6326 5.0301 19.4296 5.02922 19.2265 5.02753C16.9875 4.95636 16.9875 4.95636 15.0486 5.93562Z" fill="#1A73EB"/>
<path d="M8.1017 24.0343C8.17583 24.0392 8.17584 24.0392 8.25142 24.0443C8.41207 24.0554 8.57253 24.0678 8.73299 24.0807C8.78545 24.0849 8.83797 24.0892 8.892 24.0935C9.29498 24.1265 9.69757 24.1633 10.1001 24.2004C10.2333 24.2125 10.3664 24.2246 10.4996 24.2366C10.8576 24.2692 11.2155 24.302 11.5735 24.3349C11.7974 24.3555 12.0214 24.376 12.2455 24.3965C13.0277 24.468 13.8099 24.5397 14.5922 24.6116C15.3203 24.6787 16.0485 24.7452 16.7768 24.8114C17.4036 24.8685 18.0305 24.9259 18.6573 24.9836C19.0311 25.018 19.4048 25.0522 19.7785 25.0861C20.1293 25.1179 20.48 25.1502 20.8307 25.1827C20.9592 25.1946 21.0878 25.2063 21.2164 25.2178C21.392 25.2337 21.5676 25.25 21.7432 25.2665C21.794 25.2709 21.8447 25.2754 21.897 25.28C22.1929 25.3084 22.46 25.3635 22.7435 25.4532C22.7923 25.5592 22.7923 25.5592 22.8063 25.7028C22.6926 25.8482 22.6926 25.8483 22.5275 26.003C22.4694 26.0579 22.4114 26.1128 22.3515 26.1694C22.169 26.3348 21.9844 26.4971 21.7967 26.6566C21.667 26.7707 21.5456 26.8903 21.4241 27.0129C20.3276 28.1123 20.3276 28.1123 19.8314 28.1458C19.1937 28.1485 18.5665 28.0888 17.9325 28.0256C17.8095 28.0136 17.6866 28.0017 17.5635 27.9898C17.2302 27.9574 16.8968 27.9244 16.5635 27.8913C16.3541 27.8706 16.1447 27.85 15.9352 27.8294C13.6432 27.6043 11.3521 27.37 9.06138 27.1312C8.8239 27.1065 8.58641 27.0818 8.34892 27.0572C7.97359 27.0181 7.59826 26.9789 7.22293 26.9394C7.08509 26.9249 6.94719 26.9105 6.80928 26.8961C6.12843 26.8252 5.44996 26.7533 4.77487 26.6385C4.73526 26.5232 4.73526 26.5232 4.71204 26.389C4.8431 26.2379 4.8431 26.2379 5.02618 26.0771C5.08271 26.024 5.13924 25.9709 5.19748 25.9162C5.55321 25.5906 5.91332 25.2762 6.29083 24.9754C6.42421 24.8674 6.55508 24.7583 6.68494 24.6463C6.73942 24.5997 6.73942 24.5997 6.79495 24.5521C6.86526 24.4916 6.93537 24.4307 7.00511 24.3695C7.36788 24.0586 7.63056 23.9978 8.1017 24.0343Z" fill="#1A73EB"/>
</g>
<path d="M116.553 22.6259V12.9128H119.918V21.8333C119.918 22.5274 120.095 23.1595 120.451 23.7293C120.807 24.2991 121.282 24.7549 121.875 25.0968C122.468 25.4284 123.121 25.5942 123.833 25.5942C124.555 25.5942 125.209 25.4284 125.79 25.0968C126.384 24.7549 126.853 24.2991 127.198 23.7293C127.554 23.1595 127.732 22.5274 127.732 21.8333V12.9128H131.098L131.113 28.4537H127.749L127.732 26.7752C127.182 27.4176 126.497 27.9253 125.677 28.2983C124.858 28.6713 123.979 28.8578 123.04 28.8578C121.843 28.8578 120.754 28.578 119.772 28.0186C118.79 27.4591 118.008 26.708 117.426 25.7651C116.843 24.8223 116.553 23.7759 116.553 22.6259Z" fill="white"/>
<path d="M111.188 5.14215H114.553V28.4536H111.188V26.169C110.659 26.9771 109.968 27.6298 109.117 28.1271C108.265 28.6141 107.267 28.8576 106.123 28.8576C104.948 28.8576 103.848 28.6452 102.823 28.2204C101.798 27.7956 100.892 27.2102 100.105 26.4643C99.3293 25.7079 98.7193 24.8377 98.2773 23.8534C97.8353 22.8691 97.6143 21.8124 97.6143 20.6831C97.6143 19.5537 97.8353 18.497 98.2773 17.5127C98.7193 16.5181 99.3293 15.6478 100.105 14.9018C100.892 14.1455 101.798 13.5549 102.823 13.1302C103.848 12.7054 104.948 12.493 106.123 12.493C107.267 12.493 108.265 12.7417 109.117 13.239C109.968 13.7259 110.659 14.3683 111.188 15.166V5.14215ZM106.156 25.7339C107.105 25.7339 107.936 25.5111 108.648 25.0656C109.36 24.6097 109.91 23.9985 110.297 23.2317C110.697 22.4651 110.896 21.6156 110.896 20.6831C110.896 19.7402 110.697 18.8855 110.297 18.1188C109.898 17.3521 109.343 16.746 108.631 16.3005C107.931 15.8447 107.105 15.6168 106.156 15.6168C105.217 15.6168 104.36 15.8447 103.583 16.3005C102.818 16.7563 102.203 17.3677 101.739 18.1344C101.286 18.901 101.06 19.7506 101.06 20.6831C101.06 21.6259 101.292 22.4806 101.755 23.2473C102.229 24.0036 102.851 24.6097 103.616 25.0656C104.392 25.5111 105.239 25.7339 106.156 25.7339Z" fill="white"/>
<path d="M87.5576 24.8297L92.0391 12.9879H95.6143L89.7256 28.5601H85.4053L79.5 12.9879H83.0918L87.5576 24.8297Z" fill="white"/>
<path d="M60.9392 22.6259V12.9128H64.3045V21.8333C64.3045 22.5274 64.4824 23.1595 64.8384 23.7293C65.1943 24.2991 65.6688 24.7549 66.262 25.0968C66.8553 25.4284 67.5078 25.5942 68.2197 25.5942C68.9424 25.5942 69.595 25.4284 70.1774 25.0968C70.7706 24.7549 71.2397 24.2991 71.5849 23.7293C71.9409 23.1595 72.1188 22.5274 72.1188 21.8333V12.9128H75.4841L75.5001 28.4537H72.135L72.1188 26.7752C71.5687 27.4176 70.8839 27.9253 70.0641 28.2983C69.2444 28.6713 68.3653 28.8578 67.4269 28.8578C66.2297 28.8578 65.1404 28.578 64.1588 28.0186C63.1773 27.4591 62.3953 26.708 61.8129 25.7651C61.2305 24.8223 60.9392 23.7759 60.9392 22.6259Z" fill="white"/>
<path d="M55.5741 5.14215H58.9392V28.4536H55.5741V26.169C55.0455 26.9771 54.3552 27.6298 53.5031 28.1271C52.6511 28.6141 51.6534 28.8576 50.5101 28.8576C49.3344 28.8576 48.2342 28.6452 47.2096 28.2204C46.1849 27.7956 45.2789 27.2102 44.4916 26.4643C43.7149 25.7079 43.1056 24.8377 42.6633 23.8534C42.2211 22.8691 42 21.8124 42 20.6831C42 19.5537 42.2211 18.497 42.6633 17.5127C43.1056 16.5181 43.7149 15.6478 44.4916 14.9018C45.2789 14.1455 46.1849 13.5549 47.2096 13.1302C48.2342 12.7054 49.3344 12.493 50.5101 12.493C51.6534 12.493 52.6511 12.7417 53.5031 13.239C54.3552 13.7259 55.0455 14.3683 55.5741 15.166V5.14215ZM50.5425 25.7339C51.4916 25.7339 52.3221 25.5111 53.0339 25.0656C53.7458 24.6097 54.2959 23.9985 54.6842 23.2317C55.0833 22.4651 55.2828 21.6156 55.2828 20.6831C55.2828 19.7402 55.0833 18.8855 54.6842 18.1188C54.2852 17.3521 53.7297 16.746 53.0178 16.3005C52.3167 15.8447 51.4916 15.6168 50.5425 15.6168C49.604 15.6168 48.7466 15.8447 47.97 16.3005C47.2042 16.7563 46.5894 17.3677 46.1256 18.1344C45.6726 18.901 45.4461 19.7506 45.4461 20.6831C45.4461 21.6259 45.6779 22.4806 46.1418 23.2473C46.6164 24.0036 47.2365 24.6097 48.0024 25.0656C48.779 25.5111 49.6257 25.7339 50.5425 25.7339Z" fill="white"/>
<defs>
<clipPath id="clip0_1968_42">
<rect width="36" height="34" fill="white"/>
</clipPath>
</defs>
</svg>
