<svg width="134" height="36" viewBox="0 0 134 36" fill="none" xmlns="http://www.w3.org/2000/svg">
<path d="M119.001 23.6383V13.9252H122.366V22.8457C122.366 23.5398 122.543 24.1719 122.899 24.7417C123.255 25.3115 123.73 25.7673 124.323 26.1092C124.916 26.4408 125.569 26.6066 126.281 26.6066C127.003 26.6066 127.657 26.4408 128.238 26.1092C128.832 25.7673 129.301 25.3115 129.646 24.7417C130.002 24.1719 130.18 23.5398 130.18 22.8457V13.9252H133.546L133.561 29.4661H130.197L130.18 27.7876C129.63 28.43 128.945 28.9377 128.125 29.3107C127.306 29.6837 126.427 29.8702 125.488 29.8702C124.291 29.8702 123.202 29.5904 122.22 29.031C121.238 28.4715 120.456 27.7204 119.874 26.7775C119.291 25.8347 119.001 24.7883 119.001 23.6383Z" fill="white"/>
<path d="M113.636 6.15451H117.001V29.466H113.636V27.1814C113.107 27.9895 112.416 28.6422 111.565 29.1395C110.713 29.6265 109.715 29.87 108.571 29.87C107.396 29.87 106.296 29.6576 105.271 29.2328C104.246 28.808 103.34 28.2226 102.553 27.4767C101.777 26.7203 101.167 25.8501 100.725 24.8658C100.283 23.8815 100.062 22.8248 100.062 21.6955C100.062 20.5661 100.283 19.5094 100.725 18.5251C101.167 17.5305 101.777 16.6602 102.553 15.9142C103.34 15.1579 104.246 14.5673 105.271 14.1426C106.296 13.7178 107.396 13.5054 108.571 13.5054C109.715 13.5054 110.713 13.7541 111.565 14.2514C112.416 14.7383 113.107 15.3807 113.636 16.1784V6.15451ZM108.604 26.7463C109.553 26.7463 110.384 26.5235 111.096 26.078C111.808 25.6221 112.358 25.0109 112.745 24.2441C113.145 23.4775 113.344 22.628 113.344 21.6955C113.344 20.7526 113.145 19.8979 112.745 19.1312C112.346 18.3645 111.791 17.7584 111.079 17.3129C110.379 16.8571 109.553 16.6292 108.604 16.6292C107.665 16.6292 106.808 16.8571 106.031 17.3129C105.266 17.7687 104.651 18.3801 104.187 19.1468C103.734 19.9134 103.508 20.763 103.508 21.6955C103.508 22.6383 103.74 23.493 104.203 24.2597C104.677 25.016 105.299 25.6221 106.064 26.078C106.84 26.5235 107.687 26.7463 108.604 26.7463Z" fill="white"/>
<path d="M90.0058 25.842L94.4872 14.0002H98.0624L92.1737 29.5725H87.8534L81.9481 14.0002H85.5399L90.0058 25.842Z" fill="white"/>
<path d="M63.3873 23.6383V13.9252H66.7526V22.8457C66.7526 23.5398 66.9305 24.1719 67.2865 24.7417C67.6424 25.3115 68.1169 25.7673 68.7101 26.1092C69.3034 26.4408 69.9559 26.6066 70.6678 26.6066C71.3905 26.6066 72.0431 26.4408 72.6255 26.1092C73.2187 25.7673 73.6878 25.3115 74.033 24.7417C74.389 24.1719 74.5669 23.5398 74.5669 22.8457V13.9252H77.9322L77.9482 29.4661H74.5831L74.5669 27.7876C74.0168 28.43 73.332 28.9377 72.5122 29.3107C71.6925 29.6837 70.8134 29.8702 69.875 29.8702C68.6778 29.8702 67.5885 29.5904 66.6069 29.031C65.6254 28.4715 64.8434 27.7204 64.261 26.7775C63.6786 25.8347 63.3873 24.7883 63.3873 23.6383Z" fill="white"/>
<path d="M58.0222 6.15451H61.3873V29.466H58.0222V27.1814C57.4936 27.9895 56.8033 28.6422 55.9512 29.1395C55.0992 29.6265 54.1015 29.87 52.9582 29.87C51.7825 29.87 50.6823 29.6576 49.6577 29.2328C48.633 28.808 47.727 28.2226 46.9397 27.4767C46.163 26.7203 45.5537 25.8501 45.1114 24.8658C44.6692 23.8815 44.4481 22.8248 44.4481 21.6955C44.4481 20.5661 44.6692 19.5094 45.1114 18.5251C45.5537 17.5305 46.163 16.6602 46.9397 15.9142C47.727 15.1579 48.633 14.5673 49.6577 14.1426C50.6823 13.7178 51.7825 13.5054 52.9582 13.5054C54.1015 13.5054 55.0992 13.7541 55.9512 14.2514C56.8033 14.7383 57.4936 15.3807 58.0222 16.1784V6.15451ZM52.9906 26.7463C53.9397 26.7463 54.7702 26.5235 55.482 26.078C56.1939 25.6221 56.744 25.0109 57.1323 24.2441C57.5314 23.4775 57.7309 22.628 57.7309 21.6955C57.7309 20.7526 57.5314 19.8979 57.1323 19.1312C56.7333 18.3645 56.1778 17.7584 55.4659 17.3129C54.7648 16.8571 53.9397 16.6292 52.9906 16.6292C52.0521 16.6292 51.1947 16.8571 50.4181 17.3129C49.6523 17.7687 49.0375 18.3801 48.5737 19.1468C48.1207 19.9134 47.8942 20.763 47.8942 21.6955C47.8942 22.6383 48.126 23.493 48.5899 24.2597C49.0645 25.016 49.6846 25.6221 50.4505 26.078C51.2271 26.5235 52.0738 26.7463 52.9906 26.7463Z" fill="white"/>
<mask id="mask0_1968_42" style="mask-type:alpha" maskUnits="userSpaceOnUse" x="0" y="0" width="39" height="36">
<path d="M37.4937 27.5422V25.7155L23.5315 32.4725L1.1068 29.9745L1.50962 31.0658C1.77328 31.7802 2.42617 32.2961 3.20669 32.4071L22.6901 35.1763C23.1529 35.2421 23.6254 35.1598 24.0347 34.9421L37.2739 27.9005C37.4096 27.8284 37.4937 27.6911 37.4937 27.5422Z" fill="#9747FF" stroke="#9747FF" stroke-width="0.413224"/>
<path d="M8.5777 21.4161L11.8716 20.6581L12.5319 20.2895L20.9618 20.736L30.8004 21.2194L34.5734 20.2895L37.9476 21.3636C38.122 21.4192 38.2399 21.5758 38.2399 21.7524V25.5533C38.2399 26.013 37.8461 26.3827 37.3677 26.3722L30.8004 26.2275L23.709 31.3602C23.375 31.6019 22.9603 31.7174 22.5435 31.6846L1.34133 30.0156L1.19148 29.6043C1.01291 29.1141 1.17439 28.5692 1.59487 28.2428L7.33121 23.7909L7.62065 22.3743C7.71704 21.9025 8.09101 21.5281 8.5777 21.4161Z" stroke="#9747FF" stroke-width="0.826448"/>
<path d="M29.7586 1.13868C30.0475 1.11289 30.335 1.20125 30.5546 1.38354L36.8576 6.62129C37.0787 6.80494 37.2119 7.06772 37.2254 7.34811L37.7785 18.893C37.8019 19.3858 37.4556 19.8241 36.9554 19.9362L31.0624 21.2573C30.9632 21.2795 30.8606 21.288 30.7591 21.2824L9.98688 20.1511C9.37842 20.118 8.92268 19.6019 8.98741 19.0197L10.6951 3.66561C10.7491 3.18101 11.1511 2.80002 11.6564 2.75492L29.7586 1.13868Z" stroke="#9747FF" stroke-width="0.826448"/>
<path d="M29.2222 27.0052L23.1476 31.6734L2.30467 29.2903C1.92976 29.2474 1.7936 28.7923 2.08764 28.5647L8.30216 23.7571L7.35226 23.6673L1.14922 28.5611L1 29.3595L2.32161 32.0009L13.2782 32.3081L23.1476 33.0042L37.9521 26.4576C38.2676 26.3181 38.4634 26.0087 38.4472 25.6755L38.2396 21.3945L29.8622 23.0121V25.7261C29.8622 26.2237 29.6268 26.6944 29.2222 27.0052Z" fill="#9747FF"/>
<path d="M25.3574 4.23196C27.0723 4.23201 27.6836 4.95781 27.6647 6.6834C27.6307 9.77514 27.5005 16.0442 27.5005 16.8017C27.5005 18.1546 26.7253 18.8607 25.1741 18.7431C22.2344 18.6386 16.3378 18.4213 14.721 18.3115C13.0269 18.1963 12.5981 16.9391 12.5981 15.743V7.01633C12.5982 5.0557 13.5575 4.84138 14.721 4.76135C17.9533 4.53911 24.585 4.23195 25.3574 4.23196ZM20.8407 5.75335C19.5373 5.75334 17.359 5.75314 16.3643 6.94858C15.3698 8.14467 15.8261 14.6244 15.9704 15.4226C16.1418 16.3719 16.4205 17.2065 17.9421 17.2334C24.1897 17.3434 27.3151 18.9959 27.3151 11.8863V8.85999C27.3151 7.60538 26.7149 6.05407 24.638 5.91206C22.5612 5.77013 22.4358 5.75335 20.8407 5.75335Z" fill="#9747FF"/>
<path d="M29.8625 24.9585V24.254C29.8625 23.9346 29.6076 23.6684 29.2762 23.6419L9.01689 22.0165C8.66205 21.988 8.35469 22.2507 8.34283 22.5925L8.30238 23.7582H6.99495L7.55528 21.6651L8.17786 21.2465L11.9756 20.4092L18.5127 20.8876L29.4493 22.9359C29.7221 22.9869 30.0027 22.9863 30.2753 22.9339L31.0348 22.788L29.8625 24.9585Z" fill="#9747FF"/>
<path d="M22.3591 32.2692L23.3609 35.3611" stroke="#9747FF" stroke-width="0.413224"/>
<path d="M37.6861 6.71294L37.9894 19.1589C37.9987 19.5433 37.7285 19.8824 37.3395 19.9737L30.7583 21.5164L28.6264 21.3731L28.6315 20.7528C29.0262 20.7741 29.4641 20.7988 29.8626 20.8176C30.8331 20.8634 30.8715 20.3267 30.8641 20.1499C30.6226 14.4063 30.2034 3.07656 30.182 2.23105C30.1637 1.50421 29.6495 1.54308 29.0102 1.60197L28.8128 1.61843L28.8168 1.22066C28.8179 1.10946 28.9107 1.01905 29.0264 1.01742L30.3956 1L37.6861 6.71294Z" fill="#9747FF"/>
<path d="M21.1731 29.4362L5.8625 27.9331C5.67639 27.9149 5.60331 27.6916 5.74504 27.5744L8.23106 25.517C8.45017 25.3356 8.73659 25.2476 9.02459 25.2731L24.514 26.6451C24.6973 26.6612 24.7744 26.878 24.6399 26.9986L22.3429 29.0581C22.028 29.3404 21.6015 29.4782 21.1731 29.4362Z" fill="#9747FF"/>
</mask>
<g mask="url(#mask0_1968_42)">
<path d="M39.5197 -0.413696H0.138557V36.206H39.5197V-0.413696Z" fill="#1A73EB"/>
</g>
</svg>
