<svg width="131" height="35" viewBox="0 0 131 35" fill="none" xmlns="http://www.w3.org/2000/svg">
<path d="M75.7213 20.7167C75.7213 24.2733 73.8791 26.4994 70.2201 27.4461L69.6827 26.3715C71.8065 25.8085 72.9579 24.3245 73.1882 21.8937C72.2926 22.1751 71.3971 22.3287 70.4504 22.3287C69.1454 22.3287 68.0963 21.7913 67.2775 20.7423C66.4843 19.7699 66.1005 18.5929 66.1005 17.1856C66.1005 15.3945 66.5867 13.936 67.559 12.7846C68.6081 11.5564 69.9898 10.9423 71.7553 10.9423H75.7213V20.7167ZM73.2138 20.1537V12.4776H71.8577C69.8107 12.4776 68.6081 14.1151 68.6081 16.7762C68.6081 19.3094 69.4013 20.5887 70.9877 20.5887C71.7553 20.5887 72.4973 20.4352 73.2138 20.1537ZM87.9439 16.6739V19.4373L88.3277 21.7657H78.1695L78.8348 19.4629H85.3084L85.3851 18.9256V16.2389C85.3851 14.9851 85.1293 14.0128 84.6431 13.2708C84.1825 12.6311 83.594 12.2984 82.852 12.2984C82.6217 12.2984 82.3402 12.3496 82.0588 12.4776C82.0588 12.2217 82.0076 11.7355 81.9308 11.0447C82.0076 11.0447 82.2891 11.0191 82.7241 10.9423C84.2849 10.9423 85.5387 11.4797 86.4854 12.5799C87.4321 13.6546 87.9183 15.0107 87.9439 16.6739Z" fill="white"/>
<path d="M50.6031 21.7657H47.9165C45.588 21.7657 44.1296 20.3328 44.1296 17.9532V12.6822H41.7244C39.6006 12.6822 38.5259 14.0384 38.5259 16.7762C38.5259 18.8744 39.3192 19.949 40.9312 19.9746H43.0549V21.6634C43.0549 23.1475 42.5943 24.4268 41.6476 25.5015C40.7009 26.6017 39.4471 27.2414 37.8607 27.4205H33.8691C31.4383 27.4205 29.596 26.6785 28.3422 25.22C27.2164 23.8639 26.6534 21.9704 26.6534 19.4885V14.8572H29.161V19.4373C29.161 23.4289 30.9521 25.7829 34.2273 25.7829H37.2722C38.2701 25.6038 39.0377 25.0921 39.6262 24.2477C40.1379 23.5568 40.4194 22.8404 40.445 22.0728C39.1145 22.0472 38.0398 21.6378 37.221 20.7934C36.3254 19.9235 35.8905 18.7208 35.8905 17.1856C35.8905 15.3433 36.4534 13.8337 37.5536 12.6822C38.6539 11.5308 40.1124 10.9423 41.9035 10.9423H46.7139L46.6883 17.3647C46.6883 18.772 47.3024 19.4629 48.5306 19.4629H50.6031V21.7657ZM38.9609 31.3354C38.9609 32.1798 38.3212 32.8706 37.4257 32.8706C36.5301 32.8706 35.8649 32.2309 35.8649 31.3354C35.8649 30.4398 36.5301 29.7746 37.4257 29.7746C38.2701 29.7746 38.9609 30.4398 38.9609 31.3354ZM34.8925 31.3354C34.8925 32.1798 34.2529 32.8706 33.3573 32.8706C32.4618 32.8706 31.7709 32.2309 31.7709 31.3354C31.7709 30.4398 32.4618 29.7746 33.3573 29.7746C34.1761 29.7746 34.8925 30.4398 34.8925 31.3354ZM58.214 2.88231C58.214 3.7011 57.5487 4.41755 56.6532 4.41755C55.8088 4.41755 55.1179 3.72669 55.1179 2.88231C55.1179 2.03793 55.8088 1.2959 56.6532 1.2959C57.5487 1.2959 58.214 1.98676 58.214 2.88231ZM60.2866 6.84834C60.2866 7.69272 59.5957 8.38358 58.7001 8.38358C57.8814 8.38358 57.1393 7.7439 57.1393 6.82275C57.1393 5.97837 57.8814 5.28752 58.7001 5.28752C59.5445 5.28752 60.2866 5.95279 60.2866 6.84834ZM56.1926 6.84834C56.1926 7.69272 55.4761 8.38358 54.6318 8.38358C53.7874 8.38358 53.0453 7.7439 53.0453 6.82275C53.0453 5.97837 53.7874 5.28752 54.6318 5.28752C55.4506 5.28752 56.1926 5.95279 56.1926 6.84834ZM61.1821 14.0895V15.2922C61.1821 19.8723 59.3654 21.7657 55.4506 21.7657H50.0005V19.4629H55.6553C57.3696 19.4629 58.2907 18.9511 58.4699 17.9276C58.0605 18.1323 57.4975 18.2347 56.7811 18.2347C53.9153 18.2347 52.4824 16.8786 52.4824 14.1919C52.4824 12.7334 53.0198 11.6332 54.0688 10.8911C54.8365 10.3538 55.732 10.0723 56.7811 10.0723C58.1884 10.0723 59.3142 10.4562 60.1074 11.2494C60.8239 11.9658 61.1821 12.9125 61.1821 14.0895ZM58.6746 14.1407C58.6746 12.4775 58.0605 11.6332 56.8579 11.6332C55.6297 11.6332 55.0156 12.5543 55.0156 14.371C55.0156 15.8551 55.5785 16.5971 56.6787 16.5971C57.4464 16.5971 58.1116 16.4692 58.649 16.2133C58.6746 15.6248 58.6746 14.9339 58.6746 14.1407Z" fill="white"/>
<path d="M9.62083 20.7167C9.62083 24.2733 7.77854 26.4994 4.11956 27.4461L3.58222 26.3715C5.70597 25.8085 6.8574 24.3245 7.08768 21.8937C6.19213 22.1751 5.29657 22.3287 4.34984 22.3287C3.04489 22.3287 1.99581 21.7913 1.17702 20.7423C0.383809 19.7699 0 18.5929 0 17.1856C0 15.3945 0.486159 13.936 1.45848 12.7846C2.50756 11.5564 3.88927 10.9423 5.65479 10.9423H9.62083V20.7167ZM7.11327 20.1537V12.4776H5.75714C3.71016 12.4776 2.50756 14.1151 2.50756 16.7762C2.50756 19.3094 3.30076 20.5887 4.88717 20.5887C5.65479 20.5887 6.39683 20.4352 7.11327 20.1537ZM21.8433 16.6739V19.4373L22.2272 21.7657H12.069L12.7343 19.4629H19.2079L19.2846 18.9256V16.2389C19.2846 14.9851 19.0287 14.0128 18.5426 13.2708C18.082 12.6311 17.4935 12.2984 16.7515 12.2984C16.5212 12.2984 16.2397 12.3496 15.9583 12.4776C15.9583 12.2217 15.9071 11.7355 15.8303 11.0447C15.9071 11.0447 16.1886 11.0191 16.6235 10.9423C18.1844 10.9423 19.4381 11.4797 20.3849 12.5799C21.3316 13.6546 21.8178 15.0107 21.8433 16.6739Z" fill="white"/>
<g clip-path="url(#clip0_1968_111)">
<path d="M123.076 0.57064C123.15 0.636406 123.225 0.702713 123.299 0.769493C123.381 0.842303 123.464 0.915088 123.547 0.987842C123.588 1.02443 123.629 1.06102 123.672 1.09872C123.857 1.26186 124.045 1.42116 124.233 1.5805C124.578 1.87315 124.921 2.16774 125.263 2.46291C125.527 2.68961 125.791 2.91524 126.055 3.14014C126.36 3.39895 126.664 3.65898 126.966 3.91995C127.563 4.43403 128.163 4.94466 128.765 5.45229C128.798 5.48057 128.832 5.50884 128.866 5.53798C128.997 5.64769 129.123 5.7536 129.268 5.84473C129.385 5.94747 129.385 5.94747 129.421 6.07992C129.423 6.13147 129.425 6.18302 129.427 6.23614C129.429 6.29551 129.432 6.35485 129.435 6.41605C129.438 6.51375 129.438 6.51375 129.441 6.61338C129.445 6.7165 129.445 6.7165 129.449 6.82168C129.459 7.05076 129.466 7.2799 129.474 7.50904C129.48 7.67018 129.487 7.83139 129.493 7.99253C129.508 8.37613 129.523 8.7598 129.536 9.14354C129.553 9.61105 129.571 10.0785 129.589 10.546C129.608 11.0422 129.627 11.5384 129.646 12.0346C129.686 13.1058 129.731 14.1766 129.786 15.2471C129.946 18.4258 129.946 18.4258 129.473 18.9792C129.195 19.2166 128.923 19.3318 128.569 19.4227C128.73 19.5299 128.847 19.5853 129.028 19.6464C129.08 19.6646 129.132 19.6828 129.186 19.7015C129.295 19.7391 129.404 19.7762 129.513 19.8131C129.846 19.9299 130.099 20.0294 130.265 20.3585C130.272 20.4985 130.275 20.6388 130.276 20.779C130.277 20.8439 130.277 20.8439 130.277 20.91C130.278 21.0534 130.279 21.1968 130.28 21.3401C130.28 21.389 130.28 21.438 130.281 21.4885C130.282 21.7478 130.283 22.0071 130.283 22.2664C130.284 22.534 130.286 22.8015 130.289 23.069C130.29 23.2749 130.291 23.4809 130.291 23.6869C130.291 23.7854 130.292 23.884 130.293 23.9826C130.295 24.1209 130.295 24.2591 130.294 24.3974C130.295 24.476 130.295 24.5546 130.296 24.6356C130.235 25.0593 129.962 25.2909 129.637 25.5365C129.574 25.5673 129.574 25.5673 129.511 25.5989C129.481 25.8053 129.461 26.01 129.446 26.2178C129.442 26.2616 129.437 26.3053 129.433 26.3504C129.43 26.3902 129.427 26.4299 129.423 26.4709C129.346 26.727 129.181 26.8782 128.961 27.0231C128.895 27.0581 128.829 27.0932 128.762 27.1292C128.726 27.1488 128.689 27.1683 128.652 27.1884C128.534 27.2518 128.416 27.3143 128.298 27.3768C128.173 27.4436 128.049 27.5106 127.924 27.5775C127.841 27.6227 127.757 27.6677 127.673 27.7127C127.302 27.9114 126.936 28.117 126.57 28.3243C126.025 28.632 125.475 28.93 124.923 29.2251C124.491 29.4564 124.063 29.6936 123.637 29.9346C123.085 30.2462 122.529 30.5484 121.97 30.847C121.539 31.0784 121.11 31.3156 120.684 31.5566C120.133 31.868 119.577 32.1703 119.019 32.4682C118.637 32.6727 118.258 32.8823 117.881 33.0965C116.949 33.626 116.949 33.626 116.49 33.8493C116.39 33.898 116.39 33.898 116.289 33.9478C115.65 34.1573 115.021 34.0544 114.371 33.9558C114.269 33.9409 114.166 33.926 114.064 33.9113C113.782 33.8703 113.5 33.8284 113.218 33.7863C112.912 33.7408 112.606 33.6963 112.3 33.6516C111.749 33.5711 111.199 33.4902 110.649 33.4089C109.681 33.2661 108.712 33.1252 107.744 32.9845C107.329 32.9241 106.914 32.8638 106.499 32.8034C106.453 32.7967 106.407 32.79 106.36 32.7831C105.167 32.6096 103.975 32.4348 102.783 32.26C102.568 32.2284 102.353 32.1968 102.138 32.1653C102.096 32.1592 102.054 32.1532 102.012 32.1469C101.397 32.0568 100.783 31.9673 100.168 31.8784C99.7216 31.8136 99.2749 31.7485 98.8283 31.6829C98.5898 31.6479 98.3513 31.6132 98.1127 31.579C97.8616 31.5431 97.6107 31.5061 97.3598 31.4689C97.2554 31.4543 97.2554 31.4543 97.1489 31.4394C96.4649 31.3361 95.8281 31.1555 95.3329 30.6521C95.0434 30.2523 94.8531 29.8157 94.6889 29.3537C94.6675 29.2937 94.646 29.2337 94.624 29.1718C94.3942 28.5105 94.192 27.8883 94.5162 27.2209C94.6855 26.9365 94.8802 26.7294 95.1366 26.5229C95.1721 26.4936 95.2077 26.4644 95.2443 26.4343C95.5368 26.1948 95.8353 25.9629 96.1345 25.7319C96.4264 25.5057 96.7095 25.2705 96.9911 25.0318C97.2349 24.8253 97.4826 24.6251 97.7336 24.4274C97.9594 24.2488 98.1835 24.068 98.4075 23.8871C98.451 23.8521 98.4944 23.817 98.5392 23.7809C98.9952 23.4137 98.9952 23.4137 99.4461 23.0403C99.6052 22.9163 99.6052 22.9163 99.776 22.8215C100.103 22.625 100.239 22.4451 100.336 22.0799C100.393 21.8262 100.439 21.5717 100.483 21.3152C100.552 20.9133 100.699 20.5902 100.987 20.2961C101.406 20.0088 101.851 19.8889 102.342 19.7776C102.411 19.7611 102.481 19.7446 102.552 19.7277C102.722 19.6877 102.891 19.6484 103.061 19.6099C103.017 19.5931 102.974 19.5765 102.93 19.5593C102.873 19.5371 102.816 19.515 102.758 19.4921C102.674 19.4594 102.674 19.4594 102.587 19.4259C102.156 19.2433 102.005 18.9486 101.804 18.5493C101.771 18.0424 101.827 17.536 101.88 17.0323C101.888 16.9512 101.896 16.8702 101.905 16.7867C101.927 16.5638 101.95 16.3409 101.973 16.118C101.988 15.9755 102.002 15.8331 102.017 15.6906C102.259 13.3171 102.515 10.945 102.772 8.57315C102.824 8.09939 102.875 7.62564 102.926 7.15182C102.976 6.68649 103.026 6.22115 103.077 5.75585C103.106 5.48161 103.136 5.20735 103.166 4.93307C103.193 4.67865 103.22 4.42426 103.248 4.1699C103.258 4.07729 103.268 3.98466 103.278 3.89203C103.429 2.47339 103.429 2.47339 103.877 2.0172C104.5 1.53799 105.506 1.60135 106.268 1.53158C106.38 1.52113 106.493 1.51065 106.605 1.50016C106.909 1.47182 107.212 1.44378 107.516 1.41581C107.839 1.38602 108.162 1.35595 108.485 1.32591C109.03 1.27521 109.576 1.22467 110.122 1.17427C110.673 1.12335 111.224 1.07231 111.775 1.02111C111.842 1.01489 111.909 1.00866 111.978 1.00225C112.113 0.989719 112.248 0.977192 112.383 0.964659C113.627 0.849016 114.872 0.733983 116.117 0.619476C116.75 0.56124 117.383 0.502683 118.016 0.443449C118.409 0.406655 118.802 0.370149 119.196 0.333896C119.415 0.313682 119.634 0.293323 119.853 0.272549C122.407 0.0311209 122.407 0.0311209 123.076 0.57064ZM119.869 1.12289C119.747 1.1341 119.625 1.14526 119.504 1.15641C119.175 1.18664 118.845 1.21733 118.516 1.24811C118.168 1.28062 117.819 1.31271 117.47 1.34484C116.883 1.39909 116.295 1.45361 115.707 1.50832C114.891 1.58435 114.074 1.65991 113.257 1.73536C111.774 1.87243 110.29 2.00953 108.807 2.1488C108.384 2.18846 107.961 2.22749 107.538 2.26626C107.236 2.29402 106.934 2.32211 106.632 2.35029C106.487 2.36372 106.342 2.37701 106.197 2.39016C105.996 2.40841 105.795 2.42717 105.594 2.44605C105.505 2.45394 105.505 2.45394 105.414 2.46198C104.871 2.50417 104.871 2.50417 104.387 2.72774C104.256 2.91549 104.252 3.14919 104.225 3.3709C104.217 3.42822 104.21 3.48555 104.202 3.54461C104.097 4.35606 104.009 5.16983 103.921 5.98325C103.895 6.22349 103.869 6.46371 103.842 6.7039C103.798 7.10996 103.753 7.51609 103.709 7.92222C103.665 8.3291 103.62 8.73591 103.576 9.14279C103.429 10.4815 103.283 11.8202 103.14 13.1592C103.123 13.3106 103.107 13.4618 103.091 13.6131C103.027 14.208 102.963 14.803 102.901 15.398C102.881 15.582 102.862 15.766 102.842 15.95C102.815 16.2038 102.788 16.4577 102.762 16.7116C102.754 16.7851 102.746 16.8585 102.738 16.9342C102.603 17.7857 102.603 17.7857 102.825 18.5649C103.104 18.7415 103.353 18.7484 103.681 18.767C103.746 18.7708 103.746 18.7708 103.813 18.7746C103.959 18.7831 104.105 18.7912 104.252 18.7993C104.357 18.8053 104.462 18.8113 104.567 18.8173C104.854 18.8337 105.142 18.8498 105.429 18.8657C105.611 18.8759 105.794 18.8862 105.976 18.8965C108.758 19.0534 111.54 19.2003 114.322 19.3452C114.854 19.3729 115.385 19.4007 115.916 19.4287C116.441 19.4563 116.966 19.4838 117.492 19.5112C117.8 19.5273 118.108 19.5434 118.416 19.5596C119.016 19.5912 119.616 19.622 120.216 19.6505C120.501 19.6643 120.786 19.6799 121.071 19.6973C121.201 19.705 121.331 19.712 121.461 19.7187C121.616 19.7267 121.771 19.7359 121.926 19.7465C122.335 19.7696 122.335 19.7696 122.709 19.6268C122.929 19.3113 122.896 19.031 122.882 18.6562C122.881 18.572 122.879 18.4877 122.878 18.4034C122.873 18.1553 122.865 17.9072 122.857 17.6592C122.851 17.4799 122.846 17.3005 122.84 17.1212C122.811 16.1534 122.776 15.1859 122.739 14.2183C122.725 13.8388 122.711 13.4593 122.697 13.0797C122.669 12.3289 122.641 11.578 122.613 10.8271C122.586 10.1011 122.559 9.37511 122.532 8.64907C122.53 8.58169 122.53 8.58169 122.527 8.51301C122.525 8.46815 122.524 8.4233 122.522 8.37713C122.491 7.54516 122.461 6.71325 122.43 5.88138C122.419 5.58898 122.408 5.29658 122.397 5.00417C122.383 4.61084 122.368 4.21751 122.353 3.82419C122.348 3.68034 122.342 3.53649 122.337 3.39265C122.322 2.97567 122.305 2.55879 122.286 2.14197C122.282 2.06097 122.279 1.97997 122.275 1.89651C122.271 1.83025 122.267 1.76398 122.262 1.69571C122.259 1.64305 122.256 1.59039 122.253 1.53613C122.215 1.3555 122.141 1.23181 122.034 1.08142C121.49 0.811272 120.461 1.06708 119.869 1.12289ZM126.318 19.8648C126.256 19.8796 126.193 19.8943 126.128 19.9096C126.025 19.9338 126.025 19.9338 125.921 19.9586C125.851 19.9751 125.781 19.9915 125.709 20.0085C125.484 20.0613 125.259 20.1144 125.034 20.1675C124.811 20.2202 124.587 20.2731 124.363 20.3257C124.224 20.3585 124.084 20.3914 123.945 20.4244C123.849 20.4469 123.849 20.4469 123.752 20.4698C123.696 20.483 123.64 20.4962 123.583 20.5097C123.528 20.5216 123.473 20.5334 123.417 20.5456C123.363 20.5579 123.31 20.5702 123.254 20.5829C122.93 20.6209 122.611 20.6014 122.285 20.5871C122.173 20.5825 122.173 20.5825 122.059 20.5779C121.277 20.545 120.496 20.5025 119.715 20.4582C119.458 20.4436 119.202 20.4292 118.945 20.4149C118.401 20.3846 117.858 20.354 117.315 20.3234C116.723 20.2901 116.132 20.2569 115.541 20.2239C115.328 20.212 115.114 20.2 114.901 20.1879C114.664 20.1745 114.428 20.1612 114.191 20.1481C114.122 20.1441 114.052 20.1401 113.981 20.136C113.607 20.1153 113.236 20.1051 112.862 20.1089C112.862 20.1295 112.862 20.1501 112.862 20.1713C113.749 20.3451 114.636 20.5186 115.523 20.692C115.935 20.7725 116.347 20.8531 116.759 20.9339C117.158 21.0121 117.558 21.0901 117.957 21.1681C118.108 21.1976 118.258 21.2271 118.409 21.2566C118.905 21.354 119.402 21.4498 119.898 21.5438C119.976 21.5585 120.054 21.5733 120.134 21.5884C120.371 21.6331 120.608 21.6769 120.846 21.7204C120.954 21.7408 120.954 21.7408 121.064 21.7617C121.719 21.8798 122.279 21.8762 122.93 21.7432C122.991 21.7312 123.052 21.7192 123.115 21.7069C123.314 21.6676 123.513 21.6274 123.713 21.5872C123.852 21.5595 123.991 21.5318 124.131 21.5041C124.422 21.4463 124.713 21.3881 125.004 21.3295C125.377 21.2545 125.75 21.1802 126.123 21.1063C126.41 21.0493 126.698 20.992 126.985 20.9345C127.122 20.907 127.26 20.8796 127.398 20.8523C127.59 20.8141 127.781 20.7755 127.973 20.7367C128.059 20.7199 128.059 20.7199 128.146 20.7027C128.198 20.6921 128.25 20.6814 128.304 20.6704C128.349 20.6613 128.395 20.6522 128.441 20.6428C128.579 20.6053 128.695 20.5503 128.82 20.4833C128.527 20.3853 128.234 20.2876 127.941 20.19C127.841 20.1569 127.742 20.1235 127.642 20.0902C127.499 20.0423 127.356 19.9947 127.212 19.9471C127.168 19.9321 127.123 19.9171 127.077 19.9016C126.777 19.8025 126.621 19.7932 126.318 19.8648ZM101.741 21.1695C101.644 21.3868 101.609 21.5651 101.621 21.7997C101.654 22.5115 101.654 22.5115 101.478 22.7807C101.278 22.9978 101.04 23.1653 100.796 23.331C100.641 23.4376 100.495 23.5529 100.348 23.6698C100.24 23.7554 100.132 23.8394 100.023 23.9232C99.7709 24.1183 99.523 24.3183 99.2753 24.5188C99.0091 24.7343 98.7429 24.9496 98.4743 25.1622C98.0715 25.4812 97.6721 25.8045 97.2726 26.1276C97.1703 26.2103 97.0679 26.2929 96.9654 26.3755C96.1254 26.9432 96.1254 26.9432 95.5646 27.681C95.5673 27.8488 95.5673 27.8488 95.6858 27.9441C95.8737 28.0543 96.0245 28.0752 96.2412 28.1026C96.2824 28.1081 96.3237 28.1135 96.3662 28.1191C96.5064 28.1373 96.6467 28.1544 96.787 28.1715C96.8899 28.1846 96.9927 28.1977 97.0956 28.2109C97.3247 28.2401 97.554 28.2688 97.7833 28.2971C98.1091 28.3374 98.4347 28.3786 98.7604 28.4199C99.7257 28.5425 100.692 28.6608 101.658 28.7769C101.742 28.7872 101.827 28.7973 101.912 28.8076C104.72 29.1456 107.529 29.4241 110.349 29.6461C110.39 29.6494 110.432 29.6526 110.475 29.656C112.779 29.8635 112.779 29.8635 115.088 29.9853C115.157 29.9877 115.225 29.99 115.296 29.9924C115.785 29.9289 116.175 29.5475 116.553 29.2562C116.67 29.1663 116.788 29.0765 116.906 28.9867C116.965 28.9416 117.024 28.8965 117.085 28.8501C117.347 28.6524 117.611 28.4588 117.876 28.2658C118.747 27.6314 119.608 26.9854 120.466 26.3341C120.655 26.1908 120.844 26.0481 121.035 25.9067C121.091 25.8645 121.091 25.8645 121.148 25.8215C121.245 25.7494 121.341 25.6776 121.438 25.6059C121.659 25.4199 121.817 25.2497 121.909 24.975C121.926 24.683 121.928 24.3909 121.931 24.0984C121.932 24.002 121.934 23.9055 121.936 23.8091C121.939 23.6695 121.941 23.5301 121.942 23.3905C121.944 23.3263 121.944 23.3263 121.946 23.2607C121.945 23.0367 121.919 22.9289 121.779 22.7512C121.562 22.5785 121.397 22.5475 121.129 22.5291C121.083 22.5247 121.037 22.5204 120.989 22.5159C120.834 22.5017 120.678 22.4896 120.523 22.4774C120.411 22.4676 120.299 22.4577 120.187 22.4476C119.882 22.4206 119.577 22.3954 119.272 22.3705C118.955 22.3444 118.639 22.3166 118.323 22.289C117.561 22.2229 116.799 22.1594 116.036 22.0964C115.652 22.0645 115.268 22.0325 114.884 22.0004C114.241 21.9468 113.597 21.8932 112.953 21.8398C112.053 21.7652 111.154 21.6903 110.254 21.6153C109.545 21.5562 108.836 21.4973 108.127 21.4383C108.016 21.429 108.016 21.429 107.903 21.4196C107.08 21.3511 106.256 21.2828 105.433 21.2149C105.131 21.19 104.828 21.165 104.526 21.1398C104.251 21.1169 103.975 21.0941 103.7 21.0715C103.601 21.0634 103.502 21.0552 103.403 21.0469C102.524 20.905 102.524 20.905 101.741 21.1695Z" fill="#1A73EB"/>
<path d="M117.264 3.55077C117.366 3.54996 117.468 3.54881 117.57 3.54725C118.224 3.53852 118.87 3.56504 119.388 4.00963C120.014 4.7502 119.938 5.63185 119.922 6.54013C119.92 6.68593 119.919 6.83178 119.918 6.97758C119.914 7.36587 119.908 7.75409 119.902 8.14237C119.897 8.45686 119.893 8.77134 119.889 9.08583C119.877 10.0386 119.861 10.9912 119.844 11.9438C119.838 12.2723 119.832 12.6007 119.827 12.9293C119.822 13.2497 119.816 13.5702 119.81 13.8907C119.808 14.0415 119.805 14.1923 119.803 14.3432C119.762 16.7604 119.762 16.7604 119.301 17.2977C119.224 17.3614 119.224 17.3614 119.144 17.4264C119.106 17.4577 119.068 17.4891 119.029 17.5214C118.452 17.9129 117.658 17.8147 116.995 17.7888C116.882 17.7851 116.768 17.7815 116.655 17.778C116.353 17.7682 116.051 17.7571 115.749 17.7454C115.564 17.7384 115.379 17.7315 115.194 17.7248C114.366 17.6944 113.539 17.6606 112.711 17.6256C112.45 17.6147 112.189 17.604 111.928 17.5934C110.777 17.5463 109.627 17.4988 108.477 17.4336C108.349 17.4264 108.221 17.4196 108.093 17.4128C107.32 17.3664 106.706 17.2733 106.155 16.6972C105.929 16.4273 105.81 16.1352 105.699 15.8044C105.679 15.7426 105.658 15.6808 105.637 15.6172C105.63 15.4834 105.628 15.3495 105.627 15.2156C105.627 15.1747 105.627 15.1337 105.627 15.0915C105.626 14.954 105.626 14.8166 105.625 14.6791C105.625 14.5806 105.625 14.4822 105.624 14.3837C105.623 14.0599 105.622 13.7361 105.622 13.4123C105.621 13.3007 105.621 13.1891 105.621 13.0775C105.62 12.553 105.619 12.0284 105.618 11.5039C105.618 10.8993 105.616 10.2947 105.613 9.69003C105.612 9.22226 105.611 8.7545 105.61 8.28667C105.61 8.00756 105.61 7.72845 105.608 7.44927C105.607 7.18626 105.606 6.9233 105.607 6.66029C105.607 6.56421 105.607 6.46814 105.606 6.37207C105.6 5.68688 105.646 4.99598 106.152 4.47703C107.039 3.77486 108.708 3.96095 109.79 3.90044C109.93 3.89257 110.07 3.8846 110.211 3.87661C110.743 3.84633 111.276 3.81661 111.808 3.78738C112.083 3.7723 112.358 3.75705 112.632 3.74161C115.828 3.56199 115.828 3.56199 117.264 3.55077ZM109.376 6.01887C108.913 6.57887 108.803 7.24783 108.715 7.9438C108.71 7.98741 108.704 8.03108 108.698 8.076C108.647 8.52729 108.642 8.97528 108.642 9.42913C108.642 9.51229 108.641 9.59552 108.641 9.67868C108.641 9.85292 108.641 10.0272 108.641 10.2014C108.641 10.3763 108.64 10.5511 108.639 10.7259C108.466 13.3781 108.466 13.3781 109.326 15.7374C109.873 16.2582 110.515 16.2769 111.243 16.3139C111.337 16.3192 111.431 16.3245 111.525 16.3299C111.721 16.341 111.918 16.3516 112.114 16.3618C112.361 16.3746 112.607 16.3885 112.854 16.4027C113.778 16.4558 114.701 16.5007 115.627 16.5054C115.692 16.5061 115.758 16.5067 115.826 16.5073C116.865 16.5041 117.725 16.2895 118.496 15.5828C119.546 14.4948 119.542 12.5482 119.54 11.1394C119.541 11.0377 119.541 10.9361 119.541 10.8344C119.542 10.6237 119.542 10.413 119.541 10.2023C119.541 9.93414 119.542 9.66601 119.543 9.39782C119.544 9.18883 119.544 8.97984 119.544 8.77078C119.544 8.67196 119.545 8.57308 119.545 8.47427C119.55 7.54472 119.415 6.63415 118.754 5.92213C117.571 4.87315 115.64 5.11295 114.163 5.11334C113.96 5.11336 113.757 5.11248 113.554 5.11079C111.315 5.03962 111.315 5.03962 109.376 6.01887Z" fill="#1A73EB"/>
<path d="M102.429 24.1175C102.503 24.1225 102.503 24.1225 102.579 24.1275C102.74 24.1387 102.9 24.1511 103.061 24.164C103.113 24.1682 103.166 24.1724 103.22 24.1767C103.623 24.2097 104.025 24.2465 104.428 24.2837C104.561 24.2958 104.694 24.3079 104.827 24.3199C105.185 24.3525 105.543 24.3853 105.901 24.4182C106.125 24.4387 106.349 24.4592 106.573 24.4797C107.355 24.5512 108.138 24.623 108.92 24.6949C109.648 24.7619 110.376 24.8284 111.104 24.8947C111.731 24.9517 112.358 25.0092 112.985 25.0668C113.359 25.1012 113.732 25.1354 114.106 25.1693C114.457 25.2012 114.808 25.2334 115.158 25.266C115.287 25.2778 115.415 25.2896 115.544 25.3011C115.72 25.3169 115.895 25.3333 116.071 25.3498C116.122 25.3542 116.172 25.3586 116.225 25.3632C116.521 25.3916 116.788 25.4468 117.071 25.5365C117.12 25.6425 117.12 25.6425 117.134 25.786C117.02 25.9315 117.02 25.9315 116.855 26.0862C116.797 26.1412 116.739 26.1961 116.679 26.2527C116.497 26.418 116.312 26.5803 116.124 26.7398C115.995 26.8539 115.873 26.9736 115.752 27.0961C114.655 28.1955 114.655 28.1955 114.159 28.229C113.521 28.2317 112.894 28.1721 112.26 28.1089C112.137 28.0969 112.014 28.085 111.891 28.0731C111.558 28.0406 111.224 28.0077 110.891 27.9746C110.682 27.9538 110.472 27.9333 110.263 27.9127C107.971 27.6876 105.68 27.4532 103.389 27.2145C103.152 27.1898 102.914 27.165 102.677 27.1404C102.301 27.1014 101.926 27.0621 101.551 27.0226C101.413 27.0081 101.275 26.9937 101.137 26.9794C100.456 26.9085 99.7776 26.8365 99.1025 26.7218C99.0629 26.6064 99.0629 26.6064 99.0397 26.4723C99.1708 26.3212 99.1708 26.3212 99.3538 26.1603C99.4104 26.1072 99.4669 26.0542 99.5251 25.9995C99.8809 25.6739 100.241 25.3594 100.618 25.0586C100.752 24.9507 100.883 24.8415 101.013 24.7296C101.067 24.6829 101.067 24.6829 101.123 24.6353C101.193 24.5748 101.263 24.514 101.333 24.4528C101.696 24.1419 101.958 24.081 102.429 24.1175Z" fill="#1A73EB"/>
</g>
<defs>
<clipPath id="clip0_1968_111">
<rect width="36" height="34" fill="white" transform="translate(94.3277 0.083252)"/>
</clipPath>
</defs>
</svg>
