<svg xmlns="http://www.w3.org/2000/svg" viewBox="0 0 31 30" fill="none">
      <path d="M26.3541 8.4121C26.3291 8.4121 26.2916 8.4121 26.2541 8.4121C19.6416 7.7496 13.0416 7.4996 6.50408 8.1621L3.95408 8.4121C3.42908 8.4621 2.96658 8.0871 2.91658 7.5621C2.86658 7.0371 3.24158 6.5871 3.75408 6.5371L6.30408 6.2871C12.9541 5.6121 19.6916 5.8746 26.4416 6.5371C26.9541 6.5871 27.3291 7.0496 27.2791 7.5621C27.2416 8.0496 26.8291 8.4121 26.3541 8.4121Z"
        fill="#eb1a40" />
      <path d="M10.7294 7.15C10.6794 7.15 10.6294 7.15 10.5669 7.1375C10.0669 7.05 9.71694 6.5625 9.80444 6.0625L10.0794 4.425C10.2794 3.225 10.5544 1.5625 13.4669 1.5625H16.7419C19.6669 1.5625 19.9419 3.2875 20.1294 4.4375L20.4044 6.0625C20.4919 6.575 20.1419 7.0625 19.6419 7.1375C19.1294 7.225 18.6419 6.875 18.5669 6.375L18.2919 4.75C18.1169 3.6625 18.0794 3.45 16.7544 3.45H13.4794C12.1544 3.45 12.1294 3.625 11.9419 4.7375L11.6544 6.3625C11.5794 6.825 11.1794 7.15 10.7294 7.15Z"
        fill="#eb1a40" />
      <path d="M19.1165 28.4375H11.0915C6.729 28.4375 6.554 26.025 6.4165 24.075L5.604 11.4875C5.5665 10.975 5.9665 10.525 6.479 10.4875C7.004 10.4625 7.4415 10.85 7.479 11.3625L8.2915 23.95C8.429 25.85 8.479 26.5625 11.0915 26.5625H19.1165C21.7415 26.5625 21.7915 25.85 21.9165 23.95L22.729 11.3625C22.7665 10.85 23.2165 10.4625 23.729 10.4875C24.2415 10.525 24.6415 10.9625 24.604 11.4875L23.7915 24.075C23.654 26.025 23.479 28.4375 19.1165 28.4375Z"
        fill="#eb1a40" />
      <path d="M17.1781 21.5625H13.0156C12.5031 21.5625 12.0781 21.1375 12.0781 20.625C12.0781 20.1125 12.5031 19.6875 13.0156 19.6875H17.1781C17.6906 19.6875 18.1156 20.1125 18.1156 20.625C18.1156 21.1375 17.6906 21.5625 17.1781 21.5625Z"
        fill="#eb1a40" />
      <path d="M18.2285 16.5625H11.9785C11.466 16.5625 11.041 16.1375 11.041 15.625C11.041 15.1125 11.466 14.6875 11.9785 14.6875H18.2285C18.741 14.6875 19.166 15.1125 19.166 15.625C19.166 16.1375 18.741 16.5625 18.2285 16.5625Z"
        fill="#eb1a40" />
    </svg>