<svg width="320" height="334" viewBox="0 0 320 334" fill="none" xmlns="http://www.w3.org/2000/svg">
<g clip-path="url(#clip0_1030_92090)">
<path d="M123.806 333.288C191.851 333.288 247.013 323.544 247.013 311.523C247.013 299.502 191.851 289.757 123.806 289.757C55.7611 289.757 0.599609 299.502 0.599609 311.523C0.599609 323.544 55.7611 333.288 123.806 333.288Z" fill="#3F3D56"/>
<path d="M198.689 240.834C265.19 240.834 319.1 186.924 319.1 120.423C319.1 53.9215 265.19 0.0117188 198.689 0.0117188C132.188 0.0117188 78.2783 53.9215 78.2783 120.423C78.2783 186.924 132.188 240.834 198.689 240.834Z" fill="#3F3D56"/>
<path opacity="0.05" d="M198.689 219.826C253.588 219.826 298.092 175.321 298.092 120.423C298.092 65.5238 253.588 21.0195 198.689 21.0195C143.79 21.0195 99.2861 65.5238 99.2861 120.423C99.2861 175.321 143.79 219.826 198.689 219.826Z" fill="black"/>
<path opacity="0.05" d="M198.689 201.892C243.684 201.892 280.159 165.417 280.159 120.423C280.159 75.4283 243.684 38.9531 198.689 38.9531C153.695 38.9531 117.22 75.4283 117.22 120.423C117.22 165.417 153.695 201.892 198.689 201.892Z" fill="black"/>
<path opacity="0.05" d="M198.689 178.835C230.949 178.835 257.101 152.683 257.101 120.423C257.101 88.1627 230.949 62.0107 198.689 62.0107C166.428 62.0107 140.276 88.1627 140.276 120.423C140.276 152.683 166.428 178.835 198.689 178.835Z" fill="black"/>
<path d="M79.3441 131.199C79.3441 131.199 69.8773 157.846 74.0848 167.313C78.2922 176.78 84.954 185.896 84.954 185.896C84.954 185.896 82.4996 132.952 79.3441 131.199Z" fill="#D0CDE1"/>
<path opacity="0.1" d="M79.3441 131.199C79.3441 131.199 69.8773 157.846 74.0848 167.313C78.2922 176.78 84.954 185.896 84.954 185.896C84.954 185.896 82.4996 132.952 79.3441 131.199Z" fill="black"/>
<path d="M86.0055 192.907C86.0055 192.907 85.3042 199.569 84.9536 199.92C84.603 200.27 85.3042 200.972 84.9536 202.023C84.603 203.075 84.2524 204.478 84.9536 204.828C85.6549 205.179 81.0968 236.033 81.0968 236.033C81.0968 236.033 69.877 250.759 74.4351 273.9L75.8375 297.392C75.8375 297.392 86.7067 298.093 86.7067 294.236C86.7067 294.236 86.0055 289.678 86.0055 287.574C86.0055 285.471 87.7586 285.471 86.7067 284.419C85.6549 283.367 85.6549 282.666 85.6549 282.666C85.6549 282.666 87.408 281.263 87.0573 280.913C86.7067 280.562 90.2129 255.668 90.2129 255.668C90.2129 255.668 94.0697 251.811 94.0697 249.708V247.604C94.0697 247.604 95.8228 243.046 95.8228 242.695C95.8228 242.345 105.29 220.957 105.29 220.957L109.146 236.384L113.354 258.473C113.354 258.473 115.457 278.458 119.665 286.172C119.665 286.172 127.028 311.417 127.028 310.715C127.028 310.014 139.3 308.261 138.949 305.105C138.598 301.95 131.586 257.772 131.586 257.772L133.339 192.206L86.0055 192.907Z" fill="#2F2E41"/>
<path d="M76.5389 295.639C76.5389 295.639 67.0722 314.222 73.3833 314.923C79.6945 315.624 82.1488 315.624 84.9538 312.819C86.4872 311.286 89.5926 309.228 92.0928 307.678C93.5743 306.775 94.771 305.472 95.5458 303.919C96.3207 302.366 96.6422 300.627 96.4735 298.899C96.2886 297.184 95.6476 295.771 94.0699 295.639C89.8624 295.288 84.9538 291.432 84.9538 291.432L76.5389 295.639Z" fill="#2F2E41"/>
<path d="M128.781 309.314C128.781 309.314 119.314 327.897 125.626 328.598C131.937 329.299 134.391 329.299 137.196 326.494C138.729 324.961 141.835 322.903 144.335 321.353C145.816 320.449 147.013 319.147 147.788 317.594C148.563 316.041 148.884 314.301 148.716 312.574C148.531 310.859 147.89 309.445 146.312 309.314C142.105 308.963 137.196 305.106 137.196 305.106L128.781 309.314Z" fill="#2F2E41"/>
<path d="M118.776 100.788C126.916 100.788 133.515 94.1892 133.515 86.0493C133.515 77.9093 126.916 71.3105 118.776 71.3105C110.636 71.3105 104.037 77.9093 104.037 86.0493C104.037 94.1892 110.636 100.788 118.776 100.788Z" fill="#FFB8B8"/>
<path d="M109.301 90.8926C109.301 90.8926 98.7736 110.263 97.9314 110.263C97.0892 110.263 116.881 116.58 116.881 116.58C116.881 116.58 122.356 98.0514 123.198 96.367L109.301 90.8926Z" fill="#FFB8B8"/>
<path d="M125.451 112.09C125.451 112.09 104.414 100.519 102.31 100.87C100.206 101.221 77.7667 120.855 78.1173 128.92C78.468 136.984 81.2729 150.307 81.2729 150.307C81.2729 150.307 82.3248 187.473 84.4285 187.824C86.5322 188.174 84.0779 194.485 84.7791 194.485C85.4803 194.485 133.866 194.485 134.216 193.434C134.567 192.382 125.451 112.09 125.451 112.09Z" fill="#D0CDE1"/>
<path d="M137.196 195.361C137.196 195.361 143.858 215.697 138.248 214.996C132.638 214.295 130.184 197.465 130.184 197.465L137.196 195.361Z" fill="#FFB8B8"/>
<path d="M119.315 110.863C119.315 110.863 106.342 113.668 108.446 131.199C110.549 148.73 114.406 166.261 114.406 166.261L127.379 194.661L128.781 199.92L138.248 197.466L131.236 156.794C131.236 156.794 128.781 113.317 125.626 111.915C123.636 111.067 121.472 110.706 119.315 110.863Z" fill="#D0CDE1"/>
<path opacity="0.1" d="M111.426 165.734L127.554 194.485L113.966 164.189L111.426 165.734Z" fill="black"/>
<path d="M133.449 81.7109L133.498 80.5846L135.739 81.1423C135.715 80.7807 135.612 80.4287 135.439 80.1104C135.266 79.7922 135.025 79.5154 134.735 79.2991L137.121 79.1657C135.119 76.3199 132.56 73.9095 129.6 72.0801C126.64 70.2507 123.339 69.0402 119.898 68.5218C114.736 67.7736 108.988 68.8563 105.448 72.6875C103.731 74.5458 102.652 76.9089 101.885 79.3198C100.472 83.7601 100.184 89.0533 103.131 92.6626C106.126 96.3309 111.359 97.0495 116.073 97.5035C117.732 97.6632 119.47 97.8118 121.007 97.1683C121.178 95.4052 120.952 93.6262 120.347 91.9617C120.094 91.4464 119.974 90.8766 119.996 90.3033C120.205 88.9009 122.076 88.5476 123.481 88.737C124.886 88.9265 126.576 89.2164 127.5 88.1402C128.136 87.399 128.098 86.3195 128.182 85.3463C128.412 82.697 133.425 82.2663 133.449 81.7109Z" fill="#2F2E41"/>
<path d="M223.85 314.519C233.334 314.519 241.023 306.83 241.023 297.346C241.023 287.861 233.334 280.173 223.85 280.173C214.365 280.173 206.677 287.861 206.677 297.346C206.677 306.83 214.365 314.519 223.85 314.519Z" fill="#1c72ea"/>
<path d="M22.1652 308.528C31.6496 308.528 39.3383 300.839 39.3383 291.355C39.3383 281.87 31.6496 274.182 22.1652 274.182C12.6808 274.182 4.99219 281.87 4.99219 291.355C4.99219 300.839 12.6808 308.528 22.1652 308.528Z" fill="#1c72ea"/>
<path d="M22.1657 280.97C29.0033 280.97 34.5463 275.427 34.5463 268.59C34.5463 261.752 29.0033 256.209 22.1657 256.209C15.3281 256.209 9.78516 261.752 9.78516 268.59C9.78516 275.427 15.3281 280.97 22.1657 280.97Z" fill="#1c72ea"/>
<path d="M22.1651 258.206C27.0176 258.206 30.9513 254.272 30.9513 249.42C30.9513 244.568 27.0176 240.634 22.1651 240.634C17.3126 240.634 13.3789 244.568 13.3789 249.42C13.3789 254.272 17.3126 258.206 22.1651 258.206Z" fill="#1c72ea"/>
</g>
<defs>
<clipPath id="clip0_1030_92090">
<rect width="318.5" height="333.277" fill="white" transform="translate(0.599609 0.0117188)"/>
</clipPath>
</defs>
</svg>
