<svg width="35" height="35" viewBox="0 0 35 35" fill="none" xmlns="http://www.w3.org/2000/svg">
<g id="super-g">
<path id="Shape" d="M17.8577 6.76667C21.2109 6.76667 23.4728 8.18611 24.7625 9.37222L29.8022 4.55C26.707 1.73056 22.6792 0 17.8577 0C10.8736 0 4.8418 3.92778 1.90527 9.64445L7.67911 14.0389C9.12753 9.81945 13.1355 6.76667 17.8577 6.76667Z" fill="#EA4335"/>
<path id="Shape_2" d="M35.0004 17.8883C35.0004 16.4494 34.8813 15.3994 34.6234 14.3105H17.8574V20.805H27.6987C27.5003 22.4189 26.4289 24.8494 24.0479 26.4828L29.6829 30.7605C33.0559 27.7078 35.0004 23.2161 35.0004 17.8883Z" fill="#4285F4"/>
<path id="Shape_3" d="M7.69845 20.9612C7.32146 19.8723 7.10321 18.7056 7.10321 17.5001C7.10321 16.2945 7.32146 15.1279 7.67861 14.039L1.90477 9.64453C0.694448 12.0168 0 14.6806 0 17.5001C0 20.3195 0.694448 22.9834 1.90477 25.3556L7.69845 20.9612Z" fill="#FBBC05"/>
<path id="Shape_4" d="M17.8575 34.9998C22.679 34.9998 26.7266 33.4443 29.683 30.7609L24.048 26.4832C22.5401 27.5137 20.5163 28.2332 17.8575 28.2332C13.1353 28.2332 9.12734 25.1804 7.69876 20.9609L1.92493 25.3554C4.86145 31.0721 10.8734 34.9998 17.8575 34.9998Z" fill="#34A853"/>
</g>
</svg>
