<svg width="38" height="36" viewBox="0 0 38 36" fill="none" xmlns="http://www.w3.org/2000/svg">
<mask id="mask0_4372_12988" style="mask-type:alpha" maskUnits="userSpaceOnUse" x="0" y="0" width="38" height="36">
<path d="M36.4752 27.1108V25.2676L22.9421 32.0858L1.20654 29.5651L1.59698 30.6663C1.85254 31.3871 2.48536 31.9078 3.2419 32.0198L22.1265 34.814C22.5751 34.8804 23.0331 34.7973 23.4298 34.5777L36.2621 27.4723C36.3936 27.3995 36.4752 27.2611 36.4752 27.1108Z" fill="#9747FF" stroke="#9747FF" stroke-width="0.413224"/>
<path d="M8.44785 20.9298L11.6405 20.1649L12.2805 19.793L20.4513 20.2435L29.9876 20.7313L33.6446 19.793L36.9151 20.8768C37.0842 20.9328 37.1984 21.0909 37.1984 21.269V25.1044C37.1984 25.5682 36.8167 25.9413 36.353 25.9306L29.9876 25.7847L23.1141 30.9639C22.7904 31.2078 22.3884 31.3243 21.9844 31.2912L1.43388 29.607L1.28864 29.192C1.11555 28.6975 1.27207 28.1475 1.67963 27.8182L7.23967 23.326L7.52022 21.8966C7.61364 21.4206 7.97612 21.0428 8.44785 20.9298Z" stroke="#9747FF" stroke-width="0.826448"/>
<path d="M35.9536 19.437L30.241 20.7693C30.145 20.7917 30.0463 20.8003 29.9479 20.7947L9.81377 19.6529C9.224 19.6194 8.78231 19.0991 8.84505 18.5117L10.5 3.01833C10.5523 2.52933 10.942 2.14494 11.4316 2.09943L28.9781 0.468507C29.2582 0.442471 29.5368 0.531799 29.7496 0.715857L35.8589 6.001C36.0732 6.1864 36.2019 6.45171 36.215 6.73479L36.7509 18.3834C36.7738 18.8809 36.4386 19.3238 35.9536 19.437Z" stroke="#9747FF" stroke-width="0.826448"/>
<path d="M28.458 26.5698L22.5701 31.2801L2.36772 28.8755C2.00434 28.8323 1.87236 28.3729 2.15737 28.1434L8.18089 23.2922L7.26018 23.2016L1.24778 28.1396L1.10315 28.9454L2.38414 31.6107L13.004 31.9206L22.5701 32.6231L36.9196 26.0171C37.2254 25.8764 37.4152 25.5642 37.3995 25.2279L37.1982 20.9082L29.0784 22.5404V25.2791C29.0784 25.7812 28.8501 26.2561 28.458 26.5698Z" fill="#9747FF"/>
<path fill-rule="evenodd" clip-rule="evenodd" d="M12.3447 6.39966V15.205C12.3447 16.412 12.7603 17.681 14.4026 17.7971C15.9698 17.9079 21.6844 18.1269 24.5337 18.2325C26.0376 18.3512 26.7895 17.6389 26.7895 16.2736C26.7895 15.9347 26.8141 14.5017 26.8445 12.7395C26.8825 10.5285 26.9294 7.79936 26.9478 6.06324C26.9662 4.32199 26.374 3.58986 24.7118 3.58984C23.9631 3.58984 17.5356 3.89983 14.4026 4.12409C13.2747 4.20482 12.3447 4.42089 12.3447 6.39966ZM26.6094 8.25938C26.6094 6.99338 26.0276 5.42851 24.0145 5.28528C23.8652 5.27466 23.7263 5.26473 23.5964 5.25544C21.9756 5.13956 21.7653 5.12453 20.334 5.12452C19.0706 5.12452 16.9595 5.12452 15.9953 6.3308C15.0311 7.53708 15.4732 14.0763 15.613 14.8817C15.7792 15.8397 16.0495 16.6819 17.5247 16.709C18.5505 16.7278 19.4895 16.7913 20.3416 16.8489C24.5196 17.1313 26.6094 17.2726 26.6094 11.3139V8.25938Z" fill="#9747FF"/>
<path d="M29.0786 24.5044V23.7937C29.0786 23.4713 28.8316 23.2028 28.5104 23.176L8.87365 21.5358C8.52972 21.5071 8.23181 21.7722 8.22031 22.1171L8.1811 23.2934H6.91385L7.45696 21.1813L8.06041 20.7589L11.7415 19.9141L18.0777 20.3968L28.6781 22.4635C28.9426 22.5151 29.2145 22.5144 29.4787 22.4616L30.215 22.3143L29.0786 24.5044Z" fill="#9747FF"/>
<path d="M21.8057 31.8809L22.7767 35.0007" stroke="#9747FF" stroke-width="0.413224"/>
<path fill-rule="evenodd" clip-rule="evenodd" d="M27.8859 20.2613L27.8802 20.886L29.9464 21.0306L36.3254 19.4734C36.7025 19.3813 36.9647 19.0392 36.9556 18.6512L36.6612 6.09259L29.5951 0.328125L28.2682 0.346057C28.1559 0.347574 28.0654 0.438492 28.0644 0.550779L28.0607 0.952675L28.252 0.935793C28.8718 0.87635 29.3704 0.836692 29.3882 1.57023C29.4089 2.42273 29.8151 13.8556 30.0492 19.6513C30.0565 19.8297 30.0192 20.3717 29.0783 20.3254C28.6923 20.3064 28.2683 20.2828 27.8859 20.2613Z" fill="#9747FF"/>
<path d="M20.6562 29.0223L5.81621 27.5057C5.63582 27.4872 5.56498 27.262 5.70236 27.1436L8.11198 25.0676C8.32435 24.8846 8.60198 24.7958 8.88112 24.8215L23.8945 26.2059C24.0721 26.2223 24.1469 26.4409 24.0165 26.5627L21.7901 28.6408C21.4849 28.9257 21.0715 29.0647 20.6562 29.0223Z" fill="#9747FF"/>
</mask>
<g mask="url(#mask0_4372_12988)">
<rect x="0.268066" y="-1.09766" width="38.1708" height="36.9513" fill="#1A73EB"/>
</g>
</svg>
