<svg xmlns="http://www.w3.org/2000/svg" width="61" height="58" viewBox="0 0 61 58" fill="none">
  <mask id="mask0_407_13512" style="mask-type:alpha" maskUnits="userSpaceOnUse" x="0" y="0" width="61" height="58">
    <path d="M58.7739 44.1536V41.1517L36.7343 52.2556L1.33643 48.1506L1.97227 49.944C2.38847 51.1179 3.41907 51.9658 4.65115 52.1481L35.4061 56.6988C36.1366 56.8069 36.8825 56.6716 37.5285 56.3139L58.4269 44.7423C58.641 44.6238 58.7739 44.3983 58.7739 44.1536Z" fill="#9747FF" stroke="#9747FF" stroke-width="0.672964"/>
    <path d="M13.1294 34.0864L18.3288 32.8407L19.3711 32.235L32.6777 32.9687L48.2084 33.7631L54.1641 32.235L59.4903 34.0001C59.7657 34.0913 59.9516 34.3488 59.9516 34.6389V40.885C59.9516 41.6404 59.3301 42.2479 58.5748 42.2306L48.2084 41.993L37.0144 50.4276C36.4873 50.8249 35.8325 51.0145 35.1746 50.9606L1.70661 48.2179L1.47007 47.542C1.18818 46.7366 1.44309 45.841 2.10683 45.3047L11.1618 37.9888L11.6186 35.6609C11.7708 34.8857 12.3611 34.2704 13.1294 34.0864Z" stroke="#9747FF" stroke-width="1.34593"/>
    <path d="M57.9246 31.6545L48.6212 33.8243C48.4648 33.8608 48.3041 33.8747 48.1438 33.8656L15.354 32.0061C14.3935 31.9516 13.6742 31.1043 13.7763 30.1477L16.4716 4.91556C16.5567 4.1192 17.1913 3.49319 17.9888 3.41907L46.5645 0.762997C47.0206 0.720595 47.4744 0.866073 47.8209 1.16582L57.7703 9.77305C58.1193 10.075 58.329 10.5071 58.3502 10.9681L59.2231 29.9387C59.2603 30.7488 58.7144 31.4702 57.9246 31.6545Z" stroke="#9747FF" stroke-width="1.34593"/>
    <path d="M45.7173 43.2723L36.1284 50.9434L3.22741 47.0274C2.63562 46.9569 2.42068 46.2088 2.88483 45.835L12.6946 37.9346L11.1951 37.787L1.40351 45.8289L1.16797 47.1411L3.25416 51.4818L20.5493 51.9865L36.1284 53.1305L59.4976 42.3723C59.9956 42.143 60.3047 41.6346 60.2792 41.087L59.9513 34.052L46.7276 36.7102V41.1703C46.7276 41.988 46.3559 42.7614 45.7173 43.2723Z" fill="#9747FF"/>
    <path fill-rule="evenodd" clip-rule="evenodd" d="M19.4758 10.4195V24.7597C19.4758 26.7253 20.1526 28.792 22.8272 28.9811C25.3795 29.1616 34.6861 29.5182 39.3265 29.69C41.7756 29.8835 43.0002 28.7234 43.0002 26.4998C43.0002 25.948 43.0403 23.6142 43.0897 20.7444C43.1516 17.1436 43.2281 12.699 43.258 9.87161C43.2879 7.03587 42.3234 5.84354 39.6165 5.84351C38.3972 5.84349 27.9296 6.34834 22.8272 6.71356C20.9904 6.84504 19.4758 7.19693 19.4758 10.4195ZM42.7073 13.4468C42.7073 11.385 41.7598 8.8365 38.4814 8.60325C38.2382 8.58595 38.0119 8.56977 37.8005 8.55465C35.1608 8.36592 34.8185 8.34144 32.4875 8.34144C30.4299 8.34143 26.9917 8.34144 25.4215 10.306C23.8513 12.2705 24.5712 22.92 24.7989 24.2317C25.0696 25.7918 25.5099 27.1635 27.9122 27.2075C29.5828 27.2382 31.112 27.3415 32.4997 27.4354C39.304 27.8954 42.7073 28.1254 42.7073 18.4212V13.4468Z" fill="#9747FF"/>
    <path d="M46.728 39.9069V38.7493C46.728 38.2244 46.3256 37.7871 45.8025 37.7434L13.8228 35.0723C13.2627 35.0255 12.7775 35.4572 12.7588 36.0189L12.6949 37.9346H10.6311L11.5156 34.4949L12.4983 33.807L18.4932 32.4312L28.8122 33.2174L46.0758 36.5832C46.5064 36.6671 46.9493 36.666 47.3795 36.58L48.5786 36.3402L46.728 39.9069Z" fill="#9747FF"/>
    <path d="M34.8838 51.9191L36.4653 56.9999" stroke="#9747FF" stroke-width="0.672964"/>
    <path fill-rule="evenodd" clip-rule="evenodd" d="M44.7856 33.001L44.7764 34.0183L48.1412 34.2538L58.5298 31.7178C59.144 31.5678 59.571 31.0107 59.5562 30.3787L59.0768 9.92617L47.5692 0.53833L45.4081 0.567533C45.2253 0.570004 45.0779 0.71807 45.0762 0.900938L45.0703 1.55555L45.3814 1.5281C46.3906 1.43129 47.2027 1.3667 47.2317 2.56131C47.2653 3.94968 47.927 22.5689 48.3082 32.0076C48.32 32.2982 48.2594 33.1808 46.7271 33.1054C46.0985 33.0745 45.4082 33.0361 44.7856 33.001Z" fill="#9747FF"/>
    <path d="M33.0118 47.2679L8.84376 44.798C8.54997 44.768 8.43461 44.4011 8.65834 44.2083L12.5826 40.8274C12.9284 40.5294 13.3806 40.3848 13.8352 40.4267L38.2855 42.6812C38.5748 42.7079 38.6966 43.064 38.4842 43.2623L34.8584 46.6466C34.3614 47.1105 33.6881 47.3371 33.0118 47.2679Z" fill="#9747FF"/>
  </mask>
  <g mask="url(#mask0_407_13512)">
    <rect x="-0.19165" y="-1.7876" width="62.1639" height="60.1778" fill="#1A73EB"/>
  </g>
</svg>