<svg xmlns="http://www.w3.org/2000/svg" width="132" height="36" viewBox="0 0 132 36" fill="none">
  <path d="M117.5 23.1721V13.3711H120.762V22.3723C120.762 23.0728 120.934 23.7105 121.279 24.2855C121.624 24.8605 122.084 25.3205 122.659 25.6655C123.234 26 123.867 26.1673 124.557 26.1673C125.257 26.1673 125.89 26 126.454 25.6655C127.029 25.3205 127.484 24.8605 127.818 24.2855C128.163 23.7105 128.336 23.0728 128.336 22.3723V13.3711H131.598L131.613 29.0527H128.352L128.336 27.3591C127.803 28.0073 127.139 28.5195 126.344 28.8959C125.55 29.2722 124.698 29.4604 123.788 29.4604C122.628 29.4604 121.572 29.1781 120.621 28.6136C119.669 28.0491 118.911 27.2911 118.347 26.3398C117.782 25.3884 117.5 24.3325 117.5 23.1721Z" fill="#262626"/>
  <path d="M111.109 5.53027H114.37V29.0527H111.109V26.7475C110.596 27.5629 109.927 28.2215 109.101 28.7234C108.276 29.2147 107.309 29.4604 106.2 29.4604C105.061 29.4604 103.994 29.2461 103.001 28.8175C102.008 28.3888 101.13 27.7981 100.367 27.0454C99.6141 26.2823 99.0234 25.4041 98.5948 24.4109C98.1662 23.4178 97.9518 22.3514 97.9518 21.2119C97.9518 20.0723 98.1662 19.006 98.5948 18.0128C99.0234 17.0092 99.6141 16.131 100.367 15.3783C101.13 14.6151 102.008 14.0192 103.001 13.5906C103.994 13.162 105.061 12.9477 106.2 12.9477C107.309 12.9477 108.276 13.1986 109.101 13.7004C109.927 14.1917 110.596 14.8399 111.109 15.6449V5.53027ZM106.232 26.3084C107.152 26.3084 107.957 26.0836 108.647 25.6341C109.337 25.1741 109.87 24.5573 110.246 23.7837C110.633 23.01 110.826 22.1528 110.826 21.2119C110.826 20.2605 110.633 19.398 110.246 18.6244C109.859 17.8508 109.321 17.2392 108.631 16.7897C107.951 16.3297 107.152 16.0997 106.232 16.0997C105.322 16.0997 104.491 16.3297 103.738 16.7897C102.996 17.2497 102.4 17.8665 101.951 18.6401C101.512 19.4137 101.292 20.271 101.292 21.2119C101.292 22.1632 101.517 23.0257 101.966 23.7993C102.426 24.5625 103.027 25.1741 103.77 25.6341C104.522 26.0836 105.343 26.3084 106.232 26.3084Z" fill="#262626"/>
  <path d="M91.3848 29.0538H87.1978L81.474 13.3408H84.9553L89.2834 25.2902L93.6272 13.3408H97.0929L91.3848 29.0538Z" fill="#262626"/>
  <path d="M65.1565 23.1721V13.3711H68.4182V22.3723C68.4182 23.0728 68.5907 23.7105 68.9357 24.2855C69.2807 24.8605 69.7407 25.3205 70.3157 25.6655C70.8907 26 71.5232 26.1673 72.2132 26.1673C72.9136 26.1673 73.5461 26 74.1107 25.6655C74.6856 25.3205 75.1404 24.8605 75.475 24.2855C75.82 23.7105 75.9924 23.0728 75.9924 22.3723V13.3711H79.2542L79.2699 29.0527H76.0081L75.9924 27.3591C75.4593 28.0073 74.7954 28.5195 74.0009 28.8959C73.2064 29.2722 72.3543 29.4604 71.4448 29.4604C70.2843 29.4604 69.2285 29.1781 68.2771 28.6136C67.3258 28.0491 66.5678 27.2911 66.0033 26.3398C65.4387 25.3884 65.1565 24.3325 65.1565 23.1721Z" fill="#262626"/>
  <path d="M58.7652 5.53027H62.027V29.0527H58.7652V26.7475C58.2529 27.5629 57.5839 28.2215 56.758 28.7234C55.9321 29.2147 54.965 29.4604 53.8569 29.4604C52.7173 29.4604 51.651 29.2461 50.6578 28.8175C49.6646 28.3888 48.7865 27.7981 48.0233 27.0454C47.2706 26.2823 46.6799 25.4041 46.2513 24.4109C45.8227 23.4178 45.6083 22.3514 45.6083 21.2119C45.6083 20.0723 45.8227 19.006 46.2513 18.0128C46.6799 17.0092 47.2706 16.131 48.0233 15.3783C48.7865 14.6151 49.6646 14.0192 50.6578 13.5906C51.651 13.162 52.7173 12.9477 53.8569 12.9477C54.965 12.9477 55.9321 13.1986 56.758 13.7004C57.5839 14.1917 58.2529 14.8399 58.7652 15.6449V5.53027ZM53.8882 26.3084C54.8082 26.3084 55.6132 26.0836 56.3032 25.6341C56.9932 25.1741 57.5264 24.5573 57.9027 23.7837C58.2895 23.01 58.4829 22.1528 58.4829 21.2119C58.4829 20.2605 58.2895 19.398 57.9027 18.6244C57.5159 17.8508 56.9775 17.2392 56.2875 16.7897C55.608 16.3297 54.8082 16.0997 53.8882 16.0997C52.9787 16.0997 52.1476 16.3297 51.3948 16.7897C50.6526 17.2497 50.0567 17.8665 49.6071 18.6401C49.1681 19.4137 48.9485 20.271 48.9485 21.2119C48.9485 22.1632 49.1733 23.0257 49.6228 23.7993C50.0828 24.5625 50.6839 25.1741 51.4262 25.6341C52.1789 26.0836 52.9996 26.3084 53.8882 26.3084Z" fill="#262626"/>
  <mask id="mask0_2522_12614" style="mask-type:alpha" maskUnits="userSpaceOnUse" x="0" y="0" width="38" height="36">
    <path d="M36.4752 27.1118V25.2686L22.9421 32.0867L1.20654 29.5661L1.59698 30.6673C1.85254 31.3881 2.48536 31.9088 3.2419 32.0207L22.1265 34.815C22.5751 34.8814 23.0331 34.7983 23.4298 34.5787L36.2621 27.4733C36.3936 27.4005 36.4752 27.2621 36.4752 27.1118Z" fill="#9747FF" stroke="#9747FF" stroke-width="0.413224"/>
    <path d="M8.44787 20.9298L11.6405 20.1649L12.2805 19.793L20.4513 20.2435L29.9876 20.7313L33.6447 19.793L36.9151 20.8768C37.0842 20.9328 37.1984 21.0909 37.1984 21.269V25.1044C37.1984 25.5682 36.8167 25.9413 36.353 25.9306L29.9876 25.7847L23.1142 30.9639C22.7904 31.2078 22.3884 31.3243 21.9845 31.2912L1.4339 29.607L1.28866 29.192C1.11557 28.6975 1.27209 28.1475 1.67965 27.8182L7.23969 23.326L7.52023 21.8966C7.61366 21.4206 7.97613 21.0428 8.44787 20.9298Z" stroke="#9747FF" stroke-width="0.826448"/>
    <path d="M35.9537 19.437L30.2411 20.7693C30.1451 20.7917 30.0463 20.8003 29.9479 20.7947L9.81382 19.6529C9.22404 19.6194 8.78235 19.0991 8.84509 18.5117L10.5001 3.01833C10.5523 2.52933 10.942 2.14494 11.4317 2.09943L28.9782 0.468507C29.2583 0.442471 29.5369 0.531799 29.7497 0.715857L35.8589 6.001C36.0732 6.1864 36.202 6.45171 36.215 6.73479L36.751 18.3834C36.7739 18.8809 36.4386 19.3238 35.9537 19.437Z" stroke="#9747FF" stroke-width="0.826448"/>
    <path d="M28.458 26.5698L22.5701 31.2801L2.36767 28.8755C2.00429 28.8323 1.87231 28.3729 2.15732 28.1434L8.18085 23.2922L7.26014 23.2016L1.24773 28.1396L1.1031 28.9454L2.3841 31.6107L13.0039 31.9206L22.5701 32.6231L36.9195 26.0171C37.2253 25.8764 37.4152 25.5642 37.3995 25.2279L37.1981 20.9082L29.0783 22.5404V25.2791C29.0783 25.7812 28.8501 26.2561 28.458 26.5698Z" fill="#9747FF"/>
    <path fill-rule="evenodd" clip-rule="evenodd" d="M12.3447 6.39966V15.205C12.3447 16.412 12.7602 17.681 14.4026 17.7971C15.9698 17.9079 21.6843 18.1269 24.5337 18.2325C26.0376 18.3512 26.7895 17.6389 26.7895 16.2736C26.7895 15.9347 26.8141 14.5017 26.8444 12.7395C26.8825 10.5285 26.9294 7.79936 26.9478 6.06324C26.9662 4.32199 26.3739 3.58986 24.7118 3.58984C23.9631 3.58984 17.5356 3.89983 14.4026 4.12409C13.2747 4.20482 12.3447 4.42089 12.3447 6.39966ZM26.6094 8.25938C26.6094 6.99338 26.0275 5.42851 24.0145 5.28528C23.8652 5.27466 23.7262 5.26473 23.5964 5.25544C21.9756 5.13956 21.7653 5.12453 20.334 5.12452C19.0706 5.12452 16.9594 5.12452 15.9953 6.3308C15.0311 7.53708 15.4732 14.0763 15.6129 14.8817C15.7792 15.8397 16.0495 16.6819 17.5246 16.709C18.5505 16.7278 19.4894 16.7913 20.3415 16.8489C24.5196 17.1313 26.6094 17.2726 26.6094 11.3139V8.25938Z" fill="#9747FF"/>
    <path d="M29.0786 24.5044V23.7937C29.0786 23.4713 28.8315 23.2028 28.5103 23.176L8.8736 21.5358C8.52968 21.5071 8.23176 21.7722 8.22026 22.1171L8.18105 23.2934H6.91381L7.45691 21.1813L8.06036 20.7589L11.7414 19.9141L18.0776 20.3968L28.6781 22.4635C28.9425 22.5151 29.2145 22.5144 29.4787 22.4616L30.2149 22.3143L29.0786 24.5044Z" fill="#9747FF"/>
    <path d="M21.8057 31.8809L22.7768 35.0007" stroke="#9747FF" stroke-width="0.413224"/>
    <path fill-rule="evenodd" clip-rule="evenodd" d="M27.886 20.2622L27.8803 20.887L29.9464 21.0316L36.3254 19.4744C36.7025 19.3823 36.9647 19.0402 36.9557 18.6521L36.6613 6.09357L29.5952 0.329102L28.2682 0.347033C28.156 0.348551 28.0654 0.439468 28.0644 0.551756L28.0608 0.953651L28.2521 0.93677C28.8718 0.877326 29.3705 0.837668 29.3883 1.5712C29.4089 2.42371 29.8152 13.8566 30.0493 19.6523C30.0565 19.8307 30.0193 20.3727 29.0784 20.3264C28.6924 20.3074 28.2684 20.2838 27.886 20.2622Z" fill="#9747FF"/>
    <path d="M20.6562 29.0223L5.8162 27.5057C5.63581 27.4872 5.56497 27.262 5.70235 27.1436L8.11196 25.0676C8.32434 24.8846 8.60196 24.7958 8.88111 24.8215L23.8945 26.2059C24.0721 26.2223 24.1469 26.4409 24.0165 26.5627L21.7901 28.6408C21.4849 28.9257 21.0715 29.0647 20.6562 29.0223Z" fill="#9747FF"/>
  </mask>
  <g mask="url(#mask0_2522_12614)">
    <rect x="0.268082" y="-1.09766" width="38.1708" height="36.9513" fill="#1A73EB"/>
  </g>
</svg>