<svg width="150" height="41" viewBox="0 0 150 41" fill="none" xmlns="http://www.w3.org/2000/svg">
<path d="M133.9 26.7884V15.6077H137.621V25.876C137.621 26.6751 137.818 27.4026 138.211 28.0585C138.605 28.7144 139.129 29.2392 139.785 29.6327C140.441 30.0144 141.163 30.2052 141.95 30.2052C142.749 30.2052 143.471 30.0144 144.115 29.6327C144.771 29.2392 145.289 28.7144 145.671 28.0585C146.065 27.4026 146.261 26.6751 146.261 25.876V15.6077H149.982L150 33.4968H146.279L146.261 31.5648C145.653 32.3042 144.896 32.8885 143.989 33.3179C143.083 33.7472 142.111 33.9619 141.073 33.9619C139.75 33.9619 138.545 33.6399 137.46 32.9959C136.375 32.3519 135.51 31.4872 134.866 30.402C134.222 29.3167 133.9 28.1122 133.9 26.7884Z" fill="white"/>
<path d="M126.609 6.66284H130.33V33.4965H126.609V30.8668C126.025 31.797 125.261 32.5484 124.319 33.1208C123.377 33.6814 122.274 33.9616 121.01 33.9616C119.71 33.9616 118.493 33.7171 117.36 33.2282C116.227 32.7392 115.226 32.0654 114.355 31.2067C113.496 30.3361 112.823 29.3343 112.334 28.2013C111.845 27.0684 111.6 25.8519 111.6 24.552C111.6 23.252 111.845 22.0356 112.334 20.9026C112.823 19.7577 113.496 18.7559 114.355 17.8972C115.226 17.0266 116.227 16.3468 117.36 15.8578C118.493 15.3689 119.71 15.1244 121.01 15.1244C122.274 15.1244 123.377 15.4106 124.319 15.9831C125.261 16.5436 126.025 17.283 126.609 18.2013V6.66284ZM121.046 30.3659C122.095 30.3659 123.013 30.1095 123.8 29.5967C124.588 29.0719 125.196 28.3683 125.625 27.4858C126.066 26.6032 126.287 25.6253 126.287 24.552C126.287 23.4667 126.066 22.4828 125.625 21.6003C125.184 20.7177 124.57 20.02 123.783 19.5072C123.007 18.9825 122.095 18.7201 121.046 18.7201C120.008 18.7201 119.06 18.9825 118.201 19.5072C117.354 20.032 116.675 20.7356 116.162 21.6181C115.661 22.5007 115.41 23.4786 115.41 24.552C115.41 25.6372 115.667 26.6211 116.18 27.5037C116.704 28.3743 117.39 29.0719 118.237 29.5967C119.096 30.1095 120.032 30.3659 121.046 30.3659Z" fill="white"/>
<path d="M104.109 33.4976H99.3323L92.8027 15.5728H96.7741L101.712 29.2043L106.667 15.5728H110.62L104.109 33.4976Z" fill="white"/>
<path d="M74.1885 26.7884V15.6077H77.9094V25.876C77.9094 26.6751 78.1062 27.4026 78.4998 28.0585C78.8933 28.7144 79.4181 29.2392 80.074 29.6327C80.7299 30.0144 81.4515 30.2052 82.2386 30.2052C83.0376 30.2052 83.7592 30.0144 84.4032 29.6327C85.0591 29.2392 85.5779 28.7144 85.9595 28.0585C86.3531 27.4026 86.5499 26.6751 86.5499 25.876V15.6077H90.2708L90.2887 33.4968H86.5677L86.5499 31.5648C85.9416 32.3042 85.1843 32.8885 84.2779 33.3179C83.3716 33.7472 82.3996 33.9619 81.362 33.9619C80.0382 33.9619 78.8337 33.6399 77.7484 32.9959C76.6631 32.3519 75.7985 31.4872 75.1545 30.402C74.5105 29.3167 74.1885 28.1122 74.1885 26.7884Z" fill="white"/>
<path d="M66.8967 6.66284H70.6176V33.4965H66.8967V30.8668C66.3123 31.797 65.549 32.5484 64.6069 33.1208C63.6647 33.6814 62.5615 33.9616 61.2974 33.9616C59.9974 33.9616 58.781 33.7171 57.648 33.2282C56.515 32.7392 55.5132 32.0654 54.6426 31.2067C53.7839 30.3361 53.1101 29.3343 52.6211 28.2013C52.1322 27.0684 51.8877 25.8519 51.8877 24.552C51.8877 23.252 52.1322 22.0356 52.6211 20.9026C53.1101 19.7577 53.7839 18.7559 54.6426 17.8972C55.5132 17.0266 56.515 16.3468 57.648 15.8578C58.781 15.3689 59.9974 15.1244 61.2974 15.1244C62.5615 15.1244 63.6647 15.4106 64.6069 15.9831C65.549 16.5436 66.3123 17.283 66.8967 18.2013V6.66284ZM61.3331 30.3659C62.3826 30.3659 63.301 30.1095 64.0881 29.5967C64.8752 29.0719 65.4834 28.3683 65.9128 27.4858C66.354 26.6032 66.5747 25.6253 66.5747 24.552C66.5747 23.4667 66.354 22.4828 65.9128 21.6003C65.4715 20.7177 64.8573 20.02 64.0702 19.5072C63.295 18.9825 62.3826 18.7201 61.3331 18.7201C60.2956 18.7201 59.3475 18.9825 58.4888 19.5072C57.642 20.032 56.9622 20.7356 56.4494 21.6181C55.9485 22.5007 55.6981 23.4786 55.6981 24.552C55.6981 25.6372 55.9545 26.6211 56.4673 27.5037C56.9921 28.3743 57.6778 29.0719 58.5246 29.5967C59.3832 30.1095 60.3194 30.3659 61.3331 30.3659Z" fill="white"/>
<mask id="mask0_5252_21700" style="mask-type:alpha" maskUnits="userSpaceOnUse" x="0" y="0" width="43" height="41">
<path d="M41.4688 31.2822V29.1794L26.0306 36.9574L1.23535 34.0819L1.68075 35.3382C1.97228 36.1605 2.69419 36.7544 3.55723 36.8821L25.1003 40.0697C25.612 40.1455 26.1344 40.0507 26.587 39.8001L41.2257 31.6946C41.3757 31.6115 41.4688 31.4536 41.4688 31.2822Z" fill="#9747FF" stroke="#9747FF" stroke-width="0.471394"/>
<path d="M9.49629 24.2304L13.1384 23.3578L13.8685 22.9336L23.1894 23.4475L34.0682 24.004L38.2401 22.9336L41.9709 24.17C42.1638 24.2339 42.294 24.4142 42.294 24.6175V28.9927C42.294 29.5219 41.8587 29.9474 41.3297 29.9352L34.0682 29.7688L26.2272 35.6771C25.8579 35.9553 25.3993 36.0882 24.9384 36.0504L1.49496 34.1292L1.32927 33.6558C1.13182 33.0916 1.31038 32.4642 1.77531 32.0886L8.11804 26.964L8.43808 25.3333C8.54465 24.7903 8.95815 24.3594 9.49629 24.2304Z" stroke="#9747FF" stroke-width="0.942788"/>
<path d="M32.917 0.888428C33.1967 0.86243 33.4753 0.937482 33.7031 1.09741L33.7969 1.17065L40.7666 7.19995C40.9804 7.38494 41.1197 7.63975 41.1611 7.91675L41.1729 8.03687L41.7842 21.3259C41.8085 21.8576 41.474 22.3348 40.9766 22.4988L40.874 22.5271L34.3574 24.0476C34.3027 24.0603 34.2472 24.0692 34.1914 24.074L34.0234 24.0759L11.0547 22.7732C10.424 22.7373 9.94216 22.2139 9.94336 21.5964L9.9502 21.4714L11.8379 3.79761C11.8937 3.27473 12.2877 2.85653 12.7969 2.76343L12.9004 2.74878L32.917 0.888428Z" stroke="#9747FF" stroke-width="0.942788"/>
<path d="M32.3228 30.6641L25.6061 36.0375L2.55977 33.2945C2.14524 33.2451 1.99468 32.7211 2.31981 32.4592L9.19127 26.9252L8.14095 26.8218L1.28218 32.455L1.11719 33.3742L2.57851 36.4147L14.6933 36.7682L25.6061 37.5696L41.9755 30.0337C42.3244 29.8731 42.5409 29.517 42.5231 29.1334L42.2934 24.2056L33.0305 26.0676V29.1917C33.0305 29.7645 32.7701 30.3063 32.3228 30.6641Z" fill="#9747FF"/>
<path d="M28.0498 4.44971C29.9455 4.44984 30.6215 5.28498 30.6006 7.271C30.563 10.8294 30.42 18.0449 30.4199 18.9185C30.4199 20.4759 29.5619 21.2891 27.8467 21.1538C24.5962 21.0334 18.0769 20.7831 16.2891 20.6567C14.4155 20.5243 13.9414 19.0766 13.9414 17.6997V7.65479C13.9415 5.39772 15.0025 5.15118 16.2891 5.05908C19.8631 4.80326 27.1957 4.4497 28.0498 4.44971ZM23.0557 6.20068C21.6144 6.20068 19.2064 6.20063 18.1064 7.57666C17.0066 8.95275 17.5105 16.4127 17.6699 17.3315C17.8596 18.4242 18.1682 19.3846 19.8506 19.4155C26.7586 19.5421 30.2138 21.4449 30.2139 13.2612V9.77686C30.2139 8.33264 29.5504 6.54668 27.2539 6.3833C24.9577 6.21994 24.8191 6.20069 23.0557 6.20068Z" fill="#9747FF"/>
<path d="M33.0308 28.3078V27.497C33.0308 27.1293 32.749 26.823 32.3826 26.7924L9.9816 24.9214C9.58926 24.8886 9.2494 25.1909 9.23628 25.5844L9.19155 26.9263H7.74592L8.36547 24.5169L9.05387 24.035L13.2531 23.0713L20.4813 23.622L32.574 25.9797C32.8756 26.0385 33.1859 26.0377 33.4872 25.9774L34.3271 25.8095L33.0308 28.3078Z" fill="#9747FF"/>
<path d="M24.7344 36.7234L25.8421 40.2824" stroke="#9747FF" stroke-width="0.471394"/>
<path d="M41.6821 7.30566L42.0171 21.6318C42.0275 22.0745 41.7285 22.4653 41.2983 22.5703L34.022 24.3467L31.6646 24.1816L31.6704 23.4678C32.1068 23.4924 32.5911 23.5203 33.0317 23.542C34.1047 23.5946 34.1474 22.976 34.1392 22.7725C33.8721 16.161 33.4089 3.11987 33.3853 2.14648C33.365 1.30969 32.7953 1.35504 32.0884 1.42285L31.8696 1.44141L31.8745 0.983398C31.8757 0.855399 31.979 0.751815 32.1069 0.75L33.6206 0.729492L41.6821 7.30566Z" fill="#9747FF"/>
<path d="M23.4234 33.4623L6.49439 31.7322C6.2886 31.7112 6.20779 31.4542 6.36451 31.3192L9.11333 28.9509C9.3556 28.7422 9.67231 28.6409 9.99075 28.6702L27.1176 30.2495C27.3202 30.2681 27.4055 30.5176 27.2568 30.6565L24.717 33.0271C24.3688 33.3521 23.8972 33.5108 23.4234 33.4623Z" fill="#9747FF"/>
</mask>
<g mask="url(#mask0_5252_21700)">
<rect x="0.165039" y="-0.897949" width="43.5441" height="42.153" fill="white"/>
</g>
</svg>
