<svg width="132" height="35" viewBox="0 0 132 35" fill="none" xmlns="http://www.w3.org/2000/svg">
<g clip-path="url(#clip0_1968_87)">
<path d="M28.7479 0.848472C28.8228 0.914238 28.8972 0.980545 28.9712 1.04732C29.0538 1.12013 29.1364 1.19292 29.2191 1.26567C29.2603 1.30226 29.3015 1.33885 29.3441 1.37655C29.5291 1.53969 29.7174 1.699 29.9058 1.85833C30.2504 2.15098 30.5933 2.44557 30.9358 2.74074C31.199 2.96744 31.4631 3.19307 31.7277 3.41797C32.0324 3.67678 32.336 3.93681 32.6387 4.19778C33.2354 4.71186 33.835 5.22249 34.4372 5.73012C34.4707 5.7584 34.5041 5.78668 34.5386 5.81581C34.669 5.92552 34.7957 6.03143 34.9402 6.12256C35.0576 6.22531 35.0576 6.22531 35.0931 6.35776C35.095 6.40931 35.0969 6.46085 35.0989 6.51397C35.1017 6.57334 35.1045 6.63268 35.1074 6.69388C35.1102 6.79158 35.1102 6.79158 35.113 6.89121C35.1173 6.99433 35.1173 6.99433 35.1217 7.09951C35.1312 7.32859 35.1388 7.55773 35.1464 7.78687C35.1527 7.94801 35.1591 8.10922 35.1656 8.27036C35.1808 8.65397 35.1949 9.03764 35.2085 9.42137C35.2251 9.88888 35.2432 10.3563 35.2613 10.8238C35.2805 11.32 35.2995 11.8162 35.318 12.3124C35.3579 13.3836 35.4033 14.4544 35.4582 15.525C35.6185 18.7037 35.6185 18.7037 35.1452 19.257C34.8669 19.4945 34.5951 19.6096 34.2408 19.7005C34.4028 19.8078 34.5195 19.8631 34.7 19.9242C34.7521 19.9424 34.8043 19.9606 34.858 19.9793C34.9671 20.0169 35.0764 20.0541 35.1858 20.0909C35.5183 20.2077 35.7715 20.3072 35.9372 20.6363C35.9443 20.7764 35.9472 20.9166 35.9483 21.0569C35.9489 21.1217 35.9489 21.1217 35.9496 21.1879C35.9508 21.3312 35.9516 21.4746 35.9522 21.6179C35.9524 21.6669 35.9527 21.7158 35.9529 21.7663C35.9543 22.0256 35.9551 22.2849 35.9557 22.5442C35.9564 22.8118 35.9586 23.0793 35.9611 23.3468C35.9627 23.5528 35.9632 23.7587 35.9635 23.9647C35.9638 24.0633 35.9645 24.1618 35.9657 24.2605C35.9672 24.3987 35.9671 24.537 35.9667 24.6752C35.9671 24.7538 35.9675 24.8324 35.9678 24.9134C35.9073 25.3372 35.6339 25.5687 35.3089 25.8143C35.2467 25.8452 35.2467 25.8452 35.1832 25.8767C35.1533 26.0831 35.1337 26.2878 35.1182 26.4957C35.1139 26.5394 35.1096 26.5831 35.1052 26.6282C35.1021 26.668 35.0989 26.7078 35.0957 26.7488C35.0184 27.0048 34.8529 27.156 34.6334 27.3009C34.5676 27.3359 34.5018 27.371 34.434 27.4071C34.3978 27.4266 34.3617 27.4461 34.3245 27.4662C34.2066 27.5296 34.0882 27.5922 33.9699 27.6547C33.8455 27.7214 33.7211 27.7884 33.5967 27.8554C33.5129 27.9005 33.429 27.9456 33.3452 27.9905C32.9745 28.1892 32.608 28.3948 32.2422 28.6022C31.6972 28.9099 31.1475 29.2079 30.5955 29.5029C30.1637 29.7343 29.7354 29.9715 29.3089 30.2125C28.7575 30.5241 28.2015 30.8263 27.6428 31.1248C27.2108 31.3562 26.7826 31.5934 26.356 31.8345C25.805 32.1458 25.2496 32.4481 24.6911 32.7461C24.309 32.9506 23.9304 33.1601 23.5537 33.3743C22.6217 33.9038 22.6217 33.9038 22.1623 34.1271C22.0627 34.1759 22.0627 34.1759 21.9611 34.2256C21.3224 34.4351 20.6931 34.3323 20.0431 34.2336C19.9409 34.2187 19.8386 34.2039 19.7364 34.1892C19.4542 34.1482 19.1722 34.1062 18.8901 34.0641C18.5842 34.0187 18.2781 33.9741 17.972 33.9294C17.4217 33.849 16.8713 33.768 16.3211 33.6868C15.3529 33.5439 14.3845 33.403 13.416 33.2623C13.0012 33.202 12.5864 33.1416 12.1715 33.0813C12.1255 33.0746 12.0795 33.0678 12.0321 33.061C10.8397 32.8874 9.64743 32.7127 8.45523 32.5378C8.24011 32.5062 8.02498 32.4747 7.80986 32.4432C7.76834 32.4371 7.72681 32.431 7.68402 32.4247C7.06963 32.3346 6.45512 32.2452 5.84061 32.1562C5.3939 32.0914 4.94726 32.0264 4.50067 31.9607C4.26217 31.9257 4.02364 31.891 3.78501 31.8568C3.53394 31.8209 3.28306 31.7839 3.03216 31.7468C2.92776 31.7321 2.92776 31.7321 2.82126 31.7172C2.13719 31.6139 1.50043 31.4333 1.00525 30.9299C0.715703 30.5301 0.525477 30.0935 0.361272 29.6315C0.339825 29.5715 0.318378 29.5115 0.296282 29.4496C0.0665613 28.7883 -0.13567 28.1661 0.188497 27.4987C0.357791 27.2143 0.552539 27.0072 0.808914 26.8007C0.844468 26.7715 0.880022 26.7422 0.916656 26.7121C1.20917 26.4726 1.5076 26.2408 1.80682 26.0098C2.09878 25.7835 2.38186 25.5483 2.66347 25.3096C2.90723 25.1032 3.15498 24.9029 3.40594 24.7053C3.63174 24.5266 3.85583 24.3459 4.07986 24.165C4.1233 24.1299 4.16675 24.0948 4.21151 24.0587C4.66754 23.6915 4.66754 23.6915 5.11847 23.3181C5.2775 23.1941 5.2775 23.1941 5.44832 23.0993C5.77566 22.9028 5.91179 22.7229 6.00811 22.3578C6.0657 22.1041 6.11161 21.8495 6.15488 21.5931C6.22459 21.1912 6.37106 20.8681 6.65969 20.5739C7.07856 20.2866 7.52337 20.1667 8.01443 20.0554C8.08379 20.0389 8.15315 20.0224 8.22459 20.0055C8.39391 19.9655 8.56335 19.9262 8.73298 19.8877C8.68976 19.871 8.64647 19.8543 8.60193 19.8371C8.54526 19.815 8.48852 19.7928 8.43016 19.77C8.34584 19.7372 8.34584 19.7372 8.25977 19.7038C7.82834 19.5212 7.67749 19.2264 7.47644 18.8271C7.44295 18.3203 7.49975 17.8138 7.55208 17.3101C7.56025 17.2291 7.56842 17.148 7.57684 17.0646C7.59927 16.8416 7.6222 16.6187 7.64526 16.3959C7.65996 16.2534 7.67453 16.1109 7.68905 15.9685C7.93093 13.5949 8.18689 11.2229 8.44448 8.85098C8.49594 8.37723 8.54702 7.90347 8.59797 7.42966C8.64804 6.96432 8.69843 6.49898 8.74894 6.03368C8.77872 5.75944 8.80844 5.48519 8.83784 5.2109C8.86517 4.95648 8.89275 4.70209 8.92065 4.44773C8.9307 4.35512 8.94069 4.2625 8.95056 4.16987C9.10178 2.75122 9.10178 2.75122 9.54974 2.29503C10.172 1.81582 11.1783 1.87918 11.9406 1.80941C12.0528 1.79896 12.165 1.78848 12.2773 1.77799C12.581 1.74965 12.8847 1.72162 13.1884 1.69364C13.5113 1.66385 13.8342 1.63378 14.157 1.60375C14.7027 1.55304 15.2483 1.50251 15.7939 1.4521C16.3451 1.40118 16.8963 1.35014 17.4474 1.29894C17.5143 1.29272 17.5813 1.28649 17.6504 1.28008C17.7853 1.26755 17.9201 1.25502 18.055 1.24249C19.2998 1.12685 20.5447 1.01182 21.7896 0.897308C22.4225 0.839072 23.0555 0.780515 23.6883 0.721281C24.0815 0.684487 24.4747 0.647981 24.8679 0.611728C25.087 0.591514 25.3061 0.571155 25.5252 0.550381C28.0796 0.308953 28.0796 0.308953 28.7479 0.848472ZM25.5412 1.40073C25.4195 1.41193 25.2978 1.4231 25.1761 1.43424C24.8468 1.46447 24.5176 1.49516 24.1884 1.52595C23.8399 1.55845 23.4913 1.59054 23.1428 1.62267C22.555 1.67692 21.9672 1.73144 21.3795 1.78615C20.5628 1.86218 19.7461 1.93774 18.9293 2.01319C17.446 2.15027 15.9626 2.28736 14.4794 2.42663C14.0564 2.46629 13.6333 2.50533 13.2102 2.54409C12.9081 2.57185 12.606 2.59995 12.304 2.62812C12.1591 2.64156 12.0141 2.65484 11.8692 2.66799C11.6681 2.68624 11.4672 2.705 11.2662 2.72388C11.1772 2.73177 11.1772 2.73177 11.0864 2.73981C10.5436 2.782 10.5436 2.782 10.0595 3.00557C9.92878 3.19332 9.92469 3.42702 9.89742 3.64873C9.88982 3.70606 9.88222 3.76338 9.87437 3.82244C9.76894 4.63389 9.6818 5.44766 9.59347 6.26108C9.56733 6.50132 9.54094 6.74155 9.51456 6.98173C9.47007 7.38779 9.42572 7.79392 9.38149 8.20005C9.33719 8.60693 9.29278 9.01374 9.24811 9.42062C9.10128 10.7593 8.95571 12.0981 8.8119 13.4371C8.79562 13.5884 8.77935 13.7397 8.76308 13.891C8.69912 14.4859 8.63573 15.0808 8.57303 15.6759C8.55368 15.8598 8.53407 16.0438 8.51428 16.2278C8.48708 16.4816 8.4605 16.7355 8.43399 16.9895C8.42607 17.0629 8.41809 17.1364 8.40986 17.212C8.27573 18.0635 8.27573 18.0635 8.49738 18.8427C8.77678 19.0193 9.02519 19.0262 9.35347 19.0448C9.41874 19.0486 9.41874 19.0486 9.48534 19.0525C9.63154 19.0609 9.77768 19.069 9.92388 19.0771C10.0289 19.0831 10.134 19.0891 10.2391 19.0951C10.5265 19.1115 10.8139 19.1276 11.1013 19.1436C11.2838 19.1537 11.4662 19.164 11.6487 19.1743C14.4303 19.3312 17.2125 19.4781 19.9947 19.623C20.526 19.6507 21.0572 19.6786 21.5884 19.7065C22.1135 19.7342 22.6388 19.7617 23.164 19.7891C23.4721 19.8052 23.7802 19.8213 24.0883 19.8375C24.6881 19.869 25.2879 19.8998 25.8878 19.9284C26.1732 19.9421 26.4584 19.9577 26.7435 19.9751C26.8735 19.9828 27.0035 19.9898 27.1336 19.9965C27.2884 20.0045 27.4433 20.0138 27.5981 20.0244C28.0076 20.0475 28.0076 20.0475 28.3814 19.9046C28.6012 19.5892 28.568 19.3089 28.5547 18.9341C28.5531 18.8498 28.5516 18.7655 28.5502 18.6812C28.5454 18.4331 28.5376 18.1851 28.5292 17.937C28.5233 17.7577 28.5178 17.5784 28.5125 17.3991C28.4835 16.4312 28.448 15.4637 28.4115 14.4962C28.3972 14.1167 28.3833 13.7371 28.3693 13.3576C28.3416 12.6067 28.3137 11.8558 28.2854 11.105C28.2582 10.3789 28.2312 9.65294 28.2045 8.9269C28.2019 8.85953 28.2019 8.85953 28.1994 8.79084C28.1978 8.74599 28.1962 8.70113 28.1945 8.65497C28.1638 7.82299 28.133 6.99109 28.102 6.15921C28.0911 5.86681 28.0803 5.57441 28.0695 5.282C28.0549 4.88867 28.0402 4.49534 28.0254 4.10202C28.02 3.95817 28.0147 3.81433 28.0094 3.67048C27.9941 3.2535 27.9774 2.83662 27.9581 2.4198C27.9545 2.3388 27.9509 2.2578 27.9471 2.17434C27.943 2.10808 27.939 2.04182 27.9348 1.97354C27.9317 1.92088 27.9286 1.86822 27.9254 1.81397C27.8873 1.63334 27.8131 1.50964 27.7068 1.35925C27.1627 1.0891 26.1329 1.34491 25.5412 1.40073ZM31.9908 20.1426C31.9279 20.1574 31.865 20.1722 31.8001 20.1874C31.6977 20.2117 31.6977 20.2117 31.5933 20.2364C31.5232 20.2529 31.4532 20.2694 31.381 20.2863C31.1563 20.3392 30.9315 20.3922 30.7068 20.4453C30.483 20.4981 30.2592 20.5509 30.0353 20.6035C29.8959 20.6363 29.7564 20.6693 29.617 20.7023C29.5214 20.7247 29.5214 20.7247 29.4239 20.7477C29.3683 20.7608 29.3125 20.774 29.2551 20.7875C29.2003 20.7994 29.1455 20.8112 29.089 20.8235C29.0355 20.8358 28.9819 20.8481 28.9267 20.8607C28.6025 20.8987 28.2833 20.8792 27.9577 20.8649C27.8457 20.8603 27.8457 20.8603 27.7313 20.8557C26.9497 20.8228 26.1686 20.7804 25.3876 20.736C25.1308 20.7214 24.874 20.7071 24.6172 20.6928C24.0738 20.6625 23.5303 20.6318 22.9869 20.6013C22.3958 20.5679 21.8046 20.5347 21.2134 20.5017C21.0001 20.4898 20.7868 20.4779 20.5735 20.4658C20.3368 20.4523 20.1001 20.4391 19.8635 20.4259C19.7941 20.4219 19.7248 20.4179 19.6534 20.4138C19.2795 20.3931 18.9085 20.3829 18.534 20.3868C18.534 20.4074 18.534 20.4279 18.534 20.4492C19.4211 20.6229 20.3081 20.7965 21.1953 20.9698C21.6074 21.0504 22.0195 21.131 22.4316 21.2117C22.8308 21.2899 23.2301 21.368 23.6293 21.446C23.78 21.4754 23.9308 21.5049 24.0815 21.5345C24.5776 21.6318 25.074 21.7276 25.5707 21.8216C25.6483 21.8364 25.7259 21.8511 25.8058 21.8662C26.0431 21.911 26.2805 21.9548 26.5179 21.9982C26.626 22.0186 26.626 22.0186 26.7363 22.0395C27.3911 22.1576 27.9517 22.154 28.6022 22.021C28.6632 22.009 28.7241 21.9971 28.7869 21.9847C28.9864 21.9454 29.1857 21.9052 29.385 21.865C29.5243 21.8373 29.6637 21.8096 29.8031 21.782C30.0941 21.7241 30.3851 21.6659 30.676 21.6073C31.049 21.5323 31.4221 21.4581 31.7953 21.3841C32.0826 21.3272 32.3698 21.2698 32.6571 21.2123C32.7947 21.1849 32.9323 21.1574 33.0699 21.1301C33.2619 21.092 33.4537 21.0533 33.6456 21.0146C33.7309 20.9977 33.7309 20.9977 33.8179 20.9806C33.8702 20.9699 33.9224 20.9592 33.9763 20.9482C34.0216 20.9391 34.0669 20.93 34.1135 20.9207C34.2509 20.8831 34.3671 20.8282 34.4921 20.7611C34.1992 20.6631 33.9063 20.5654 33.6133 20.4679C33.5135 20.4347 33.4138 20.4014 33.3141 20.3681C33.1711 20.3201 33.0279 20.2725 32.8846 20.2249C32.84 20.21 32.7952 20.1949 32.7492 20.1795C32.4498 20.0803 32.2936 20.071 31.9908 20.1426ZM7.41361 21.4473C7.31611 21.6647 7.28142 21.843 7.29286 22.0775C7.32672 22.7893 7.32672 22.7893 7.15056 23.0586C6.94995 23.2756 6.71215 23.4431 6.46813 23.6089C6.31332 23.7154 6.16715 23.8308 6.02025 23.9477C5.91268 24.0332 5.80409 24.1172 5.69521 24.2011C5.4432 24.3962 5.19532 24.5962 4.94766 24.7967C4.68145 25.0121 4.4152 25.2274 4.14661 25.44C3.74379 25.759 3.34445 26.0823 2.94492 26.4054C2.8426 26.4881 2.7402 26.5707 2.63778 26.6533C1.79769 27.221 1.79769 27.221 1.23692 27.9588C1.23966 28.1267 1.23966 28.1267 1.35809 28.2219C1.54607 28.3321 1.69686 28.3531 1.9135 28.3805C1.95474 28.3859 1.99598 28.3913 2.03848 28.3969C2.17869 28.4151 2.31901 28.4322 2.45936 28.4493C2.56221 28.4624 2.66506 28.4755 2.76791 28.4888C2.99707 28.518 3.2263 28.5467 3.45558 28.575C3.78139 28.6152 4.10707 28.6564 4.43274 28.6977C5.39807 28.8203 6.3639 28.9387 7.33005 29.0548C7.41481 29.065 7.49956 29.0752 7.58432 29.0854C10.3922 29.4234 13.2014 29.702 16.0209 29.9239C16.0627 29.9272 16.1043 29.9305 16.1472 29.9338C18.4514 30.1413 18.4514 30.1413 20.7605 30.2631C20.8291 30.2655 20.8977 30.2678 20.9683 30.2702C21.4571 30.2067 21.8475 29.8253 22.2251 29.534C22.3428 29.4441 22.4605 29.3543 22.5783 29.2645C22.6374 29.2194 22.6965 29.1744 22.7574 29.128C23.0189 28.9302 23.2833 28.7366 23.5485 28.5437C24.4191 27.9092 25.2806 27.2632 26.1386 26.6119C26.3274 26.4686 26.5167 26.3259 26.707 26.1845C26.7633 26.1423 26.7633 26.1423 26.8207 26.0993C26.917 26.0272 27.0136 25.9555 27.1102 25.8837C27.3315 25.6977 27.4889 25.5276 27.5812 25.2528C27.5984 24.9608 27.6008 24.6688 27.6031 24.3763C27.6042 24.2798 27.6059 24.1834 27.6083 24.087C27.6117 23.9474 27.6131 23.8079 27.6141 23.6684C27.6162 23.6041 27.6162 23.6041 27.6183 23.5385C27.6174 23.3146 27.5911 23.2067 27.4509 23.029C27.2347 22.8564 27.0689 22.8254 26.8016 22.8069C26.7552 22.8025 26.7089 22.7982 26.6612 22.7937C26.5059 22.7796 26.3506 22.7674 26.1952 22.7552C26.0831 22.7454 25.971 22.7355 25.8589 22.7255C25.5541 22.6985 25.2491 22.6733 24.944 22.6484C24.6277 22.6222 24.3116 22.5944 23.9953 22.5668C23.2332 22.5007 22.4708 22.4373 21.7085 22.3742C21.3246 22.3423 20.9406 22.3103 20.5567 22.2782C19.913 22.2246 19.2693 22.1711 18.6256 22.1177C17.7258 22.043 16.8261 21.9681 15.9263 21.8931C15.2174 21.8341 14.5086 21.7751 13.7997 21.7161C13.6885 21.7068 13.6885 21.7068 13.5751 21.6974C12.752 21.6289 11.9288 21.5606 11.1056 21.4927C10.8031 21.4678 10.5006 21.4428 10.1982 21.4176C9.92287 21.3947 9.64762 21.372 9.37231 21.3494C9.27342 21.3413 9.17453 21.333 9.07571 21.3247C8.19631 21.1829 8.19631 21.1829 7.41361 21.4473Z" fill="#1A73EB"/>
<path d="M22.9365 3.8286C23.0385 3.82779 23.1405 3.82664 23.2425 3.82508C23.8967 3.81635 24.5419 3.84287 25.0602 4.28746C25.686 5.02803 25.6103 5.90968 25.594 6.81797C25.5925 6.96376 25.5912 7.10962 25.59 7.25541C25.5864 7.6437 25.5807 8.03192 25.5744 8.42021C25.5695 8.73469 25.5656 9.04918 25.5617 9.36366C25.5496 10.3164 25.5334 11.269 25.5161 12.2217C25.5102 12.5501 25.5048 12.8786 25.4994 13.2071C25.494 13.5276 25.4884 13.848 25.4827 14.1685C25.48 14.3194 25.4774 14.4701 25.4749 14.621C25.4343 17.0382 25.4343 17.0382 24.9738 17.5756C24.8961 17.6392 24.8961 17.6392 24.8168 17.7042C24.7787 17.7355 24.7406 17.7669 24.7013 17.7992C24.124 18.1907 23.33 18.0926 22.6669 18.0666C22.5538 18.0629 22.4408 18.0593 22.3278 18.0558C22.0258 18.0461 21.7238 18.0349 21.4218 18.0232C21.2365 18.0162 21.0512 18.0093 20.8659 18.0026C20.0384 17.9722 19.211 17.9384 18.3836 17.9035C18.1225 17.8925 17.8612 17.8819 17.6 17.8712C16.4496 17.8242 15.2989 17.7766 14.1493 17.7114C14.0215 17.7043 13.8937 17.6974 13.7658 17.6906C12.9919 17.6443 12.3781 17.5512 11.8272 16.975C11.6009 16.7052 11.4819 16.4131 11.3717 16.0822C11.351 16.0204 11.3303 15.9587 11.3089 15.895C11.3026 15.7613 11.3002 15.6273 11.2997 15.4935C11.2994 15.4525 11.2992 15.4115 11.299 15.3694C11.2983 15.2319 11.298 15.0944 11.2978 14.9569C11.2974 14.8584 11.297 14.76 11.2965 14.6615C11.2952 14.3377 11.2946 14.0139 11.294 13.6901C11.2937 13.5785 11.2934 13.4669 11.2932 13.3553C11.2919 12.8308 11.2911 12.3063 11.2906 11.7817C11.2899 11.1771 11.2883 10.5725 11.2857 9.96786C11.2838 9.5001 11.2829 9.03233 11.2827 8.5645C11.2826 8.28539 11.282 8.00628 11.2804 7.72711C11.2789 7.46409 11.2787 7.20114 11.2793 6.93812C11.2794 6.84205 11.279 6.74597 11.2781 6.6499C11.2723 5.96471 11.3182 5.27381 11.8245 4.75486C12.7114 4.05269 14.3799 4.23878 15.4618 4.17827C15.6023 4.1704 15.7428 4.16243 15.8833 4.15444C16.4158 4.12417 16.9483 4.09444 17.4808 4.06521C17.7554 4.05013 18.0301 4.03488 18.3048 4.01944C21.4999 3.83982 21.4999 3.83982 22.9365 3.8286ZM15.0486 6.2967C14.5855 6.85671 14.475 7.52566 14.3874 8.22163C14.3819 8.26524 14.3764 8.30891 14.3707 8.35383C14.3195 8.80512 14.3145 9.25311 14.3141 9.70697C14.3139 9.79013 14.3137 9.87335 14.3134 9.95651C14.3131 10.1308 14.3129 10.305 14.313 10.4792C14.313 10.6541 14.3125 10.8289 14.3117 11.0038C14.1385 13.6559 14.1385 13.6559 14.9981 16.0152C15.5454 16.536 16.1872 16.5548 16.9157 16.5917C17.0095 16.597 17.1032 16.6024 17.1969 16.6077C17.3935 16.6188 17.59 16.6294 17.7866 16.6396C18.0331 16.6524 18.2795 16.6663 18.5259 16.6805C19.4499 16.7336 20.3733 16.7785 21.2989 16.7833C21.3648 16.7839 21.4306 16.7845 21.4985 16.7851C22.537 16.782 23.3975 16.5674 24.1684 15.8607C25.2179 14.7726 25.2141 12.826 25.2126 11.4172C25.2129 11.3155 25.2131 11.2139 25.2134 11.1122C25.2139 10.9015 25.2139 10.6908 25.2136 10.4802C25.2132 10.212 25.2143 9.94384 25.2157 9.67565C25.2167 9.46666 25.2167 9.25767 25.2165 9.04861C25.2165 8.9498 25.2168 8.85092 25.2175 8.7521C25.2227 7.82256 25.0875 6.91198 24.4263 6.19996C23.243 5.15098 21.3128 5.39078 19.8357 5.39118C19.6326 5.39119 19.4296 5.39031 19.2265 5.38862C16.9875 5.31745 16.9875 5.31745 15.0486 6.2967Z" fill="#1A73EB"/>
<path d="M8.1017 24.3954C8.17583 24.4003 8.17584 24.4003 8.25142 24.4053C8.41207 24.4165 8.57253 24.4289 8.73299 24.4418C8.78545 24.446 8.83797 24.4503 8.892 24.4546C9.29498 24.4876 9.69757 24.5244 10.1001 24.5615C10.2333 24.5736 10.3664 24.5857 10.4996 24.5977C10.8576 24.6303 11.2155 24.6631 11.5735 24.696C11.7974 24.7166 12.0214 24.737 12.2455 24.7576C13.0277 24.8291 13.8099 24.9008 14.5922 24.9727C15.3203 25.0397 16.0485 25.1062 16.7768 25.1725C17.4036 25.2296 18.0305 25.287 18.6573 25.3447C19.0311 25.379 19.4048 25.4132 19.7785 25.4472C20.1293 25.479 20.48 25.5112 20.8307 25.5438C20.9592 25.5557 21.0878 25.5674 21.2164 25.5789C21.392 25.5948 21.5676 25.6111 21.7432 25.6276C21.794 25.632 21.8447 25.6364 21.897 25.6411C22.1929 25.6695 22.46 25.7246 22.7435 25.8143C22.7923 25.9203 22.7923 25.9203 22.8063 26.0639C22.6926 26.2093 22.6926 26.2093 22.5275 26.3641C22.4694 26.419 22.4114 26.4739 22.3515 26.5305C22.169 26.6959 21.9844 26.8581 21.7967 27.0177C21.667 27.1318 21.5456 27.2514 21.4241 27.3739C20.3276 28.4734 20.3276 28.4734 19.8314 28.5069C19.1937 28.5095 18.5665 28.4499 17.9325 28.3867C17.8095 28.3747 17.6866 28.3628 17.5635 28.3509C17.2302 28.3185 16.8968 28.2855 16.5635 28.2524C16.3541 28.2317 16.1447 28.2111 15.9352 28.1905C13.6432 27.9654 11.3521 27.731 9.06138 27.4923C8.8239 27.4676 8.58641 27.4429 8.34892 27.4182C7.97359 27.3792 7.59826 27.3399 7.22293 27.3005C7.08509 27.286 6.94719 27.2716 6.80928 27.2572C6.12843 27.1863 5.44996 27.1144 4.77487 26.9996C4.73526 26.8843 4.73526 26.8843 4.71204 26.7501C4.8431 26.599 4.8431 26.599 5.02618 26.4382C5.08271 26.3851 5.13924 26.332 5.19748 26.2773C5.55321 25.9517 5.91332 25.6373 6.29083 25.3364C6.42421 25.2285 6.55508 25.1193 6.68494 25.0074C6.73942 24.9608 6.73942 24.9608 6.79495 24.9132C6.86526 24.8526 6.93537 24.7918 7.00511 24.7306C7.36788 24.4197 7.63056 24.3589 8.1017 24.3954Z" fill="#1A73EB"/>
</g>
<path d="M116.553 22.987V13.2739H119.918V22.1944C119.918 22.8885 120.095 23.5206 120.451 24.0904C120.807 24.6602 121.282 25.116 121.875 25.4579C122.468 25.7895 123.121 25.9553 123.833 25.9553C124.555 25.9553 125.209 25.7895 125.79 25.4579C126.384 25.116 126.853 24.6602 127.198 24.0904C127.554 23.5206 127.732 22.8885 127.732 22.1944V13.2739H131.098L131.113 28.8148H127.749L127.732 27.1363C127.182 27.7787 126.497 28.2864 125.677 28.6594C124.858 29.0324 123.979 29.2189 123.04 29.2189C121.843 29.2189 120.754 28.9391 119.772 28.3797C118.79 27.8202 118.008 27.0691 117.426 26.1262C116.843 25.1834 116.553 24.137 116.553 22.987Z" fill="black"/>
<path d="M111.188 5.50323H114.553V28.8147H111.188V26.5301C110.659 27.3382 109.968 27.9909 109.117 28.4882C108.265 28.9752 107.267 29.2187 106.123 29.2187C104.948 29.2187 103.848 29.0063 102.823 28.5815C101.798 28.1567 100.892 27.5713 100.105 26.8254C99.3292 26.069 98.7192 25.1988 98.2772 24.2145C97.8352 23.2302 97.6142 22.1735 97.6142 21.0442C97.6142 19.9148 97.8352 18.8581 98.2772 17.8738C98.7192 16.8792 99.3292 16.0089 100.105 15.2629C100.892 14.5066 101.798 13.916 102.823 13.4913C103.848 13.0665 104.948 12.8541 106.123 12.8541C107.267 12.8541 108.265 13.1028 109.117 13.6001C109.968 14.087 110.659 14.7294 111.188 15.5271V5.50323ZM106.156 26.095C107.105 26.095 107.936 25.8722 108.648 25.4267C109.36 24.9708 109.91 24.3596 110.297 23.5928C110.697 22.8262 110.896 21.9767 110.896 21.0442C110.896 20.1013 110.697 19.2466 110.297 18.4799C109.898 17.7132 109.343 17.1071 108.631 16.6616C107.931 16.2058 107.105 15.9779 106.156 15.9779C105.217 15.9779 104.36 16.2058 103.583 16.6616C102.818 17.1174 102.203 17.7288 101.739 18.4955C101.286 19.2621 101.06 20.1117 101.06 21.0442C101.06 21.987 101.292 22.8417 101.755 23.6084C102.229 24.3647 102.851 24.9708 103.616 25.4267C104.392 25.8722 105.239 26.095 106.156 26.095Z" fill="black"/>
<path d="M89.7252 28.9207H85.4054L79.5001 13.3487H83.0918L87.5572 25.1909L92.0388 13.3487H95.6142L89.7252 28.9207Z" fill="black"/>
<path d="M60.9392 22.987V13.2739H64.3045V22.1944C64.3045 22.8885 64.4824 23.5206 64.8384 24.0904C65.1943 24.6602 65.6688 25.116 66.262 25.4579C66.8553 25.7895 67.5078 25.9553 68.2197 25.9553C68.9424 25.9553 69.595 25.7895 70.1774 25.4579C70.7706 25.116 71.2397 24.6602 71.5849 24.0904C71.9409 23.5206 72.1188 22.8885 72.1188 22.1944V13.2739H75.4841L75.5001 28.8148H72.135L72.1188 27.1363C71.5687 27.7787 70.8839 28.2864 70.0641 28.6594C69.2444 29.0324 68.3653 29.2189 67.4269 29.2189C66.2297 29.2189 65.1404 28.9391 64.1588 28.3797C63.1773 27.8202 62.3953 27.0691 61.8129 26.1262C61.2305 25.1834 60.9392 24.137 60.9392 22.987Z" fill="black"/>
<path d="M55.5741 5.50323H58.9392V28.8147H55.5741V26.5301C55.0455 27.3382 54.3552 27.9909 53.5031 28.4882C52.6511 28.9752 51.6534 29.2187 50.5101 29.2187C49.3344 29.2187 48.2342 29.0063 47.2096 28.5815C46.1849 28.1567 45.2789 27.5713 44.4916 26.8254C43.7149 26.069 43.1056 25.1988 42.6633 24.2145C42.2211 23.2302 42 22.1735 42 21.0442C42 19.9148 42.2211 18.8581 42.6633 17.8738C43.1056 16.8792 43.7149 16.0089 44.4916 15.2629C45.2789 14.5066 46.1849 13.916 47.2096 13.4913C48.2342 13.0665 49.3344 12.8541 50.5101 12.8541C51.6534 12.8541 52.6511 13.1028 53.5031 13.6001C54.3552 14.087 55.0455 14.7294 55.5741 15.5271V5.50323ZM50.5425 26.095C51.4916 26.095 52.3221 25.8722 53.0339 25.4267C53.7458 24.9708 54.2959 24.3596 54.6842 23.5928C55.0833 22.8262 55.2828 21.9767 55.2828 21.0442C55.2828 20.1013 55.0833 19.2466 54.6842 18.4799C54.2852 17.7132 53.7297 17.1071 53.0178 16.6616C52.3167 16.2058 51.4916 15.9779 50.5425 15.9779C49.604 15.9779 48.7466 16.2058 47.97 16.6616C47.2042 17.1174 46.5894 17.7288 46.1256 18.4955C45.6726 19.2621 45.4461 20.1117 45.4461 21.0442C45.4461 21.987 45.6779 22.8417 46.1418 23.6084C46.6164 24.3647 47.2365 24.9708 48.0024 25.4267C48.779 25.8722 49.6257 26.095 50.5425 26.095Z" fill="black"/>
<defs>
<clipPath id="clip0_1968_87">
<rect width="36" height="34" fill="white" transform="translate(0 0.361084)"/>
</clipPath>
</defs>
</svg>
