<svg width="134" height="36" viewBox="0 0 134 36" fill="none" xmlns="http://www.w3.org/2000/svg">
<mask id="mask0_1968_110" style="mask-type:alpha" maskUnits="userSpaceOnUse" x="95" y="0" width="39" height="36">
<path d="M132.494 27.2644V25.4377L118.532 32.1947L96.1068 29.6967L96.5096 30.788C96.7733 31.5024 97.4262 32.0183 98.2067 32.1293L117.69 34.8985C118.153 34.9643 118.625 34.882 119.035 34.6643L132.274 27.6227C132.41 27.5506 132.494 27.4133 132.494 27.2644Z" fill="#9747FF" stroke="#9747FF" stroke-width="0.413224"/>
<path d="M103.578 21.1383L106.872 20.3803L107.532 20.0117L115.962 20.4582L125.8 20.9416L129.573 20.0117L132.948 21.0858C133.122 21.1414 133.24 21.298 133.24 21.4746V25.2755C133.24 25.7352 132.846 26.1049 132.368 26.0944L125.8 25.9497L118.709 31.0824C118.375 31.3241 117.96 31.4396 117.543 31.4068L96.3413 29.7378L96.1915 29.3265C96.0129 28.8363 96.1744 28.2914 96.5949 27.965L102.331 23.5131L102.621 22.0965C102.717 21.6247 103.091 21.2503 103.578 21.1383Z" stroke="#9747FF" stroke-width="0.826448"/>
<path d="M124.759 0.860845C125.047 0.835055 125.335 0.923415 125.555 1.1057L131.858 6.34346C132.079 6.5271 132.212 6.78989 132.225 7.07028L132.778 18.6152C132.802 19.108 132.456 19.5463 131.955 19.6584L126.062 20.9795C125.963 21.0017 125.861 21.0102 125.759 21.0046L104.987 19.8733C104.378 19.8402 103.923 19.3241 103.987 18.7419L105.695 3.38777C105.749 2.90317 106.151 2.52218 106.656 2.47708L124.759 0.860845Z" stroke="#9747FF" stroke-width="0.826448"/>
<path d="M124.222 26.7274L118.148 31.3956L97.3047 29.0125C96.9298 28.9696 96.7936 28.5145 97.0876 28.2869L103.302 23.4793L102.352 23.3895L96.1492 28.2833L96 29.0817L97.3216 31.7231L108.278 32.0303L118.148 32.7264L132.952 26.1798C133.268 26.0403 133.463 25.7309 133.447 25.3977L133.24 21.1167L124.862 22.7343V25.4483C124.862 25.9459 124.627 26.4166 124.222 26.7274Z" fill="#9747FF"/>
<path d="M120.357 3.95413C122.072 3.95418 122.684 4.67998 122.665 6.40557C122.631 9.49736 122.501 15.7664 122.501 16.5239C122.501 17.8768 121.725 18.5829 120.174 18.4653C117.234 18.3608 111.338 18.1435 109.721 18.0337C108.027 17.9185 107.598 16.6613 107.598 15.4652V6.7385C107.598 4.77787 108.558 4.56355 109.721 4.48352C112.953 4.26128 119.585 3.95412 120.357 3.95413ZM115.841 5.47552C114.537 5.47551 112.359 5.47531 111.364 6.67075C110.37 7.86686 110.826 14.3466 110.97 15.1448C111.142 16.0941 111.421 16.9287 112.942 16.9556C119.19 17.0656 122.315 18.7181 122.315 11.6085V8.58216C122.315 7.32755 121.715 5.77624 119.638 5.63423C117.561 5.4923 117.436 5.47552 115.841 5.47552Z" fill="#9747FF"/>
<path d="M124.863 24.6807V23.9762C124.863 23.6568 124.608 23.3906 124.276 23.3641L104.017 21.7387C103.662 21.7102 103.355 21.9729 103.343 22.3147L103.302 23.4804H101.995L102.555 21.3873L103.178 20.9687L106.976 20.1314L113.513 20.6098L124.449 22.6581C124.722 22.7091 125.003 22.7085 125.275 22.6561L126.035 22.5102L124.863 24.6807Z" fill="#9747FF"/>
<path d="M117.359 31.9914L118.361 35.0833" stroke="#9747FF" stroke-width="0.413224"/>
<path d="M132.686 6.43511L132.989 18.8811C132.999 19.2655 132.728 19.6046 132.34 19.6959L125.758 21.2386L123.626 21.0953L123.631 20.475C124.026 20.4963 124.464 20.521 124.863 20.5398C125.833 20.5856 125.872 20.0489 125.864 19.8721C125.623 14.1285 125.203 2.79873 125.182 1.95322C125.164 1.22638 124.649 1.26525 124.01 1.32414L123.813 1.3406L123.817 0.942828C123.818 0.831628 123.911 0.741218 124.026 0.739588L125.396 0.722168L132.686 6.43511Z" fill="#9747FF"/>
<path d="M116.173 29.1584L100.863 27.6553C100.676 27.6371 100.603 27.4138 100.745 27.2966L103.231 25.2392C103.45 25.0578 103.737 24.9698 104.025 24.9953L119.514 26.3673C119.697 26.3834 119.774 26.6002 119.64 26.7208L117.343 28.7803C117.028 29.0626 116.602 29.2004 116.173 29.1584Z" fill="#9747FF"/>
</mask>
<g mask="url(#mask0_1968_110)">
<path d="M134.52 -0.691559H95.1386V35.9282H134.52V-0.691559Z" fill="#1A73EB"/>
</g>
<path d="M75.7213 21.5682C75.7213 25.1248 73.8791 27.3509 70.2201 28.2977L69.6827 27.223C71.8065 26.6601 72.9579 25.176 73.1882 22.7452C72.2926 23.0267 71.3971 23.1802 70.4504 23.1802C69.1454 23.1802 68.0963 22.6429 67.2775 21.5938C66.4843 20.6215 66.1005 19.4445 66.1005 18.0372C66.1005 16.246 66.5867 14.7876 67.559 13.6361C68.6081 12.4079 69.9898 11.7939 71.7553 11.7939H75.7213V21.5682ZM73.2138 21.0053V13.3291H71.8577C69.8107 13.3291 68.6081 14.9667 68.6081 17.6278C68.6081 20.1609 69.4013 21.4403 70.9877 21.4403C71.7553 21.4403 72.4973 21.2867 73.2138 21.0053ZM87.9439 17.5254V20.2888L88.3277 22.6173H78.1695L78.8348 20.3144H85.3084L85.3851 19.7771V17.0904C85.3851 15.8366 85.1293 14.8643 84.6431 14.1223C84.1825 13.4826 83.594 13.15 82.852 13.15C82.6217 13.15 82.3402 13.2012 82.0588 13.3291C82.0588 13.0732 82.0076 12.5871 81.9308 11.8962C82.0076 11.8962 82.2891 11.8706 82.7241 11.7939C84.2849 11.7939 85.5387 12.3312 86.4854 13.4314C87.4321 14.5061 87.9183 15.8622 87.9439 17.5254Z" fill="black"/>
<path d="M50.6031 22.6173H47.9165C45.588 22.6173 44.1296 21.1844 44.1296 18.8048V13.5338H41.7244C39.6006 13.5338 38.5259 14.8899 38.5259 17.6277C38.5259 19.7259 39.3192 20.8006 40.9312 20.8262H43.0549V22.5149C43.0549 23.999 42.5943 25.2783 41.6476 26.353C40.7009 27.4533 39.4471 28.093 37.8607 28.2721H33.8691C31.4383 28.2721 29.596 27.53 28.3422 26.0716C27.2164 24.7154 26.6534 22.822 26.6534 20.34V15.7087H29.161V20.2888C29.161 24.2804 30.9521 26.6345 34.2273 26.6345H37.2722C38.2701 26.4554 39.0377 25.9436 39.6262 25.0992C40.1379 24.4084 40.4194 23.6919 40.445 22.9243C39.1145 22.8987 38.0398 22.4893 37.221 21.645C36.3254 20.775 35.8905 19.5724 35.8905 18.0371C35.8905 16.1949 36.4534 14.6852 37.5536 13.5338C38.6539 12.3823 40.1124 11.7938 41.9035 11.7938H46.7139L46.6883 18.2163C46.6883 19.6236 47.3024 20.3144 48.5306 20.3144H50.6031V22.6173ZM38.9609 32.1869C38.9609 33.0313 38.3212 33.7222 37.4257 33.7222C36.5301 33.7222 35.8649 33.0825 35.8649 32.1869C35.8649 31.2914 36.5301 30.6261 37.4257 30.6261C38.2701 30.6261 38.9609 31.2914 38.9609 32.1869ZM34.8925 32.1869C34.8925 33.0313 34.2529 33.7222 33.3573 33.7222C32.4618 33.7222 31.7709 33.0825 31.7709 32.1869C31.7709 31.2914 32.4618 30.6261 33.3573 30.6261C34.1761 30.6261 34.8925 31.2914 34.8925 32.1869ZM58.214 3.73384C58.214 4.55264 57.5487 5.26908 56.6532 5.26908C55.8088 5.26908 55.1179 4.57822 55.1179 3.73384C55.1179 2.88946 55.8088 2.14743 56.6532 2.14743C57.5487 2.14743 58.214 2.83829 58.214 3.73384ZM60.2866 7.69987C60.2866 8.54426 59.5957 9.23511 58.7001 9.23511C57.8814 9.23511 57.1393 8.59543 57.1393 7.67429C57.1393 6.82991 57.8814 6.13905 58.7001 6.13905C59.5445 6.13905 60.2866 6.80432 60.2866 7.69987ZM56.1926 7.69987C56.1926 8.54426 55.4761 9.23511 54.6318 9.23511C53.7874 9.23511 53.0453 8.59543 53.0453 7.67429C53.0453 6.82991 53.7874 6.13905 54.6318 6.13905C55.4506 6.13905 56.1926 6.80432 56.1926 7.69987ZM61.1821 14.9411V16.1437C61.1821 20.7238 59.3654 22.6173 55.4506 22.6173H50.0005V20.3144H55.6553C57.3696 20.3144 58.2907 19.8027 58.4699 18.7792C58.0605 18.9839 57.4975 19.0862 56.7811 19.0862C53.9153 19.0862 52.4824 17.7301 52.4824 15.0434C52.4824 13.585 53.0198 12.4847 54.0688 11.7427C54.8365 11.2053 55.732 10.9239 56.7811 10.9239C58.1884 10.9239 59.3142 11.3077 60.1074 12.1009C60.8239 12.8173 61.1821 13.7641 61.1821 14.9411ZM58.6746 14.9923C58.6746 13.3291 58.0605 12.4847 56.8579 12.4847C55.6297 12.4847 55.0156 13.4058 55.0156 15.2225C55.0156 16.7066 55.5785 17.4486 56.6787 17.4486C57.4464 17.4486 58.1116 17.3207 58.649 17.0648C58.6746 16.4763 58.6746 15.7855 58.6746 14.9923Z" fill="black"/>
<path d="M9.62083 21.5682C9.62083 25.1248 7.77854 27.3509 4.11956 28.2977L3.58222 27.223C5.70597 26.6601 6.8574 25.176 7.08768 22.7452C6.19213 23.0267 5.29657 23.1802 4.34984 23.1802C3.04489 23.1802 1.99581 22.6429 1.17702 21.5938C0.383809 20.6215 0 19.4445 0 18.0372C0 16.246 0.486159 14.7876 1.45848 13.6361C2.50756 12.4079 3.88927 11.7939 5.65479 11.7939H9.62083V21.5682ZM7.11327 21.0053V13.3291H5.75714C3.71016 13.3291 2.50756 14.9667 2.50756 17.6278C2.50756 20.1609 3.30076 21.4403 4.88717 21.4403C5.65479 21.4403 6.39683 21.2867 7.11327 21.0053ZM21.8433 17.5254V20.2888L22.2272 22.6173H12.069L12.7343 20.3144H19.2079L19.2846 19.7771V17.0904C19.2846 15.8366 19.0287 14.8643 18.5426 14.1223C18.082 13.4826 17.4935 13.15 16.7515 13.15C16.5212 13.15 16.2397 13.2012 15.9583 13.3291C15.9583 13.0732 15.9071 12.5871 15.8303 11.8962C15.9071 11.8962 16.1886 11.8706 16.6235 11.7939C18.1844 11.7939 19.4381 12.3312 20.3849 13.4314C21.3316 14.5061 21.8178 15.8622 21.8433 17.5254Z" fill="black"/>
</svg>
