<svg width="136" height="35" viewBox="0 0 136 35" fill="none" xmlns="http://www.w3.org/2000/svg">
<path d="M121.001 22.9994V13.2863H124.366V22.2068C124.366 22.9009 124.543 23.533 124.899 24.1028C125.255 24.6726 125.73 25.1284 126.323 25.4703C126.916 25.8019 127.569 25.9677 128.281 25.9677C129.003 25.9677 129.657 25.8019 130.238 25.4703C130.832 25.1284 131.301 24.6726 131.646 24.1028C132.002 23.533 132.18 22.9009 132.18 22.2068V13.2863H135.546L135.561 28.8272H132.197L132.18 27.1487C131.63 27.7911 130.945 28.2988 130.125 28.6718C129.306 29.0448 128.427 29.2313 127.488 29.2313C126.291 29.2313 125.202 28.9515 124.22 28.3921C123.238 27.8326 122.456 27.0815 121.874 26.1386C121.291 25.1958 121.001 24.1494 121.001 22.9994Z" fill="black"/>
<path d="M115.636 5.51559H119.001V28.8271H115.636V26.5425C115.107 27.3506 114.416 28.0033 113.565 28.5006C112.713 28.9876 111.715 29.2311 110.571 29.2311C109.396 29.2311 108.296 29.0187 107.271 28.5939C106.246 28.1691 105.34 27.5837 104.553 26.8378C103.777 26.0814 103.167 25.2112 102.725 24.2269C102.283 23.2426 102.062 22.1859 102.062 21.0566C102.062 19.9272 102.283 18.8705 102.725 17.8862C103.167 16.8916 103.777 16.0213 104.553 15.2753C105.34 14.519 106.246 13.9284 107.271 13.5037C108.296 13.0789 109.396 12.8665 110.571 12.8665C111.715 12.8665 112.713 13.1152 113.565 13.6125C114.416 14.0994 115.107 14.7418 115.636 15.5395V5.51559ZM110.604 26.1074C111.553 26.1074 112.384 25.8846 113.096 25.4391C113.808 24.9832 114.358 24.372 114.745 23.6052C115.145 22.8386 115.344 21.9891 115.344 21.0566C115.344 20.1137 115.145 19.259 114.745 18.4923C114.346 17.7256 113.791 17.1195 113.079 16.674C112.379 16.2182 111.553 15.9903 110.604 15.9903C109.665 15.9903 108.808 16.2182 108.031 16.674C107.266 17.1298 106.651 17.7412 106.187 18.5079C105.734 19.2745 105.508 20.1241 105.508 21.0566C105.508 21.9994 105.74 22.8541 106.203 23.6208C106.677 24.3771 107.299 24.9832 108.064 25.4391C108.84 25.8846 109.687 26.1074 110.604 26.1074Z" fill="black"/>
<path d="M92.1733 28.9331H87.8535L81.9482 13.3611H85.5399L90.0053 25.2033L94.4869 13.3611H98.0623L92.1733 28.9331Z" fill="black"/>
<path d="M63.3873 22.9994V13.2863H66.7526V22.2068C66.7526 22.9009 66.9305 23.533 67.2865 24.1028C67.6424 24.6726 68.1169 25.1284 68.7101 25.4703C69.3034 25.8019 69.9559 25.9677 70.6678 25.9677C71.3905 25.9677 72.0431 25.8019 72.6255 25.4703C73.2187 25.1284 73.6878 24.6726 74.033 24.1028C74.389 23.533 74.5669 22.9009 74.5669 22.2068V13.2863H77.9322L77.9482 28.8272H74.5831L74.5669 27.1487C74.0168 27.7911 73.332 28.2988 72.5122 28.6718C71.6925 29.0448 70.8134 29.2313 69.875 29.2313C68.6778 29.2313 67.5885 28.9515 66.6069 28.3921C65.6254 27.8326 64.8434 27.0815 64.261 26.1386C63.6786 25.1958 63.3873 24.1494 63.3873 22.9994Z" fill="black"/>
<path d="M58.0222 5.51559H61.3873V28.8271H58.0222V26.5425C57.4936 27.3506 56.8033 28.0033 55.9512 28.5006C55.0992 28.9876 54.1015 29.2311 52.9582 29.2311C51.7825 29.2311 50.6823 29.0187 49.6577 28.5939C48.633 28.1691 47.727 27.5837 46.9397 26.8378C46.163 26.0814 45.5537 25.2112 45.1114 24.2269C44.6692 23.2426 44.4481 22.1859 44.4481 21.0566C44.4481 19.9272 44.6692 18.8705 45.1114 17.8862C45.5537 16.8916 46.163 16.0213 46.9397 15.2753C47.727 14.519 48.633 13.9284 49.6577 13.5037C50.6823 13.0789 51.7825 12.8665 52.9582 12.8665C54.1015 12.8665 55.0992 13.1152 55.9512 13.6125C56.8033 14.0994 57.4936 14.7418 58.0222 15.5395V5.51559ZM52.9906 26.1074C53.9397 26.1074 54.7702 25.8846 55.482 25.4391C56.1939 24.9832 56.744 24.372 57.1323 23.6052C57.5314 22.8386 57.7309 21.9891 57.7309 21.0566C57.7309 20.1137 57.5314 19.259 57.1323 18.4923C56.7333 17.7256 56.1778 17.1195 55.4659 16.674C54.7648 16.2182 53.9397 15.9903 52.9906 15.9903C52.0521 15.9903 51.1947 16.2182 50.4181 16.674C49.6523 17.1298 49.0375 17.7412 48.5737 18.5079C48.1207 19.2745 47.8942 20.1241 47.8942 21.0566C47.8942 21.9994 48.126 22.8541 48.5899 23.6208C49.0645 24.3771 49.6846 24.9832 50.4505 25.4391C51.2271 25.8846 52.0738 26.1074 52.9906 26.1074Z" fill="black"/>
<mask id="mask0_1968_87" style="mask-type:alpha" maskUnits="userSpaceOnUse" x="0" y="0" width="39" height="35">
<path d="M37.4937 26.9033V25.0766L23.5315 31.8336L1.1068 29.3356L1.50962 30.4269C1.77328 31.1413 2.42617 31.6572 3.20669 31.7682L22.6901 34.5374C23.1529 34.6032 23.6254 34.5209 24.0347 34.3032L37.2739 27.2616C37.4096 27.1895 37.4937 27.0522 37.4937 26.9033Z" fill="#9747FF" stroke="#9747FF" stroke-width="0.413224"/>
<path d="M8.5777 20.7772L11.8716 20.0192L12.5319 19.6506L20.9618 20.0971L30.8004 20.5805L34.5734 19.6506L37.9476 20.7247C38.122 20.7803 38.2399 20.9369 38.2399 21.1135V24.9144C38.2399 25.3741 37.8461 25.7438 37.3677 25.7333L30.8004 25.5886L23.709 30.7213C23.375 30.963 22.9603 31.0785 22.5435 31.0457L1.34133 29.3767L1.19148 28.9654C1.01291 28.4752 1.17439 27.9303 1.59487 27.6039L7.33121 23.152L7.62065 21.7354C7.71704 21.2636 8.09101 20.8892 8.5777 20.7772Z" stroke="#9747FF" stroke-width="0.826448"/>
<path d="M29.7586 0.499761C30.0475 0.473971 30.335 0.562331 30.5546 0.744621L36.8576 5.98237C37.0787 6.16602 37.2119 6.4288 37.2254 6.70919L37.7785 18.2541C37.8019 18.7469 37.4556 19.1852 36.9554 19.2973L31.0624 20.6184C30.9632 20.6406 30.8606 20.6491 30.7591 20.6435L9.98688 19.5122C9.37842 19.4791 8.92268 18.963 8.98741 18.3808L10.6951 3.02669C10.7491 2.54209 11.1511 2.1611 11.6564 2.116L29.7586 0.499761Z" stroke="#9747FF" stroke-width="0.826448"/>
<path d="M29.2222 26.3663L23.1476 31.0345L2.30467 28.6514C1.92976 28.6085 1.7936 28.1534 2.08764 27.9258L8.30216 23.1182L7.35226 23.0284L1.14922 27.9222L1 28.7206L2.32161 31.362L13.2782 31.6692L23.1476 32.3653L37.9521 25.8187C38.2676 25.6792 38.4634 25.3698 38.4472 25.0366L38.2396 20.7556L29.8622 22.3732V25.0872C29.8622 25.5848 29.6268 26.0555 29.2222 26.3663Z" fill="#9747FF"/>
<path d="M25.3574 3.59305C27.0723 3.5931 27.6836 4.3189 27.6647 6.04449C27.6307 9.13623 27.5005 15.4053 27.5005 16.1628C27.5005 17.5157 26.7253 18.2218 25.1741 18.1042C22.2344 17.9997 16.3378 17.7824 14.721 17.6726C13.0269 17.5574 12.5981 16.3002 12.5981 15.1041V6.37742C12.5982 4.41679 13.5575 4.20247 14.721 4.12244C17.9533 3.9002 24.585 3.59304 25.3574 3.59305ZM20.8407 5.11444C19.5373 5.11443 17.359 5.11423 16.3643 6.30967C15.3698 7.50576 15.8261 13.9855 15.9704 14.7837C16.1418 15.733 16.4205 16.5676 17.9421 16.5945C24.1897 16.7045 27.3151 18.357 27.3151 11.2474V8.22108C27.3151 6.96647 26.7149 5.41516 24.638 5.27315C22.5612 5.13122 22.4358 5.11444 20.8407 5.11444Z" fill="#9747FF"/>
<path d="M29.8625 24.3196V23.6151C29.8625 23.2957 29.6076 23.0295 29.2762 23.003L9.01689 21.3776C8.66205 21.3491 8.35469 21.6118 8.34283 21.9536L8.30238 23.1193H6.99495L7.55528 21.0262L8.17786 20.6076L11.9756 19.7703L18.5127 20.2487L29.4493 22.297C29.7221 22.348 30.0027 22.3474 30.2753 22.295L31.0348 22.1491L29.8625 24.3196Z" fill="#9747FF"/>
<path d="M22.3591 31.6303L23.3609 34.7222" stroke="#9747FF" stroke-width="0.413224"/>
<path d="M37.6861 6.07402L37.9894 18.52C37.9987 18.9044 37.7285 19.2435 37.3395 19.3348L30.7583 20.8775L28.6264 20.7342L28.6315 20.1139C29.0262 20.1352 29.4641 20.1599 29.8626 20.1787C30.8331 20.2245 30.8715 19.6878 30.8641 19.511C30.6226 13.7674 30.2034 2.43764 30.182 1.59213C30.1637 0.865294 29.6495 0.904164 29.0102 0.963054L28.8128 0.979514L28.8168 0.581744C28.8179 0.470544 28.9107 0.380134 29.0264 0.378504L30.3956 0.361084L37.6861 6.07402Z" fill="#9747FF"/>
<path d="M21.1731 28.7973L5.8625 27.2942C5.67639 27.276 5.60331 27.0527 5.74504 26.9355L8.23106 24.8781C8.45017 24.6967 8.73659 24.6087 9.02459 24.6342L24.514 26.0062C24.6973 26.0223 24.7744 26.2391 24.6399 26.3597L22.3429 28.4192C22.028 28.7015 21.6015 28.8393 21.1731 28.7973Z" fill="#9747FF"/>
</mask>
<g mask="url(#mask0_1968_87)">
<path d="M39.5197 -1.05264H0.138557V35.5671H39.5197V-1.05264Z" fill="#1A73EB"/>
</g>
</svg>
