<svg width="131" height="35" viewBox="0 0 131 35" fill="none" xmlns="http://www.w3.org/2000/svg">
<path d="M75.7213 21.3556C75.7213 24.9122 73.8791 27.1383 70.2201 28.085L69.6827 27.0104C71.8065 26.4475 72.9579 24.9634 73.1882 22.5326C72.2926 22.8141 71.3971 22.9676 70.4504 22.9676C69.1454 22.9676 68.0963 22.4303 67.2775 21.3812C66.4843 20.4089 66.1005 19.2318 66.1005 17.8245C66.1005 16.0334 66.5867 14.575 67.559 13.4235C68.6081 12.1953 69.9898 11.5812 71.7553 11.5812H75.7213V21.3556ZM73.2138 20.7927V13.1165H71.8577C69.8107 13.1165 68.6081 14.7541 68.6081 17.4151C68.6081 19.9483 69.4013 21.2276 70.9877 21.2276C71.7553 21.2276 72.4973 21.0741 73.2138 20.7927ZM87.9439 17.3128V20.0762L88.3277 22.4047H78.1695L78.8348 20.1018H85.3084L85.3851 19.5645V16.8778C85.3851 15.624 85.1293 14.6517 84.6431 13.9097C84.1825 13.27 83.594 12.9374 82.852 12.9374C82.6217 12.9374 82.3402 12.9885 82.0588 13.1165C82.0588 12.8606 82.0076 12.3744 81.9308 11.6836C82.0076 11.6836 82.2891 11.658 82.7241 11.5812C84.2849 11.5812 85.5387 12.1186 86.4854 13.2188C87.4321 14.2935 87.9183 15.6496 87.9439 17.3128Z" fill="black"/>
<path d="M50.6031 22.4047H47.9165C45.588 22.4047 44.1296 20.9718 44.1296 18.5921V13.3212H41.7244C39.6006 13.3212 38.5259 14.6773 38.5259 17.4151C38.5259 19.5133 39.3192 20.588 40.9312 20.6135H43.0549V22.3023C43.0549 23.7864 42.5943 25.0657 41.6476 26.1404C40.7009 27.2407 39.4471 27.8803 37.8607 28.0594H33.8691C31.4383 28.0594 29.596 27.3174 28.3422 25.8589C27.2164 24.5028 26.6534 22.6094 26.6534 20.1274V15.4961H29.161V20.0762C29.161 24.0678 30.9521 26.4219 34.2273 26.4219H37.2722C38.2701 26.2427 39.0377 25.731 39.6262 24.8866C40.1379 24.1958 40.4194 23.4793 40.445 22.7117C39.1145 22.6861 38.0398 22.2767 37.221 21.4323C36.3254 20.5624 35.8905 19.3598 35.8905 17.8245C35.8905 15.9822 36.4534 14.4726 37.5536 13.3212C38.6539 12.1697 40.1124 11.5812 41.9035 11.5812H46.7139L46.6883 18.0036C46.6883 19.4109 47.3024 20.1018 48.5306 20.1018H50.6031V22.4047ZM38.9609 31.9743C38.9609 32.8187 38.3212 33.5095 37.4257 33.5095C36.5301 33.5095 35.8649 32.8699 35.8649 31.9743C35.8649 31.0787 36.5301 30.4135 37.4257 30.4135C38.2701 30.4135 38.9609 31.0787 38.9609 31.9743ZM34.8925 31.9743C34.8925 32.8187 34.2529 33.5095 33.3573 33.5095C32.4618 33.5095 31.7709 32.8699 31.7709 31.9743C31.7709 31.0787 32.4618 30.4135 33.3573 30.4135C34.1761 30.4135 34.8925 31.0787 34.8925 31.9743ZM58.214 3.52123C58.214 4.34002 57.5487 5.05647 56.6532 5.05647C55.8088 5.05647 55.1179 4.36561 55.1179 3.52123C55.1179 2.67685 55.8088 1.93481 56.6532 1.93481C57.5487 1.93481 58.214 2.62567 58.214 3.52123ZM60.2866 7.48726C60.2866 8.33164 59.5957 9.0225 58.7001 9.0225C57.8814 9.0225 57.1393 8.38281 57.1393 7.46167C57.1393 6.61729 57.8814 5.92643 58.7001 5.92643C59.5445 5.92643 60.2866 6.5917 60.2866 7.48726ZM56.1926 7.48726C56.1926 8.33164 55.4761 9.0225 54.6318 9.0225C53.7874 9.0225 53.0453 8.38281 53.0453 7.46167C53.0453 6.61729 53.7874 5.92643 54.6318 5.92643C55.4506 5.92643 56.1926 6.5917 56.1926 7.48726ZM61.1821 14.7285V15.9311C61.1821 20.5112 59.3654 22.4047 55.4506 22.4047H50.0005V20.1018H55.6553C57.3696 20.1018 58.2907 19.59 58.4699 18.5666C58.0605 18.7713 57.4975 18.8736 56.7811 18.8736C53.9153 18.8736 52.4824 17.5175 52.4824 14.8308C52.4824 13.3723 53.0198 12.2721 54.0688 11.5301C54.8365 10.9927 55.732 10.7113 56.7811 10.7113C58.1884 10.7113 59.3142 11.0951 60.1074 11.8883C60.8239 12.6047 61.1821 13.5514 61.1821 14.7285ZM58.6746 14.7796C58.6746 13.1165 58.0605 12.2721 56.8579 12.2721C55.6297 12.2721 55.0156 13.1932 55.0156 15.0099C55.0156 16.494 55.5785 17.236 56.6787 17.236C57.4464 17.236 58.1116 17.1081 58.649 16.8522C58.6746 16.2637 58.6746 15.5728 58.6746 14.7796Z" fill="black"/>
<path d="M9.62083 21.3556C9.62083 24.9122 7.77854 27.1383 4.11956 28.085L3.58222 27.0104C5.70597 26.4475 6.8574 24.9634 7.08768 22.5326C6.19213 22.8141 5.29657 22.9676 4.34984 22.9676C3.04489 22.9676 1.99581 22.4303 1.17702 21.3812C0.383809 20.4089 0 19.2318 0 17.8245C0 16.0334 0.486159 14.575 1.45848 13.4235C2.50756 12.1953 3.88927 11.5812 5.65479 11.5812H9.62083V21.3556ZM7.11327 20.7927V13.1165H5.75714C3.71016 13.1165 2.50756 14.7541 2.50756 17.4151C2.50756 19.9483 3.30076 21.2276 4.88717 21.2276C5.65479 21.2276 6.39683 21.0741 7.11327 20.7927ZM21.8433 17.3128V20.0762L22.2272 22.4047H12.069L12.7343 20.1018H19.2079L19.2846 19.5645V16.8778C19.2846 15.624 19.0287 14.6517 18.5426 13.9097C18.082 13.27 17.4935 12.9374 16.7515 12.9374C16.5212 12.9374 16.2397 12.9885 15.9583 13.1165C15.9583 12.8606 15.9071 12.3744 15.8303 11.6836C15.9071 11.6836 16.1886 11.658 16.6235 11.5812C18.1844 11.5812 19.4381 12.1186 20.3849 13.2188C21.3316 14.2935 21.8178 15.6496 21.8433 17.3128Z" fill="black"/>
<g clip-path="url(#clip0_1968_110)">
<path d="M123.076 1.20956C123.15 1.27532 123.225 1.34163 123.299 1.40841C123.381 1.48122 123.464 1.554 123.547 1.62676C123.588 1.66335 123.629 1.69994 123.672 1.73764C123.857 1.90077 124.045 2.06008 124.233 2.21942C124.578 2.51207 124.921 2.80665 125.263 3.10183C125.527 3.32852 125.791 3.55416 126.055 3.77905C126.36 4.03786 126.664 4.2979 126.966 4.55887C127.563 5.07295 128.163 5.58358 128.765 6.09121C128.798 6.11949 128.832 6.14776 128.866 6.17689C128.997 6.2866 129.123 6.39252 129.268 6.48365C129.385 6.58639 129.385 6.58639 129.421 6.71884C129.423 6.77039 129.425 6.82194 129.427 6.87505C129.429 6.93443 129.432 6.99377 129.435 7.05497C129.438 7.15266 129.438 7.15266 129.441 7.25229C129.445 7.35541 129.445 7.35541 129.449 7.4606C129.459 7.68967 129.466 7.91882 129.474 8.14796C129.48 8.3091 129.487 8.4703 129.493 8.63144C129.508 9.01505 129.523 9.39872 129.536 9.78245C129.553 10.25 129.571 10.7174 129.589 11.1849C129.608 11.6811 129.627 12.1773 129.646 12.6735C129.686 13.7447 129.731 14.8155 129.786 15.886C129.946 19.0648 129.946 19.0648 129.473 19.6181C129.195 19.8556 128.923 19.9707 128.569 20.0616C128.73 20.1689 128.847 20.2242 129.028 20.2853C129.08 20.3035 129.132 20.3217 129.186 20.3404C129.295 20.378 129.404 20.4152 129.513 20.452C129.846 20.5688 130.099 20.6683 130.265 20.9974C130.272 21.1375 130.275 21.2777 130.276 21.4179C130.277 21.4828 130.277 21.4828 130.277 21.5489C130.278 21.6923 130.279 21.8357 130.28 21.979C130.28 22.0279 130.28 22.0769 130.281 22.1274C130.282 22.3867 130.283 22.646 130.283 22.9053C130.284 23.1729 130.286 23.4404 130.289 23.7079C130.29 23.9139 130.291 24.1198 130.291 24.3258C130.291 24.4243 130.292 24.5229 130.293 24.6215C130.295 24.7598 130.295 24.898 130.294 25.0363C130.295 25.1149 130.295 25.1935 130.296 25.2745C130.235 25.6983 129.962 25.9298 129.637 26.1754C129.574 26.2063 129.574 26.2063 129.511 26.2378C129.481 26.4442 129.461 26.6489 129.446 26.8568C129.442 26.9005 129.437 26.9442 129.433 26.9893C129.43 27.0291 129.427 27.0689 129.423 27.1099C129.346 27.3659 129.181 27.5171 128.961 27.662C128.895 27.697 128.829 27.7321 128.762 27.7681C128.726 27.7877 128.689 27.8072 128.652 27.8273C128.534 27.8907 128.416 27.9532 128.298 28.0157C128.173 28.0825 128.049 28.1495 127.924 28.2164C127.841 28.2616 127.757 28.3067 127.673 28.3516C127.302 28.5503 126.936 28.7559 126.57 28.9633C126.025 29.2709 125.475 29.569 124.923 29.864C124.491 30.0954 124.063 30.3326 123.637 30.5735C123.085 30.8852 122.529 31.1874 121.97 31.4859C121.539 31.7173 121.11 31.9545 120.684 32.1956C120.133 32.5069 119.577 32.8092 119.019 33.1071C118.637 33.3116 118.258 33.5212 117.881 33.7354C116.949 34.2649 116.949 34.2649 116.49 34.4882C116.39 34.5369 116.39 34.5369 116.289 34.5867C115.65 34.7962 115.021 34.6933 114.371 34.5947C114.269 34.5798 114.166 34.565 114.064 34.5502C113.782 34.5093 113.5 34.4673 113.218 34.4252C112.912 34.3797 112.606 34.3352 112.3 34.2905C111.749 34.21 111.199 34.1291 110.649 34.0478C109.681 33.905 108.712 33.7641 107.744 33.6234C107.329 33.5631 106.914 33.5027 106.499 33.4423C106.453 33.4357 106.407 33.4289 106.36 33.4221C105.167 33.2485 103.975 33.0738 102.783 32.8989C102.568 32.8673 102.353 32.8358 102.138 32.8043C102.096 32.7981 102.054 32.7921 102.012 32.7858C101.397 32.6957 100.783 32.6062 100.168 32.5173C99.7216 32.4525 99.2749 32.3875 98.8283 32.3218C98.5898 32.2868 98.3513 32.2521 98.1127 32.2179C97.8616 32.182 97.6107 32.145 97.3598 32.1079C97.2554 32.0932 97.2554 32.0932 97.1489 32.0783C96.4649 31.975 95.8281 31.7944 95.3329 31.291C95.0434 30.8912 94.8531 30.4546 94.6889 29.9926C94.6675 29.9326 94.646 29.8726 94.624 29.8107C94.3942 29.1494 94.192 28.5272 94.5162 27.8598C94.6855 27.5754 94.8802 27.3683 95.1366 27.1618C95.1721 27.1326 95.2077 27.1033 95.2443 27.0732C95.5368 26.8337 95.8353 26.6018 96.1345 26.3708C96.4264 26.1446 96.7095 25.9094 96.9911 25.6707C97.2349 25.4643 97.4826 25.264 97.7336 25.0664C97.9594 24.8877 98.1835 24.707 98.4075 24.526C98.451 24.491 98.4944 24.4559 98.5392 24.4198C98.9952 24.0526 98.9952 24.0526 99.4461 23.6792C99.6052 23.5552 99.6052 23.5552 99.776 23.4604C100.103 23.2639 100.239 23.084 100.336 22.7189C100.393 22.4651 100.439 22.2106 100.483 21.9541C100.552 21.5523 100.699 21.2292 100.987 20.935C101.406 20.6477 101.851 20.5278 102.342 20.4165C102.411 20.4 102.481 20.3835 102.552 20.3666C102.722 20.3266 102.891 20.2873 103.061 20.2488C103.017 20.2321 102.974 20.2154 102.93 20.1982C102.873 20.176 102.816 20.1539 102.758 20.1311C102.674 20.0983 102.674 20.0983 102.587 20.0649C102.156 19.8823 102.005 19.5875 101.804 19.1882C101.771 18.6813 101.827 18.1749 101.88 17.6712C101.888 17.5902 101.896 17.5091 101.905 17.4257C101.927 17.2027 101.95 16.9798 101.973 16.7569C101.988 16.6145 102.002 16.472 102.017 16.3295C102.259 13.956 102.515 11.584 102.772 9.21206C102.824 8.73831 102.875 8.26456 102.926 7.79074C102.976 7.32541 103.026 6.86006 103.077 6.39477C103.106 6.12052 103.136 5.84627 103.166 5.57199C103.193 5.31757 103.22 5.06318 103.248 4.80881C103.258 4.7162 103.268 4.62358 103.278 4.53095C103.429 3.1123 103.429 3.1123 103.877 2.65612C104.5 2.17691 105.506 2.24026 106.268 2.1705C106.38 2.16005 106.493 2.14957 106.605 2.13907C106.909 2.11074 107.212 2.0827 107.516 2.05473C107.839 2.02493 108.162 1.99486 108.485 1.96483C109.03 1.91412 109.576 1.86359 110.122 1.81318C110.673 1.76226 111.224 1.71122 111.775 1.66002C111.842 1.6538 111.909 1.64758 111.978 1.64116C112.113 1.62864 112.248 1.61611 112.383 1.60358C113.627 1.48793 114.872 1.3729 116.117 1.25839C116.75 1.20016 117.383 1.1416 118.016 1.08236C118.409 1.04557 118.802 1.00906 119.196 0.972812C119.415 0.952598 119.634 0.932239 119.853 0.911465C122.407 0.670037 122.407 0.670037 123.076 1.20956ZM119.869 1.76181C119.747 1.77301 119.625 1.78418 119.504 1.79532C119.175 1.82555 118.845 1.85625 118.516 1.88703C118.168 1.91954 117.819 1.95162 117.47 1.98376C116.883 2.03801 116.295 2.09253 115.707 2.14724C114.891 2.22327 114.074 2.29882 113.257 2.37428C111.774 2.51135 110.29 2.64844 108.807 2.78771C108.384 2.82738 107.961 2.86641 107.538 2.90518C107.236 2.93293 106.934 2.96103 106.632 2.9892C106.487 3.00264 106.342 3.01593 106.197 3.02907C105.996 3.04732 105.795 3.06609 105.594 3.08496C105.505 3.09286 105.505 3.09286 105.414 3.1009C104.871 3.14308 104.871 3.14308 104.387 3.36665C104.256 3.5544 104.252 3.7881 104.225 4.00981C104.217 4.06714 104.21 4.12447 104.202 4.18353C104.097 4.99498 104.009 5.80875 103.921 6.62217C103.895 6.8624 103.869 7.10263 103.842 7.34281C103.798 7.74888 103.753 8.15501 103.709 8.56114C103.665 8.96801 103.62 9.37483 103.576 9.7817C103.429 11.1204 103.283 12.4592 103.14 13.7981C103.123 13.9495 103.107 14.1008 103.091 14.252C103.027 14.847 102.963 15.4419 102.901 16.037C102.881 16.2209 102.862 16.4049 102.842 16.5889C102.815 16.8427 102.788 17.0966 102.762 17.3505C102.754 17.424 102.746 17.4975 102.738 17.5731C102.603 18.4246 102.603 18.4246 102.825 19.2038C103.104 19.3804 103.353 19.3873 103.681 19.4059C103.746 19.4097 103.746 19.4097 103.813 19.4136C103.959 19.422 104.105 19.4301 104.252 19.4382C104.357 19.4442 104.462 19.4502 104.567 19.4562C104.854 19.4726 105.142 19.4887 105.429 19.5046C105.611 19.5148 105.794 19.5251 105.976 19.5354C108.758 19.6923 111.54 19.8392 114.322 19.9841C114.854 20.0118 115.385 20.0397 115.916 20.0676C116.441 20.0952 116.966 20.1228 117.492 20.1501C117.8 20.1662 118.108 20.1823 118.416 20.1986C119.016 20.2301 119.616 20.2609 120.216 20.2895C120.501 20.3032 120.786 20.3188 121.071 20.3362C121.201 20.3439 121.331 20.3509 121.461 20.3576C121.616 20.3656 121.771 20.3749 121.926 20.3855C122.335 20.4085 122.335 20.4085 122.709 20.2657C122.929 19.9503 122.896 19.67 122.882 19.2952C122.881 19.2109 122.879 19.1266 122.878 19.0423C122.873 18.7942 122.865 18.5462 122.857 18.2981C122.851 18.1188 122.846 17.9395 122.84 17.7602C122.811 16.7923 122.776 15.8248 122.739 14.8572C122.725 14.4778 122.711 14.0982 122.697 13.7187C122.669 12.9678 122.641 12.2169 122.613 11.466C122.586 10.74 122.559 10.014 122.532 9.28799C122.53 9.22061 122.53 9.22061 122.527 9.15192C122.525 9.10707 122.524 9.06221 122.522 9.01605C122.491 8.18408 122.461 7.35217 122.43 6.52029C122.419 6.22789 122.408 5.93549 122.397 5.64309C122.383 5.24975 122.368 4.85643 122.353 4.46311C122.348 4.31926 122.342 4.17541 122.337 4.03156C122.322 3.61458 122.305 3.1977 122.286 2.78089C122.282 2.69988 122.279 2.61888 122.275 2.53542C122.271 2.46917 122.267 2.4029 122.262 2.33463C122.259 2.28197 122.256 2.22931 122.253 2.17505C122.215 1.99442 122.141 1.87072 122.034 1.72034C121.49 1.45019 120.461 1.70599 119.869 1.76181ZM126.318 20.5037C126.256 20.5185 126.193 20.5333 126.128 20.5485C126.025 20.5727 126.025 20.5727 125.921 20.5975C125.851 20.614 125.781 20.6305 125.709 20.6474C125.484 20.7003 125.259 20.7533 125.034 20.8064C124.811 20.8592 124.587 20.912 124.363 20.9646C124.224 20.9974 124.084 21.0303 123.945 21.0633C123.849 21.0858 123.849 21.0858 123.752 21.1088C123.696 21.1219 123.64 21.1351 123.583 21.1486C123.528 21.1605 123.473 21.1723 123.417 21.1846C123.363 21.1968 123.31 21.2091 123.254 21.2218C122.93 21.2598 122.611 21.2403 122.285 21.226C122.173 21.2214 122.173 21.2214 122.059 21.2168C121.277 21.1839 120.496 21.1414 119.715 21.0971C119.458 21.0825 119.202 21.0681 118.945 21.0539C118.401 21.0235 117.858 20.9929 117.315 20.9623C116.723 20.929 116.132 20.8958 115.541 20.8628C115.328 20.8509 115.114 20.8389 114.901 20.8268C114.664 20.8134 114.428 20.8001 114.191 20.787C114.122 20.783 114.052 20.779 113.981 20.7749C113.607 20.7542 113.236 20.744 112.862 20.7479C112.862 20.7684 112.862 20.789 112.862 20.8102C113.749 20.984 114.636 21.1575 115.523 21.3309C115.935 21.4115 116.347 21.4921 116.759 21.5728C117.158 21.651 117.558 21.7291 117.957 21.807C118.108 21.8365 118.258 21.866 118.409 21.8956C118.905 21.9929 119.402 22.0887 119.898 22.1827C119.976 22.1974 120.054 22.2122 120.134 22.2273C120.371 22.2721 120.608 22.3159 120.846 22.3593C120.954 22.3797 120.954 22.3797 121.064 22.4006C121.719 22.5187 122.279 22.5151 122.93 22.3821C122.991 22.3701 123.052 22.3581 123.115 22.3458C123.314 22.3065 123.513 22.2663 123.713 22.2261C123.852 22.1984 123.991 22.1707 124.131 22.143C124.422 22.0852 124.713 22.027 125.004 21.9684C125.377 21.8934 125.75 21.8191 126.123 21.7452C126.41 21.6883 126.698 21.6309 126.985 21.5734C127.122 21.546 127.26 21.5185 127.398 21.4912C127.59 21.4531 127.781 21.4144 127.973 21.3756C128.059 21.3588 128.059 21.3588 128.146 21.3416C128.198 21.331 128.25 21.3203 128.304 21.3093C128.349 21.3002 128.395 21.2911 128.441 21.2818C128.579 21.2442 128.695 21.1892 128.82 21.1222C128.527 21.0242 128.234 20.9265 127.941 20.829C127.841 20.7958 127.742 20.7625 127.642 20.7291C127.499 20.6812 127.356 20.6336 127.212 20.586C127.168 20.5711 127.123 20.556 127.077 20.5406C126.777 20.4414 126.621 20.4321 126.318 20.5037ZM101.741 21.8084C101.644 22.0258 101.609 22.2041 101.621 22.4386C101.654 23.1504 101.654 23.1504 101.478 23.4196C101.278 23.6367 101.04 23.8042 100.796 23.9699C100.641 24.0765 100.495 24.1918 100.348 24.3088C100.24 24.3943 100.132 24.4783 100.023 24.5622C99.7709 24.7572 99.523 24.9572 99.2753 25.1578C99.0091 25.3732 98.7429 25.5885 98.4743 25.8011C98.0715 26.1201 97.6721 26.4434 97.2726 26.7665C97.1703 26.8492 97.0679 26.9318 96.9654 27.0144C96.1254 27.5821 96.1254 27.5821 95.5646 28.3199C95.5673 28.4878 95.5673 28.4878 95.6858 28.583C95.8737 28.6932 96.0245 28.7142 96.2412 28.7415C96.2824 28.747 96.3237 28.7524 96.3662 28.758C96.5064 28.7762 96.6467 28.7933 96.787 28.8104C96.8899 28.8235 96.9927 28.8366 97.0956 28.8498C97.3247 28.879 97.554 28.9077 97.7833 28.9361C98.1091 28.9763 98.4347 29.0175 98.7604 29.0588C99.7257 29.1814 100.692 29.2998 101.658 29.4159C101.742 29.4261 101.827 29.4363 101.912 29.4465C104.72 29.7845 107.529 30.063 110.349 30.285C110.39 30.2883 110.432 30.2916 110.475 30.2949C112.779 30.5024 112.779 30.5024 115.088 30.6242C115.157 30.6266 115.225 30.6289 115.296 30.6313C115.785 30.5678 116.175 30.1864 116.553 29.8951C116.67 29.8052 116.788 29.7154 116.906 29.6256C116.965 29.5805 117.024 29.5355 117.085 29.489C117.347 29.2913 117.611 29.0977 117.876 28.9047C118.747 28.2703 119.608 27.6243 120.466 26.973C120.655 26.8297 120.844 26.687 121.035 26.5456C121.091 26.5034 121.091 26.5034 121.148 26.4604C121.245 26.3883 121.341 26.3166 121.438 26.2448C121.659 26.0588 121.817 25.8887 121.909 25.6139C121.926 25.3219 121.928 25.0299 121.931 24.7373C121.932 24.6409 121.934 24.5444 121.936 24.4481C121.939 24.3084 121.941 24.169 121.942 24.0295C121.944 23.9652 121.944 23.9652 121.946 23.8996C121.945 23.6757 121.919 23.5678 121.779 23.3901C121.562 23.2174 121.397 23.1864 121.129 23.168C121.083 23.1636 121.037 23.1593 120.989 23.1548C120.834 23.1406 120.678 23.1285 120.523 23.1163C120.411 23.1065 120.299 23.0966 120.187 23.0866C119.882 23.0595 119.577 23.0343 119.272 23.0095C118.955 22.9833 118.639 22.9555 118.323 22.9279C117.561 22.8618 116.799 22.7983 116.036 22.7353C115.652 22.7034 115.268 22.6714 114.884 22.6393C114.241 22.5857 113.597 22.5321 112.953 22.4787C112.053 22.4041 111.154 22.3292 110.254 22.2542C109.545 22.1951 108.836 22.1362 108.127 22.0772C108.016 22.0679 108.016 22.0679 107.903 22.0585C107.08 21.99 106.256 21.9217 105.433 21.8538C105.131 21.8289 104.828 21.8039 104.526 21.7787C104.251 21.7558 103.975 21.733 103.7 21.7105C103.601 21.7024 103.502 21.6941 103.403 21.6858C102.524 21.544 102.524 21.544 101.741 21.8084Z" fill="#1A73EB"/>
<path d="M117.264 4.18968C117.366 4.18888 117.468 4.18772 117.57 4.18616C118.224 4.17744 118.87 4.20396 119.388 4.64854C120.014 5.38911 119.938 6.27077 119.922 7.17905C119.92 7.32484 119.919 7.4707 119.918 7.61649C119.914 8.00478 119.908 8.393 119.902 8.78129C119.897 9.09578 119.893 9.41026 119.889 9.72474C119.877 10.6775 119.861 11.6301 119.844 12.5827C119.838 12.9112 119.832 13.2397 119.827 13.5682C119.822 13.8887 119.816 14.2091 119.81 14.5296C119.808 14.6804 119.805 14.8312 119.803 14.9821C119.762 17.3993 119.762 17.3993 119.301 17.9366C119.224 18.0003 119.224 18.0003 119.144 18.0653C119.106 18.0966 119.068 18.128 119.029 18.1603C118.452 18.5518 117.658 18.4536 116.995 18.4277C116.882 18.424 116.768 18.4204 116.655 18.4169C116.353 18.4072 116.051 18.396 115.749 18.3843C115.564 18.3773 115.379 18.3704 115.194 18.3637C114.366 18.3333 113.539 18.2995 112.711 18.2645C112.45 18.2536 112.189 18.243 111.928 18.2323C110.777 18.1853 109.627 18.1377 108.477 18.0725C108.349 18.0653 108.221 18.0585 108.093 18.0517C107.32 18.0053 106.706 17.9123 106.155 17.3361C105.929 17.0662 105.81 16.7742 105.699 16.4433C105.679 16.3815 105.658 16.3197 105.637 16.2561C105.63 16.1224 105.628 15.9884 105.627 15.8545C105.627 15.8136 105.627 15.7726 105.627 15.7305C105.626 15.593 105.626 15.4555 105.625 15.318C105.625 15.2195 105.625 15.1211 105.624 15.0226C105.623 14.6988 105.622 14.375 105.622 14.0512C105.621 13.9396 105.621 13.828 105.621 13.7164C105.62 13.1919 105.619 12.6673 105.618 12.1428C105.618 11.5382 105.616 10.9336 105.613 10.3289C105.612 9.86118 105.611 9.39342 105.61 8.92559C105.61 8.64648 105.61 8.36736 105.608 8.08819C105.607 7.82517 105.606 7.56222 105.607 7.2992C105.607 7.20313 105.607 7.10706 105.606 7.01098C105.6 6.32579 105.646 5.63489 106.152 5.11595C107.039 4.41378 108.708 4.59987 109.79 4.53936C109.93 4.53148 110.07 4.52352 110.211 4.51553C110.743 4.48525 111.276 4.45552 111.808 4.4263C112.083 4.41121 112.358 4.39596 112.632 4.38052C115.828 4.2009 115.828 4.2009 117.264 4.18968ZM109.376 6.65779C108.913 7.21779 108.803 7.88675 108.715 8.58272C108.71 8.62633 108.704 8.67 108.698 8.71491C108.647 9.16621 108.642 9.6142 108.642 10.0681C108.642 10.1512 108.641 10.2344 108.641 10.3176C108.641 10.4918 108.641 10.6661 108.641 10.8403C108.641 11.0152 108.64 11.19 108.639 11.3649C108.466 14.017 108.466 14.017 109.326 16.3763C109.873 16.8971 110.515 16.9158 111.243 16.9528C111.337 16.9581 111.431 16.9634 111.525 16.9688C111.721 16.9799 111.918 16.9905 112.114 17.0007C112.361 17.0135 112.607 17.0274 112.854 17.0416C113.778 17.0947 114.701 17.1396 115.627 17.1444C115.692 17.145 115.758 17.1456 115.826 17.1462C116.865 17.143 117.725 16.9284 118.496 16.2217C119.546 15.1337 119.542 13.1871 119.54 11.7783C119.541 11.6766 119.541 11.575 119.541 11.4733C119.542 11.2626 119.542 11.0519 119.541 10.8413C119.541 10.5731 119.542 10.3049 119.543 10.0367C119.544 9.82774 119.544 9.61875 119.544 9.4097C119.544 9.31088 119.545 9.212 119.545 9.11318C119.55 8.18364 119.415 7.27306 118.754 6.56105C117.571 5.51206 115.64 5.75187 114.163 5.75226C113.96 5.75227 113.757 5.75139 113.554 5.7497C111.315 5.67853 111.315 5.67853 109.376 6.65779Z" fill="#1A73EB"/>
<path d="M102.429 24.7564C102.503 24.7614 102.503 24.7614 102.579 24.7664C102.74 24.7776 102.9 24.79 103.061 24.8029C103.113 24.8071 103.166 24.8113 103.22 24.8156C103.623 24.8486 104.025 24.8855 104.428 24.9226C104.561 24.9347 104.694 24.9468 104.827 24.9588C105.185 24.9914 105.543 25.0242 105.901 25.0571C106.125 25.0777 106.349 25.0981 106.573 25.1186C107.355 25.1901 108.138 25.2619 108.92 25.3338C109.648 25.4008 110.376 25.4673 111.104 25.5336C111.731 25.5907 112.358 25.6481 112.985 25.7058C113.359 25.7401 113.732 25.7743 114.106 25.8083C114.457 25.8401 114.808 25.8723 115.158 25.9049C115.287 25.9167 115.415 25.9285 115.544 25.94C115.72 25.9559 115.895 25.9722 116.071 25.9887C116.122 25.9931 116.172 25.9975 116.225 26.0021C116.521 26.0305 116.788 26.0857 117.071 26.1754C117.12 26.2814 117.12 26.2814 117.134 26.4249C117.02 26.5704 117.02 26.5704 116.855 26.7251C116.797 26.7801 116.739 26.835 116.679 26.8916C116.497 27.057 116.312 27.2192 116.124 27.3787C115.995 27.4928 115.873 27.6125 115.752 27.735C114.655 28.8344 114.655 28.8344 114.159 28.8679C113.521 28.8706 112.894 28.811 112.26 28.7478C112.137 28.7358 112.014 28.7239 111.891 28.712C111.558 28.6795 111.224 28.6466 110.891 28.6135C110.682 28.5928 110.472 28.5722 110.263 28.5516C107.971 28.3265 105.68 28.0921 103.389 27.8534C103.152 27.8287 102.914 27.804 102.677 27.7793C102.301 27.7403 101.926 27.701 101.551 27.6615C101.413 27.6471 101.275 27.6327 101.137 27.6183C100.456 27.5474 99.7776 27.4754 99.1025 27.3607C99.0629 27.2454 99.0629 27.2454 99.0397 27.1112C99.1708 26.9601 99.1708 26.9601 99.3538 26.7992C99.4104 26.7462 99.4669 26.6931 99.5251 26.6384C99.8809 26.3128 100.241 25.9983 100.618 25.6975C100.752 25.5896 100.883 25.4804 101.013 25.3685C101.067 25.3218 101.067 25.3218 101.123 25.2742C101.193 25.2137 101.263 25.1529 101.333 25.0917C101.696 24.7808 101.958 24.7199 102.429 24.7564Z" fill="#1A73EB"/>
</g>
<defs>
<clipPath id="clip0_1968_110">
<rect width="36" height="34" fill="white" transform="translate(94.3277 0.722168)"/>
</clipPath>
</defs>
</svg>
