<svg width="605" height="441" viewBox="0 0 605 441" fill="none" xmlns="http://www.w3.org/2000/svg">
<path d="M558.256 432.085H511.672C509.909 432.078 508.22 431.375 506.974 430.128C505.727 428.882 505.024 427.193 505.017 425.43V377.28C505.024 375.517 505.727 373.829 506.974 372.582C508.22 371.336 509.909 370.632 511.672 370.625H558.256C560.019 370.632 561.708 371.336 562.954 372.582C564.2 373.829 564.904 375.517 564.911 377.28V425.43C564.904 427.193 564.2 428.882 562.954 430.128C561.708 431.375 560.019 432.078 558.256 432.085Z" fill="#C5DFFF"/>
<path d="M556.037 429.867H511.279C509.584 429.864 507.959 429.19 506.761 427.991C505.562 426.793 504.888 425.168 504.885 423.473V377.019C504.888 375.324 505.562 373.699 506.761 372.501C507.959 371.302 509.584 370.628 511.279 370.625H556.037C557.731 370.628 559.356 371.302 560.555 372.501C561.753 373.699 562.428 375.324 562.431 377.019V423.473C562.428 425.168 561.753 426.793 560.555 427.991C559.356 429.19 557.731 429.864 556.037 429.867Z" fill="#E1ECFF"/>
<path d="M534.115 419.558C544.492 419.558 552.905 411.145 552.905 400.767C552.905 390.39 544.492 381.977 534.115 381.977C523.737 381.977 515.324 390.39 515.324 400.767C515.324 411.145 523.737 419.558 534.115 419.558Z" fill="#C5DFFF"/>
<path d="M526.674 409.249C526.363 409.249 526.064 409.125 525.844 408.905C525.624 408.685 525.5 408.386 525.5 408.075V393.59C525.5 393.279 525.624 392.98 525.844 392.76C526.064 392.54 526.363 392.416 526.674 392.416V392.416C526.986 392.416 527.285 392.54 527.505 392.76C527.725 392.98 527.849 393.279 527.849 393.59V408.075C527.849 408.386 527.725 408.685 527.505 408.905C527.285 409.125 526.986 409.249 526.674 409.249Z" fill="#0D3975"/>
<path d="M540.245 409.249C539.933 409.249 539.635 409.125 539.414 408.905C539.194 408.685 539.07 408.386 539.07 408.075V393.59C539.07 393.279 539.194 392.98 539.414 392.76C539.635 392.54 539.933 392.416 540.245 392.416V392.416C540.556 392.416 540.855 392.54 541.075 392.76C541.295 392.98 541.419 393.279 541.419 393.59V408.075C541.419 408.386 541.295 408.685 541.075 408.905C540.855 409.125 540.556 409.249 540.245 409.249Z" fill="#0D3975"/>
<path d="M560.86 359.794C565.279 361.279 569.236 363.887 572.343 367.362C577.172 373.104 577.824 382.368 577.824 382.368L604.183 370.102C604.183 370.102 590.873 375.191 586.436 366.318C582 357.445 596.745 343.352 596.745 343.352C596.745 343.352 580.434 356.662 574.04 354.705C567.646 352.747 566.602 344.787 566.602 344.787L560.86 359.794Z" fill="#1c72ea"/>
<path d="M535.938 356.792L540.636 356.923L547.943 303.422L531.371 300.291L535.938 356.792Z" fill="#D2E9FF"/>
<path d="M547.42 357.054L558.381 306.946L574.17 314.645L550.291 358.359L547.42 357.054Z" fill="#D2E9FF"/>
<path d="M267.896 411.694H173.814C150.587 411.694 146.15 417.174 155.937 421.22C165.723 425.265 118.878 423.307 110.918 430.484C102.827 437.661 123.445 440.401 145.758 440.401H325.051C342.928 440.401 338.491 427.353 327.791 425.656C317.091 423.96 345.146 426.309 355.846 422.524C366.546 418.74 358.847 411.694 267.896 411.694Z" fill="#8CB9F5"/>
<path d="M405.17 435.573C402.43 439.357 393.296 440.27 377.767 439.879C366.023 439.488 353.757 438.574 353.757 433.094C353.757 427.613 383.639 428.265 394.078 429.44C403.082 430.484 406.736 433.355 405.17 435.573Z" fill="#BAD5F9"/>
<path d="M134.793 417.304C132.967 420.045 126.703 420.828 115.742 420.828C107.521 420.828 98.9089 420.436 98.6479 416.652C98.3869 412.737 119.396 412.607 126.834 413.259C133.097 413.781 135.837 415.608 134.793 417.304Z" fill="#BAD5F9"/>
<path d="M340.316 383.117H339.794C330.92 382.986 307.824 365.631 301.952 357.541C295.949 349.451 290.599 339.142 297.907 332.487C299.58 331.082 301.615 330.178 303.779 329.877C307.781 329.252 311.874 330.135 315.262 332.357C321.525 336.402 339.141 356.889 344.1 365.631C348.928 374.244 348.797 382.986 340.316 383.117Z" fill="#0D3975"/>
<path d="M340.318 383.117C341.623 382.334 342.537 381.029 343.319 378.419C344.624 373.852 340.057 364.718 325.051 347.232C316.047 336.663 308.348 331.965 303.781 329.877C307.784 329.252 311.876 330.135 315.264 332.357C321.528 336.402 339.144 356.889 344.102 365.631C348.931 374.244 348.8 382.986 340.318 383.117Z" fill="#1250A4"/>
<path d="M296.208 338.099C297.513 334.446 305.081 335.098 311.605 341.492C318.13 347.886 328.047 360.543 325.568 366.024C323.089 371.504 313.693 367.068 305.994 359.499C298.296 351.931 294.12 343.971 296.208 338.099Z" fill="#082246"/>
<path d="M312.651 354.408C312.547 356.776 311.923 359.092 310.825 361.193C310.825 361.193 275.723 377.896 231.748 347.231C186.99 316.044 186.86 277.158 186.86 276.767C209.826 254.323 235.663 278.985 235.663 278.985C237.041 288.731 239.948 298.199 244.275 307.04C248.32 315.131 254.192 323.351 262.544 328.832C275.123 337.005 290.22 340.385 305.083 338.358C305.083 338.358 309.259 339.663 311.738 347.622C312.591 349.776 312.904 352.105 312.651 354.408Z" fill="#E1ECFF"/>
<path d="M312.651 354.408C312.547 356.776 311.923 359.092 310.825 361.193C310.825 361.193 275.723 377.896 231.748 347.231C186.99 316.044 186.86 277.158 186.86 276.767C209.826 254.323 235.663 278.985 235.663 278.985C237.041 288.731 239.948 298.199 244.275 307.04C240.832 309.728 237.005 311.883 232.923 313.434C228.069 314.741 223.072 315.442 218.047 315.522C218.047 315.522 240.099 348.536 272.722 354.538C290.338 357.54 303.909 356.235 312.651 354.408Z" fill="#BAD5F9"/>
<path d="M263.458 361.06C263.106 361.059 262.763 360.944 262.481 360.732C262.199 360.521 261.992 360.224 261.892 359.886C261.81 359.672 261.772 359.444 261.78 359.215C261.788 358.986 261.843 358.761 261.94 358.554C262.038 358.346 262.176 358.161 262.348 358.009C262.519 357.856 262.719 357.74 262.936 357.667C263.067 357.667 270.113 354.927 272.201 349.186C273.537 345.811 273.675 342.08 272.592 338.616C272.429 338.2 272.433 337.737 272.604 337.323C272.774 336.91 273.097 336.578 273.506 336.398C273.922 336.235 274.385 336.239 274.798 336.409C275.212 336.579 275.543 336.902 275.724 337.311C277.091 341.577 276.953 346.183 275.333 350.36C272.592 357.667 264.372 360.669 263.98 360.799C263.929 360.89 263.852 360.963 263.759 361.009C263.666 361.056 263.561 361.074 263.458 361.06Z" fill="#BAD5F9"/>
<path d="M233.189 347.623C232.974 347.633 232.759 347.601 232.557 347.527C232.355 347.454 232.17 347.341 232.012 347.195C231.854 347.05 231.727 346.874 231.638 346.678C231.548 346.483 231.499 346.272 231.492 346.057C231.488 345.614 231.644 345.185 231.932 344.849C232.22 344.513 232.62 344.293 233.058 344.23C233.189 344.23 242.323 343.577 246.89 337.575C249.618 334.062 251.13 329.757 251.196 325.309C251.162 324.859 251.307 324.414 251.601 324.071C251.894 323.729 252.312 323.517 252.762 323.482C253.212 323.447 253.657 323.593 254 323.887C254.342 324.18 254.554 324.598 254.589 325.048C254.656 330.343 252.906 335.501 249.63 339.663C244.019 346.84 233.711 347.492 233.189 347.623Z" fill="#BAD5F9"/>
<path d="M171.328 322.96C170.78 324.215 170.078 325.399 169.24 326.483C167.785 328.37 165.908 329.889 163.76 330.919C162.284 331.68 160.699 332.208 159.062 332.485C159.062 332.485 140.663 314.608 124.613 282.769C108.563 251.06 107.388 214.523 107.388 214.523C108.74 213.789 110.135 213.136 111.564 212.566C115.788 210.891 120.376 210.351 124.874 211C128.2 211.415 131.401 212.526 134.269 214.262C134.269 214.262 135.313 244.536 146.013 271.808C156.713 299.211 172.372 315.391 172.372 315.391C172.704 317.962 172.343 320.575 171.328 322.96Z" fill="#E1ECFF"/>
<path d="M171.33 322.961C165.589 317.872 154.627 306.258 144.058 283.814C131.4 256.933 126.311 222.354 125.006 211.001C128.333 211.416 131.534 212.528 134.402 214.263C134.402 214.263 135.445 244.537 146.146 271.809C156.846 299.212 172.504 315.392 172.504 315.392C172.749 317.974 172.345 320.575 171.33 322.961Z" fill="#F8FBFF"/>
<path d="M163.76 330.921C162.284 331.682 160.699 332.21 159.062 332.487C159.062 332.487 140.663 314.61 124.613 282.771C108.563 251.062 107.388 214.525 107.388 214.525C108.74 213.791 110.135 213.137 111.564 212.567C112.477 224.311 116.783 262.936 135.052 293.21C147.579 313.827 157.627 325.049 163.76 330.921Z" fill="#BAD5F9"/>
<path d="M200.159 349.711C195.655 352.152 190.437 352.937 185.414 351.93C177.454 350.103 174.453 347.493 174.453 347.493C174.453 347.493 171.843 343.578 173.8 341.36L174.061 341.099C175.742 339.707 177.774 338.804 179.933 338.489C182.416 340.432 185.135 342.054 188.024 343.317C191.416 344.492 197.419 343.317 199.637 344.753C200.076 345.074 200.41 345.518 200.596 346.029C200.782 346.54 200.812 347.095 200.681 347.624C200.673 348.351 200.494 349.066 200.159 349.711Z" fill="#E1ECFF"/>
<path d="M200.159 349.711C195.655 352.152 190.437 352.937 185.414 351.929C177.454 350.103 174.453 347.493 174.453 347.493C174.453 347.493 171.843 343.578 173.8 341.36C176.149 343.578 181.76 348.406 188.285 349.189C192.483 349.703 196.743 349.165 200.681 347.623C200.673 348.351 200.494 349.066 200.159 349.711Z" fill="#BAD5F9"/>
<path d="M197.679 346.059C192.426 346.924 187.036 345.957 182.412 343.318C180.364 342.299 178.612 340.772 177.323 338.882C177.331 338.029 177.509 337.186 177.845 336.402C178.181 335.619 178.669 334.909 179.28 334.314C180.324 333.401 182.02 333.01 184.63 333.793C184.63 333.793 189.719 338.229 198.201 335.228C206.683 332.227 206.161 330.4 207.988 329.878C209.293 329.486 210.989 331.444 211.38 333.662C211.625 334.664 211.534 335.719 211.119 336.663C209.646 339.07 207.692 341.146 205.379 342.763C203.067 344.38 200.445 345.502 197.679 346.059Z" fill="#E1ECFF"/>
<path d="M197.679 346.059C192.426 346.924 187.036 345.957 182.412 343.318C180.364 342.299 178.612 340.772 177.323 338.882C177.331 338.029 177.509 337.186 177.845 336.402C178.181 335.619 178.669 334.909 179.28 334.315C182.412 337.446 189.197 343.057 196.635 341.622C202.236 340.399 207.386 337.643 211.511 333.662C211.756 334.664 211.664 335.719 211.25 336.663C209.732 339.058 207.748 341.123 205.417 342.737C203.086 344.351 200.455 345.481 197.679 346.059Z" fill="#BAD5F9"/>
<path d="M196.249 337.447C191.265 338.296 186.14 337.372 181.765 334.837C179.807 333.909 178.138 332.466 176.937 330.662C176.957 329.004 177.61 327.416 178.764 326.225C179.808 325.312 181.374 324.92 183.853 325.703C183.853 325.703 188.681 329.879 196.771 327.008C204.862 324.137 204.34 322.441 206.036 321.919C207.211 321.527 208.907 323.485 209.298 325.573C209.538 326.532 209.446 327.543 209.037 328.443C207.657 330.757 205.804 332.754 203.601 334.306C201.398 335.857 198.893 336.927 196.249 337.447Z" fill="#E1ECFF"/>
<path d="M196.249 337.447C191.265 338.296 186.14 337.372 181.765 334.837C179.807 333.909 178.138 332.466 176.937 330.662C176.957 329.004 177.61 327.416 178.764 326.225C181.635 329.226 188.159 334.577 195.206 333.141C200.5 331.937 205.37 329.322 209.298 325.573C209.538 326.532 209.446 327.543 209.037 328.444C207.657 330.757 205.804 332.755 203.601 334.306C201.398 335.857 198.893 336.927 196.249 337.447Z" fill="#BAD5F9"/>
<path d="M195.335 330.921C191.003 332.385 186.297 332.292 182.026 330.66C180.179 330.104 178.513 329.068 177.197 327.659C177.094 326.919 177.144 326.166 177.347 325.448C177.549 324.729 177.898 324.06 178.372 323.483C179.155 322.57 180.59 322.048 182.939 322.309C182.939 322.309 187.767 325.31 194.683 321.787C201.599 318.133 200.946 316.698 202.382 315.915C203.426 315.393 205.122 316.828 205.775 318.655C206.081 319.492 206.126 320.402 205.905 321.265C203.778 325.74 199.984 329.206 195.335 330.921Z" fill="#E1ECFF"/>
<path d="M195.335 330.921C191.003 332.384 186.297 332.292 182.026 330.66C180.179 330.104 178.513 329.068 177.197 327.659C177.094 326.919 177.144 326.166 177.347 325.448C177.549 324.729 177.898 324.06 178.372 323.483C181.373 325.701 187.767 329.616 193.9 327.398C198.555 325.639 202.624 322.61 205.644 318.655C205.95 319.492 205.996 320.401 205.775 321.265C204.771 323.492 203.329 325.494 201.536 327.153C199.743 328.812 197.634 330.093 195.335 330.921Z" fill="#BAD5F9"/>
<path d="M190.769 324.658C190.429 326.42 189.993 328.162 189.464 329.877C188.386 333.724 186.713 337.378 184.505 340.708C183.561 341.927 182.513 343.062 181.374 344.101C179.48 345.96 177.145 347.307 174.588 348.015C174.588 348.015 164.541 338.359 161.67 335.097C159.801 333.028 158.058 330.849 156.45 328.572C155.99 326.071 155.99 323.506 156.45 321.004C156.786 318.787 157.735 316.707 159.19 315.001C159.951 314.27 160.782 313.615 161.67 313.044C164.592 311.751 167.885 311.566 170.934 312.522C170.934 312.522 180.591 318.525 184.897 320.873C186.983 321.924 188.951 323.192 190.769 324.658Z" fill="#E1ECFF"/>
<path d="M190.769 324.658C190.429 326.42 189.994 328.162 189.464 329.877C185.94 327.866 182.541 325.644 179.286 323.222C173.622 319.482 167.739 316.083 161.67 313.044C164.592 311.751 167.885 311.566 170.935 312.522C170.935 312.522 180.591 318.525 184.897 320.873C186.983 321.924 188.951 323.192 190.769 324.658Z" fill="#F8FBFF"/>
<path d="M181.374 343.97C179.436 345.77 177.116 347.108 174.588 347.885C174.588 347.885 164.541 338.098 161.67 334.966C159.801 332.898 158.058 330.719 156.45 328.442C155.99 325.94 155.99 323.375 156.45 320.874C160.495 325.441 171.326 337.185 178.894 342.143C179.808 342.926 180.721 343.448 181.374 343.97Z" fill="#BAD5F9"/>
<path d="M144.06 310.564C142.938 310.479 141.836 310.215 140.798 309.782C140.424 309.567 140.148 309.216 140.026 308.803C139.905 308.39 139.947 307.946 140.145 307.563C140.23 307.374 140.351 307.203 140.502 307.061C140.653 306.919 140.831 306.808 141.025 306.735C141.22 306.662 141.426 306.629 141.634 306.636C141.841 306.644 142.045 306.693 142.233 306.78C142.364 306.911 146.017 308.607 150.845 305.475C155.673 302.344 156.456 298.429 156.456 298.298C156.471 298.084 156.533 297.876 156.638 297.689C156.743 297.502 156.888 297.34 157.062 297.215C157.237 297.091 157.437 297.006 157.648 296.968C157.859 296.929 158.076 296.938 158.283 296.994C158.703 297.102 159.068 297.362 159.309 297.723C159.55 298.084 159.649 298.521 159.588 298.951C159.588 299.212 158.675 304.431 152.542 308.477C149.983 309.997 147.031 310.723 144.06 310.564Z" fill="#BAD5F9"/>
<path d="M130.094 284.336C128.481 284.166 126.9 283.771 125.396 283.162C125.023 282.947 124.747 282.597 124.625 282.184C124.504 281.771 124.546 281.326 124.744 280.944C124.818 280.762 124.929 280.597 125.068 280.458C125.208 280.319 125.374 280.21 125.557 280.137C125.739 280.064 125.935 280.029 126.131 280.033C126.328 280.037 126.522 280.08 126.701 280.161C126.832 280.291 131.399 282.51 137.401 279.769C143.273 277.16 144.317 273.375 144.317 273.114C144.352 272.913 144.428 272.721 144.541 272.551C144.653 272.38 144.8 272.235 144.972 272.125C145.144 272.014 145.337 271.941 145.539 271.909C145.74 271.877 145.947 271.888 146.144 271.94C146.55 272.091 146.884 272.391 147.077 272.778C147.271 273.166 147.311 273.612 147.188 274.028C147.188 274.289 145.753 279.508 138.445 282.901C135.84 284.118 132.956 284.613 130.094 284.336Z" fill="#BAD5F9"/>
<path d="M120.179 254.977C118.068 254.934 116.021 254.251 114.307 253.019C113.983 252.728 113.778 252.327 113.73 251.894C113.682 251.461 113.794 251.026 114.046 250.67C114.157 250.486 114.309 250.329 114.49 250.213C114.672 250.096 114.877 250.022 115.091 249.997C115.305 249.972 115.522 249.996 115.725 250.068C115.928 250.139 116.113 250.256 116.264 250.409C116.394 250.409 119.265 252.628 125.659 251.323C133.75 249.626 135.968 246.495 136.098 246.364C136.211 246.185 136.361 246.031 136.537 245.912C136.713 245.794 136.912 245.714 137.121 245.677C137.33 245.64 137.544 245.647 137.75 245.698C137.956 245.749 138.149 245.843 138.317 245.973C138.64 246.264 138.846 246.665 138.894 247.098C138.942 247.531 138.829 247.966 138.578 248.322C138.317 248.713 135.446 252.497 126.312 254.585C124.298 255.018 122.231 255.15 120.179 254.977Z" fill="#BAD5F9"/>
<path d="M139.488 233.185C133.552 235.883 127.087 237.221 120.567 237.1C116.532 237.139 112.533 236.339 108.823 234.751C107.441 234.181 106.163 233.388 105.039 232.402C105.039 232.402 105.17 230.053 104.778 222.354C103.473 198.083 114.434 194.951 121.611 194.691C123.338 194.685 125.055 194.949 126.7 195.473C129.413 196.499 131.851 198.141 133.821 200.27C135.791 202.398 137.239 204.955 138.053 207.739C140.271 215.699 139.488 233.185 139.488 233.185Z" fill="#0D3975"/>
<path d="M123.437 209.697C115.216 214.133 111.823 211.263 111.823 211.263C111.823 211.263 109.866 217.918 108.952 231.097C108.822 232.402 108.822 233.707 108.691 234.751C107.309 234.181 106.031 233.388 104.907 232.402C104.907 232.402 105.038 230.053 104.646 222.354C103.341 198.083 114.302 194.951 121.479 194.691C123.206 194.685 124.923 194.949 126.568 195.473C128.656 198.997 131.005 205.652 123.437 209.697Z" fill="#1250A4"/>
<path d="M290.074 250.41C289.682 252.497 289.291 254.455 288.769 256.412C285.637 268.548 280.157 278.334 272.458 284.728C250.405 303.127 220.131 312.914 181.246 287.729C150.189 267.634 121.612 222.093 111.303 204.477C108.694 200.041 107.258 197.3 107.258 197.3C107.258 197.3 125.135 196.387 153.321 183.469C167.221 176.968 180.537 169.285 193.12 160.502C218.566 142.756 233.311 126.184 241.793 113.265C251.84 98.1286 253.276 88.2114 253.276 88.2114C253.276 88.2114 255.755 92.7785 260.061 102.826C268.577 123.573 275.896 144.79 281.983 166.374C291.509 199.258 294.119 228.357 290.074 250.41Z" fill="#E1ECFF"/>
<path d="M260.06 102.826C256.377 110.055 252.146 116.991 247.403 123.574C233.709 142.053 216.722 157.846 197.295 170.158C184.976 178.252 172.014 185.322 158.54 191.298C135.313 201.606 119.262 203.955 111.172 204.346C108.562 199.91 107.127 197.17 107.127 197.17C107.127 197.17 125.004 196.256 153.19 183.338C167.09 176.838 180.405 169.154 192.989 160.372C218.434 142.625 233.18 126.053 241.661 113.134C251.709 97.9977 253.144 88.0806 253.144 88.0806C255.706 92.8711 258.015 97.793 260.06 102.826Z" fill="#0D3975"/>
<path d="M288.769 256.412C285.637 268.547 280.157 278.334 272.458 284.728C250.405 303.127 220.131 312.914 181.246 287.729C150.189 267.634 121.612 222.093 111.303 204.477C108.694 200.04 107.258 197.3 107.258 197.3C107.258 197.3 125.135 196.387 153.321 183.468C164.413 200.693 188.945 236.316 213.085 257.325C241.14 281.857 273.11 267.373 288.769 256.412Z" fill="#C5DFFF"/>
<path d="M158.54 191.428C135.313 201.737 119.262 204.086 111.172 204.477C108.562 200.04 107.127 197.3 107.127 197.3C107.127 197.3 125.004 196.387 153.19 183.468C154.756 185.817 156.582 188.557 158.54 191.428Z" fill="#082246"/>
<path d="M286.418 237.752C283.156 224.312 278.719 207.348 273.108 189.34C264.105 160.111 253.926 137.536 248.315 127.749C256.145 115.875 257.58 111.047 257.58 111.047C257.58 111.047 259.538 114.701 262.93 122.53C269.566 138.765 275.274 155.363 280.024 172.246C287.593 197.822 289.681 220.527 286.418 237.752Z" fill="#F8FBFF"/>
<path d="M260.059 102.826C256.376 110.055 252.145 116.991 247.402 123.574C245.314 119.528 243.487 116.005 241.791 113.135C251.838 97.9977 253.274 88.0806 253.274 88.0806C253.274 88.0806 255.883 92.9087 260.059 102.826Z" fill="#384D89"/>
<path d="M219.227 248.714C219.227 248.714 207.483 257.587 183.603 267.504C176.948 270.245 170.424 272.593 164.552 274.551L162.986 272.985C146.283 256.935 131.277 236.187 121.099 220.528C120.446 219.615 119.924 218.701 119.402 217.918C133.029 214.253 146.338 209.496 159.202 203.695C181.254 193.908 186.865 189.472 186.865 189.472L219.227 248.714Z" fill="#E1ECFF"/>
<path d="M215.57 248.584C215.57 248.584 205 257.066 182.556 265.939C175.64 268.679 168.724 271.028 162.852 272.985C146.15 256.935 131.143 236.187 120.965 220.529L123.053 220.007C135.634 216.547 147.935 212.141 159.851 206.827C180.207 197.693 185.949 194.692 185.949 194.692L215.57 248.584Z" fill="#0D3975"/>
<path d="M157.373 253.673C156.948 253.683 156.533 253.544 156.199 253.281L141.845 240.493L140.931 243.234C140.859 243.451 140.742 243.651 140.59 243.822C140.438 243.993 140.252 244.132 140.045 244.229C139.838 244.327 139.613 244.382 139.384 244.39C139.155 244.398 138.927 244.36 138.713 244.277C138.496 244.205 138.296 244.089 138.124 243.936C137.953 243.784 137.815 243.599 137.717 243.391C137.62 243.184 137.565 242.959 137.557 242.73C137.549 242.501 137.587 242.273 137.669 242.059L139.496 236.84C139.6 236.574 139.758 236.332 139.961 236.13C140.163 235.928 140.404 235.77 140.67 235.665C140.965 235.604 141.269 235.607 141.562 235.675C141.854 235.742 142.129 235.873 142.367 236.057L155.024 247.279L154.372 242.19C154.295 241.81 154.359 241.416 154.551 241.08C154.743 240.745 155.05 240.49 155.416 240.363L198.608 221.703C198.822 221.607 199.052 221.554 199.287 221.548C199.521 221.542 199.754 221.583 199.973 221.668C200.192 221.753 200.391 221.881 200.56 222.043C200.729 222.206 200.863 222.401 200.956 222.616C201.052 222.83 201.105 223.061 201.111 223.296C201.117 223.53 201.076 223.763 200.991 223.982C200.906 224.2 200.778 224.4 200.616 224.569C200.453 224.737 200.258 224.872 200.043 224.965L158.025 243.103L159.2 251.585C159.258 251.947 159.201 252.317 159.037 252.645C158.873 252.973 158.61 253.241 158.286 253.412C157.996 253.542 157.688 253.63 157.373 253.673Z" fill="#FFCE94"/>
<path d="M253.278 88.2113C253.278 88.2113 251.32 102.174 236.314 121.617C227.702 132.839 214.653 145.888 195.079 159.197C162.979 181.12 137.664 190.384 122.527 194.43C117.496 195.868 112.341 196.829 107.13 197.3C107.13 197.3 74.3769 141.451 79.7269 90.8211C81.1623 77.6417 85.2075 66.6806 91.3405 57.6768C95.6982 51.1916 101.178 45.5356 107.521 40.9742C125.659 27.9253 150.061 23.3582 173.81 26.2289C217.132 31.579 253.278 88.2113 253.278 88.2113Z" fill="#8CB9F5"/>
<path d="M253.28 88.2114C253.28 88.2114 252.366 94.4749 247.408 104.392C244.297 110.531 240.581 116.345 236.316 121.747C227.704 132.969 214.655 146.018 195.082 159.328C160.502 182.816 133.752 191.82 119.267 195.343C115.281 196.344 111.224 197.042 107.132 197.431C107.132 197.039 107.262 167.027 156.065 128.924C205.129 90.4297 253.28 88.2114 253.28 88.2114Z" fill="#5F9DF1"/>
<path d="M247.405 104.392C244.293 110.531 240.578 116.345 236.313 121.747C227.701 132.969 214.652 146.018 195.078 159.328C160.499 182.816 133.748 191.82 119.264 195.343C124.745 182.816 136.75 164.287 163.761 143.147C188.198 123.817 216.858 110.537 247.405 104.392V104.392Z" fill="#1c72ea"/>
<path d="M253.279 88.2113C253.279 88.2113 251.322 102.174 236.315 121.617C231.635 113.452 226.358 105.645 220.526 98.259C220.526 98.259 201.344 115.614 185.686 103.218C170.027 90.6906 181.771 67.7245 181.771 67.7245C170.303 56.5191 155.93 48.7448 140.275 45.2804C129.448 42.9604 118.451 41.5204 107.392 40.9742C125.53 27.9253 149.932 23.3582 173.681 26.2289C217.134 31.579 253.279 88.2113 253.279 88.2113Z" fill="#BAD5F9"/>
<path d="M122.66 194.429C117.629 195.868 112.473 196.829 107.262 197.3C107.262 197.3 74.5092 141.451 79.8592 90.821C81.2946 77.6416 85.3398 66.6805 91.4728 57.6768C88.8948 87.067 92.0864 116.678 100.868 144.844C106.386 162.086 113.689 178.705 122.66 194.429Z" fill="#BAD5F9"/>
<path d="M271.678 421.741C271.696 422.569 271.653 423.398 271.547 424.22C271.025 431.919 247.407 433.354 230.965 434.137C214.785 434.92 197.691 430.353 203.563 425.003L203.824 424.742C207.999 421.219 216.09 417.174 225.093 413.912C230.299 411.987 235.615 410.374 241.013 409.083C248.059 407.387 262.413 403.994 267.111 407.518C268.091 408.294 268.892 409.274 269.46 410.388C271.061 413.952 271.82 417.837 271.678 421.741Z" fill="#0D3975"/>
<path d="M271.678 421.741C271.696 422.569 271.653 423.398 271.547 424.22C271.025 431.919 247.407 433.354 230.965 434.137C214.785 434.92 197.691 430.353 203.563 425.003C207.086 427.091 214.785 429.57 230.835 428.918C252.757 428.004 266.067 424.351 271.678 421.741Z" fill="#1250A4"/>
<path d="M269.327 410.388C267.91 411.64 266.33 412.694 264.629 413.52C258.366 416.652 239.314 420.044 227.701 418.087C222.612 417.174 223.003 415.608 224.96 413.912C230.166 411.987 235.482 410.374 240.88 409.083C247.927 407.387 262.28 403.994 266.978 407.518C267.958 408.294 268.759 409.274 269.327 410.388Z" fill="#082246"/>
<path d="M239.971 347.753C245.191 381.158 264.242 406.734 264.242 406.734C262.723 408.698 260.867 410.377 258.761 411.693C257.007 412.792 255.122 413.669 253.15 414.303C249.837 415.2 246.384 415.466 242.972 415.086C240.77 414.867 238.588 414.474 236.448 413.911C236.448 413.911 203.956 372.024 199.911 324.265C195.866 276.506 221.572 252.496 221.572 252.496C221.764 252.392 221.94 252.26 222.094 252.105C226.288 249.52 231.112 248.141 236.038 248.118C240.964 248.095 245.801 249.429 250.019 251.974C250.967 252.48 251.883 253.047 252.759 253.67C263.329 260.586 264.894 267.633 264.894 267.633C259.957 272.195 255.735 277.473 252.368 283.291C247.017 292.426 234.751 314.348 239.971 347.753Z" fill="#E1ECFF"/>
<path d="M239.969 347.753C245.189 381.158 264.24 406.734 264.24 406.734C262.721 408.698 260.865 410.377 258.76 411.693C249.234 398.513 226.398 358.584 227.181 320.611C227.834 285.901 245.841 261.761 252.888 253.67C263.457 260.586 265.023 267.633 265.023 267.633C260.086 272.195 255.863 277.473 252.496 283.291C247.016 292.426 234.75 314.348 239.969 347.753Z" fill="#BAD5F9"/>
<path d="M242.84 414.955C240.638 414.736 238.456 414.343 236.316 413.78C236.316 413.78 203.824 371.893 199.779 324.134C195.734 276.375 221.44 252.365 221.44 252.365C221.632 252.261 221.808 252.129 221.962 251.974C217.004 262.152 205.912 288.511 206.956 318.262C208.261 356.496 224.833 385.986 236.446 404.777C238.665 408.561 240.883 411.953 242.84 414.955Z" fill="#F8FBFF"/>
<path d="M218.048 381.027C217.825 381.039 217.603 380.998 217.399 380.907C217.195 380.817 217.015 380.679 216.874 380.505C216.544 380.185 216.347 379.751 216.323 379.291C216.299 378.832 216.449 378.38 216.743 378.026C220.017 375.024 223.95 372.833 228.227 371.632C235.925 369.283 244.407 371.893 244.799 372.024C245.242 372.171 245.612 372.484 245.831 372.897C246.05 373.31 246.101 373.792 245.973 374.242C245.826 374.686 245.513 375.056 245.1 375.274C244.686 375.493 244.205 375.544 243.755 375.416C243.624 375.416 235.925 373.068 229.27 375.025C222.615 377.113 219.353 380.375 219.353 380.505C219.194 380.692 218.992 380.836 218.765 380.927C218.538 381.018 218.292 381.053 218.048 381.027Z" fill="#BAD5F9"/>
<path d="M204.602 339.272C204.281 339.282 203.964 339.202 203.687 339.04C203.41 338.879 203.184 338.642 203.036 338.358C202.907 338.155 202.822 337.927 202.785 337.69C202.748 337.452 202.761 337.209 202.822 336.976C202.884 336.744 202.992 336.526 203.141 336.337C203.29 336.149 203.476 335.993 203.688 335.879C208.842 333.061 214.535 331.371 220.391 330.92C226.283 330.767 232.076 332.455 236.963 335.748C237.158 335.88 237.325 336.05 237.451 336.249C237.578 336.447 237.662 336.67 237.699 336.903C237.736 337.135 237.724 337.373 237.665 337.601C237.606 337.829 237.5 338.042 237.354 338.228C237.223 338.423 237.053 338.589 236.854 338.716C236.655 338.843 236.433 338.927 236.2 338.964C235.967 339 235.73 338.989 235.502 338.929C235.274 338.87 235.06 338.765 234.875 338.619C234.745 338.619 228.22 334.052 220.521 334.443C215.203 334.844 210.037 336.403 205.385 339.011C205.254 339.272 204.863 339.272 204.602 339.272Z" fill="#BAD5F9"/>
<path d="M240.362 304.817C240.139 304.829 239.917 304.787 239.712 304.697C239.508 304.606 239.329 304.468 239.188 304.295C239.057 304.164 229.401 295.422 219.745 294.247C210.35 293.073 204.608 297.118 204.608 297.249C204.223 297.512 203.752 297.619 203.291 297.546C202.83 297.473 202.414 297.227 202.129 296.857C201.865 296.472 201.759 296.001 201.831 295.54C201.904 295.078 202.151 294.663 202.52 294.378C202.781 294.117 209.436 289.289 220.267 290.724C230.967 292.159 241.145 301.294 241.667 301.685C241.846 301.835 241.992 302.019 242.096 302.228C242.2 302.436 242.26 302.664 242.272 302.896C242.284 303.129 242.248 303.362 242.167 303.58C242.085 303.798 241.96 303.997 241.798 304.164C241.393 304.517 240.894 304.744 240.362 304.817Z" fill="#BAD5F9"/>
<path d="M354.286 267.763C352.413 273.285 348.795 278.048 343.978 281.334C336.148 286.423 331.712 286.945 331.712 286.945C331.712 286.945 326.623 286.162 326.623 282.9V282.509C326.942 280.09 327.887 277.796 329.363 275.854C332.9 275.238 336.357 274.231 339.671 272.852C343.325 271.025 347.24 265.153 350.111 264.501C350.703 264.393 351.314 264.459 351.869 264.691C352.425 264.922 352.902 265.31 353.242 265.806C353.723 266.378 354.079 267.045 354.286 267.763Z" fill="#E1ECFF"/>
<path d="M354.286 267.763C352.413 273.285 348.795 278.048 343.978 281.334C336.148 286.423 331.712 286.945 331.712 286.945C331.712 286.945 326.623 286.162 326.623 282.9C330.146 282.639 338.497 281.595 344.369 276.897C348.168 273.906 351.208 270.061 353.242 265.675C353.713 266.303 354.067 267.01 354.286 267.763Z" fill="#BAD5F9"/>
<path d="M349.462 267.111C345.876 272.052 340.799 275.712 334.977 277.55C332.617 278.485 330.056 278.8 327.539 278.463C326.878 277.825 326.361 277.051 326.024 276.196C325.686 275.341 325.535 274.423 325.582 273.505C325.712 271.939 326.756 270.243 329.497 268.677C329.497 268.677 336.935 267.763 341.632 258.629C346.33 249.495 344.372 248.581 345.547 246.755C346.33 245.45 349.201 245.58 351.158 246.755C352.113 247.29 352.816 248.181 353.115 249.234C354.29 252.496 354.159 260.717 349.462 267.111Z" fill="#E1ECFF"/>
<path d="M349.462 267.111C345.876 272.052 340.799 275.711 334.977 277.55C332.617 278.485 330.056 278.799 327.539 278.463C326.878 277.824 326.361 277.051 326.024 276.196C325.686 275.341 325.535 274.423 325.582 273.505C330.41 273.244 340.327 271.939 345.155 264.762C348.763 259.42 350.839 253.192 351.158 246.754C352.113 247.289 352.816 248.181 353.115 249.234C354.29 252.496 354.159 260.717 349.462 267.111Z" fill="#BAD5F9"/>
<path d="M340.718 263.065C337.304 267.783 332.45 271.263 326.886 272.983C324.644 273.843 322.217 274.112 319.84 273.766C319.214 273.161 318.727 272.428 318.411 271.617C318.096 270.806 317.96 269.936 318.013 269.068C318.144 267.633 319.188 265.936 321.797 264.501C321.797 264.501 328.844 263.718 333.28 254.975C337.717 246.363 335.89 245.449 336.934 243.623C337.717 242.448 340.327 242.448 342.284 243.623C343.198 244.145 343.893 244.978 344.242 245.971C345.285 249.234 345.155 257.063 340.718 263.065Z" fill="#E1ECFF"/>
<path d="M340.718 263.065C337.304 267.783 332.45 271.263 326.886 272.983C324.644 273.843 322.217 274.112 319.84 273.765C319.214 273.161 318.727 272.428 318.411 271.617C318.096 270.806 317.96 269.936 318.013 269.068C322.58 268.807 331.976 267.632 336.673 260.847C340.047 255.748 342.027 249.855 342.415 243.753C343.328 244.275 344.023 245.109 344.372 246.102C344.946 249.029 344.917 252.043 344.289 254.959C343.661 257.876 342.446 260.634 340.718 263.065Z" fill="#BAD5F9"/>
<path d="M337.194 274.679C337.3 277.867 336.675 281.036 335.367 283.944C334.608 285.612 333.595 287.153 332.365 288.511C332.365 288.511 299.352 300.125 264.642 271.156C246.765 256.28 232.411 236.837 222.755 221.57C217.547 213.403 212.798 204.951 208.531 196.255C208.531 196.255 205.791 187.773 210.88 180.466C212.789 177.7 215.402 175.493 218.448 174.072C224.581 170.94 229.67 170.679 233.716 171.723C237.865 172.816 241.564 175.191 244.285 178.509C244.285 178.509 249.374 189.731 256.943 203.563C265.816 219.613 278.082 239.186 289.826 248.321C311.618 265.284 329.756 258.76 329.756 258.76C331.212 260.287 332.523 261.947 333.67 263.718C335.106 266.459 337.063 270.373 337.194 274.679Z" fill="#E1ECFF"/>
<path d="M256.548 203.302C252.311 209.958 245.974 215.009 238.541 217.656C233.39 219.649 227.989 220.923 222.491 221.44C217.283 213.272 212.534 204.821 208.267 196.125C208.267 196.125 203.57 181.38 218.054 173.811C234.365 165.329 243.891 178.248 243.891 178.248C243.891 178.248 248.98 189.6 256.548 203.302Z" fill="#BAD5F9"/>
<path d="M335.235 283.814C334.476 285.482 333.463 287.022 332.234 288.381C332.234 288.381 299.22 299.995 264.51 271.026C246.633 256.15 232.279 236.707 222.623 221.44C217.415 213.273 212.667 204.821 208.399 196.125C208.399 196.125 205.659 187.643 210.748 180.336C215.054 190.123 233.453 230.052 256.811 253.018C283.561 279.247 298.045 282.509 323.752 283.553C327.927 283.683 331.842 283.814 335.235 283.814Z" fill="#BAD5F9"/>
<path d="M333.275 263.588C326.62 265.545 317.356 266.98 307.7 263.979C289.692 258.368 274.947 247.016 260.462 225.224C248.588 207.216 237.105 180.597 233.451 171.593C237.601 172.686 241.299 175.06 244.021 178.378C244.021 178.378 249.11 189.6 256.678 203.432C265.552 219.482 277.818 239.056 289.562 248.19C311.353 265.154 329.491 258.629 329.491 258.629C330.919 260.148 332.187 261.81 333.275 263.588Z" fill="#F8FBFF"/>
<path d="M242.845 243.101C240.99 243.107 239.144 242.843 237.365 242.318C236.922 242.14 236.567 241.794 236.376 241.357C236.186 240.919 236.175 240.424 236.346 239.979C236.518 239.533 236.857 239.173 237.292 238.976C237.727 238.779 238.221 238.76 238.669 238.925C238.93 239.055 245.063 241.143 253.284 236.707C258.187 233.964 261.835 229.426 263.462 224.049C263.514 223.826 263.609 223.616 263.741 223.43C263.874 223.244 264.042 223.086 264.236 222.964C264.43 222.843 264.646 222.761 264.871 222.724C265.097 222.686 265.327 222.693 265.55 222.744C265.773 222.796 265.983 222.89 266.17 223.023C266.356 223.156 266.514 223.324 266.635 223.518C266.756 223.712 266.838 223.928 266.876 224.153C266.914 224.379 266.907 224.609 266.855 224.832C265.959 228.009 264.435 230.974 262.373 233.552C260.311 236.129 257.753 238.267 254.85 239.838C251.202 241.957 247.063 243.082 242.845 243.101Z" fill="#BAD5F9"/>
<path d="M267.768 272.33C267.283 272.33 266.819 272.138 266.476 271.795C266.133 271.452 265.941 270.988 265.941 270.503C265.941 270.019 266.133 269.554 266.476 269.211C266.819 268.869 267.283 268.676 267.768 268.676C267.898 268.676 275.989 268.546 280.556 262.935C285.253 257.193 284.34 249.103 284.34 248.973C284.314 248.741 284.334 248.507 284.399 248.283C284.463 248.06 284.571 247.851 284.717 247.669C284.862 247.487 285.042 247.336 285.246 247.224C285.45 247.112 285.674 247.041 285.906 247.015C286.369 246.983 286.827 247.126 287.19 247.416C287.553 247.706 287.793 248.122 287.863 248.581C287.863 248.973 288.907 258.237 283.296 265.153C277.685 272.33 268.159 272.33 267.768 272.33Z" fill="#BAD5F9"/>
<path d="M296.476 287.598C296.107 287.6 295.746 287.488 295.442 287.278C295.139 287.068 294.907 286.77 294.78 286.423C294.609 285.973 294.623 285.474 294.819 285.034C295.014 284.594 295.375 284.25 295.823 284.075C298.111 283.069 300.143 281.562 301.77 279.664C303.396 277.767 304.575 275.528 305.219 273.113C307.176 265.023 304.436 260.325 304.305 260.195C304.062 259.792 303.981 259.313 304.078 258.853C304.175 258.393 304.443 257.986 304.827 257.716C305.23 257.473 305.71 257.392 306.17 257.489C306.63 257.585 307.036 257.853 307.307 258.238C307.437 258.499 311.091 264.371 308.611 273.896C307.815 276.868 306.356 279.62 304.345 281.948C302.334 284.275 299.822 286.118 296.998 287.337C296.867 287.598 296.737 287.598 296.476 287.598Z" fill="#BAD5F9"/>
<path d="M257.588 187.643C257.319 188.981 256.926 190.292 256.414 191.557C254.587 195.994 250.281 203.301 240.494 209.695C225.358 219.482 211.917 215.306 211.917 215.306C205.644 206.357 201.657 196.008 200.304 185.163C199.129 175.116 205.784 167.286 214.396 163.502C220.79 160.762 228.228 160.24 234.231 162.85C248.454 169.244 257.588 187.643 257.588 187.643Z" fill="#0D3975"/>
<path d="M257.594 187.643C257.325 188.981 256.931 190.292 256.419 191.557C256.419 191.427 256.289 191.427 256.289 191.296C244.153 175.246 234.628 171.984 234.628 171.984C234.628 171.984 231.104 180.335 219.491 175.507C211.401 172.245 212.836 166.503 214.532 163.502C220.926 160.762 228.364 160.24 234.367 162.85C248.459 169.244 257.594 187.643 257.594 187.643Z" fill="#1250A4"/>
<path d="M99.0416 118.614C97.8696 118.416 96.6658 118.669 95.6729 119.323C94.6801 119.976 93.9721 120.982 93.6916 122.138C92.0978 128.725 90.8348 135.389 89.9074 142.102C89.2549 147.583 88.994 152.15 88.8635 155.282C88.8298 156.388 89.1928 157.469 89.8868 158.331C90.5808 159.192 91.5601 159.777 92.6477 159.98C93.2588 160.077 93.8833 160.047 94.4827 159.894C95.0821 159.74 95.6436 159.465 96.1327 159.086C96.6218 158.707 97.028 158.232 97.3264 157.69C97.6247 157.148 97.8088 156.55 97.8672 155.934C98.2667 150.147 99.0514 144.393 100.216 138.71C101.521 132.055 102.434 127.357 103.087 124.225C103.253 122.951 102.928 121.661 102.176 120.618C101.424 119.576 100.303 118.859 99.0416 118.614Z" fill="#0D3975"/>
<path d="M76.4646 132.577C76.6 131.963 76.872 131.388 77.2605 130.894C77.649 130.401 78.1438 130.001 78.7082 129.725C79.2726 129.449 79.892 129.304 80.5203 129.301C81.1485 129.298 81.7694 129.436 82.3366 129.706C86.2513 131.402 91.9929 133.882 97.4734 135.839C103.084 137.796 108.304 139.754 111.566 141.059C112.636 141.458 113.52 142.239 114.049 143.25C114.579 144.261 114.717 145.432 114.437 146.539C114.284 147.136 114.012 147.696 113.638 148.186C113.264 148.675 112.795 149.085 112.259 149.389C111.723 149.694 111.131 149.887 110.519 149.958C109.907 150.029 109.287 149.975 108.695 149.801C102.481 148.044 96.3805 145.909 90.427 143.407C86.2046 141.642 82.1066 139.593 78.161 137.274C77.4526 136.741 76.915 136.012 76.6138 135.178C76.3125 134.344 76.2607 133.44 76.4646 132.577Z" fill="#0D3975"/>
<path d="M155.148 86.7759C153.616 86.5504 152.056 86.9079 150.775 87.7778C149.494 88.6477 148.587 89.9666 148.232 91.4735C146.797 97.998 144.709 108.959 143.795 117.571C143.143 124.748 142.751 130.62 142.751 134.665C142.696 136.087 143.174 137.477 144.091 138.564C145.009 139.65 146.3 140.354 147.71 140.537C148.504 140.659 149.314 140.615 150.09 140.406C150.866 140.198 151.589 139.831 152.215 139.327C152.841 138.824 153.355 138.196 153.726 137.484C154.096 136.771 154.313 135.989 154.365 135.187C154.626 129.968 155.409 122.008 156.844 112.874C158.28 104.131 159.454 97.998 160.106 93.9528C160.283 93.1535 160.293 92.3264 160.135 91.5231C159.977 90.7198 159.656 89.9576 159.191 89.2842C158.725 88.6107 158.126 88.0404 157.431 87.6088C156.735 87.1773 155.958 86.8937 155.148 86.7759Z" fill="#0D3975"/>
<path d="M126.179 105.567C126.362 104.777 126.714 104.037 127.211 103.397C127.708 102.757 128.338 102.232 129.058 101.86C129.778 101.488 130.57 101.276 131.38 101.24C132.19 101.204 132.997 101.345 133.747 101.652C138.836 103.74 146.274 106.741 153.451 109.22C160.759 111.7 167.544 114.049 171.85 115.614C173.248 116.103 174.411 117.098 175.112 118.402C175.812 119.706 175.999 121.226 175.634 122.661C175.445 123.445 175.101 124.184 174.623 124.833C174.144 125.483 173.541 126.03 172.848 126.443C172.156 126.857 171.387 127.127 170.588 127.24C169.79 127.352 168.976 127.304 168.196 127.097C160.122 124.996 152.189 122.38 144.447 119.268C138.938 117.145 133.613 114.57 128.528 111.569C127.611 110.891 126.905 109.968 126.49 108.906C126.074 107.844 125.967 106.687 126.179 105.567Z" fill="#0D3975"/>
<path d="M61.2018 80.5119L58.4615 86.5144L1.17676 68.8984L8.87562 46.3237L61.2018 80.5119Z" fill="#1c72ea"/>
<path d="M69.8117 60.6775L64.7227 67.9849L0 18.66L17.877 0L69.8117 60.6775Z" fill="#1c72ea"/>
<path d="M456.319 313.806C455.404 313.828 454.488 313.784 453.579 313.676C433.353 312.24 419.521 305.324 396.294 269.962C388.204 257.696 382.723 245.169 377.373 233.033C368.239 212.286 360.41 194.278 342.663 185.927C315.391 173.139 288.641 194.278 288.38 194.539C287.824 194.971 287.121 195.169 286.422 195.089C285.723 195.01 285.082 194.659 284.639 194.113C284.195 193.566 283.983 192.868 284.048 192.167C284.113 191.466 284.45 190.819 284.987 190.363C286.161 189.45 314.608 166.875 344.882 181.099C364.455 190.233 373.067 209.937 382.201 230.815C387.421 242.82 392.902 255.216 400.731 266.961C422.784 300.366 435.441 306.89 453.971 308.326C467.802 309.37 475.24 301.018 482.417 292.797C484.817 289.988 487.388 287.329 490.116 284.838C496.415 279.344 504.078 275.648 512.299 274.137C512.642 274.086 512.991 274.103 513.328 274.186C513.664 274.27 513.981 274.419 514.259 274.625C514.538 274.831 514.773 275.09 514.952 275.387C515.131 275.684 515.249 276.013 515.3 276.356C515.352 276.698 515.335 277.048 515.252 277.384C515.168 277.721 515.019 278.037 514.813 278.316C514.607 278.595 514.348 278.83 514.051 279.009C513.754 279.187 513.425 279.306 513.082 279.357C505.897 280.828 499.205 284.106 493.639 288.883C491.086 291.202 488.689 293.687 486.462 296.321C479.155 304.672 471.065 313.806 456.319 313.806Z" fill="#0D3975"/>
<path d="M532.268 265.133L543.229 255.868C543.491 255.646 543.795 255.479 544.124 255.377C544.452 255.276 544.798 255.243 545.14 255.28C545.481 255.316 545.812 255.422 546.112 255.59C546.411 255.759 546.674 255.987 546.882 256.26C547.267 256.766 547.441 257.402 547.368 258.035C547.295 258.667 546.981 259.246 546.491 259.652L535.399 269.439L532.268 265.133Z" fill="#0D3975"/>
<path d="M525.479 257.304L536.441 248.039C536.703 247.816 537.007 247.65 537.336 247.548C537.664 247.447 538.01 247.414 538.351 247.45C538.693 247.487 539.024 247.593 539.324 247.761C539.623 247.93 539.885 248.158 540.094 248.431C540.479 248.937 540.653 249.573 540.58 250.206C540.507 250.838 540.193 251.417 539.703 251.823L528.611 261.61L525.479 257.304Z" fill="#0D3975"/>
<path d="M539.966 269.961C536.555 273.85 532.894 277.512 529.004 280.922C522.349 286.664 513.737 285.62 509.822 281.183C509.562 280.922 509.431 280.661 509.17 280.4C507.355 278.094 506.504 275.175 506.796 272.255C507.088 269.335 508.5 266.642 510.736 264.741C516.086 259.783 524.959 252.736 524.959 252.736L535.659 265.133L539.966 269.961Z" fill="#E1ECFF"/>
<path d="M539.964 269.961C536.554 273.85 532.893 277.512 529.003 280.922C522.348 286.664 513.736 285.62 509.821 281.183C509.56 280.922 509.43 280.661 509.169 280.4C513.892 280.419 518.518 279.058 522.479 276.485C527.136 273.07 531.5 269.272 535.528 265.133L539.964 269.961Z" fill="#BAD5F9"/>
</svg>
