<svg width="546" height="457" viewBox="0 0 546 457" fill="none" xmlns="http://www.w3.org/2000/svg">
<path d="M253.197 95.0724H251.01V35.1699C251.01 30.617 250.113 26.1087 248.371 21.9023C246.629 17.696 244.075 13.874 240.856 10.6546C237.636 7.4352 233.814 4.88143 229.608 3.1391C225.402 1.39677 220.893 0.500004 216.34 0.5H89.4288C80.2337 0.499982 71.4153 4.15267 64.9134 10.6545C58.4115 17.1564 54.7588 25.9748 54.7588 35.1698V363.799C54.7588 368.352 55.6555 372.861 57.3979 377.067C59.1402 381.273 61.694 385.095 64.9133 388.315C68.1327 391.534 71.9547 394.088 76.1611 395.83C80.3674 397.573 84.8757 398.469 89.4287 398.469H216.34C225.535 398.469 234.354 394.817 240.855 388.315C247.357 381.813 251.01 372.995 251.01 363.8V137.712H253.197V95.0724Z" fill="#3F3D56"/>
<path d="M217.743 9.51953H201.177C201.939 11.3873 202.229 13.4138 202.024 15.4204C201.818 17.427 201.122 19.3523 199.996 21.0265C198.871 22.7007 197.352 24.0725 195.571 25.0211C193.791 25.9697 191.805 26.4659 189.788 26.466H117.082C115.065 26.4659 113.079 25.9697 111.298 25.0211C109.518 24.0725 107.999 22.7007 106.873 21.0265C105.748 19.3523 105.052 17.4271 104.846 15.4204C104.64 13.4138 104.931 11.3873 105.693 9.51953H90.2202C86.8202 9.51953 83.4534 10.1892 80.3121 11.4904C77.1709 12.7915 74.3167 14.6986 71.9124 17.1028C69.5082 19.5071 67.6011 22.3613 66.3 25.5025C64.9988 28.6438 64.3291 32.0105 64.3291 35.4106V363.558C64.3291 366.958 64.9988 370.325 66.3 373.466C67.6011 376.607 69.5082 379.462 71.9124 381.866C74.3166 384.27 77.1709 386.177 80.3121 387.478C83.4534 388.779 86.8201 389.449 90.2202 389.449H217.743C221.143 389.449 224.51 388.779 227.651 387.478C230.792 386.177 233.646 384.27 236.051 381.866C238.455 379.462 240.362 376.607 241.663 373.466C242.964 370.325 243.634 366.958 243.634 363.558V35.4106C243.634 32.0105 242.964 28.6438 241.663 25.5025C240.362 22.3613 238.455 19.5071 236.051 17.1028C233.646 14.6986 230.792 12.7915 227.651 11.4904C224.51 10.1892 221.143 9.51953 217.743 9.51953Z" fill="white"/>
<path d="M280.528 398.526H0.734365C0.539599 398.526 0.35281 398.449 0.21509 398.311C0.0773698 398.174 0 397.987 0 397.792C0 397.597 0.0773698 397.41 0.21509 397.273C0.35281 397.135 0.539599 397.058 0.734365 397.058H280.528C280.722 397.058 280.909 397.135 281.047 397.273C281.185 397.41 281.262 397.597 281.262 397.792C281.262 397.987 281.185 398.174 281.047 398.311C280.909 398.449 280.722 398.526 280.528 398.526Z" fill="#8CB9F5"/>
<path d="M153.981 254.356C188.231 254.356 215.996 226.591 215.996 192.342C215.996 158.092 188.231 130.327 153.981 130.327C119.732 130.327 91.9668 158.092 91.9668 192.342C91.9668 226.591 119.732 254.356 153.981 254.356Z" fill="#1c72ea"/>
<path d="M147.835 215.998C146.44 216 145.082 215.549 143.966 214.712L143.896 214.66L129.322 203.511C128.647 202.994 128.081 202.348 127.655 201.612C127.23 200.876 126.953 200.063 126.842 199.219C126.731 198.376 126.786 197.519 127.006 196.698C127.226 195.876 127.605 195.106 128.123 194.431C128.64 193.756 129.286 193.189 130.022 192.764C130.758 192.338 131.571 192.062 132.415 191.95C133.258 191.839 134.115 191.895 134.936 192.115C135.758 192.334 136.528 192.714 137.203 193.231L146.643 200.47L168.951 171.368C169.468 170.693 170.113 170.127 170.849 169.702C171.585 169.276 172.398 169 173.241 168.889C174.083 168.777 174.94 168.833 175.761 169.053C176.583 169.273 177.353 169.652 178.027 170.169L178.029 170.171L177.891 170.363L178.033 170.171C179.394 171.217 180.285 172.76 180.509 174.462C180.734 176.164 180.274 177.886 179.23 179.249L152.992 213.464C152.385 214.253 151.605 214.891 150.711 215.329C149.818 215.767 148.836 215.993 147.841 215.99L147.835 215.998Z" fill="white"/>
<path d="M456.432 404.622C457.186 403.402 458.075 402.27 459.08 401.247C459.495 400.817 459.932 400.412 460.383 400.018C463.125 397.577 466.467 395.911 470.067 395.191C473.666 394.47 477.392 394.721 480.862 395.918C484.333 397.115 487.421 399.215 489.811 402.002C492.2 404.788 493.805 408.161 494.459 411.773C497.487 400.572 489.603 389.539 481.677 381.065C473.746 372.593 464.681 363.3 464.726 351.692C464.749 345.232 467.908 339.47 472.679 335.198C472.826 335.068 472.973 334.939 473.124 334.814C478.89 329.872 486.308 327.286 493.897 327.574C507.996 328.33 520.307 337.806 528.856 349.046C542.618 367.131 548.648 392.518 539.014 413.105C530.54 431.212 512.468 441.964 494.023 450.608C491.447 451.816 488.877 452.987 486.312 454.121C486.295 454.125 486.276 454.138 486.259 454.142C486.136 454.196 486.012 454.251 485.896 454.307C485.367 454.54 484.837 454.774 484.313 455.004L484.556 455.163L485.314 455.654C485.051 455.495 484.791 455.341 484.528 455.181C484.45 455.133 484.367 455.088 484.289 455.039C475.23 449.604 466.045 443.854 459.787 435.368C453.296 426.557 450.686 413.936 456.432 404.622Z" fill="#BAD5F9"/>
<path d="M516.873 384.159C518.879 388.723 520.209 393.554 520.821 398.501C521.302 402.913 521.121 407.371 520.284 411.729C518.485 420.684 514.562 429.076 508.845 436.2C504.531 441.608 499.551 446.449 494.024 450.608C491.448 451.815 488.878 452.986 486.313 454.121C486.296 454.125 486.277 454.137 486.26 454.142C486.137 454.196 486.013 454.25 485.897 454.306C485.368 454.54 484.838 454.773 484.314 455.004L484.557 455.163L485.315 455.654C485.052 455.495 484.792 455.34 484.529 455.181C484.451 455.133 484.368 455.088 484.29 455.039C486.284 448.066 486.577 440.716 485.145 433.606C483.713 426.496 480.597 419.832 476.06 414.174C471.498 408.588 465.68 404.158 459.081 401.247C459.496 400.817 459.933 400.412 460.384 400.018C462.926 401.185 465.359 402.574 467.656 404.17C475.872 409.849 482.041 418.021 485.251 427.479C488.116 436.059 488.474 445.278 486.282 454.054C486.737 453.757 487.194 453.452 487.637 453.148C496.077 447.457 503.854 440.622 509.713 432.241C514.766 425.157 517.999 416.939 519.129 408.312C520.252 398.887 517.893 389.619 513.686 381.21C509.039 372.213 503.185 363.894 496.284 356.483C489.353 348.869 481.517 342.13 472.949 336.419C472.756 336.289 472.62 336.089 472.57 335.862C472.52 335.635 472.559 335.397 472.68 335.197C472.772 335.016 472.932 334.878 473.124 334.814C473.222 334.789 473.325 334.786 473.424 334.806C473.523 334.826 473.616 334.869 473.697 334.93C474.755 335.636 475.803 336.347 476.839 337.081C485.467 343.19 493.303 350.348 500.166 358.389C506.799 366.14 512.834 374.752 516.873 384.159Z" fill="white"/>
<path d="M332.172 29.2944C339.446 29.2944 345.342 23.3979 345.342 16.1243C345.342 8.85058 339.446 2.9541 332.172 2.9541C324.898 2.9541 319.002 8.85058 319.002 16.1243C319.002 23.3979 324.898 29.2944 332.172 29.2944Z" fill="#BAD5F9"/>
<path d="M495.937 205.543C500.371 205.543 503.966 201.948 503.966 197.513C503.966 193.078 500.371 189.483 495.937 189.483C491.502 189.483 487.907 193.078 487.907 197.513C487.907 201.948 491.502 205.543 495.937 205.543Z" fill="#BAD5F9"/>
<path d="M260.942 227.573C265.376 227.573 268.971 223.978 268.971 219.543C268.971 215.109 265.376 211.514 260.942 211.514C256.507 211.514 252.912 215.109 252.912 219.543C252.912 223.978 256.507 227.573 260.942 227.573Z" fill="#BAD5F9"/>
<path d="M265.474 456.541H545.267C545.462 456.541 545.648 456.464 545.786 456.326C545.924 456.188 546.001 456.001 546.001 455.807C546.001 455.612 545.924 455.425 545.786 455.287C545.648 455.15 545.462 455.072 545.267 455.072H265.474C265.279 455.072 265.092 455.15 264.954 455.287C264.817 455.425 264.739 455.612 264.739 455.807C264.739 456.001 264.817 456.188 264.954 456.326C265.092 456.464 265.279 456.541 265.474 456.541Z" fill="#8CB9F5"/>
<path d="M514.388 71.4648C514.755 68.8564 514.153 66.2039 512.695 64.0098C511.237 61.8158 509.026 60.2326 506.479 59.5604C503.932 58.8882 501.227 59.1736 498.876 60.3625C496.526 61.5514 494.693 63.5613 493.725 66.0113L471.021 92.0403L477.682 110.647L500.516 80.2328C502.006 80.7101 503.583 80.8549 505.135 80.657C506.687 80.4591 508.176 79.9233 509.499 79.0873C510.821 78.2514 511.944 77.1356 512.789 75.8186C513.634 74.5016 514.179 73.0155 514.388 71.4648Z" fill="#FFB7B7"/>
<path d="M420.275 172.745L495.642 92.3103L485.476 76.1484L390.946 156.094L420.275 172.745Z" fill="#3F3D56"/>
<path d="M403.455 123.873C418.056 123.873 429.892 112.037 429.892 97.4362C429.892 82.8353 418.056 70.999 403.455 70.999C388.854 70.999 377.018 82.8353 377.018 97.4362C377.018 112.037 388.854 123.873 403.455 123.873Z" fill="#2F2E41"/>
<path d="M405.582 82.5022C411.271 76.7333 418.155 72.2816 425.75 69.4604C430.625 67.6543 435.932 66.5384 441.028 67.5641C446.125 68.5898 450.945 72.1158 452.367 77.1166C453.53 81.2058 452.33 85.6086 450.525 89.458C448.721 93.3073 446.312 96.8769 444.852 100.87C443.363 104.944 442.916 109.326 443.55 113.617C444.184 117.908 445.879 121.973 448.483 125.443C451.086 128.912 454.515 131.677 458.458 133.485C462.401 135.294 466.733 136.089 471.061 135.798C466.053 136.47 461.437 138.823 456.542 140.076C451.647 141.328 445.87 141.243 442.232 137.736C438.383 134.026 438.306 127.994 438.492 122.651C438.769 114.709 439.046 106.766 439.322 98.8243C439.463 94.774 439.584 90.5938 438.123 86.8134C436.662 83.033 433.191 79.7226 429.138 79.757C426.067 79.783 423.348 81.6438 420.885 83.4788C418.422 85.3138 415.815 87.2716 412.755 87.5445C409.696 87.8175 406.203 85.5533 406.431 82.4903L405.582 82.5022Z" fill="#2F2E41"/>
<path d="M303.046 274.949C300.508 275.654 297.8 275.404 295.434 274.246C293.068 273.087 291.21 271.101 290.211 268.664C289.211 266.227 289.141 263.507 290.012 261.022C290.884 258.536 292.637 256.456 294.94 255.177L317.779 229.266L337.096 233.439L309.927 260.051C310.594 261.466 310.944 263.01 310.951 264.575C310.957 266.139 310.621 267.686 309.965 269.106C309.309 270.527 308.349 271.786 307.154 272.796C305.959 273.805 304.556 274.54 303.046 274.949Z" fill="#FFB7B7"/>
<path d="M378.188 182.186L321.264 253.639L303.912 245.673L370.82 141.507L378.188 182.186Z" fill="#3F3D56"/>
<path d="M332.764 397.946L319.197 397.733L320.829 443.973H332.762L332.764 397.946Z" fill="#FFB7B7"/>
<path d="M335.807 440.078L312.306 440.077H312.305C308.334 440.077 304.524 441.655 301.716 444.464C298.907 447.272 297.329 451.081 297.329 455.053V455.54L335.806 455.541L335.807 440.078Z" fill="#2F2E41"/>
<path d="M422.593 385.683L407.772 395.197L437.417 430.862L447.459 424.415L422.593 385.683Z" fill="#FFB7B7"/>
<path d="M447.914 419.492L428.138 432.188L428.138 432.189C424.795 434.335 422.443 437.721 421.597 441.602C420.751 445.482 421.481 449.54 423.627 452.883L423.889 453.292L456.268 432.505L447.914 419.492Z" fill="#2F2E41"/>
<path d="M427.869 244.486C427.869 244.486 394.94 135.119 384.358 133.641C373.776 132.163 356.725 161.703 356.725 161.703C334.619 189.909 311.823 281.273 311.823 281.273C311.823 281.273 349.824 283.651 377.603 298.43C405.382 313.21 438.164 297.682 438.164 297.682L427.869 244.486Z" fill="#3F3D56"/>
<path opacity="0.1" d="M427.869 244.486C427.869 244.486 394.94 135.119 384.358 133.641C373.776 132.163 361.056 162.003 361.056 162.003C350.04 207.534 311.823 281.273 311.823 281.273C311.823 281.273 349.824 283.651 377.603 298.431C405.382 313.21 438.164 297.682 438.164 297.682L427.869 244.486Z" fill="black"/>
<path d="M400.854 211.763V266.719L407.321 346.327L439.633 406.545L424.211 417.561L380.15 360.28L362.722 303.404L335.353 429.311L314.791 427.842L329.071 253.275L356.17 204.139L400.854 211.763Z" fill="#2F2E41"/>
<path d="M367.655 158.608C357.374 168.889 366.921 179.905 366.921 179.905L355.171 206.342L401.436 218.826L417.604 146.58L406.588 134.831C384.557 134.096 384.546 133.64 384.546 133.64C380.686 137.417 367.655 158.608 367.655 158.608Z" fill="#1c72ea"/>
<path d="M419.467 139.097C417.366 137.546 414.978 136.427 412.441 135.806C409.904 135.184 407.27 135.072 404.689 135.476C402.109 135.88 399.635 136.791 397.409 138.158C395.184 139.525 393.252 141.32 391.725 143.439C380.094 159.634 369.34 185.784 384.157 218.397C407.95 270.765 428.655 297.573 437.072 297.57C437.44 297.573 437.805 297.515 438.154 297.4C443.335 295.642 450.826 286.875 452.182 279.149C452.668 276.383 452.552 272.532 449.245 269.887C439.746 262.289 422.692 238.631 417.372 207.492C414.432 190.286 420.134 174.613 425.434 164.495C427.673 160.309 428.328 155.456 427.279 150.825C426.23 146.195 423.547 142.098 419.723 139.285L419.467 139.097Z" fill="#3F3D56"/>
<path d="M404.815 121.276C414.246 116.121 417.712 104.297 412.557 94.8658C407.401 85.435 395.577 81.9691 386.146 87.1244C376.715 92.2798 373.25 104.104 378.405 113.535C383.56 122.966 395.385 126.432 404.815 121.276Z" fill="#FFB7B7"/>
<path d="M368.111 102.729H396.212L396.5 98.6947L397.941 102.729H402.268L402.839 94.733L405.695 102.729H414.067V102.333C414.061 96.7662 411.847 91.4292 407.91 87.4928C403.974 83.5564 398.637 81.3422 393.07 81.3359H389.108C383.542 81.3422 378.205 83.5564 374.268 87.4928C370.332 91.4291 368.118 96.7662 368.111 102.333V102.729Z" fill="#2F2E41"/>
<path d="M409.823 117.231L421.815 113.339V84.2178H399.164L399.725 84.7777C407.527 92.57 416.205 120.216 409.823 117.231Z" fill="#2F2E41"/>
</svg>
