<svg xmlns="http://www.w3.org/2000/svg" width="72" height="72" viewBox="0 0 36 36" fill="none">
  <mask id="mask0_2522_12614" style="mask-type:alpha" maskUnits="userSpaceOnUse" x="0" y="0" width="38" height="36">
    <path d="M36.4752 27.1118V25.2686L22.9421 32.0867L1.20654 29.5661L1.59698 30.6673C1.85254 31.3881 2.48536 31.9088 3.2419 32.0207L22.1265 34.815C22.5751 34.8814 23.0331 34.7983 23.4298 34.5787L36.2621 27.4733C36.3936 27.4005 36.4752 27.2621 36.4752 27.1118Z" fill="#9747FF" stroke="#9747FF" stroke-width="0.413224"/>
    <path d="M8.44787 20.9298L11.6405 20.1649L12.2805 19.793L20.4513 20.2435L29.9876 20.7313L33.6447 19.793L36.9151 20.8768C37.0842 20.9328 37.1984 21.0909 37.1984 21.269V25.1044C37.1984 25.5682 36.8167 25.9413 36.353 25.9306L29.9876 25.7847L23.1142 30.9639C22.7904 31.2078 22.3884 31.3243 21.9845 31.2912L1.4339 29.607L1.28866 29.192C1.11557 28.6975 1.27209 28.1475 1.67965 27.8182L7.23969 23.326L7.52023 21.8966C7.61366 21.4206 7.97613 21.0428 8.44787 20.9298Z" stroke="#9747FF" stroke-width="0.826448"/>
    <path d="M35.9537 19.437L30.2411 20.7693C30.1451 20.7917 30.0463 20.8003 29.9479 20.7947L9.81382 19.6529C9.22404 19.6194 8.78235 19.0991 8.84509 18.5117L10.5001 3.01833C10.5523 2.52933 10.942 2.14494 11.4317 2.09943L28.9782 0.468507C29.2583 0.442471 29.5369 0.531799 29.7497 0.715857L35.8589 6.001C36.0732 6.1864 36.202 6.45171 36.215 6.73479L36.751 18.3834C36.7739 18.8809 36.4386 19.3238 35.9537 19.437Z" stroke="#9747FF" stroke-width="0.826448"/>
    <path d="M28.458 26.5698L22.5701 31.2801L2.36767 28.8755C2.00429 28.8323 1.87231 28.3729 2.15732 28.1434L8.18085 23.2922L7.26014 23.2016L1.24773 28.1396L1.1031 28.9454L2.3841 31.6107L13.0039 31.9206L22.5701 32.6231L36.9195 26.0171C37.2253 25.8764 37.4152 25.5642 37.3995 25.2279L37.1981 20.9082L29.0783 22.5404V25.2791C29.0783 25.7812 28.8501 26.2561 28.458 26.5698Z" fill="#9747FF"/>
    <path fill-rule="evenodd" clip-rule="evenodd" d="M12.3447 6.39966V15.205C12.3447 16.412 12.7602 17.681 14.4026 17.7971C15.9698 17.9079 21.6843 18.1269 24.5337 18.2325C26.0376 18.3512 26.7895 17.6389 26.7895 16.2736C26.7895 15.9347 26.8141 14.5017 26.8444 12.7395C26.8825 10.5285 26.9294 7.79936 26.9478 6.06324C26.9662 4.32199 26.3739 3.58986 24.7118 3.58984C23.9631 3.58984 17.5356 3.89983 14.4026 4.12409C13.2747 4.20482 12.3447 4.42089 12.3447 6.39966ZM26.6094 8.25938C26.6094 6.99338 26.0275 5.42851 24.0145 5.28528C23.8652 5.27466 23.7262 5.26473 23.5964 5.25544C21.9756 5.13956 21.7653 5.12453 20.334 5.12452C19.0706 5.12452 16.9594 5.12452 15.9953 6.3308C15.0311 7.53708 15.4732 14.0763 15.6129 14.8817C15.7792 15.8397 16.0495 16.6819 17.5246 16.709C18.5505 16.7278 19.4894 16.7913 20.3415 16.8489C24.5196 17.1313 26.6094 17.2726 26.6094 11.3139V8.25938Z" fill="#9747FF"/>
    <path d="M29.0786 24.5044V23.7937C29.0786 23.4713 28.8315 23.2028 28.5103 23.176L8.8736 21.5358C8.52968 21.5071 8.23176 21.7722 8.22026 22.1171L8.18105 23.2934H6.91381L7.45691 21.1813L8.06036 20.7589L11.7414 19.9141L18.0776 20.3968L28.6781 22.4635C28.9425 22.5151 29.2145 22.5144 29.4787 22.4616L30.2149 22.3143L29.0786 24.5044Z" fill="#9747FF"/>
    <path d="M21.8057 31.8809L22.7768 35.0007" stroke="#9747FF" stroke-width="0.413224"/>
    <path fill-rule="evenodd" clip-rule="evenodd" d="M27.886 20.2622L27.8803 20.887L29.9464 21.0316L36.3254 19.4744C36.7025 19.3823 36.9647 19.0402 36.9557 18.6521L36.6613 6.09357L29.5952 0.329102L28.2682 0.347033C28.156 0.348551 28.0654 0.439468 28.0644 0.551756L28.0608 0.953651L28.2521 0.93677C28.8718 0.877326 29.3705 0.837668 29.3883 1.5712C29.4089 2.42371 29.8152 13.8566 30.0493 19.6523C30.0565 19.8307 30.0193 20.3727 29.0784 20.3264C28.6924 20.3074 28.2684 20.2838 27.886 20.2622Z" fill="#9747FF"/>
    <path d="M20.6562 29.0223L5.8162 27.5057C5.63581 27.4872 5.56497 27.262 5.70235 27.1436L8.11196 25.0676C8.32434 24.8846 8.60196 24.7958 8.88111 24.8215L23.8945 26.2059C24.0721 26.2223 24.1469 26.4409 24.0165 26.5627L21.7901 28.6408C21.4849 28.9257 21.0715 29.0647 20.6562 29.0223Z" fill="#9747FF"/>
  </mask>
  <g mask="url(#mask0_2522_12614)">
    <rect x="0.268082" y="-1.09766" width="38.1708" height="36.9513" fill="#1c72ea"/>
  </g>
</svg>