<svg width="417" height="321" viewBox="0 0 417 321" fill="none" xmlns="http://www.w3.org/2000/svg">
<path d="M35.4405 290.17C35.4405 290.17 -11.1236 260.322 35.4405 184.705C62.5037 153.266 148.465 94.3651 162.793 67.6998C177.119 41.0345 188.663 -1.54807 246.765 0.043358C268.653 -0.000848401 290.939 38.2495 324.769 138.937C357.402 196.246 449.334 259.921 405.16 290.167H35.4405V290.17Z" fill="#D7E8FF"/>
<path d="M217.901 320.699C324.951 320.699 411.732 308.885 411.732 294.311C411.732 279.737 324.951 267.923 217.901 267.923C110.852 267.923 24.0707 279.737 24.0707 294.311C24.0707 308.885 110.852 320.699 217.901 320.699Z" fill="#AAC2E2"/>
<path d="M280.308 70.8614C277.841 77.852 270.615 81.7981 263.553 80.3452L259.94 84.0379L260.247 79.2489C253.513 76.0896 250.138 68.2768 252.667 61.1125C255.361 53.4795 263.73 49.4744 271.363 52.168C278.993 54.8558 282.998 63.2285 280.308 70.8614Z" fill="#1c72ea"/>
<path d="M271.522 65.1532C271.336 66.2466 270.832 67.1985 270.125 67.9176C270.125 67.9176 270.122 67.9205 270.122 67.9235C269.639 68.5276 268.377 71.012 267.897 71.9757L263.821 71.2861C263.815 71.2861 263.812 71.2861 263.806 71.2861C263.798 70.4344 262.654 66.6179 262.513 66.1434C262.51 66.1346 262.507 66.1287 262.507 66.1228C262.504 66.111 262.501 66.1021 262.498 66.0992V66.0963C262.245 65.3241 262.171 64.4695 262.315 63.6001C262.772 60.8917 265.203 59.0439 267.747 59.4741C270.29 59.9015 271.979 62.4478 271.522 65.1532Z" fill="#F9D5A7"/>
<path d="M268.543 72.7331L268.345 73.909C268.287 74.2568 267.956 74.4925 267.609 74.4336L263.412 73.7233C263.064 73.6644 262.829 73.3343 262.887 72.9866L263.085 71.8107C263.144 71.4688 263.465 71.233 263.81 71.2861C263.816 71.2861 263.819 71.2861 263.825 71.2861L268.021 71.9963C268.366 72.0553 268.602 72.3853 268.543 72.7331Z" fill="#AAC5E2"/>
<path d="M258.877 58.5396L261.912 60.9887" stroke="#F9D5A7" stroke-width="0.589419" stroke-miterlimit="10" stroke-linecap="round"/>
<path d="M272.956 65.1557L276.846 64.8817" stroke="#F9D5A7" stroke-width="0.589419" stroke-miterlimit="10" stroke-linecap="round"/>
<path d="M272.448 60.9917L276.059 59.5152" stroke="#F9D5A7" stroke-width="0.589419" stroke-miterlimit="10" stroke-linecap="round"/>
<path d="M265.169 58.3891L264.188 54.6139" stroke="#F9D5A7" stroke-width="0.589419" stroke-miterlimit="10" stroke-linecap="round"/>
<path d="M268.875 57.9944L270.16 54.3135" stroke="#F9D5A7" stroke-width="0.589419" stroke-miterlimit="10" stroke-linecap="round"/>
<path d="M210.894 52.5777C210.894 59.9896 205.392 66.1166 198.248 67.0951L197.4 71.3094L194.765 67.1599C187.362 66.4202 181.583 60.1753 181.583 52.5777C181.583 44.4849 188.143 37.9218 196.239 37.9218C204.331 37.9218 210.894 44.4849 210.894 52.5777Z" fill="#1c72ea"/>
<path d="M203.237 48.4276H189.244C188.669 48.4276 188.204 47.962 188.204 47.3873C188.204 46.8126 188.669 46.347 189.244 46.347H203.237C203.811 46.347 204.277 46.8126 204.277 47.3873C204.28 47.962 203.811 48.4276 203.237 48.4276Z" fill="#D7ECFF"/>
<path d="M203.237 52.9576H189.244C188.669 52.9576 188.204 52.492 188.204 51.9173C188.204 51.3426 188.669 50.877 189.244 50.877H203.237C203.811 50.877 204.277 51.3426 204.277 51.9173C204.28 52.489 203.811 52.9576 203.237 52.9576Z" fill="#D7ECFF"/>
<path d="M201.349 57.5667H191.122C190.548 57.5667 190.082 57.101 190.082 56.5264C190.082 55.9517 190.548 55.486 191.122 55.486H201.349C201.923 55.486 202.389 55.9517 202.389 56.5264C202.392 57.101 201.923 57.5667 201.349 57.5667Z" fill="#D7ECFF"/>
<path d="M334.577 73.375C338.184 74.8603 342.284 75.6973 346.631 75.6973C361.092 75.6973 372.816 66.4198 372.816 54.9792C372.816 43.5386 361.092 34.2611 346.631 34.2611C332.169 34.2611 320.446 43.5386 320.446 54.9792C320.446 61.3449 324.077 67.0417 329.788 70.8434C328.176 71.8543 325.774 73.4575 324.66 74.0646C323.44 74.7306 330.466 73.9025 334.577 73.375Z" fill="#1c72ea"/>
<path d="M330.225 48.1363H363.032C363.504 48.1363 363.884 47.7532 363.884 47.2846C363.884 46.813 363.501 46.4329 363.032 46.4329H330.225C329.754 46.4329 329.374 46.816 329.374 47.2846C329.374 47.7532 329.754 48.1363 330.225 48.1363Z" fill="#D7ECFF"/>
<path d="M330.225 53.2525H363.032C363.504 53.2525 363.884 52.8694 363.884 52.4008C363.884 51.9292 363.501 51.5491 363.032 51.5491H330.225C329.754 51.5491 329.374 51.9322 329.374 52.4008C329.374 52.8694 329.754 53.2525 330.225 53.2525Z" fill="#D7ECFF"/>
<path d="M330.917 57.9176H359.409C359.881 57.9176 360.261 57.5345 360.261 57.0659C360.261 56.5943 359.878 56.2142 359.409 56.2142H330.917C330.445 56.2142 330.065 56.5973 330.065 57.0659C330.065 57.5345 330.445 57.9176 330.917 57.9176Z" fill="#D7ECFF"/>
<path d="M330.831 63.4342H353.807C354.278 63.4342 354.658 63.0511 354.658 62.5825C354.658 62.111 354.275 61.7308 353.807 61.7308H330.831C330.359 61.7308 329.979 62.1139 329.979 62.5825C329.976 63.054 330.359 63.4342 330.831 63.4342Z" fill="#D7ECFF"/>
<path d="M203.072 115.714L188.826 119.13C188.826 119.13 176.672 82.2084 199.804 78.5982C222.936 74.9851 225.945 103.003 227.25 113.073L203.072 115.714Z" fill="black"/>
<path d="M220.667 271.031C220.667 271.031 215.551 286.232 216.453 289.704C217.355 293.176 236.508 293.17 236.508 293.17C236.508 293.17 235.264 272.107 231.728 269.399C228.191 266.69 220.667 271.031 220.667 271.031Z" fill="#FEF1E6"/>
<path d="M191.975 270.207C191.975 270.207 186.859 285.408 187.761 288.879C188.663 292.351 207.816 292.345 207.816 292.345C207.816 292.345 206.572 271.282 203.036 268.574C199.502 265.863 191.975 270.207 191.975 270.207Z" fill="#FEF1E6"/>
<path d="M189.582 184.346V273.882H206.495L207.164 180.423L189.582 184.346Z" fill="black"/>
<path d="M217.637 182.46V271.995H234.551L235.22 178.537L217.637 182.46Z" fill="black"/>
<path d="M201.81 115.967C201.81 115.967 190.084 118.752 189.583 124.402C189.082 130.052 179.94 170.15 185.557 187.199C187.275 192.409 198.899 194.528 198.899 194.528L236.12 176.663L235.219 137.947C235.219 137.947 231.205 116.645 214.551 114.553L201.81 115.967Z" fill="#F9D5A7"/>
<path d="M226.427 134.334L230.939 173.009L224.932 184.85L193.437 192.12C193.437 192.12 228.982 169.224 226.427 134.334Z" fill="#CEA980"/>
<path d="M224.936 99.9203C224.936 102.428 220.035 104.031 220.035 104.031C218.92 108.788 217.583 112.28 216.1 114.765C215.97 114.983 215.838 115.192 215.705 115.395C211.847 121.319 207.103 120.783 202.909 118.18C202.269 117.786 201.642 117.341 201.035 116.866C196.169 113.053 193.508 108.729 193.508 108.729C193.508 108.729 190.493 110.689 186.883 106.469C186.771 106.342 186.659 106.206 186.547 106.062C185.135 104.276 185.409 103.215 186.317 102.593C187.867 101.521 191.819 103.937 191.819 103.937C195.394 100.852 199.853 85.7978 199.853 85.7978C205.37 93.0742 218.87 99.8348 218.87 99.8348C221.806 94.2648 224.936 96.9113 224.936 99.9203Z" fill="#FFAD9F"/>
<path d="M210.696 103.779C211.297 103.703 211.64 102.503 211.463 101.098C211.286 99.6932 210.655 98.6158 210.054 98.6916C209.454 98.7674 209.111 99.9677 209.288 101.373C209.465 102.777 210.096 103.855 210.696 103.779Z" fill="#032048"/>
<path d="M200.423 105.285C201.023 105.209 201.367 104.009 201.189 102.604C201.012 101.199 200.381 100.122 199.781 100.197C199.18 100.273 198.837 101.474 199.014 102.878C199.191 104.283 199.822 105.361 200.423 105.285Z" fill="#032048"/>
<path d="M204.588 100.583L205.59 105.314C205.59 105.314 203.483 105.405 204.184 106.914C204.885 108.423 206.436 107.854 206.436 107.854" stroke="#032048" stroke-width="0.589419" stroke-miterlimit="10" stroke-linecap="round"/>
<path d="M203.252 112.148L212.382 110.94C212.382 110.94 210.876 115.758 208.668 115.959C206.461 116.159 203.252 112.148 203.252 112.148Z" fill="#AA4437"/>
<path d="M196.857 98.7063C196.857 98.7063 198.844 95.9979 201.031 97.8045" stroke="#032048" stroke-width="0.884129" stroke-miterlimit="10" stroke-linecap="round"/>
<path d="M207.162 96.6345C207.162 96.6345 208.479 93.3603 211.526 95.9567" stroke="#032048" stroke-width="0.884129" stroke-miterlimit="10" stroke-linecap="round"/>
<path d="M191.826 106.469C191.896 106.156 189.421 104.185 188.56 103.976C185.955 103.339 188.189 106.749 189.188 107.438C190.19 108.125 191.661 107.185 191.826 106.469Z" fill="#AA4437"/>
<path d="M220.306 101.547C220.132 101.276 221.794 98.5855 222.534 98.0963C224.77 96.6168 223.822 100.581 223.114 101.568C222.407 102.549 220.703 102.163 220.306 101.547Z" fill="#AA4437"/>
<path d="M255.162 236.966V251.095H246.433V239.065C246.636 239.023 246.839 238.979 247.049 238.935C249.392 238.434 252.065 237.78 254.906 237.034C254.991 237.014 255.079 236.99 255.162 236.966Z" fill="#264663"/>
<path d="M259.021 253.154V268.621C259.021 269.372 258.621 270.03 258.016 270.383C257.707 270.575 257.35 270.678 256.961 270.678H244.118C243.844 270.678 243.584 270.625 243.346 270.525C243.148 270.445 242.968 270.336 242.809 270.203C242.353 269.826 242.064 269.254 242.064 268.618V253.151C242.064 252.288 242.594 251.548 243.346 251.248C243.378 251.233 243.413 251.221 243.449 251.209C243.449 251.209 243.449 251.209 243.452 251.209C243.661 251.133 243.888 251.094 244.118 251.094H256.961C258.099 251.094 259.021 252.017 259.021 253.154Z" fill="#264663"/>
<path d="M225.368 292.342C225.368 294.8 223.376 296.792 220.918 296.792C219.716 296.792 218.622 296.315 217.827 295.54C216.987 294.732 216.468 293.598 216.468 292.342C216.468 289.884 218.46 287.895 220.918 287.895C221.522 287.895 222.1 288.016 222.625 288.234C224.237 288.9 225.368 290.485 225.368 292.342Z" fill="#13293A"/>
<path d="M223.977 291.426C223.977 293.883 221.985 295.876 219.527 295.876C218.923 295.876 218.348 295.755 217.827 295.537C216.987 294.729 216.468 293.595 216.468 292.339C216.468 289.881 218.46 287.892 220.918 287.892C221.522 287.892 222.1 288.013 222.625 288.231C223.459 289.041 223.977 290.173 223.977 291.426Z" fill="#264663"/>
<path d="M253.558 292.342C253.558 294.8 251.566 296.792 249.108 296.792C247.906 296.792 246.812 296.315 246.017 295.54C245.177 294.732 244.658 293.598 244.658 292.342C244.658 289.884 246.65 287.895 249.108 287.895C249.712 287.895 250.29 288.016 250.815 288.234C252.427 288.9 253.558 290.485 253.558 292.342Z" fill="#13293A"/>
<path d="M252.167 291.426C252.167 293.883 250.175 295.876 247.717 295.876C247.113 295.876 246.538 295.755 246.017 295.537C245.177 294.729 244.658 293.595 244.658 292.339C244.658 289.881 246.65 287.892 249.108 287.892C249.712 287.892 250.29 288.013 250.815 288.231C251.646 289.041 252.167 290.173 252.167 291.426Z" fill="#264663"/>
<path d="M282.391 292.342C282.391 294.8 280.399 296.792 277.941 296.792C276.738 296.792 275.645 296.315 274.849 295.54C274.009 294.732 273.491 293.598 273.491 292.342C273.491 289.884 275.483 287.895 277.941 287.895C278.545 287.895 279.123 288.016 279.647 288.234C281.259 288.9 282.391 290.485 282.391 292.342Z" fill="#13293A"/>
<path d="M281 291.426C281 293.883 279.008 295.876 276.55 295.876C275.946 295.876 275.371 295.755 274.849 295.537C274.009 294.729 273.491 293.595 273.491 292.339C273.491 289.881 275.483 287.892 277.941 287.892C278.545 287.892 279.123 288.013 279.647 288.231C280.481 289.041 281 290.173 281 291.426Z" fill="#264663"/>
<path d="M281.74 277.226V286.18C281.74 287.07 280.962 287.792 279.999 287.792H275.882C274.918 287.792 274.137 287.07 274.137 286.18V280.845C274.137 280.106 273.592 279.46 272.811 279.28L255.947 275.426C255.305 275.278 254.674 275.482 254.259 275.888C253.967 276.171 253.784 276.557 253.784 276.991V286.227C253.784 287.132 253.003 287.877 252.025 287.895C250.551 287.915 248.783 287.783 247.071 287.771C246.119 287.762 245.356 287.037 245.356 286.159V277.209C245.356 276.605 245.002 276.095 244.492 275.821C244.112 275.614 243.643 275.541 243.172 275.653L226.612 279.655C225.846 279.837 225.309 280.48 225.309 281.214V286.147C225.309 287.034 224.528 287.756 223.568 287.756H218.213C218.154 287.756 218.095 287.753 218.039 287.747C217.338 287.683 216.757 287.235 216.551 286.631C216.498 286.48 216.468 286.315 216.468 286.147V277.256C216.468 276.51 217.025 275.862 217.812 275.688L221.484 274.883L242.668 270.242L242.806 270.212C242.933 270.318 243.075 270.41 243.225 270.48L243.343 270.531C243.581 270.631 243.841 270.684 244.115 270.684H256.958C257.344 270.684 257.704 270.578 258.013 270.389L280.426 275.67C281.201 275.844 281.74 276.49 281.74 277.226Z" fill="#264663"/>
<path d="M259.025 253.155V268.621C259.025 269.372 258.624 270.03 258.02 270.383C257.711 270.575 257.354 270.678 256.965 270.678L242.81 270.203C259.953 270.33 259.559 262.423 256.936 256.614C254.466 251.139 243.68 251.212 243.453 251.206C243.662 251.13 243.889 251.092 244.119 251.092H256.962C258.103 251.094 259.025 252.017 259.025 253.155Z" fill="#13293A"/>
<path d="M254.908 237.034V251.094C254.908 251.094 253.234 242.433 251.589 240.774C250.599 239.772 248.557 239.215 247.051 238.935C249.397 238.434 252.067 237.779 254.908 237.034Z" fill="#13293A"/>
<path d="M244.493 275.815C244.113 275.609 243.644 275.535 243.173 275.647L226.613 279.649C225.847 279.832 225.311 280.474 225.311 281.208V286.142C225.311 287.029 224.53 287.751 223.569 287.751H223C222.953 286.339 222.791 281.317 223.015 279.643C223.271 277.689 224.093 277.483 224.093 277.483C224.093 277.483 236.324 274.76 239.356 274.091C242.395 273.425 243.883 274.501 244.493 275.815Z" fill="#13293A"/>
<path d="M276.38 287.792H275.882C274.918 287.792 274.137 287.07 274.137 286.18V280.846C274.137 280.106 273.592 279.461 272.811 279.281L255.947 275.426C255.305 275.279 254.674 275.482 254.259 275.889V275.886C254.259 275.886 255.497 273.997 256.835 273.891C258.17 273.787 274.155 276.307 275.49 277.639C276.671 278.821 276.445 286.136 276.38 287.792Z" fill="#13293A"/>
<path d="M295.214 197.346C292.184 211.377 288.98 222.838 287.687 225.266C287.445 225.72 287.026 226.183 286.458 226.654C278.857 232.926 244.164 240.364 239.761 241.484C235.025 242.687 184.901 234.579 184.901 234.579V221.768L241.517 179.418C241.517 179.418 241.034 147.578 245.646 133.311C249.772 120.556 281.919 122.766 295.252 131.979C295.299 132.011 295.349 132.047 295.396 132.079C296.914 133.143 298.181 134.301 299.124 135.539C304.874 143.081 300.291 173.825 295.214 197.346Z" fill="#4D7199"/>
<path d="M295.214 197.345C292.184 211.377 288.98 222.838 287.687 225.266C287.445 225.72 287.026 226.183 286.458 226.654C278.857 232.926 244.164 240.364 239.761 241.484C235.025 242.687 184.901 234.579 184.901 234.579V225.322L194.794 216.652C194.794 216.652 223.428 227.789 236.369 226.304C249.312 224.818 270.028 220.015 281.577 210.784C285.529 207.628 286.03 165.788 288.288 147.074C289.358 138.212 292.443 134.027 295.396 132.079C296.914 133.143 298.181 134.301 299.124 135.539C304.874 143.081 300.291 173.825 295.214 197.345Z" fill="#375A7A"/>
<path d="M111.121 160.637C111.121 160.637 108.751 169.254 106.945 169.254C105.138 169.254 87.983 145.327 87.983 142.919C87.983 141.336 96.7742 132.584 102.795 126.778C104.499 125.136 105.978 123.728 106.977 122.787C107.814 121.995 108.312 121.529 108.312 121.529L109.638 123.232L114.769 129.825C114.769 129.825 110.024 134.322 105.834 138.454C102.71 141.528 99.8922 144.401 99.571 145.056C98.8195 146.591 111.121 160.637 111.121 160.637Z" fill="#FFAD9F"/>
<path d="M114.771 129.826C114.771 129.826 110.026 134.323 105.835 138.455C104.689 135.151 103.448 130.008 102.797 126.778C104.5 125.137 105.98 123.728 106.979 122.788C107.86 122.838 108.756 122.997 109.64 123.233L114.771 129.826Z" fill="#AA4437"/>
<path d="M95.2512 275.904C95.2512 275.904 91.3758 291.353 92.4839 292.88C93.592 294.406 116.143 300.359 118.094 298.7C120.045 297.038 107.296 281.672 107.019 278.351C106.742 275.029 95.2512 275.904 95.2512 275.904Z" fill="#FEF1E6"/>
<path d="M131.551 275.896C131.551 275.896 128.027 289.947 129.032 291.338C130.04 292.729 150.554 298.143 152.328 296.631C154.103 295.119 142.506 281.141 142.255 278.121C142.005 275.097 131.551 275.896 131.551 275.896Z" fill="#FEF1E6"/>
<path d="M110.708 167.826C110.708 167.826 101.227 190.607 91.1954 276.629L109.506 279.058C109.506 279.058 125.108 200.865 126.938 198.455C128.768 196.044 128.573 277.307 128.573 277.307L145.413 279.058C145.413 279.058 151.148 181.211 147.335 178.544C143.521 175.877 110.708 167.826 110.708 167.826Z" fill="#032048"/>
<path d="M170.529 128.903L163.07 131.314C159.365 150.275 152.124 180.056 148.187 181.196C146.342 181.733 141.777 181.111 136.387 179.985C125.294 177.666 110.717 173.213 109.2 172.299C107.888 171.512 111.345 149.129 117.369 131.606C114.717 132.941 111.952 134.178 111.61 133.727C110.932 132.837 102.356 121.146 102.356 121.146C102.356 121.146 124.471 106.222 127.634 108.017L138.299 107.257L153.981 110.051C153.981 110.051 159.445 111.459 162.813 113.463C162.816 113.463 162.819 113.463 162.819 113.463C170.001 114.866 170.529 128.903 170.529 128.903Z" fill="#FFB085"/>
<path d="M167.798 77.836C167.762 78.4225 167.665 79.0296 167.5 79.6544C164.951 89.3503 161.208 103.269 151.872 105.465C151.839 105.474 151.807 105.48 151.774 105.489C150.124 105.86 148.303 105.869 146.281 105.424C144.318 104.993 142.7 104.301 141.368 103.429C141.345 103.414 141.321 103.399 141.3 103.381C133.508 98.2211 135.495 86.972 134.693 87.0516C128.625 87.6528 128.077 84.4139 128.837 81.5228C129.058 80.6859 129.388 79.8784 129.727 79.2035C130.927 76.8016 133.37 81.3106 134.313 83.238C133.773 80.8244 135.748 75.4253 135.748 75.4253C135.748 75.4253 138.456 79.8047 143.873 73.4832C143.873 73.4832 146.582 78.449 152.302 73.4832C152.302 73.4832 155.116 79.3302 160.377 75.4253C160.377 75.4253 164.043 78.785 167.798 77.836Z" fill="#FFAD9F"/>
<path d="M172.464 73.483C171.091 76.1854 169.435 77.4203 167.796 77.8358C164.042 78.7848 160.375 75.4251 160.375 75.4251C155.115 79.33 152.3 73.483 152.3 73.483C146.58 78.4488 143.872 73.483 143.872 73.483C138.455 79.8045 135.747 75.4251 135.747 75.4251C135.747 75.4251 133.772 80.8242 134.311 83.2378C133.368 81.3104 130.925 76.8014 129.726 79.2033C129.387 79.8781 129.057 80.6856 128.836 81.5226C122.98 80.6267 127.017 73.3326 127.017 73.3326C118.288 65.2075 133.186 61.7447 133.186 61.7447C133.186 61.7447 131.683 60.392 133.186 57.2297C134.692 54.0704 139.958 59.6375 139.958 59.6375C139.958 59.6375 139.357 55.7267 144.473 53.6195C149.097 51.7157 150.647 57.9193 150.903 59.1335C150.827 58.4587 151.098 56.2601 157.417 55.1225C164.728 53.8081 162.945 62.0158 162.839 62.4755C162.928 62.2074 163.93 59.4312 167.817 61.2938C171.81 63.2094 167.982 67.5799 167.823 67.7626C168.053 67.686 176.92 64.7183 172.464 73.483Z" fill="#032048"/>
<path d="M148.973 85.7264C149.107 84.0863 148.356 82.6868 147.297 82.6006C146.237 82.5144 145.27 83.7741 145.137 85.4142C145.003 87.0543 145.754 88.4538 146.813 88.54C147.873 88.6262 148.84 87.3665 148.973 85.7264Z" fill="#032048"/>
<path d="M160.33 86.6513C160.463 85.0112 159.713 83.6117 158.653 83.5255C157.594 83.4393 156.627 84.699 156.494 86.3391C156.36 87.9793 157.111 89.3787 158.17 89.4649C159.23 89.5511 160.196 88.2914 160.33 86.6513Z" fill="#032048"/>
<path d="M144.112 80.3763C144.525 80.2584 147.398 77.7239 150.086 80.8626" stroke="#032048" stroke-width="0.589419" stroke-miterlimit="10" stroke-linecap="round"/>
<path d="M156.166 81.8587C156.166 81.8587 158.586 78.7348 161.265 82.2743" stroke="#032048" stroke-width="0.589419" stroke-miterlimit="10" stroke-linecap="round"/>
<path d="M147.331 95.8366C147.331 95.8366 150.941 101.162 155.665 96.5144" stroke="#032048" stroke-width="0.589419" stroke-miterlimit="10" stroke-linecap="round"/>
<path d="M153.852 83.1318L153.327 89.583C153.327 89.583 155.806 88.3747 156.186 90.1164C156.566 91.8581 154.388 93.6942 153.433 92.8631" stroke="#032048" stroke-width="0.589419" stroke-miterlimit="10" stroke-linecap="round"/>
<path d="M151.945 107.142L145.255 112.939L140.74 105.981L141.303 103.382C141.324 103.399 141.348 103.414 141.371 103.429C142.703 104.301 144.321 104.994 146.284 105.424C148.306 105.869 150.127 105.86 151.777 105.489C151.81 105.48 151.842 105.474 151.875 105.465L151.945 107.142Z" fill="#AA4437"/>
<path d="M154.011 109.962L153.978 110.048L150.802 118.229C150.754 118.353 150.595 118.385 150.501 118.291L146.625 114.321L145.461 113.127C145.388 113.054 145.394 112.933 145.47 112.865L150.144 108.73L151.774 107.289L151.78 107.283C151.857 107.213 151.977 107.224 152.042 107.307L153.984 109.783C154.026 109.833 154.034 109.9 154.011 109.962Z" fill="#FEF1E6"/>
<path d="M145.053 113.113L143.102 114.162L138.72 116.52C138.599 116.584 138.451 116.499 138.449 116.36L138.195 107.425C138.195 107.351 138.233 107.286 138.298 107.254L138.357 107.224L140.621 106.102C140.7 106.06 140.794 106.084 140.847 106.152C140.85 106.155 140.856 106.161 140.859 106.166L141.67 107.44H141.673L145.121 112.851C145.18 112.942 145.147 113.063 145.053 113.113Z" fill="#FEF1E6"/>
<path d="M133.296 84.585C133.472 84.3168 131.79 80.574 131.088 81.1192C130.387 81.6615 129.783 83.5948 130.487 84.585C131.188 85.5753 132.895 85.201 133.296 84.585Z" fill="#AA4437"/>
<path d="M115.161 165.96C114.87 166.467 114.339 166.75 113.794 166.75C113.526 166.75 113.252 166.682 113.004 166.538L108.757 164.089L108.748 164.083L107.796 163.535C107.042 163.095 106.783 162.132 107.219 161.374C107.505 160.879 108.02 160.596 108.551 160.585H108.589C108.855 160.585 109.126 160.652 109.37 160.794C109.373 160.794 109.373 160.797 109.376 160.797L114.584 163.803C115.338 164.239 115.597 165.206 115.161 165.96Z" fill="#FFAD9F" stroke="#AA4437" stroke-width="0.29471" stroke-miterlimit="10"/>
<path d="M113.534 168.771C113.36 169.072 113.103 169.293 112.806 169.426C112.605 169.514 112.384 169.561 112.163 169.561C111.895 169.561 111.624 169.493 111.376 169.349L108.677 167.79L106.172 166.343C105.414 165.907 105.155 164.94 105.591 164.186C105.883 163.679 106.416 163.396 106.962 163.396C107.23 163.396 107.501 163.464 107.751 163.608L108.73 164.174C108.724 164.233 108.715 164.292 108.709 164.348C108.718 164.292 108.727 164.236 108.736 164.177L112.956 166.614C113.71 167.05 113.97 168.017 113.534 168.771Z" fill="#FFAD9F" stroke="#AA4437" stroke-width="0.29471" stroke-miterlimit="10"/>
<path d="M111.949 171.521C111.657 172.028 111.124 172.311 110.578 172.311C110.31 172.311 110.039 172.243 109.789 172.099L107.858 170.985L104.584 169.093C103.83 168.656 103.57 167.69 104.006 166.935C104.298 166.428 104.832 166.142 105.377 166.142C105.645 166.142 105.916 166.21 106.164 166.355L108.675 167.805L111.371 169.361C112.126 169.797 112.385 170.764 111.949 171.521Z" fill="#FFAD9F" stroke="#AA4437" stroke-width="0.29471" stroke-miterlimit="10"/>
<path d="M110.358 174.274C110.066 174.781 109.533 175.064 108.987 175.064C108.719 175.064 108.448 174.996 108.201 174.851L107.084 174.206L102.996 171.845C102.239 171.409 101.979 170.443 102.415 169.688C102.71 169.181 103.241 168.898 103.786 168.898H103.83C104.083 168.907 104.34 168.975 104.576 169.11L107.853 171.002L109.78 172.114C110.538 172.55 110.797 173.516 110.358 174.274Z" fill="#FFAD9F" stroke="#AA4437" stroke-width="0.29471" stroke-miterlimit="10"/>
<path d="M209.045 287.813C209.045 287.813 209.546 300.675 207.84 301.579C206.134 302.484 181.555 307.297 180.55 305.493C179.548 303.687 195.901 289.741 196.703 288.338C197.507 286.932 209.045 287.813 209.045 287.813Z" fill="#032048"/>
<path d="M175.459 284.804C175.459 284.804 175.96 297.665 174.253 298.57C172.547 299.475 147.968 304.287 146.963 302.484C145.958 300.68 162.315 286.731 163.116 285.329C163.921 283.92 175.459 284.804 175.459 284.804Z" fill="#032048"/>
<path d="M228.943 212.138C219.943 221.289 198.815 225.082 193.451 226.305H193.448C192.929 226.423 192.558 226.517 192.361 226.591C189.484 227.643 177.475 286.484 175.819 287.489C174.165 288.494 161.372 286.935 160.732 286.019C160.093 285.102 170.702 216.506 173.399 213.647C176.096 210.788 206.368 198.449 206.368 198.449L221.522 200.588L229.665 201.738C231.133 204.655 230.405 208.498 228.943 212.138Z" fill="#FFB085"/>
<path d="M228.945 212.138C219.945 221.289 198.817 225.082 193.453 226.305C213.838 215.981 219.788 205.708 221.524 200.589L229.667 201.738C231.135 204.655 230.407 208.499 228.945 212.138Z" fill="#BC7A5C"/>
<path d="M240.451 201.902C240.451 201.902 210.175 214.242 207.482 217.101C204.785 219.959 194.175 288.556 194.815 289.472C195.454 290.389 208.248 291.948 209.901 290.943C211.557 289.938 223.567 231.096 226.44 230.044C229.314 228.992 268.442 223.422 267.087 205.666L240.451 201.902Z" fill="#FFB085"/>
<path d="M240.091 133.309C240.091 133.309 235.836 134.231 233.929 138.646C232.022 143.061 226.149 172.57 224.946 175.266C223.741 177.96 212.397 182.089 212.397 182.089L217.275 189.813L237.3 188.912L244.662 135.537L240.091 133.309Z" fill="#F9D5A7"/>
<path d="M238.9 138.664C238.9 138.664 236.354 184.91 223.063 188.511H234.724C234.724 188.511 250.978 145.545 238.9 138.664Z" fill="#CEA980"/>
<path d="M253.593 130.506C253.593 130.506 240.425 132.805 239.034 133.718C237.643 134.632 233.629 189.813 231.622 192.021C229.615 194.228 270.146 193.526 270.146 193.526C270.146 193.526 276.067 136.441 274.06 134.234C272.053 132.026 259.796 130.851 259.796 130.851L253.593 130.506Z" fill="#F9D5A7"/>
<path d="M275.885 133.722C275.885 133.722 267.156 144.037 267.156 160.817C267.156 177.598 255.27 181.918 246.615 183.018L275.284 184.851L275.885 133.722Z" fill="#CEA980"/>
<path d="M247.025 189.248C247.069 188.912 247.025 182.39 247.025 182.39C247.025 182.39 260.413 180.283 269.343 182.39C269.343 182.39 266.935 139.551 273.958 135.637C280.981 131.724 281.682 145.024 281.582 153.323C281.482 161.622 282.183 190.515 279.375 191.119C276.566 191.721 249.98 191.119 249.98 191.119L247.025 189.248Z" fill="#F9D5A7"/>
<path d="M235.705 188.511C235.705 188.511 238.263 179.18 245.863 181.588C253.464 183.996 252.258 188.511 252.258 188.511H235.705Z" fill="#FFAD9F"/>
<path d="M203.048 188.511C203.048 188.511 205.606 179.18 213.206 181.588C220.807 183.996 219.602 188.511 219.602 188.511H203.048Z" fill="#FFAD9F"/>
<path d="M275.587 105.66C271.674 120.183 260.61 120.837 260.009 121.138L259.818 116.632C260.233 116.747 264.663 117.855 265.88 112.921C267.162 107.743 261.819 105.925 259.261 111.501C259.261 111.501 245.866 97.7348 243.759 90.6647C243.759 90.6647 243.718 90.7915 243.644 91.0272L243.609 90.5351C252.562 82.4836 279.501 91.1363 275.587 105.66Z" fill="#032048"/>
<path d="M265.877 112.921C264.66 117.855 260.231 116.747 259.815 116.632C259.795 116.626 259.783 116.623 259.783 116.623C259.288 117.43 258.769 118.176 258.224 118.86C256.712 120.767 255.029 122.205 253.302 123.236C253.069 123.375 252.834 123.507 252.598 123.634C250.052 124.987 247.443 125.485 245.165 125.326C243.485 125.211 241.988 124.742 240.821 123.997C240.335 123.313 239.961 122.476 239.684 121.521C239.044 119.314 238.92 116.47 239.106 113.408C239.171 112.341 239.274 111.245 239.407 110.139C238.767 109.765 237.856 108.869 237.361 108.135C236.896 107.452 238.956 106.871 239.908 106.644C241.098 99.4562 243.141 92.6454 243.642 91.0275C243.715 90.7917 243.757 90.665 243.757 90.665C245.864 97.7351 259.258 111.501 259.258 111.501C261.816 105.925 267.159 107.743 265.877 112.921Z" fill="#FFAD9F"/>
<path d="M245.338 108.725C245.816 108.725 246.204 107.428 246.204 105.828C246.204 104.228 245.816 102.931 245.338 102.931C244.859 102.931 244.471 104.228 244.471 105.828C244.471 107.428 244.859 108.725 245.338 108.725Z" fill="#032048"/>
<path d="M239.682 121.521C239.042 119.313 238.919 116.47 239.104 113.407C240.867 113.519 244.913 113.723 246.54 113.349C248.561 112.883 243.79 120.136 239.682 121.521Z" fill="#AA4437"/>
<path d="M243.021 101.05C243.021 101.05 245.335 97.7376 247.666 101.578" stroke="#032048" stroke-width="0.884129" stroke-miterlimit="10" stroke-linecap="round"/>
<path d="M260.464 131.824C255.348 136.639 252.554 130.763 252.554 130.763L252.56 129.943L252.569 128.608L252.578 127.141L252.581 126.814L252.602 123.634C252.837 123.507 253.073 123.374 253.306 123.236C255.033 122.204 256.716 120.766 258.228 118.859C258.773 118.176 259.292 117.43 259.787 116.622C259.787 116.622 259.798 116.625 259.819 116.631L259.89 118.299L260.011 121.137L260.049 122.036L260.208 125.817L260.335 128.776L260.42 130.751L260.464 131.824Z" fill="#FFAD9F"/>
<path d="M259.893 118.515C257.94 121.356 255.022 125.066 252.573 127.141L252.723 123.566C252.959 123.439 253.068 123.374 253.301 123.236C255.028 122.204 256.711 120.766 258.222 118.859C258.768 118.176 259.286 117.43 259.781 116.622L259.893 118.515Z" fill="#AA4437"/>
<path d="M261.255 114.554C260.866 114.548 260.613 114.144 260.784 113.793C261.532 112.264 263.345 108.825 264.043 109.862C264.936 111.185 264.951 112.046 264.276 113.26C263.642 114.398 262.175 114.568 261.255 114.554Z" fill="#AA4437"/>
<path d="M205.722 189.522C205.722 189.522 206.7 184.871 207.301 184.12" stroke="#AA4437" stroke-width="0.884129" stroke-miterlimit="10" stroke-linecap="round"/>
<path d="M209.057 189.798C209.057 189.798 210.035 185.148 210.636 184.396" stroke="#AA4437" stroke-width="0.884129" stroke-miterlimit="10" stroke-linecap="round"/>
<path d="M212.397 189.87C212.397 189.87 213.376 185.773 213.977 185.022" stroke="#AA4437" stroke-width="0.884129" stroke-miterlimit="10" stroke-linecap="round"/>
<path d="M216.173 189.247C216.173 189.247 216.765 186.654 217.366 185.902" stroke="#AA4437" stroke-width="0.884129" stroke-miterlimit="10" stroke-linecap="round"/>
<path d="M238.195 189.625C238.195 189.625 239.173 184.974 239.775 184.223" stroke="#AA4437" stroke-width="0.884129" stroke-miterlimit="10" stroke-linecap="round"/>
<path d="M241.536 189.902C241.536 189.902 242.514 185.252 243.116 184.5" stroke="#AA4437" stroke-width="0.884129" stroke-miterlimit="10" stroke-linecap="round"/>
<path d="M244.871 189.972C244.871 189.972 245.849 185.876 246.45 185.124" stroke="#AA4437" stroke-width="0.884129" stroke-miterlimit="10" stroke-linecap="round"/>
<path d="M248.652 189.351C248.652 189.351 249.245 186.757 249.846 186.006" stroke="#AA4437" stroke-width="0.884129" stroke-miterlimit="10" stroke-linecap="round"/>
<path d="M228.727 159.561C228.924 157.575 229.237 155.603 229.596 153.647C229.95 151.687 230.377 149.739 230.843 147.799C231.326 145.866 231.851 143.939 232.499 142.047C232.817 141.101 233.171 140.161 233.572 139.241C233.987 138.333 234.42 137.402 235.092 136.654C234.586 137.514 234.276 138.454 233.978 139.394C233.678 140.334 233.418 141.292 233.159 142.247C232.912 143.205 232.649 144.16 232.416 145.124C232.172 146.084 231.93 147.045 231.7 148.009L230.265 153.788C229.779 155.718 229.284 157.643 228.727 159.561Z" fill="#CEA980"/>
<path d="M293.39 84.7552C293.39 84.7552 289.147 85.5862 288.946 84.7552C288.746 83.9241 287.994 68.5727 301.687 67.5205C315.382 66.4684 321.249 72.1858 326.215 87.8378C331.181 103.49 342.168 110.221 345.477 112.122C348.787 114.023 352.25 119.764 347.585 130.512C342.919 141.26 367.598 140.113 359.173 153.328C350.744 166.543 331.782 164.887 331.782 164.887L305.733 97.7695L293.39 84.7552Z" fill="black"/>
<path d="M235.28 151.056C236.831 150.95 239.05 150.581 241.237 150.16C244.959 149.438 248.575 148.562 248.575 148.562L250.703 154.242C250.703 154.242 246.082 158.379 243.196 158.079C240.311 157.778 241.127 152.736 241.127 152.736C241.127 152.736 240.998 152.753 240.768 152.783C239.619 152.921 235.935 153.31 233.076 152.98C232.106 152.868 231.231 152.674 230.583 152.358C228.001 151.109 230.173 151.182 233.397 151.121C233.863 151.109 234.352 151.097 234.853 151.079C234.989 151.073 235.13 151.068 235.28 151.056Z" fill="#FFAD9F"/>
<path d="M312.562 132.533C312.562 132.533 309.473 133.694 304.672 135.489C294.31 139.361 275.98 146.199 263.552 150.717C263.537 150.723 263.522 150.728 263.507 150.734C256.095 153.428 250.797 155.296 250.564 155.208C249.762 154.907 248.056 147.884 248.056 147.884C248.056 147.884 291.85 123.948 307.932 114.264C308.872 113.698 309.721 113.179 310.458 112.717C311.642 111.977 312.544 111.382 313.104 110.963C319.965 105.844 312.562 132.533 312.562 132.533Z" fill="#FFB085"/>
<path d="M312.559 132.533C312.559 132.533 309.471 133.694 304.67 135.489C294.308 139.362 275.977 146.199 263.549 150.717C287.88 141.563 303.718 122.348 310.455 112.717C311.64 111.977 312.541 111.382 313.101 110.963C319.962 105.844 312.559 132.533 312.559 132.533Z" fill="#BC7A5C"/>
<path d="M307.593 180.191C307.602 181.092 309.856 204.566 309.856 204.566L325.208 196.441L319.384 167.822L307.593 180.191Z" fill="#BC7A5C"/>
<path d="M311.163 99.6259L316.38 108.055C316.38 108.055 311.564 112.581 311.163 112.125C310.763 111.668 306.749 105.891 306.749 105.891L311.163 99.6259Z" fill="#AA4437"/>
<path d="M329.366 177.394C325.105 178.302 320.121 179.248 317.18 179.428C316.52 179.466 315.963 179.469 315.541 179.425C315.208 179.387 314.961 179.322 314.808 179.225C314.631 179.113 314.419 178.774 314.171 178.243C315.176 171.32 316.632 160.599 317.752 149.603C318.005 147.142 318.238 144.67 318.447 142.221C319.001 144.089 319.597 146.073 320.224 148.144C322.886 156.93 326.136 167.259 329.186 176.834C329.245 177.02 329.304 177.209 329.366 177.394Z" fill="#F9D5A7"/>
<path d="M362.313 290.987C362.28 291.09 362.177 291.182 362.015 291.258C362.006 291.264 361.997 291.267 361.988 291.267C361.063 291.579 359.445 291.691 358.007 291.721C357.927 291.721 357.848 291.721 357.771 291.724C357.285 291.73 356.825 291.73 356.43 291.724C356.298 291.724 356.171 291.721 356.053 291.718C355.935 291.715 355.829 291.712 355.729 291.709C355.679 291.709 355.632 291.709 355.587 291.706C355.558 291.706 355.528 291.706 355.499 291.703C355.24 291.694 355.089 291.688 355.089 291.688L345.172 247.37L341.727 231.969L340.752 227.613C345.019 227.023 349.513 226.26 353.76 225.273C354.07 225.202 354.376 225.128 354.683 225.055C354.871 225.712 355.063 226.407 355.263 227.135C355.537 229.505 355.873 232.399 356.248 235.632C356.445 237.329 356.651 239.121 356.866 240.978C358.865 258.345 361.502 281.53 362.165 288.753C362.171 288.856 362.18 288.959 362.192 289.057C362.201 289.133 362.207 289.204 362.212 289.275C362.212 289.278 362.212 289.281 362.212 289.281C362.218 289.348 362.224 289.416 362.23 289.481C362.307 290.38 362.336 290.907 362.313 290.987Z" fill="#FFAD9F"/>
<path d="M338.558 227.901C338.54 229.242 338.523 230.692 338.505 232.225C338.252 252.35 337.771 287.153 337.465 289.036V289.045C337.459 289.074 337.456 289.095 337.45 289.107C337.397 289.227 337.244 289.313 337.014 289.372C337.014 289.372 337.011 289.372 337.008 289.375C335.614 289.731 331.476 289.092 330.436 288.921C330.433 288.921 330.433 288.921 330.43 288.921C330.368 288.912 330.318 288.903 330.283 288.897L330.194 288.883L330.182 288.753L325.172 234.585L324.677 229.245C328.01 229.021 333.009 228.611 338.558 227.901Z" fill="#FFAD9F"/>
<path d="M337.487 297.759C337.49 298.101 337.257 298.393 336.945 298.437L322.758 300.365C308.022 302.363 306.06 298.172 308.423 296.925C310.79 295.676 330.193 288.886 330.193 288.886C330.193 288.886 336.547 289.911 337.443 289.213C337.449 289.198 337.455 289.172 337.461 289.133L337.487 297.759Z" fill="black"/>
<path d="M312.739 188.761C312.86 189.71 312.12 190.55 311.162 190.55H293.541C293.185 190.55 293.085 190.046 293.415 189.904L297.941 188.186L301.26 186.928L305.781 185.213L312.409 186.141L312.739 188.761Z" fill="#FFAD9F"/>
<path d="M363.197 301.549L349.576 307.025C335.433 312.71 332.839 308.257 334.961 306.259C336.467 304.844 345.951 298.104 351.341 294.302C353.554 292.743 355.078 291.676 355.078 291.676C355.078 291.676 355.228 291.682 355.488 291.691C355.517 291.694 355.547 291.694 355.576 291.694C355.62 291.697 355.668 291.697 355.718 291.697C355.818 291.7 355.924 291.706 356.042 291.706C356.16 291.709 356.286 291.712 356.419 291.712C356.814 291.718 357.274 291.718 357.76 291.712C357.837 291.709 357.916 291.709 357.996 291.709C359.543 291.688 361.27 291.588 361.977 291.255C361.986 291.255 361.995 291.252 362.004 291.246C362.178 291.19 362.201 291.025 362.316 290.951L362.903 294.812L363.622 300.641C363.675 301.039 363.495 301.431 363.197 301.549Z" fill="black"/>
<path d="M356.341 200.744L354.882 201.345L354.685 201.427L339.186 207.817C339.186 207.817 334.592 193.788 329.366 177.394C329.304 177.208 329.245 177.019 329.187 176.834C325.417 165.001 321.344 152.016 318.447 142.22C318.845 137.528 319.149 132.931 319.299 128.705C319.337 127.585 319.367 126.491 319.382 125.428C319.496 117.624 318.957 111.505 317.304 109.124C317.893 109.808 328.464 122.292 341.847 156.876C346.156 168.013 350.756 181.44 355.413 197.502C355.719 198.572 356.032 199.65 356.341 200.744Z" fill="#FFB085"/>
<path d="M362.965 222.564C362.122 222.883 361.244 223.189 360.339 223.481C358.647 224.026 356.858 224.521 355.013 224.975C354.904 225.002 354.795 225.028 354.683 225.055C350.168 226.148 345.329 226.979 340.752 227.613C340.016 227.716 339.285 227.813 338.563 227.902C333.013 228.612 328.015 229.021 324.682 229.245C322.047 229.425 320.453 229.487 320.453 229.487C319.109 220.407 317.603 188.738 317.182 179.428C320.123 179.248 325.106 178.302 329.368 177.394C334.593 193.789 339.187 207.817 339.187 207.817L354.686 201.428L354.819 201.77L359.178 212.892L362.965 222.564Z" fill="black"/>
<path d="M321.094 132.592C320.864 140.458 320.549 145.253 320.224 148.144C319.597 146.072 319.001 144.089 318.447 142.221C318.845 137.529 319.149 132.931 319.299 128.705C319.337 127.585 319.367 126.492 319.381 125.428C319.488 118.152 319.028 112.34 317.622 109.658C319.37 112.051 321.524 117.969 321.094 132.592Z" fill="#BC7A5C"/>
<path d="M319.382 125.428C319.367 126.492 319.338 127.585 319.299 128.705C319.149 132.931 318.845 137.528 318.447 142.22C318.238 144.669 318.005 147.142 317.752 149.603C316.632 160.598 315.176 171.32 314.171 178.243C313.479 183.026 312.406 186.144 312.406 186.144L305.778 185.215C305.778 185.215 305.539 163.752 306.161 144.761C306.382 138.018 306.712 131.572 307.198 126.483C307.225 126.2 307.251 125.923 307.281 125.649C307.626 122.289 308.103 119.566 308.66 117.359C308.893 116.427 309.141 115.59 309.4 114.836C309.424 114.768 309.447 114.7 309.468 114.635C309.535 114.441 309.603 114.252 309.674 114.07C309.786 113.772 309.901 113.489 310.016 113.218L310.031 113.209L310.025 113.2C311.805 109.03 313.844 108.181 314.879 108.037H314.882C315.306 107.981 315.559 108.04 315.559 108.04C315.559 108.04 315.819 108.063 316.225 108.305C316.597 108.526 317.089 108.927 317.619 109.652C317.622 109.655 317.622 109.658 317.622 109.658C319.028 112.34 319.488 118.151 319.382 125.428Z" fill="#FFB085"/>
<path d="M320.224 148.144C320.224 148.144 316.953 172.567 315.541 179.425C315.208 179.387 314.961 179.322 314.808 179.225C314.631 179.113 314.419 178.774 314.171 178.243C315.176 171.32 316.632 160.599 317.752 149.603C318.005 147.142 318.238 144.67 318.447 142.221C319.001 144.089 319.597 146.073 320.224 148.144Z" fill="#CEA980"/>
<path d="M353.76 225.272C349.646 227.748 343.743 231.217 341.727 231.968L340.752 227.612C345.019 227.023 349.513 226.259 353.76 225.272Z" fill="#AA4437"/>
<path d="M338.558 227.901C338.54 229.242 338.523 230.692 338.505 232.225C335.832 232.879 328.579 234.579 325.172 234.585L324.677 229.245C328.01 229.021 333.009 228.611 338.558 227.901Z" fill="#AA4437"/>
<path d="M317.682 95.4146C317.279 98.2232 312.463 100.33 312.463 100.33C312.563 108.155 305.54 110.262 301.126 111.968C299.77 112.493 298.576 111.641 297.548 110.2C296.446 108.656 295.535 106.431 294.825 104.483C294.038 102.329 293.493 100.513 293.201 100.33C292.399 99.8294 289.491 98.7242 288.987 98.4236C288.486 98.123 291.898 95.7152 292.499 95.5148C293.101 95.3144 290.994 84.979 290.994 84.979C299.623 83.5761 310.356 88.9929 310.356 88.9929L311.862 94.5099C314.871 88.4919 318.083 92.6031 317.682 95.4146Z" fill="#FFAD9F"/>
<path d="M316.021 93.5579C316.021 93.5579 314.4 92.5794 313.345 94.8369C312.289 97.0944 312.066 98.5738 312.894 98.4353C313.722 98.2968 317.191 96.0393 316.021 93.5579Z" fill="#AA4437"/>
<path d="M302.506 102.06C302.506 102.06 302.152 108.862 297.546 110.2C296.444 108.656 295.533 106.431 294.823 104.483L302.506 102.06Z" fill="#AA4437"/>
<path d="M297.82 96.353C298.335 96.2873 298.601 95.0482 298.415 93.5854C298.228 92.1225 297.66 90.9899 297.144 91.0556C296.629 91.1213 296.363 92.3604 296.55 93.8232C296.736 95.286 297.305 96.4187 297.82 96.353Z" fill="black"/>
<path d="M294.823 89.6444C294.823 89.6444 295.958 86.7091 298.292 88.8929" stroke="black" stroke-width="0.884129" stroke-miterlimit="10" stroke-linecap="round"/>
<path d="M86.1237 244.804L76.1154 288.448C75.9327 289.246 75.2224 289.812 74.4061 289.812H43.491C43.1079 289.812 42.7513 289.688 42.4625 289.482C42.1088 289.226 41.8495 288.837 41.764 288.38L33.5593 244.736C33.356 243.655 34.187 242.659 35.2863 242.659H84.4144C85.5431 242.659 86.3772 243.705 86.1237 244.804Z" fill="#F9D5A7"/>
<path d="M86.1228 244.804L76.1144 288.448C75.9317 289.246 75.2215 289.812 74.4051 289.812H43.4901C43.107 289.812 42.7504 289.688 42.4615 289.482C50.1063 288.333 66.5776 286.281 70.9482 277.826C75.7667 268.502 75.5014 254.845 73.5063 249.26C71.514 243.678 39.0724 242.659 39.0724 242.659H40.4398H84.4105C85.5422 242.659 86.3762 243.705 86.1228 244.804Z" fill="#CEA980"/>
<path d="M76.7978 225.887C77.2163 229.986 73.5177 237.557 69.9664 242.658H64.1783C66.4564 233.537 68.7316 218.684 69.9488 207.376C70.0548 206.389 70.1551 205.428 70.2435 204.502C70.7504 199.218 69.6128 193.383 67.6058 187.627C69.1354 185.355 70.5824 183.451 71.72 182.102C76.5149 176.414 82.415 165.795 82.8659 165.079C90.6256 152.716 79.7626 184.831 76.0935 197.444C75.4569 199.637 75.0384 201.717 74.7938 203.692C74.7201 204.27 74.6612 204.841 74.6199 205.401C73.9214 213.963 76.2496 220.526 76.7978 225.887Z" fill="#1c72ea"/>
<path d="M70.2399 204.502C70.1515 205.431 70.0513 206.388 69.9452 207.376C68.731 218.66 66.4617 233.478 64.1895 242.602L61.8289 242.658H55.6517C57.0693 230.516 54.2254 218.834 44.9037 210.482C44.9155 210.417 44.9273 210.352 44.9391 210.287C46.4833 202.1 47.951 192.166 44.3113 179.655C39.1274 161.822 23.773 116.428 34.7392 133.905C35.3757 134.918 43.7101 149.925 50.4943 157.968C54.9386 163.246 62.7307 174.495 67.116 186.28C67.2839 186.725 67.4431 187.176 67.5993 187.624C69.6121 193.383 70.7497 199.218 70.2399 204.502Z" fill="#1c72ea"/>
<path d="M118.771 211.499C118.771 211.499 118.771 203.105 110.065 200.515C99.7122 197.432 92.7835 216.668 89.9926 224.445C88.4159 228.839 82.121 236.676 76.6983 242.661H69.973C73.5243 237.557 77.2229 229.986 76.8044 225.889C76.2209 220.178 73.6156 213.102 74.8004 203.698C80.1788 200.202 86.9719 197.488 95.377 195.814C122.184 190.471 118.771 211.499 118.771 211.499Z" fill="#1c72ea"/>
<path d="M55.6576 242.658H38.8178C33.852 237.197 28.0374 229.977 26.5874 225.939C24.047 218.861 17.7402 201.355 8.31835 204.157C0.393614 206.515 0.393613 214.154 0.393613 214.154C0.393613 214.154 -2.70968 195.016 21.6893 199.875C31.904 201.912 39.4986 205.634 44.9095 210.479C54.2282 218.834 57.0722 230.516 55.6576 242.658Z" fill="#1c72ea"/>
<path d="M59.1678 242.659H55.8288C57.2463 230.516 54.2315 218.834 44.9098 210.482C44.9216 210.417 44.9334 210.352 44.9452 210.288C44.9452 210.288 60.1728 222.998 59.1678 242.659Z" fill="#083778"/>
<path d="M48.9169 242.658C48.9169 242.658 45.8224 223.576 33.533 212.168C22.6848 202.097 1.89007 192.876 0.351685 213.827" stroke="black" stroke-width="0.29471" stroke-miterlimit="10"/>
<path d="M66.7755 242.546L64.1968 242.602C66.469 233.478 68.7412 218.66 69.9525 207.376C70.0586 206.388 70.1588 205.428 70.2472 204.502C70.7541 199.218 69.6165 193.383 67.6095 187.627C67.4533 187.179 67.2912 186.728 67.1262 186.283C68.3905 188.594 72.4398 201.487 71.871 207.482C68.8591 239.133 66.7755 242.546 66.7755 242.546Z" fill="#083778"/>
<path d="M79.3151 229.562C78.7493 231.748 73.6007 239.623 70.35 242.661H69.9669C73.5182 237.557 77.2168 229.986 76.7983 225.89C76.2501 220.529 73.9219 213.966 74.6204 205.404C75.2334 209.392 76.1735 215.044 76.8337 216.978C77.9005 220.078 79.9369 227.169 79.3151 229.562Z" fill="#083778"/>
<path d="M31.2157 130.02C31.2157 130.02 52.6352 177.489 57.2887 192.422C61.9185 207.284 55.9978 225.695 55.9978 225.695" stroke="#270035" stroke-width="0.29471" stroke-miterlimit="10" stroke-linecap="round"/>
<path d="M70.9855 203.459C70.5876 203.194 73.6438 187.683 85.2877 162.303L70.9855 203.459Z" fill="#1c72ea"/>
<path d="M70.9855 203.459C70.5876 203.194 73.6438 187.683 85.2877 162.303" stroke="#1D1D1B" stroke-width="0.29471" stroke-miterlimit="10"/>
<path d="M76.8335 219.544C76.7009 218.878 88.1356 202.478 99.7885 198.405C105.494 196.413 108.874 196.943 111.267 198.405C113.66 199.867 118.57 204.308 118.906 209.999" stroke="black" stroke-width="0.29471" stroke-miterlimit="10"/>
<path d="M194.174 189.973H159.236C160.925 187.397 164.962 185.331 170.128 184.368C171.142 184.176 172.2 184.029 173.293 183.929C173.547 183.905 173.803 183.884 174.063 183.87C174.125 183.864 174.184 183.858 174.245 183.858C174.428 183.843 174.611 183.831 174.796 183.825C174.882 183.82 174.97 183.814 175.059 183.811C175.309 183.799 175.563 183.79 175.816 183.784C176.111 183.778 176.409 183.775 176.706 183.775C177.87 183.775 179.011 183.828 180.116 183.929C186.771 184.539 192.155 186.89 194.174 189.973Z" fill="#094497"/>
<path d="M218.24 125.526V170.446C218.24 173.128 216.05 175.3 213.348 175.3H140.059C137.354 175.3 135.164 173.128 135.164 170.446V125.526C135.164 122.844 137.354 120.672 140.059 120.672H213.348C216.05 120.672 218.24 122.844 218.24 125.526Z" fill="#1c72ea"/>
<path d="M180.114 175.3V183.929C179.203 183.846 178.272 183.796 177.32 183.781C177.116 183.778 176.91 183.776 176.704 183.776C176.406 183.776 176.109 183.778 175.814 183.784C175.56 183.79 175.307 183.799 175.056 183.811C174.968 183.814 174.88 183.82 174.794 183.826C174.608 183.832 174.426 183.843 174.243 183.858C174.181 183.858 174.122 183.864 174.06 183.87C173.801 183.885 173.545 183.905 173.291 183.929V175.3H180.114Z" fill="#1051A9"/>
<path d="M175.752 144.479C179.673 144.479 182.852 141.3 182.852 137.379C182.852 133.458 179.673 130.28 175.752 130.28C171.832 130.28 168.653 133.458 168.653 137.379C168.653 141.3 171.832 144.479 175.752 144.479Z" fill="#D7E8FF"/>
<path d="M194.17 189.973L187.203 190.029C182.238 185.903 174.552 184.553 170.862 184.238C171.876 184.047 172.825 184.029 173.918 183.929C174.171 183.905 174.428 183.884 174.687 183.87C174.749 183.864 174.808 183.858 174.87 183.858C175.053 183.843 175.235 183.831 175.421 183.825C175.506 183.82 175.595 183.814 175.683 183.811C175.934 183.799 176.187 183.79 176.441 183.784C176.735 183.778 177.033 183.775 177.331 183.775C178.495 183.775 179.638 183.79 180.74 183.929C187.315 184.751 192.057 186.876 194.17 189.973Z" fill="#082D62"/>
<path d="M255.998 188.355V188.995C255.998 189.534 255.559 189.973 255.02 189.973H196.579C196.04 189.973 195.601 189.534 195.601 188.995V188.355C195.601 187.816 196.04 187.377 196.579 187.377H255.02C255.559 187.377 255.998 187.816 255.998 188.355Z" fill="#72ACF9"/>
<path d="M302.505 205.776V304.309C302.505 304.993 301.951 305.55 301.264 305.55H290.882C290.195 305.55 289.641 304.993 289.641 304.309V205.776H302.505Z" fill="#083778"/>
<path d="M318.989 192.57V203.179C318.989 204.611 317.828 205.775 316.393 205.775H110.297C108.864 205.775 107.7 204.611 107.7 203.179V193.763C107.901 192.785 108.092 191.842 108.284 190.928C108.761 190.344 109.486 189.973 110.297 189.973H316.393C317.828 189.973 318.989 191.134 318.989 192.57Z" fill="#1A63C4"/>
<path d="M132.753 205.776V304.309C132.753 304.993 132.199 305.55 131.513 305.55H121.13C120.443 305.55 119.889 304.993 119.889 304.309V205.776H132.753Z" fill="#083778"/>
</svg>
