<svg xmlns="http://www.w3.org/2000/svg" width="20" height="21" viewBox="0 0 20 21" fill="none">
  <g clip-path="url(#clip0_1034_103591)">
    <path d="M9.99963 0.320312C4.47665 0.320312 -0.000366211 4.76585 -0.000366211 10.25C-0.000366211 15.7342 4.47665 20.1797 9.99963 20.1797C15.5226 20.1797 19.9996 15.7342 19.9996 10.25C19.9996 4.76585 15.5226 0.320312 9.99963 0.320312ZM13.3178 14.6383C13.1605 14.7936 12.9956 14.9566 12.8617 15.0899C12.7412 15.21 12.6561 15.3582 12.6129 15.5187C12.5521 15.7454 12.5029 15.9744 12.4206 16.1942L11.7194 18.07C11.1646 18.1901 10.5904 18.2578 9.99963 18.2578V17.1615C10.0678 16.6562 9.69157 15.7097 9.08713 15.1095C8.8452 14.8693 8.70931 14.5434 8.70931 14.2035V12.9218C8.70931 12.4558 8.45649 12.0273 8.0456 11.8019C7.46617 11.4836 6.64197 11.0388 6.07746 10.7565C5.61455 10.5251 5.18633 10.2304 4.80125 9.88564L4.76899 9.85682C4.49361 9.60999 4.24911 9.33119 4.04076 9.02641C3.66254 8.47507 3.04641 7.56818 2.646 6.97881C3.47141 5.15703 4.95891 3.694 6.80729 2.89923L7.77544 3.3801C8.20447 3.59311 8.70931 3.2836 8.70931 2.80714V2.3547C9.03149 2.30305 9.35931 2.27021 9.69278 2.2578L10.8339 3.39091C11.0859 3.64115 11.0859 4.04675 10.8339 4.29699L10.6448 4.48438L10.2279 4.89838C10.1021 5.0233 10.1021 5.2263 10.2279 5.35122L10.417 5.539C10.5428 5.66393 10.5428 5.86692 10.417 5.99185L10.0944 6.31216C10.0338 6.37218 9.95174 6.40588 9.86617 6.40585H9.50367C9.4198 6.40585 9.33915 6.43828 9.27867 6.49674L8.87867 6.88312C8.82963 6.93053 8.79704 6.99218 8.78559 7.05918C8.77414 7.12618 8.78442 7.19506 8.81496 7.25588L9.44359 8.5047C9.55084 8.7177 9.39479 8.96835 9.15528 8.96835H8.92786C8.85004 8.96835 8.77504 8.94032 8.71657 8.88987L8.34237 8.56716C8.2577 8.49422 8.15536 8.44441 8.04542 8.42265C7.93548 8.40089 7.82173 8.40791 7.71536 8.44304L6.4585 8.85904C6.36255 8.89081 6.27909 8.95176 6.21997 9.03325C6.16084 9.11475 6.12904 9.21265 6.12907 9.31309C6.12907 9.49446 6.23229 9.65982 6.3956 9.7411L6.84238 9.96292C7.22181 10.1515 7.64036 10.2496 8.06455 10.2496C8.48875 10.2496 8.97544 11.3423 9.35488 11.5308H12.0464C12.3887 11.5308 12.7166 11.6658 12.9589 11.906L13.5109 12.4542C13.7415 12.6832 13.8711 12.9939 13.871 13.3178C13.8709 13.5632 13.822 13.8062 13.7271 14.0328C13.6321 14.2595 13.493 14.4652 13.3178 14.6383ZM16.8141 10.9807C16.5807 10.9227 16.3771 10.7805 16.2436 10.5815L15.5186 9.50167C15.4125 9.3439 15.3559 9.15845 15.3559 8.96875C15.3559 8.77905 15.4125 8.5936 15.5186 8.43583L16.3085 7.25948C16.4021 7.12055 16.5303 7.00764 16.6811 6.93316L17.2045 6.67331C17.7496 7.75116 18.0641 8.96354 18.0641 10.25C18.0641 10.5971 18.0343 10.9371 17.9908 11.2726L16.8141 10.9807Z" fill="#1A73EB"/>
  </g>
  <defs>
    <clipPath id="clip0_1034_103591">
      <rect width="20" height="20.5" fill="white"/>
    </clipPath>
  </defs>
</svg>