<svg width="165" height="45" viewBox="0 0 165 45" fill="none" xmlns="http://www.w3.org/2000/svg">
<g id="Group 12043">
<g id="duvdu">
<path id="Vector" d="M147.279 29.1234V16.8171H151.374V28.1192C151.374 28.9987 151.591 29.7994 152.024 30.5214C152.457 31.2433 153.035 31.8209 153.757 32.2541C154.479 32.6741 155.273 32.8842 156.139 32.8842C157.019 32.8842 157.813 32.6741 158.522 32.2541C159.244 31.8209 159.815 31.2433 160.235 30.5214C160.668 29.7994 160.885 28.9987 160.885 28.1192V16.8171H164.98L165 36.5071H160.904L160.885 34.3806C160.215 35.1945 159.382 35.8377 158.384 36.3102C157.386 36.7828 156.317 37.0191 155.175 37.0191C153.717 37.0191 152.392 36.6646 151.197 35.9558C150.003 35.247 149.051 34.2953 148.342 33.1007C147.633 31.9062 147.279 30.5804 147.279 29.1234Z" fill="#D9D9D9"/>
<path id="Vector_2" d="M139.254 6.97205H143.35V36.5071H139.254V33.6127C138.611 34.6366 137.771 35.4635 136.734 36.0936C135.697 36.7106 134.483 37.0191 133.091 37.0191C131.66 37.0191 130.321 36.75 129.074 36.2118C127.827 35.6736 126.725 34.9319 125.766 33.9868C124.821 33.0285 124.08 31.9259 123.541 30.6789C123.003 29.4318 122.734 28.0929 122.734 26.6621C122.734 25.2313 123.003 23.8924 123.541 22.6453C124.08 21.3852 124.821 20.2825 125.766 19.3374C126.725 18.3791 127.827 17.6309 129.074 17.0927C130.321 16.5545 131.66 16.2854 133.091 16.2854C134.483 16.2854 135.697 16.6005 136.734 17.2306C137.771 17.8475 138.611 18.6614 139.254 19.6721V6.97205ZM133.13 33.0614C134.286 33.0614 135.296 32.7791 136.163 32.2147C137.029 31.6371 137.699 30.8626 138.171 29.8913C138.657 28.9199 138.9 27.8435 138.9 26.6621C138.9 25.4676 138.657 24.3846 138.171 23.4132C137.685 22.4419 137.009 21.6739 136.143 21.1095C135.29 20.5319 134.286 20.2431 133.13 20.2431C131.988 20.2431 130.945 20.5319 130 21.1095C129.068 21.6871 128.32 22.4616 127.755 23.4329C127.204 24.4043 126.928 25.4807 126.928 26.6621C126.928 27.8566 127.21 28.9396 127.775 29.911C128.352 30.8692 129.107 31.6371 130.039 32.2147C130.984 32.7791 132.015 33.0614 133.13 33.0614Z" fill="#D9D9D9"/>
<path id="Vector_3" d="M114.488 36.507H109.231L102.044 16.7776H106.415L111.85 31.7814L117.304 16.7776H121.655L114.488 36.507Z" fill="#D9D9D9"/>
<path id="Vector_4" d="M81.5557 29.1234V16.8171H85.6512V28.1192C85.6512 28.9987 85.8678 29.7994 86.301 30.5214C86.7341 31.2433 87.3117 31.8209 88.0337 32.2541C88.7557 32.6741 89.5498 32.8842 90.4162 32.8842C91.2957 32.8842 92.0898 32.6741 92.7987 32.2541C93.5206 31.8209 94.0917 31.2433 94.5117 30.5214C94.9449 29.7994 95.1615 28.9987 95.1615 28.1192V16.8171H99.257L99.2767 36.5071H95.1812L95.1615 34.3806C94.492 35.1945 93.6585 35.8377 92.6609 36.3102C91.6632 36.7828 90.5934 37.0191 89.4514 37.0191C87.9943 37.0191 86.6685 36.6646 85.474 35.9558C84.2795 35.247 83.3278 34.2953 82.6189 33.1007C81.9101 31.9062 81.5557 30.5804 81.5557 29.1234Z" fill="#D9D9D9"/>
<path id="Vector_5" d="M73.5307 6.97247H77.6262V36.5075H73.5307V33.6131C72.8875 34.637 72.0474 35.464 71.0104 36.0941C69.9734 36.711 68.7591 37.0195 67.3677 37.0195C65.9369 37.0195 64.598 36.7504 63.3509 36.2122C62.1039 35.674 61.0013 34.9323 60.043 33.9872C59.0979 33.029 58.3562 31.9263 57.818 30.6793C57.2798 29.4323 57.0107 28.0933 57.0107 26.6625C57.0107 25.2317 57.2798 23.8928 57.818 22.6458C58.3562 21.3856 59.0979 20.2829 60.043 19.3378C61.0013 18.3796 62.1039 17.6314 63.3509 17.0932C64.598 16.555 65.9369 16.2859 67.3677 16.2859C68.7591 16.2859 69.9734 16.6009 71.0104 17.231C72.0474 17.8479 72.8875 18.6618 73.5307 19.6726V6.97247ZM67.4071 33.0618C68.5622 33.0618 69.573 32.7796 70.4394 32.2151C71.3057 31.6375 71.9752 30.8631 72.4477 29.8917C72.9334 28.9203 73.1763 27.8439 73.1763 26.6625C73.1763 25.468 72.9334 24.385 72.4477 23.4137C71.9621 22.4423 71.286 21.6744 70.4197 21.1099C69.5664 20.5324 68.5622 20.2436 67.4071 20.2436C66.2651 20.2436 65.2215 20.5324 64.2764 21.1099C63.3444 21.6875 62.5962 22.462 62.0317 23.4334C61.4804 24.4047 61.2047 25.4811 61.2047 26.6625C61.2047 27.857 61.4869 28.94 62.0514 29.9114C62.629 30.8696 63.3838 31.6375 64.3157 32.2151C65.2609 32.7796 66.2913 33.0618 67.4071 33.0618Z" fill="#D9D9D9"/>
</g>
<g id="Mask group">
<mask id="mask0_1466_2821" style="mask-type:alpha" maskUnits="userSpaceOnUse" x="0" y="0" width="47" height="45">
<g id="Group 12033">
<path id="Vector 176" d="M45.5431 34.0688V31.7544L28.5508 40.3154L1.25928 37.1504L1.74951 38.5331C2.0704 39.4382 2.86498 40.092 3.81491 40.2325L27.5267 43.741C28.09 43.8243 28.665 43.7201 29.1631 43.4443L45.2756 34.5227C45.4406 34.4313 45.5431 34.2575 45.5431 34.0688Z" fill="#A561FF" stroke="#A561FF" stroke-width="0.51885"/>
<path id="Vector 177" d="M10.3514 26.307L14.3601 25.3465L15.1637 24.8796L25.423 25.4453L37.397 26.0577L41.9889 24.8796L46.0953 26.2404C46.3076 26.3108 46.451 26.5093 46.451 26.733V31.5487C46.451 32.1311 45.9717 32.5995 45.3895 32.5861L37.397 32.4029L28.7666 38.906C28.3601 39.2122 27.8553 39.3585 27.3481 39.3169L1.54455 37.2023L1.36218 36.6812C1.14484 36.0602 1.34138 35.3697 1.85312 34.9562L8.83438 29.3157L9.18664 27.5209C9.30394 26.9232 9.75907 26.4489 10.3514 26.307Z" stroke="#A561FF" stroke-width="1.0377"/>
<path id="Vector 178" d="M44.8881 24.4319L37.7153 26.1049C37.5948 26.133 37.4708 26.1437 37.3473 26.1367L12.0666 24.703C11.326 24.661 10.7715 24.0077 10.8502 23.2702L12.9282 3.81647C12.9938 3.20248 13.4832 2.71983 14.098 2.66269L36.1296 0.614876C36.4813 0.582184 36.8312 0.694346 37.0983 0.925451L44.7692 7.56155C45.0383 7.79435 45.1999 8.12747 45.2163 8.48291L45.8893 23.1091C45.918 23.7337 45.4971 24.2899 44.8881 24.4319Z" stroke="#A561FF" stroke-width="1.0377"/>
<path id="Vector 179" d="M35.4766 33.3891L28.0836 39.3035L2.7172 36.2843C2.26094 36.23 2.09523 35.6532 2.45309 35.365L10.0163 29.2738L8.86025 29.16L1.31099 35.3602L1.12939 36.372L2.73783 39.7186L16.0723 40.1077L28.0836 40.9897L46.1011 32.6952C46.485 32.5185 46.7234 32.1265 46.7037 31.7043L46.4509 26.2804L36.2555 28.3298V31.7685C36.2555 32.399 35.9689 32.9953 35.4766 33.3891Z" fill="#A561FF"/>
<path id="Subtract" fill-rule="evenodd" clip-rule="evenodd" d="M15.2444 8.06003V19.1162C15.2444 20.6317 15.7661 22.2251 17.8283 22.3709C19.796 22.51 26.9714 22.785 30.5491 22.9175C32.4373 23.0666 33.3814 22.1722 33.3814 20.4578C33.3814 20.0324 33.4124 18.2331 33.4505 16.0205C33.4982 13.2443 33.5572 9.81753 33.5802 7.63762C33.6033 5.45128 32.8597 4.53201 30.7727 4.53198C29.8326 4.53197 21.7621 4.92121 17.8283 5.20279C16.4121 5.30416 15.2444 5.57546 15.2444 8.06003ZM33.1554 10.3941C33.1554 8.80453 32.4249 6.83965 29.8972 6.65982C29.7097 6.64648 29.5353 6.63401 29.3723 6.62235C27.3371 6.47684 27.0732 6.45797 25.276 6.45796C23.6897 6.45796 21.0388 6.45796 19.8282 7.97259C18.6176 9.48721 19.1727 17.6979 19.3482 18.7092C19.5569 19.9121 19.8963 20.9696 21.7485 21.0036C23.0366 21.0272 24.2155 21.1069 25.2855 21.1792C30.5315 21.5339 33.1554 21.7113 33.1554 14.2294V10.3941Z" fill="#A561FF"/>
<path id="Vector 181" d="M36.2558 30.7944V29.9019C36.2558 29.4972 35.9456 29.16 35.5423 29.1263L10.8861 27.067C10.4543 27.0309 10.0802 27.3637 10.0658 27.7968L10.0166 29.2738H8.4254L9.10733 26.6218L9.86503 26.0914L14.487 25.0306L22.4429 25.6368L35.7529 28.2318C36.085 28.2965 36.4264 28.2957 36.7581 28.2294L37.6826 28.0445L36.2558 30.7944Z" fill="#A561FF"/>
<path id="Vector 183" d="M27.124 40.0557L28.3433 43.973" stroke="#A561FF" stroke-width="0.51885"/>
<path id="Subtract_2" fill-rule="evenodd" clip-rule="evenodd" d="M34.7581 25.47L34.751 26.2544L37.3452 26.436L45.3548 24.4807C45.8283 24.3651 46.1575 23.9356 46.1461 23.4483L45.7765 7.67957L36.9042 0.44162L35.2381 0.464136C35.0971 0.466041 34.9834 0.580199 34.9822 0.721188L34.9776 1.2258L35.2178 1.20461C35.9959 1.12997 36.622 1.08017 36.6443 2.00121C36.6703 3.07163 37.1804 17.4269 37.4744 24.7041C37.4834 24.9281 37.4367 25.6086 36.2553 25.5505C35.7706 25.5266 35.2382 25.497 34.7581 25.47Z" fill="#A561FF"/>
<path id="Vector 185" d="M25.6804 36.4697L7.04703 34.5653C6.82052 34.5422 6.73158 34.2593 6.90407 34.1107L9.92962 31.5041C10.1963 31.2743 10.5449 31.1628 10.8954 31.1951L29.7464 32.9333C29.9694 32.9539 30.0633 33.2285 29.8996 33.3813L27.1041 35.9906C26.7209 36.3483 26.2018 36.523 25.6804 36.4697Z" fill="#A561FF"/>
</g>
</mask>
<g mask="url(#mask0_1466_2821)">
<rect id="Rectangle 95" x="0.0808105" y="-1.35144" width="47.9278" height="46.3966" fill="#3183ED"/>
</g>
</g>
</g>
</svg>
