<svg xmlns="http://www.w3.org/2000/svg" width="61" height="61" viewBox="0 0 61 61" fill="none">
  <path d="M30.5 0C13.7978 0 0.1875 13.6103 0.1875 30.3125C0.1875 47.0147 13.7978 60.625 30.5 60.625C47.2022 60.625 60.8125 47.0147 60.8125 30.3125C60.8125 13.6103 47.2022 0 30.5 0ZM44.9894 23.3406L27.8022 40.5278C27.3778 40.9522 26.8019 41.1947 26.1956 41.1947C25.5894 41.1947 25.0134 40.9522 24.5891 40.5278L16.0106 31.9494C15.1316 31.0703 15.1316 29.6153 16.0106 28.7362C16.8897 27.8572 18.3447 27.8572 19.2238 28.7362L26.1956 35.7081L41.7763 20.1275C42.6553 19.2484 44.1103 19.2484 44.9894 20.1275C45.8684 21.0066 45.8684 22.4313 44.9894 23.3406Z" fill="#50C878"/>
</svg>