<svg width="226" height="225" viewBox="0 0 226 225" fill="none" xmlns="http://www.w3.org/2000/svg">
<path d="M110.845 220.213C167.154 220.213 212.802 174.566 212.802 118.257C212.802 61.948 167.154 16.3005 110.845 16.3005C54.5364 16.3005 8.88892 61.948 8.88892 118.257C8.88892 174.566 54.5364 220.213 110.845 220.213Z" fill="url(#paint0_linear_4923_14611)"/>
<path d="M161.402 29.6339H58.7374C54.9174 29.6339 51.2538 31.1513 48.5526 33.8525C45.8515 36.5537 44.334 40.2172 44.334 44.0373V161.025H44.51V202.107C44.5099 203.693 44.9163 205.253 45.6904 206.637C46.4645 208.022 47.5805 209.185 48.9319 210.015C50.2833 210.846 51.825 211.316 53.4099 211.382C54.9948 211.447 56.57 211.105 57.9852 210.389L105.34 186.383C106.631 185.736 108.054 185.399 109.497 185.399C110.941 185.399 112.364 185.736 113.654 186.383L162.466 210.565C163.882 211.266 165.454 211.595 167.032 211.519C168.611 211.443 170.144 210.965 171.487 210.131C172.829 209.297 173.936 208.134 174.703 206.752C175.47 205.37 175.871 203.815 175.869 202.235L175.741 161.025V43.9972C175.73 40.1952 174.217 36.5516 171.531 33.8609C168.845 31.1702 165.204 29.6507 161.402 29.6339Z" fill="url(#paint1_linear_4923_14611)"/>
<path d="M225.778 67.5226C225.781 70.6362 224.652 73.6448 222.601 75.9873C220.55 78.3298 217.717 79.8464 214.63 80.2543C214.066 80.3262 213.498 80.3632 212.929 80.3649H170.211C169.284 80.3629 168.359 80.2866 167.445 80.1367C163.518 79.4592 159.981 77.3531 157.514 74.224C155.047 71.0949 153.825 67.1638 154.082 63.1875C154.34 59.2112 156.059 55.4706 158.909 52.6859C161.759 49.9011 165.538 48.269 169.52 48.1036C171.583 43.6232 175.047 39.9352 179.39 37.5961C183.733 35.2569 188.719 34.3934 193.595 35.1358C198.472 35.8781 202.975 38.1861 206.425 41.7116C209.875 45.2371 212.085 49.7889 212.721 54.6803H212.915C214.603 54.6776 216.275 55.0078 217.836 55.6519C219.396 56.2961 220.815 57.2416 222.009 58.4344C223.204 59.6272 224.152 61.0438 224.799 62.6033C225.445 64.1627 225.778 65.8344 225.778 67.5226Z" fill="url(#paint2_linear_4923_14611)"/>
<path d="M8.55566 42.3699C8.55566 44.9377 9.57571 47.4003 11.3914 49.216C13.2071 51.0317 15.6697 52.0518 18.2375 52.0518H50.3813C53.5484 52.035 56.5838 50.7824 58.8409 48.5606C61.098 46.3389 62.3984 43.3236 62.4651 40.1572C62.5318 36.9908 61.3596 33.9234 59.1981 31.6086C57.0365 29.2937 54.0566 27.9143 50.8931 27.7642C49.3328 24.4034 46.7245 21.6395 43.4598 19.8873C40.195 18.135 36.45 17.489 32.7869 18.0463C29.1238 18.6036 25.7403 20.334 23.1443 22.9778C20.5483 25.6216 18.88 29.0362 18.3897 32.7088H18.2444C15.679 32.707 13.2178 33.7234 11.4012 35.5348C9.58459 37.3462 8.56116 39.8045 8.55566 42.3699Z" fill="url(#paint3_linear_4923_14611)"/>
<g filter="url(#filter0_f_4923_14611)">
<ellipse cx="114.322" cy="138.238" rx="46.3469" ry="9.93147" fill="#488FEF"/>
</g>
<path d="M113.878 52.5673L125.273 75.6527C125.611 76.3372 126.11 76.9293 126.728 77.3781C127.345 77.8269 128.063 78.119 128.818 78.2293L154.288 81.9022C155.15 82.0343 155.959 82.4032 156.624 82.9678C157.29 83.5324 157.785 84.2706 158.055 85.1002C158.326 85.9297 158.361 86.818 158.156 87.6662C157.952 88.5143 157.515 89.2891 156.897 89.9041L138.492 107.868C137.945 108.401 137.536 109.059 137.3 109.785C137.064 110.512 137.009 111.285 137.14 112.037L141.493 137.403C141.642 138.271 141.546 139.162 141.214 139.977C140.883 140.793 140.33 141.499 139.618 142.016C138.906 142.533 138.063 142.841 137.186 142.904C136.308 142.967 135.43 142.783 134.651 142.372L111.87 130.37C111.194 130.015 110.441 129.83 109.677 129.83C108.914 129.83 108.161 130.015 107.485 130.37L84.7035 142.372C83.9252 142.78 83.0483 142.963 82.1719 142.899C81.2955 142.835 80.4544 142.527 79.7437 142.01C79.033 141.493 78.4809 140.788 78.1498 139.974C77.8187 139.16 77.7218 138.269 77.8699 137.403L82.215 112.037C82.3455 111.285 82.2905 110.512 82.0549 109.785C81.8192 109.059 81.41 108.401 80.8626 107.868L62.4583 89.9041C61.8394 89.2891 61.4034 88.5143 61.1988 87.6662C60.9942 86.818 61.0291 85.9297 61.2995 85.1002C61.5699 84.2706 62.0653 83.5324 62.7305 82.9678C63.3956 82.4032 64.2045 82.0343 65.0669 81.9022L90.5369 78.2053C91.2923 78.095 92.0095 77.8029 92.627 77.3541C93.2445 76.9052 93.7437 76.3132 94.0818 75.6287L105.476 52.5433C105.873 51.7691 106.476 51.1198 107.219 50.6671C107.961 50.2145 108.815 49.9762 109.685 49.9787C110.555 49.9812 111.407 50.2243 112.147 50.6812C112.887 51.1381 113.486 51.7908 113.878 52.5673Z" fill="url(#paint4_linear_4923_14611)"/>
<path d="M1.68233e-05 166.157C-0.00151629 169.258 1.12427 172.253 3.16762 174.586C5.21097 176.918 8.03251 178.428 11.1065 178.834C11.6656 178.911 12.2294 178.951 12.7939 178.951H55.3249C56.2517 178.95 57.1768 178.873 58.0912 178.723C62.0233 178.068 65.5722 175.976 68.049 172.853C70.5259 169.73 71.7543 165.798 71.4959 161.82C71.2374 157.842 69.5105 154.102 66.6502 151.325C63.79 148.549 60.0003 146.934 56.0165 146.794C53.9592 142.335 50.5086 138.666 46.1846 136.339C41.8606 134.012 36.8975 133.153 32.043 133.892C27.1886 134.631 22.7057 136.927 19.27 140.436C15.8343 143.944 13.6319 148.474 12.9945 153.343H12.7939C11.112 153.343 9.44668 153.674 7.8931 154.318C6.33952 154.963 4.92821 155.907 3.73992 157.097C2.55162 158.287 1.60966 159.7 0.967933 161.255C0.326201 162.81 -0.00271052 164.475 1.68233e-05 166.157Z" fill="url(#paint5_linear_4923_14611)"/>
<path d="M191.576 95.4524C191.296 94.3549 192.309 93.366 193.4 93.6724L200.76 95.7407C201.85 96.0471 202.2 97.419 201.39 98.2101L195.918 103.55C195.108 104.341 193.745 103.958 193.465 102.861L191.576 95.4524Z" fill="#A3C7F7"/>
<path d="M21.6373 95.4524C21.3575 94.3549 22.3707 93.366 23.4611 93.6724L30.8212 95.7407C31.9116 96.0471 32.2614 97.419 31.4508 98.2101L25.9795 103.55C25.169 104.341 23.806 103.958 23.5262 102.861L21.6373 95.4524Z" fill="#A3C7F7"/>
<path d="M78.7651 7.41044C79.2 5.60872 81.7628 5.60873 82.1977 7.41044L83.6615 13.4744C83.8169 14.1182 84.3196 14.6209 84.9635 14.7764L91.0274 16.2402C92.8291 16.6751 92.8291 19.2378 91.0274 19.6728L84.9635 21.1366C84.3196 21.292 83.8169 21.7947 83.6615 22.4386L82.1977 28.5025C81.7628 30.3042 79.2 30.3042 78.7651 28.5025L77.3013 22.4386C77.1459 21.7947 76.6432 21.292 75.9993 21.1366L69.9354 19.6728C68.1336 19.2378 68.1336 16.6751 69.9354 16.2402L75.9993 14.7764C76.6432 14.6209 77.1459 14.1182 77.3013 13.4744L78.7651 7.41044Z" fill="#A3C7F7"/>
<path d="M118.368 201.872C118.368 204.107 116.557 205.919 114.322 205.919C112.088 205.919 110.276 204.107 110.276 201.872C110.276 199.638 112.088 197.826 114.322 197.826C116.557 197.826 118.368 199.638 118.368 201.872Z" stroke="#A3C7F7" stroke-width="2.20699"/>
<path d="M190.586 168.521C191.021 166.719 193.584 166.719 194.019 168.521L195.483 174.585C195.638 175.229 196.141 175.732 196.785 175.887L202.849 177.351C204.65 177.786 204.65 180.349 202.849 180.783L196.785 182.247C196.141 182.403 195.638 182.905 195.483 183.549L194.019 189.613C193.584 191.415 191.021 191.415 190.586 189.613L189.123 183.549C188.967 182.905 188.464 182.403 187.821 182.247L181.757 180.783C179.955 180.349 179.955 177.786 181.757 177.351L187.821 175.887C188.464 175.732 188.967 175.229 189.123 174.585L190.586 168.521Z" fill="#A3C7F7"/>
<circle cx="197.452" cy="143.019" r="4.04615" stroke="#488FEF" stroke-width="2.20699"/>
<defs>
<filter id="filter0_f_4923_14611" x="49.5837" y="109.915" width="129.477" height="56.6462" filterUnits="userSpaceOnUse" color-interpolation-filters="sRGB">
<feFlood flood-opacity="0" result="BackgroundImageFix"/>
<feBlend mode="normal" in="SourceGraphic" in2="BackgroundImageFix" result="shape"/>
<feGaussianBlur stdDeviation="9.19581" result="effect1_foregroundBlur_4923_14611"/>
</filter>
<linearGradient id="paint0_linear_4923_14611" x1="110.059" y1="-16.899" x2="112.148" y2="341.157" gradientUnits="userSpaceOnUse">
<stop stop-color="#76ABF3" stop-opacity="0"/>
<stop offset="1" stop-color="#76ABF3"/>
</linearGradient>
<linearGradient id="paint1_linear_4923_14611" x1="188.444" y1="218.523" x2="50.1753" y2="79.2063" gradientUnits="userSpaceOnUse">
<stop stop-color="#76ABF3"/>
<stop offset="1" stop-color="#A3C7F7"/>
</linearGradient>
<linearGradient id="paint2_linear_4923_14611" x1="212.166" y1="99.9831" x2="176.486" y2="34.8767" gradientUnits="userSpaceOnUse">
<stop stop-color="#76ABF3"/>
<stop offset="1" stop-color="#D1E3FB"/>
</linearGradient>
<linearGradient id="paint3_linear_4923_14611" x1="52.2368" y1="66.8017" x2="25.4062" y2="17.859" gradientUnits="userSpaceOnUse">
<stop stop-color="#76ABF3"/>
<stop offset="1" stop-color="#D1E3FB"/>
</linearGradient>
<linearGradient id="paint4_linear_4923_14611" x1="68.9113" y1="74.9126" x2="243" y2="142.831" gradientUnits="userSpaceOnUse">
<stop stop-color="#488FEF"/>
<stop offset="0.70369" stop-color="#441AEB"/>
</linearGradient>
<linearGradient id="paint5_linear_4923_14611" x1="57.9555" y1="198.496" x2="22.4283" y2="133.605" gradientUnits="userSpaceOnUse">
<stop stop-color="#76ABF3"/>
<stop offset="1" stop-color="#D1E3FB"/>
</linearGradient>
</defs>
</svg>
